<?xml version="1.0" standalone="no"?>
<!DOCTYPE svg PUBLIC "-//W3C//DTD SVG 1.1//EN" "http://www.w3.org/Graphics/SVG/1.1/DTD/svg11.dtd" >
<svg xmlns="http://www.w3.org/2000/svg" xmlns:xlink="http://www.w3.org/1999/xlink" version="1.1">
<metadata></metadata>
<defs>
<font id="panameraregular" horiz-adv-x="1228" >
<font-face units-per-em="2048" ascent="1638" descent="-410" />
<missing-glyph horiz-adv-x="573" />
<glyph unicode="&#xfb01;" horiz-adv-x="1232" d="M6 819v205h176q-53 69 -53 178q0 57 22.5 112.5t66.5 104.5t119.5 79t170.5 30q91 0 165.5 -32t102.5 -62h309v-242h-335q-17 26 -27 39.5t-34 39.5t-46.5 40t-58.5 25.5t-76 11.5q-76 0 -137.5 -40.5t-61.5 -111.5q0 -23 6 -47t20 -50.5t42 -46.5t67 -28h641v-1024h-221 v819h-452v-819h-222l3 819h-187z" />
<glyph unicode="&#xfb02;" horiz-adv-x="1382" d="M6 819v205h168q-82 60 -82 180q0 55 28.5 111.5t79 104.5t131.5 78t177 30q64 0 122.5 -14t100.5 -35t79.5 -50t60.5 -53.5t42 -50.5l-180 -108q-7 13 -21.5 31t-41.5 42.5t-70 41t-92 16.5q-76 0 -137.5 -40.5t-61.5 -111.5q0 -51 30.5 -99t104.5 -73h299v-205h-331 v-819h-222l3 819h-187zM1038 0v1434h222v-1434h-222z" />
<glyph horiz-adv-x="0" />
<glyph horiz-adv-x="682" />
<glyph unicode=" "  horiz-adv-x="573" />
<glyph unicode="&#x09;" horiz-adv-x="573" />
<glyph unicode="&#xa0;" horiz-adv-x="573" />
<glyph unicode="!" horiz-adv-x="634" d="M182 -2v270h271v-270h-271zM182 1194v301h271v-301l-43 -778h-185z" />
<glyph unicode="&#x22;" horiz-adv-x="1318" d="M225 1536h271l-23 -557h-225zM664 1536h270l-23 -557h-225z" />
<glyph unicode="#" horiz-adv-x="1685" d="M72 354v213h284l122 367h-281v211h352l133 397h227l-133 -397h414l133 397h227l-133 -397h234v-211h-304l-123 -367h279v-213h-350l-121 -360h-227l120 360h-413l-121 -360h-227l120 360h-212zM583 567h414l122 367h-413z" />
<glyph unicode="$" horiz-adv-x="1323" d="M102 387l207 105q45 -227 225 -288v502q-309 130 -309 369q0 124 85 220.5t224 134.5v217h126v-198q4 0 13.5 0.5t14.5 0.5q27 0 41 -1v198h125v-218q119 -31 196.5 -106t94.5 -188l-221 -58q0 93 -70 141v-410q57 -20 103.5 -41.5t98 -55.5t86 -73.5t57 -95t22.5 -120.5 q0 -154 -93.5 -269.5t-273.5 -152.5v-207h-125v193h-31h-38v-193h-126v208q-324 63 -432 386zM451 1075q0 -83 83 -142v287q-83 -52 -83 -145zM660 181q13 -1 38 -1q6 0 16 0.5t15 0.5v460l-69 21v-481zM660 870q12 -4 61 -20q2 0 4 -1l4 -2v411q-13 1 -41 1q-19 0 -28 -1 v-388zM854 205q139 54 139 217q0 60 -36 100.5t-103 71.5v-389z" />
<glyph unicode="%" horiz-adv-x="1730" d="M47 1049q0 193 93 313.5t253 120.5q159 0 254.5 -121t95.5 -313q0 -190 -95.5 -310.5t-254.5 -120.5q-160 0 -253 120t-93 311zM221 -80l985 1563h250l-987 -1563h-248zM236 1049q0 -119 41.5 -181.5t115.5 -62.5q76 0 119 62.5t43 181.5q0 122 -42.5 183.5t-119.5 61.5 q-74 0 -115.5 -61.5t-41.5 -183.5zM1001 416q0 193 93.5 313.5t253.5 120.5q159 0 254.5 -121t95.5 -313q0 -190 -95.5 -310t-254.5 -120q-160 0 -253.5 119.5t-93.5 310.5zM1190 416q0 -119 42 -181.5t116 -62.5q76 0 118.5 62t42.5 182q0 122 -42 184t-119 62 q-74 0 -116 -62t-42 -184z" />
<glyph unicode="&#x26;" horiz-adv-x="1822" d="M41 444q0 85 30.5 155t87.5 121.5t120 87.5t147 70q-92 184 -92 300q0 67 24.5 125t67.5 100.5t100 73.5t123.5 46t136.5 15q180 0 298 -102.5t118 -247.5q0 -50 -15 -93.5t-37 -76.5t-61.5 -63.5t-74.5 -51t-91 -43.5t-95 -36.5t-102 -33.5q162 -250 371 -457 q105 188 105 556h246q0 -431 -198 -691q138 -104 220 -104q56 0 89 23t33 64q0 81 -122 196l173 119q138 -165 138 -318q0 -119 -86 -193.5t-225 -74.5q-151 0 -358 150q-196 -150 -442 -150q-134 0 -252.5 43t-200.5 115.5t-129 170.5t-47 205zM266 444q0 -150 113 -243.5 t291 -93.5q181 0 292 75q-123 112 -239.5 252.5t-205.5 282.5q-120 -49 -185.5 -112.5t-65.5 -160.5zM559 1178q0 -82 74 -227q69 23 108.5 37.5t91 38t78.5 45t46.5 51.5t19.5 65q0 72 -50.5 119t-140.5 47q-101 0 -164 -45t-63 -131z" />
<glyph unicode="'" horiz-adv-x="700" d="M225 1536h271l-23 -557h-225z" />
<glyph unicode="(" horiz-adv-x="763" d="M162 637q7 517 330 938h213q-53 -70 -99.5 -157t-90.5 -203.5t-70.5 -267t-28.5 -314.5q7 -523 289 -934h-213q-48 70 -84.5 129t-85 156t-80 189.5t-55 215.5t-25.5 248z" />
<glyph unicode=")" horiz-adv-x="763" d="M59 -301q282 411 289 934q-2 164 -28.5 314.5t-70.5 267t-90.5 203.5t-99.5 157h213q323 -421 330 -938q-2 -125 -25.5 -248t-55 -215.5t-80 -189.5t-85 -156t-84.5 -129h-213z" />
<glyph unicode="*" d="M287 1087l180 59l-180 58l22 76l180 -58l-112 152l63 45l115 -156v193h74v-192l112 155l64 -45l-113 -155l182 59l23 -72l-180 -58l180 -58l-23 -76l-179 58l112 -152l-64 -46l-114 157v-193h-74v192l-113 -156l-63 46l113 155l-183 -59z" />
<glyph unicode="+" horiz-adv-x="1312" d="M113 436v205h442v438h205v-438h440v-205h-440v-436h-205v436h-442z" />
<glyph unicode="," horiz-adv-x="737" d="M141 -2v270h271v-270q0 -33 -11 -75.5t-35 -94t-73.5 -94.5t-116.5 -60v119q61 37 77.5 84.5t16.5 120.5h-129z" />
<glyph unicode="-" horiz-adv-x="1058" d="M98 430v205h863v-205h-863z" />
<glyph unicode="." horiz-adv-x="606" d="M141 -2v270h271v-270h-271z" />
<glyph unicode="/" horiz-adv-x="845" d="M59 -244l512 1727h215l-512 -1727h-215z" />
<glyph unicode="0" horiz-adv-x="1335" d="M61 713q0 164 40.5 299.5t116.5 232.5t190.5 151t257.5 54q191 0 329.5 -93.5t208.5 -259t70 -384.5t-70 -384.5t-208.5 -259.5t-329.5 -94q-190 0 -328 94t-207.5 259.5t-69.5 384.5zM287 713q0 -261 100.5 -403t278.5 -142q179 0 281 142.5t102 402.5t-102 402 t-281 142q-178 0 -278.5 -142t-100.5 -402z" />
<glyph unicode="1" horiz-adv-x="772" d="M102 1130v160q45 -6 85 -6q102 0 161.5 40t59.5 110h221v-1434h-221v1130h-306z" />
<glyph unicode="2" horiz-adv-x="1099" d="M61 0l2 193q27 43 82 94t119.5 99.5t137 103t138.5 114.5t120 124.5t86 141.5t32 157q0 111 -61.5 178t-167.5 67q-114 0 -167.5 -48.5t-53.5 -125.5l-224 -21q-1 11 -1 33q0 153 123 251.5t323 98.5q219 0 334.5 -116t115.5 -305q0 -101 -28.5 -190t-76 -156.5 t-106 -125.5t-123 -106t-121.5 -87.5t-107.5 -80.5t-74.5 -76h676v-217h-977z" />
<glyph unicode="3" horiz-adv-x="1099" d="M41 442h219q0 -276 281 -276q68 0 130 31t105 95.5t43 149.5q0 130 -71 202.5t-187 72.5q-49 0 -117 -19l-110 133l387 416h-608v187h901v-187l-367 -375q80 -6 149.5 -37t124 -83.5t86 -132.5t31.5 -177q0 -106 -44.5 -195.5t-116 -146.5t-159 -88.5t-177.5 -31.5 q-106 0 -196 28.5t-158.5 84.5t-107 145.5t-38.5 203.5z" />
<glyph unicode="4" horiz-adv-x="1263" d="M90 393l2 199l678 842h180v-842h232v-201l-232 1v-392h-221v392zM352 592h377v475z" />
<glyph unicode="5" d="M125 442h219q0 -129 80 -202.5t199 -73.5t203.5 79t84.5 208q0 141 -82.5 213.5t-205.5 72.5t-193 -90h-221v785h846v-222h-625v-325q90 39 193 39q98 0 187.5 -30.5t161.5 -88t115 -149.5t43 -205q0 -141 -74 -251t-188.5 -166t-244.5 -56q-97 0 -186 31.5t-159 89 t-111.5 146.5t-41.5 195z" />
<glyph unicode="6" horiz-adv-x="1120" d="M59 444q0 140 72 250l463 740h270l-327 -527h20q97 0 186.5 -32t159.5 -90t112 -147.5t42 -195.5t-41.5 -195t-111.5 -146.5t-159 -89t-186 -31.5q-130 0 -242.5 53.5t-185 161.5t-72.5 249zM281 442q0 -129 78.5 -201.5t197.5 -72.5t199 73.5t80 202.5t-79 202t-198 73 t-198.5 -74t-79.5 -203z" />
<glyph unicode="7" horiz-adv-x="1032" d="M74 0l589 1212h-569v222h918l-676 -1434h-262z" />
<glyph unicode="8" horiz-adv-x="1079" d="M41 446q0 120 55.5 213.5t151.5 152.5q-125 103 -125 265q0 87 37.5 159t98 116t133 68t147.5 24t148 -24t133.5 -69t98 -117t37.5 -159q0 -163 -124 -265q95 -59 150.5 -152.5t55.5 -213.5q0 -103 -41.5 -188.5t-111 -140.5t-158.5 -85t-186 -30t-186.5 30.5t-159.5 86 t-112 141t-42 188.5zM262 444q0 -124 79 -194t198 -70t198.5 71t79.5 195q0 123 -78.5 194t-197.5 71t-199 -72t-80 -195zM344 1075q0 -82 55.5 -133t139.5 -51q85 0 140.5 51.5t55.5 134.5q0 92 -58.5 139.5t-135.5 47.5t-137 -48.5t-60 -140.5z" />
<glyph unicode="9" d="M137 1014q0 135 72 238.5t184 154.5t242 51t242.5 -51.5t185 -155.5t72.5 -239q0 -132 -68 -235l-469 -777h-270l353 569q-30 -2 -44 -2q-131 0 -243 51.5t-184.5 155.5t-72.5 240zM358 1012q0 -124 79 -194t198 -70t198.5 71t79.5 195q0 123 -78.5 193.5t-197.5 70.5 t-199 -71.5t-80 -194.5z" />
<glyph unicode=":" horiz-adv-x="552" d="M140 -4v272h273v-272h-273zM141 813v270h271v-270h-271z" />
<glyph unicode=";" horiz-adv-x="788" d="M152 2v270h270v-270q0 -33 -11 -75.5t-35 -94t-73.5 -94.5t-116.5 -60v119q61 37 78 85t17 120h-129zM193 788v271h270v-271h-270z" />
<glyph unicode="&#x3c;" d="M51 588l1090 598v-252l-682 -346l682 -346v-254z" />
<glyph unicode="=" d="M78 246h1067v205h-1067v-205zM78 635h1067v205h-1067v-205z" />
<glyph unicode="&#x3e;" d="M92 -12v254l682 346l-682 346v252l1090 -598z" />
<glyph unicode="?" horiz-adv-x="1026" d="M119 1184q39 133 165 212t277 79q99 0 178 -27.5t128.5 -74t75.5 -105.5t26 -125q0 -53 -21 -98t-51 -74t-75.5 -55.5t-82 -40.5t-84.5 -32t-69 -28q-57 -26 -87 -56.5t-30 -82.5q0 -46 27.5 -74.5t74.5 -28.5q43 0 75.5 30t31.5 81l182 -57q-42 -120 -115.5 -176 t-183.5 -56q-58 0 -112.5 17.5t-99.5 51t-72 88.5t-27 124q0 44 12.5 82.5t37 68.5t48 52t61 42.5t59 30.5t56.5 25q22 9 59 23.5t53.5 21t41 18t35 20t23 21t16.5 26.5t4 32q0 68 -52.5 109.5t-142.5 41.5q-112 0 -183 -67t-87 -166zM428 -2v270h270v-270h-270z" />
<glyph unicode="@" horiz-adv-x="2064" d="M102 477q0 155 42.5 298.5t124.5 261.5t194 205.5t258.5 136t310.5 48.5t310.5 -48.5t258.5 -136t194 -205.5t124.5 -261.5t42.5 -298.5q0 -224 -102 -363t-293 -139q-108 0 -183.5 51t-108.5 135q-107 -186 -347 -186q-184 0 -285.5 85t-101.5 227q0 263 428 307 q129 13 197 52t68 91q0 45 -50 87q-49 36 -137 36q-46 0 -81.5 -15.5t-53 -37.5t-30 -46.5t-12 -43t1.5 -27.5l-243 2q-5 27 -5 47q0 124 125.5 214.5t297.5 90.5q81 0 146.5 -15t109.5 -39t76.5 -60t50.5 -71.5t28.5 -80t13.5 -79.5t3 -76v-349q0 -42 27 -68t79 -26 q61 0 96 65.5t35 231.5q0 211 -83 377.5t-238.5 261t-358.5 94.5q-202 0 -357.5 -94.5t-239 -261t-83.5 -377.5q0 -208 83 -371.5t238.5 -256.5t358.5 -93q290 0 451 140l166 -158q-232 -201 -617 -201q-204 0 -379.5 74.5t-295 202t-187.5 299.5t-68 364zM772 297 q0 -28 9 -54.5t28.5 -52.5t57 -41.5t89.5 -15.5q60 0 112.5 19t94.5 58t66 105t24 152v81q-98 -71 -274 -93q-94 -11 -150.5 -52.5t-56.5 -105.5z" />
<glyph unicode="A" horiz-adv-x="1548" d="M61 0l582 1434h262l582 -1434h-242l-153 381h-635l-154 -381h-242zM534 573h480l-240 596z" />
<glyph unicode="B" horiz-adv-x="1173" d="M82 0v1434h391q89 0 162 -17t135.5 -54.5t97.5 -106.5t35 -164q0 -134 -71 -220q148 -44 227.5 -149t79.5 -268q0 -113 -41.5 -201t-116 -143t-173.5 -83t-218 -28h-508zM303 201h248q344 0 344 254q0 135 -88.5 200.5t-245.5 65.5h-258v-520zM303 903h164q109 0 162 45 t53 123q0 77 -52.5 119.5t-156.5 42.5h-170v-330z" />
<glyph unicode="C" horiz-adv-x="1480" d="M102 713q0 150 52 283.5t144 232.5t226.5 157t292.5 58q197 0 352.5 -83t249.5 -231l-207 -104q-63 104 -166.5 160.5t-228.5 56.5q-207 0 -340 -149.5t-133 -380.5q0 -228 132.5 -375.5t340.5 -147.5q122 0 224 53.5t165 151.5l209 -100q-92 -144 -247 -224.5 t-351 -80.5q-209 0 -373.5 98t-253 262.5t-88.5 362.5z" />
<glyph unicode="D" horiz-adv-x="1282" d="M82 0v1434h369q125 0 237 -24.5t212.5 -79.5t173 -136.5t115 -203t42.5 -271.5q0 -148 -38 -268t-105.5 -203t-162 -139.5t-205 -82.5t-237.5 -26h-401zM303 201h180q250 0 383 124t133 394q0 139 -41 240.5t-116.5 160t-172 86t-218.5 27.5h-148v-1032z" />
<glyph unicode="E" horiz-adv-x="1296" d="M102 0v1434h1096v-222h-874v-368h854v-221h-854v-402h895v-221h-1117z" />
<glyph unicode="F" horiz-adv-x="1290" d="M102 0v1434h1096v-222h-874v-368h854v-221h-854v-623h-222z" />
<glyph unicode="G" horiz-adv-x="1591" d="M102 713q0 149 53 283t146 233t228.5 157t293.5 58q197 0 349 -83t247 -231l-207 -104q-63 104 -164 160.5t-225 56.5q-207 0 -343 -150t-136 -380q0 -234 125.5 -378.5t351.5 -144.5q92 0 166 24t121.5 63.5t79 93.5t44.5 111.5t13 119.5v23h-448v200h669v-825h-200v184 l-3 6q-80 -92 -192.5 -146t-251.5 -54q-169 0 -306 56.5t-226 155t-137 229.5t-48 282z" />
<glyph unicode="H" horiz-adv-x="1435" d="M102 0v1434h222v-572h788v572h221v-1434h-221v641h-788v-641h-222z" />
<glyph unicode="I" horiz-adv-x="507" d="M143 0v1434h222v-1434h-222z" />
<glyph unicode="J" horiz-adv-x="1189" d="M49 231l187 129q12 -33 24 -56.5t34 -50.5t49 -43.5t70.5 -28t98.5 -11.5q131 0 211 84t80 248v932h221l2 -932q0 -128 -40 -229.5t-110.5 -166t-163 -98t-200.5 -33.5q-345 0 -463 256z" />
<glyph unicode="K" horiz-adv-x="1308" d="M102 0v1434h222v-654l598 654h272l-511 -559l574 -875h-262l-467 706l-204 -224v-482h-222z" />
<glyph unicode="L" horiz-adv-x="1191" d="M102 0v1434h222v-1213h804v-221h-1026z" />
<glyph unicode="M" horiz-adv-x="1814" d="M102 0v1434h293l512 -1191l512 1191h293v-1434h-221v1023l-453 -1023h-262l-452 1020v-1020h-222z" />
<glyph unicode="N" horiz-adv-x="1280" d="M102 0v1434h222l653 -1042v1042h221v-1434h-231l-643 1020v-1020h-222z" />
<glyph unicode="O" horiz-adv-x="1634" d="M102 713q0 150 52 283.5t144 232.5t226.5 157t292.5 58t292.5 -58t226.5 -157t144 -232.5t52 -283.5q0 -198 -88 -362.5t-252.5 -262.5t-374.5 -98q-209 0 -373.5 98t-253 262.5t-88.5 362.5zM324 713q0 -230 135.5 -376.5t357.5 -146.5t358 146.5t136 376.5 q0 233 -136 381.5t-358 148.5q-221 0 -357 -149t-136 -381z" />
<glyph unicode="P" horiz-adv-x="1005" d="M82 0v1434h418q64 0 124.5 -12.5t119.5 -42.5t102.5 -75t70.5 -115.5t27 -158.5q0 -90 -26 -160.5t-69.5 -115t-103.5 -74t-123.5 -41.5t-134.5 -12h-184v-627h-221zM303 821h184q114 0 175 52.5t61 156.5q0 103 -60 153t-169 50h-191v-412z" />
<glyph unicode="Q" horiz-adv-x="1642" d="M102 713q0 149 51.5 283t141.5 233t221 157t281 58q200 0 360 -99t247 -265.5t87 -366.5q0 -262 -150 -459l277 -254h-303l-121 112q-174 -122 -397 -122q-199 0 -359.5 98t-248 262.5t-87.5 362.5zM324 713q0 -228 132.5 -375.5t340.5 -147.5q135 0 243 66l-397 371h293 l248 -228q86 134 86 314q0 231 -132.5 380.5t-340.5 149.5q-207 0 -340 -149.5t-133 -380.5z" />
<glyph unicode="R" horiz-adv-x="1257" d="M82 0v1434h453q65 0 123 -10t115.5 -36t99 -66t67 -104.5t25.5 -146.5q0 -255 -203 -347l475 -724h-262l-449 678h-6l-217 -2v-676h-221zM303 862h225q98 0 156.5 50t58.5 139q0 88 -57 135t-151 47h-232v-371z" />
<glyph unicode="S" horiz-adv-x="1323" d="M102 387l207 105q30 -149 121 -230.5t268 -81.5q151 0 223 65t72 177q0 40 -18.5 73t-43 54t-72.5 43t-81.5 33.5t-96.5 30.5q-5 2 -8.5 3t-8.5 2.5t-9 2.5q-209 62 -319.5 166t-110.5 245q0 158 133.5 266.5t329.5 108.5q115 0 211.5 -34t163.5 -106.5t82 -174.5 l-221 -58q0 88 -61.5 135.5t-174.5 47.5q-106 0 -171.5 -53t-65.5 -132q0 -72 64.5 -127.5t205.5 -97.5q168 -51 241 -85q259 -122 259 -343q0 -89 -32 -166t-94.5 -138t-164.5 -96.5t-232 -35.5q-461 0 -596 401z" />
<glyph unicode="T" horiz-adv-x="1382" d="M41 1212v222h1300v-222h-538v-1212h-221v1212h-541z" />
<glyph unicode="U" horiz-adv-x="1335" d="M102 461l2 973h222v-973q0 -149 82.5 -220t228.5 -71t228.5 71t82.5 220v973h221l2 -973q0 -121 -40.5 -215t-112.5 -152.5t-168.5 -88.5t-212.5 -30q-156 0 -274.5 51.5t-189.5 163t-71 271.5z" />
<glyph unicode="V" horiz-adv-x="1288" d="M27 1434h221l395 -1159l397 1159h222l-492 -1434h-254z" />
<glyph unicode="W" horiz-adv-x="1683" d="M47 1434h221l217 -1042l256 1021h193l257 -1025l224 1046h221l-327 -1434h-222l-249 1039l-250 -1039h-221z" />
<glyph unicode="X" horiz-adv-x="1521" d="M35 0l602 768l-510 666h274l384 -498l395 498h282l-537 -679l582 -755h-280l-450 586l-462 -586h-280z" />
<glyph unicode="Y" horiz-adv-x="1329" d="M31 1434h231l402 -614l403 614h231l-524 -805v-629h-221v629z" />
<glyph unicode="Z" horiz-adv-x="1136" d="M20 0v221l808 991h-760v222h1048v-222l-809 -991h801v-221h-1088z" />
<glyph unicode="[" horiz-adv-x="1024" d="M301 -309v1976h524v-227h-288v-1522h288v-227h-524z" />
<glyph unicode="\" d="M238 1483h215l512 -1727h-215z" />
<glyph unicode="]" horiz-adv-x="1024" d="M301 -82h289v1522h-289v227h524v-1976h-524v227z" />
<glyph unicode="^" d="M168 483l455 895l454 -895h-200l-254 511l-254 -511h-201z" />
<glyph unicode="_" d="M16 -137h1184v-225h-1184v225z" />
<glyph unicode="`" d="M324 1358l125 207l376 -353l-180 -55z" />
<glyph unicode="a" horiz-adv-x="1077" d="M61 287q0 268 428 307q278 26 278 148q0 14 -3 29q-24 103 -172 103q-37 0 -68.5 -9t-52 -23t-37.5 -32.5t-24.5 -37t-13.5 -35.5t-5 -29t2 -18l-243 2q-6 32 -6 47q0 124 125.5 214.5t297.5 90.5q81 0 146.5 -14t109.5 -36.5t76.5 -56.5t50.5 -67.5t28.5 -76.5t13.5 -77 t3 -75v-641h-221v136q-111 -161 -325 -161q-184 0 -286 85t-102 227zM293 297q0 -28 9 -54.5t28.5 -52.5t57 -41.5t89.5 -15.5q60 0 112.5 19t94.5 58t66 105t24 152v81q-98 -71 -274 -93q-94 -11 -150.5 -52.5t-56.5 -105.5z" />
<glyph unicode="b" horiz-adv-x="1193" d="M82 1434h223v-516q111 131 297 131q227 0 368.5 -152t141.5 -381q0 -151 -63 -272.5t-180 -192.5t-267 -71q-188 0 -297 131v-111h-221zM283 516q0 -157 90.5 -248.5t228.5 -91.5q128 0 207.5 96t79.5 244q0 145 -80 241.5t-207 96.5q-137 0 -228 -92t-91 -246z" />
<glyph unicode="c" horiz-adv-x="1165" d="M61 502q0 171 74.5 296t200.5 187t287 62q181 0 303 -75.5t170 -211.5l-189 -105q-34 113 -104.5 161t-179.5 48q-156 0 -246 -97t-90 -265q0 -109 46.5 -188t117.5 -115.5t157 -36.5q67 0 118 18t84.5 52t54.5 71t38 88l201 -81q-50 -160 -178 -247.5t-318 -87.5 q-109 0 -206 34t-174 97.5t-122 166t-45 229.5z" />
<glyph unicode="d" horiz-adv-x="1183" d="M41 516q0 229 141.5 381t368.5 152q186 0 297 -131v516h223l-2 -1434h-221v111q-109 -131 -297 -131q-150 0 -267 71t-180 192.5t-63 272.5zM264 516q0 -148 79.5 -244t207.5 -96q138 0 228.5 91.5t90.5 248.5q0 154 -91 246t-228 92q-127 0 -207 -96.5t-80 -241.5z" />
<glyph unicode="e" horiz-adv-x="1243" d="M61 522q0 242 152 383.5t383 141.5q222 0 352.5 -119t130.5 -323q0 -70 -16 -146h-769q17 -146 105 -221.5t209 -75.5q116 0 186 47t113 125l203 -96q-147 -263 -502 -263q-109 0 -206 34t-174 99.5t-122 172t-45 241.5zM299 612h549q3 18 3 38q0 89 -66 151.5t-189 62.5 q-117 0 -195.5 -67.5t-101.5 -184.5z" />
<glyph unicode="f" horiz-adv-x="874" d="M6 819v205h168q-82 60 -82 180q0 55 28.5 111.5t79 104.5t131.5 78t177 30q64 0 122.5 -14t100.5 -35t79.5 -50t60.5 -53.5t42 -50.5l-180 -108q-7 13 -21.5 31t-41.5 42.5t-70 41t-92 16.5q-76 0 -137.5 -40.5t-61.5 -111.5q0 -51 30.5 -99t104.5 -73h299v-205h-331 v-819h-222l3 819h-187z" />
<glyph unicode="g" horiz-adv-x="1163" d="M41 508q0 151 63 272.5t180 192.5t267 71q188 0 297 -131v111h221l2 -1030q0 -128 -40 -229.5t-110.5 -165.5t-163 -97.5t-200.5 -33.5q-112 0 -199.5 26.5t-145 75t-92.5 106.5t-54 129l215 48q12 -33 23.5 -56.5t34 -51t49.5 -44t70.5 -28t98.5 -11.5q131 0 211 84 t80 248v112q-111 -131 -297 -131q-227 0 -368.5 152t-141.5 381zM264 508q0 -145 80 -241.5t207 -96.5q137 0 228 92t91 246q0 157 -90.5 248.5t-228.5 91.5q-128 0 -207.5 -96t-79.5 -244z" />
<glyph unicode="h" horiz-adv-x="1169" d="M82 0v1434h221v-591q58 90 148.5 142.5t199.5 52.5q99 0 176 -25.5t123 -66.5t75.5 -99t40.5 -116t11 -125v-606h-221v606q0 244 -227 244q-44 0 -88 -12.5t-87 -41t-76 -69.5t-53.5 -102t-21.5 -134v-491h-221z" />
<glyph unicode="i" horiz-adv-x="507" d="M143 0v1024h222v-1024h-222zM143 1212v222h222v-222h-222z" />
<glyph unicode="j" horiz-adv-x="507" d="M-399 -350l180 129q11 -41 65.5 -86t122.5 -45q50 0 86 19.5t54 53.5t26 70.5t8 79.5v1153h222v-1153q0 -30 -3.5 -62t-15 -72.5t-29 -77t-48.5 -72t-71 -61.5t-99 -42t-130 -16q-78 0 -141 16.5t-106.5 47t-69 57t-51.5 61.5zM143 1212v222h222v-222h-222z" />
<glyph unicode="k" horiz-adv-x="1046" d="M82 0v1434h221v-796l363 386h280l-336 -347l445 -677h-262l-340 515l-150 -155v-360h-221z" />
<glyph unicode="l" horiz-adv-x="466" d="M123 0v1434h221v-1434h-221z" />
<glyph unicode="m" horiz-adv-x="1896" d="M82 0v1024h221v-156q52 82 135 129t189 47q283 0 378 -210q59 97 156 153.5t217 56.5q99 0 176 -26t123 -68t75.5 -101t40.5 -117.5t11 -125.5v-606h-221v606q0 244 -227 244q-55 0 -107.5 -21.5t-98 -63.5t-73.5 -114t-28 -164v-487h-222v606q0 244 -223 244 q-54 0 -105.5 -21.5t-96 -63.5t-72 -114t-27.5 -164v-487h-221z" />
<glyph unicode="n" horiz-adv-x="1169" d="M82 0v1024h221v-181q58 90 148.5 142.5t199.5 52.5q99 0 176 -25.5t123 -66.5t75.5 -99t40.5 -116t11 -125v-606h-221v606q0 244 -227 244q-44 0 -88 -12.5t-87 -41t-76 -69.5t-53.5 -102t-21.5 -134v-491h-221z" />
<glyph unicode="o" horiz-adv-x="1165" d="M61 506q0 149 65.5 271.5t185.5 194.5t271 72t270.5 -72t185 -194.5t65.5 -271.5q0 -148 -65.5 -269t-185 -191.5t-270.5 -70.5t-271 70.5t-185.5 191.5t-65.5 269zM279 506q0 -153 84.5 -250.5t219.5 -97.5t219 97.5t84 250.5q0 154 -84 252t-219 98t-219.5 -98 t-84.5 -252z" />
<glyph unicode="p" horiz-adv-x="1173" d="M82 -410l2 1434h221v-111q109 131 297 131q150 0 267 -71t180 -192.5t63 -272.5q0 -229 -141.5 -381t-368.5 -152q-186 0 -297 131v-516h-223zM283 508q0 -154 91 -246t228 -92q127 0 207 96.5t80 241.5q0 148 -79.5 244t-207.5 96q-138 0 -228.5 -91.5t-90.5 -248.5z " />
<glyph unicode="q" horiz-adv-x="1153" d="M41 508q0 151 63 272.5t180 192.5t267 71q188 0 297 -131v111h221l2 -1434h-223v516q-111 -131 -297 -131q-227 0 -368.5 152t-141.5 381zM264 508q0 -145 80 -241.5t207 -96.5q137 0 228 92t91 246q0 157 -90.5 248.5t-228.5 91.5q-128 0 -207.5 -96t-79.5 -244z" />
<glyph unicode="r" horiz-adv-x="952" d="M82 0v1024h221v-174q46 90 120 142t167 52q76 0 136.5 -19.5t100 -52.5t64.5 -78.5t34 -95.5q6 -35 6 -72q0 -17 -1 -34h-217v10q0 65 -35 105q-38 43 -111 43q-47 0 -92 -21.5t-84.5 -63.5t-63.5 -114t-24 -164v-487h-221z" />
<glyph unicode="s" horiz-adv-x="903" d="M20 264l150 125q16 -98 86.5 -166.5t181.5 -68.5q88 0 140.5 43t52.5 112q0 57 -52.5 89.5t-177.5 70.5q-56 17 -96.5 32.5t-84 41t-70.5 55t-44.5 73.5t-17.5 97q0 123 100.5 201t245.5 78q127 0 219.5 -54t122.5 -155l-182 -78q-34 121 -160 121q-65 0 -104 -32.5 t-39 -80.5q0 -88 172 -139q139 -42 200 -73q179 -92 179 -251q0 -138 -106 -234t-298 -96q-148 0 -264.5 77.5t-153.5 211.5z" />
<glyph unicode="t" horiz-adv-x="940" d="M20 819v205h185v410h221v-410h311v-205h-311v-497q0 -75 40 -119.5t112 -44.5q35 0 64 12.5t50 37t32 42.5t26 47l170 -98q-117 -224 -342 -224q-101 0 -175.5 27t-116.5 75t-61.5 107.5t-19.5 132.5v502h-185z" />
<glyph unicode="u" horiz-adv-x="1179" d="M82 418v606h221v-606q0 -244 227 -244q46 0 86 8.5t82 33t71.5 63.5t48 105t18.5 153v487h221v-1024h-221v131q-111 -145 -328 -145q-99 0 -176 25.5t-123 66.5t-75.5 99t-40.5 116t-11 125z" />
<glyph unicode="v" horiz-adv-x="1118" d="M20 1024h222l317 -790l318 790h221l-412 -1024h-254z" />
<glyph unicode="w" horiz-adv-x="1445" d="M41 1024h221l182 -685l183 685h192l182 -685l183 685h221l-293 -1024h-221l-168 666l-168 -666h-221z" />
<glyph unicode="x" horiz-adv-x="1208" d="M41 0l418 533l-377 491h276l249 -322l253 322h283l-396 -504l402 -520h-281l-269 350l-275 -350h-283z" />
<glyph unicode="y" horiz-adv-x="1089" d="M31 1024h254l297 -622l256 622h231l-586 -1434h-233l221 541z" />
<glyph unicode="z" horiz-adv-x="1001" d="M41 0v205l601 614h-570v205h852v-205l-601 -614h638v-205h-920z" />
<glyph unicode="{" horiz-adv-x="1048" d="M305 516v232q80 0 111 11.5t45 53.5q4 11 4 30q0 28 -34 175.5t-34 255.5q0 171 77.5 256.5t219.5 85.5q32 0 49 -2v-187q-32 6 -43 6q-46 0 -61.5 -35.5t-15.5 -123.5q0 -74 34 -220.5t34 -210.5q0 -53 -15 -93q-27 -74 -89 -118q61 -43 89 -116q15 -40 15 -93 q0 -64 -34 -211t-34 -222q0 -88 15 -122.5t61 -34.5q16 0 44 5v-186q-26 -3 -50 -3q-142 0 -219 85t-77 256q0 82 17.5 172.5t35 160.5t17.5 101q0 18 -4 29q-16 42 -46 52.5t-112 10.5z" />
<glyph unicode="|" horiz-adv-x="643" d="M205 -309v1976h235v-1976h-235z" />
<glyph unicode="}" horiz-adv-x="1048" d="M338 -162q28 -5 44 -5q46 0 61.5 35t15.5 122q0 75 -34 222t-34 211q0 53 15 93q29 75 88 117q-61 43 -88 117q-15 40 -15 93q0 64 34 210.5t34 220.5q0 88 -16 123.5t-62 35.5q-11 0 -43 -6v187q17 2 49 2q142 0 219.5 -85.5t77.5 -256.5q0 -108 -34 -255.5t-34 -175.5 q0 -17 5 -30q14 -42 45 -54t110 -12v-231q-82 0 -112 -10.5t-46 -52.5q-4 -11 -4 -29q0 -31 17.5 -101t35 -160.5t17.5 -172.5q0 -171 -77 -256t-219 -85q-24 0 -50 3v186z" />
<glyph unicode="~" d="M85 578q0 34 6.5 66t25.5 66t48.5 58.5t79.5 40.5t115 16q111 0 248 -96q3 -2 23.5 -17.5t28.5 -21t28.5 -19.5t31.5 -20.5t29.5 -17t32 -15t29.5 -8.5t29 -4q59 0 86.5 35t27.5 84q0 27 -8 51h174q12 -38 12 -82q0 -34 -7 -66t-26 -66t-48.5 -59t-79.5 -41t-115 -16 t-123 26t-123 71q-3 2 -21 15.5t-25 18.5l-24.5 17.5t-27.5 18.5t-27 16t-29 15.5t-26.5 11t-27.5 8t-25 2.5q-59 0 -87 -35t-28 -84q0 -27 8 -51h-174q-11 35 -11 82z" />
<glyph unicode="&#xa1;" horiz-adv-x="634" d="M182 -86l43 778h185l43 -778v-301h-271v301zM182 840v270h271v-270h-271z" />
<glyph unicode="&#xa2;" horiz-adv-x="1124" d="M61 700q0 216 112.5 353t301.5 177v204h236v-194q146 -17 244.5 -90t140.5 -192l-189 -104q-50 168 -196 200v-680q76 23 120 78t72 138l201 -81q-42 -137 -143 -221.5t-250 -106.5v-175h-236v181q-182 38 -298 170t-116 343zM287 700q0 -118 51.5 -197.5t136.5 -115.5 v648q-90 -38 -139 -125t-49 -210z" />
<glyph unicode="&#xa3;" horiz-adv-x="1189" d="M150 0v221h30q97 0 132.5 60.5t35.5 205.5v168h-166v205h166v217q0 45 7.5 91t33 104.5t66.5 103t115.5 75t172.5 30.5q63 0 117.5 -12.5t91 -29.5t70 -44t52 -48t38.5 -49l-180 -129q-11 41 -66 86t-123 45q-50 0 -86 -19.5t-54 -53.5t-26 -70.5t-8 -79.5v-217h228v-205 h-228v-168q0 -161 -65 -266h624v-221h-978z" />
<glyph unicode="&#xa4;" d="M89 333l127 123q-68 116 -68 254q0 141 74 261l-133 130l149 153l133 -131q123 80 271 80q144 0 263 -75l131 126l148 -153l-127 -123q78 -120 78 -268q0 -142 -72 -259l121 -118l-149 -153l-120 118q-123 -82 -273 -82q-157 0 -281 84l-124 -120zM329 710 q0 -130 88 -221.5t225 -91.5q128 0 220 92.5t92 220.5t-92 220t-220 92t-220.5 -92t-92.5 -220z" />
<glyph unicode="&#xa5;" horiz-adv-x="1329" d="M31 1434h231l402 -614l403 614h231l-447 -687h218v-153h-295v-139h295v-154h-295v-301h-221v301h-285v154h285v139h-285v153h208z" />
<glyph unicode="&#xa6;" horiz-adv-x="643" d="M205 -300v794h235v-794h-235zM205 873v795h235v-795h-235z" />
<glyph unicode="&#xa7;" horiz-adv-x="1212" d="M51 -55l207 104q30 -149 121 -230t268 -81q151 0 223 65t72 177q0 33 -10.5 60.5t-35.5 50t-47 38t-66 32.5t-70 25.5t-80 25.5q-19 6 -29 9q-209 62 -319.5 166.5t-110.5 245.5q0 119 81 216q-91 99 -91 226q0 158 133.5 266.5t329.5 108.5q115 0 211 -34t163 -106.5 t82 -174.5l-221 -58q0 88 -61 135.5t-174 47.5q-106 0 -172 -53t-66 -132q0 -72 64.5 -127.5t205.5 -97.5q168 -51 241 -85q259 -122 259 -343q0 -132 -65 -232q75 -90 75 -210q0 -89 -32 -166.5t-94 -138.5t-164 -96.5t-232 -35.5q-460 0 -596 402zM399 633 q0 -72 64.5 -127.5t206.5 -97.5q169 -52 244 -88q18 46 18 102q0 40 -18.5 73t-43 54t-72.5 43t-81.5 33.5t-96.5 30.5q-5 2 -8.5 3t-8.5 2.5t-9 2.5q-97 29 -165 62q-30 -43 -30 -93z" />
<glyph unicode="&#xa8;" horiz-adv-x="1138" d="M205 1192v221h221v-221h-221zM713 1192v221h221v-221h-221z" />
<glyph unicode="&#xa9;" horiz-adv-x="1654" d="M41 784q0 164 57 311t158 256t249.5 172.5t321.5 63.5t321.5 -63.5t250 -172.5t158.5 -256t57 -311q0 -163 -57 -308.5t-158.5 -253t-250 -170t-321.5 -62.5t-321 62.5t-249.5 170t-158.5 253t-57 308.5zM229 784q0 -183 73.5 -326t210 -224.5t314.5 -81.5t314.5 81.5 t210 224.5t73.5 326q0 185 -73.5 330.5t-210 228t-314.5 82.5q-133 0 -245 -48t-189.5 -133t-120.5 -203.5t-43 -256.5zM437 793q0 193 118 301t304 108q136 0 227.5 -56.5t127.5 -159.5l-141 -78q-25 85 -78.5 121t-135.5 36q-117 0 -185 -73t-68 -199q0 -122 70.5 -189 t171.5 -67q96 0 144.5 46t76.5 127l151 -61q-37 -120 -133 -186t-239 -66q-82 0 -155 25.5t-130.5 73.5t-91.5 125t-34 172z" />
<glyph unicode="&#xaa;" horiz-adv-x="763" d="M55 978q0 185 295 212q192 17 192 102q0 10 -3 20q-18 72 -118 72q-36 0 -63.5 -11.5t-41 -28t-23.5 -35t-9.5 -32.5t0.5 -20l-169 1q-3 16 -3 32q0 86 86.5 148.5t205.5 62.5q65 0 115.5 -12t81.5 -35t51.5 -48.5t30 -60t13 -62t3.5 -60.5v-443h-153v94 q-76 -111 -224 -111q-127 0 -197 58t-70 157zM214 985q0 -44 30 -78.5t98 -34.5q88 0 146 57t58 173v56q-67 -49 -189 -64q-65 -8 -104 -36.5t-39 -72.5z" />
<glyph unicode="&#xab;" horiz-adv-x="1079" d="M82 547l340 438l137 -90l-254 -348l254 -348l-137 -93zM544 546l309 399l125 -82l-231 -317l231 -316l-125 -84z" />
<glyph unicode="&#xac;" horiz-adv-x="1366" d="M78 532v205h1247v-631h-235v426h-1012z" />
<glyph unicode="&#xad;" d="M98 430v205h863v-205h-863z" />
<glyph unicode="&#xae;" horiz-adv-x="1654" d="M41 784q0 164 57 311t158 256t249.5 172.5t321.5 63.5t321.5 -63.5t250 -172.5t158.5 -256t57 -311q0 -163 -57 -308.5t-158.5 -253t-250 -170t-321.5 -62.5t-321 62.5t-249.5 170t-158.5 253t-57 308.5zM229 784q0 -183 73.5 -326t210 -224.5t314.5 -81.5t314.5 81.5 t210 224.5t73.5 326q0 185 -73.5 330.5t-210 228t-314.5 82.5q-133 0 -245 -48t-189.5 -133t-120.5 -203.5t-43 -256.5zM546 401v809h255q46 0 86.5 -9.5t77 -31.5t58 -63.5t21.5 -99.5q0 -145 -115 -196l268 -409h-147l-253 383h-4l-122 -1v-382h-125zM671 888h127 q56 0 88.5 28t32.5 78q0 49 -32.5 76t-85.5 27h-130v-209z" />
<glyph unicode="&#xaf;" d="M78 1311v221h1093v-221h-1093z" />
<glyph unicode="&#xb0;" d="M236 1319q0 148 104.5 252t253.5 104q148 0 252 -104t104 -252q0 -149 -104 -253.5t-252 -104.5q-149 0 -253.5 104.5t-104.5 253.5zM420 1319q0 -73 50 -123.5t124 -50.5q72 0 122 50.5t50 123.5q0 72 -50 122t-122 50q-73 0 -123.5 -50t-50.5 -122z" />
<glyph unicode="&#xb1;" d="M111 0v205h1005v-205h-1005zM111 743v205h401v398h205v-398h399v-205h-399v-395h-205v395h-401z" />
<glyph unicode="&#xb2;" horiz-adv-x="968" d="M182 842l2 139q21 39 75.5 86.5t114.5 93t118.5 97t97 117t39.5 134.5q0 52 -25 87.5t-80 35.5q-59 0 -80 -25.5t-16 -78.5l-215 -21q-4 19 -4 42q0 100 89 170.5t226 70.5q84 0 148.5 -24.5t100.5 -65t53.5 -87t17.5 -96.5q0 -65 -20.5 -125t-49.5 -103t-73.5 -87 t-80 -71t-81 -61t-66.5 -52h393v-176h-684z" />
<glyph unicode="&#xb3;" horiz-adv-x="800" d="M41 1147h215q-4 -93 29.5 -132.5t105.5 -39.5q57 0 95 39t38 112q0 74 -33 112t-88 38q-18 0 -90 -16l-92 108l221 238h-356v157h637v-139l-213 -217q100 -23 164.5 -98t64.5 -183q0 -91 -50.5 -162.5t-129.5 -108t-168 -36.5q-155 0 -256 87t-94 241z" />
<glyph unicode="&#xb4;" d="M324 1212l376 353l125 -207l-321 -201z" />
<glyph unicode="&#xb6;" horiz-adv-x="1415" d="M205 1100q0 73 22.5 131.5t58.5 95.5t85 62t99 35t103 10h345v-1844h-183v1176h-151q-74 0 -138.5 17t-120 53.5t-88 104t-32.5 159.5zM1087 -410v1844h185v-1844h-185z" />
<glyph unicode="&#xb7;" d="M479 457v270h271v-270h-271z" />
<glyph unicode="&#xb8;" d="M375 -266q18 -15 73 -29t91 -14q57 0 97 28t40 77q0 25 -15.5 39.5t-42.5 14.5q-57 0 -81 -34h-129l94 204h127l-41 -90q28 7 47 7q83 0 127 -37t44 -96q0 -16 -3 -33q-15 -67 -64 -113t-106.5 -65t-118.5 -19q-38 0 -82.5 9t-56.5 16v135z" />
<glyph unicode="&#xb9;" horiz-adv-x="651" d="M102 1493v147q28 -7 57 -7h5q61 0 95 30.5t34 77.5q0 8 -2 22h217v-932h-215v662h-191z" />
<glyph unicode="&#xba;" horiz-adv-x="778" d="M55 1121q0 157 101 264.5t258 107.5t258.5 -107.5t101.5 -264.5q0 -156 -101 -261t-259 -105t-258.5 105t-100.5 261zM205 1121q0 -106 58 -173t151 -67t151.5 67t58.5 173t-58.5 174t-151.5 68t-151 -68t-58 -174z" />
<glyph unicode="&#xbb;" horiz-adv-x="1077" d="M99 230l231 316l-231 317l125 82l309 -399l-309 -400zM518 199l254 348l-254 348l137 90l340 -438l-340 -441z" />
<glyph unicode="&#xbc;" horiz-adv-x="1742" d="M98 0l1184 1534h242l-1184 -1534h-242zM102 1493v147q28 -7 57 -7h5q61 0 95 30.5t34 77.5q0 8 -2 22h217v-932h-215v662h-191zM844 182l2 146l489 604h183v-586h143v-164h-143v-182h-215v182h-459zM1102 346h201v245z" />
<glyph unicode="&#xbd;" horiz-adv-x="1806" d="M98 0l1184 1534h242l-1184 -1534h-242zM102 1493v147q28 -7 57 -7h5q61 0 95 30.5t34 77.5q0 8 -2 22h217v-932h-215v662h-191zM1040 4l2 139q21 39 75.5 86.5t114.5 93t118.5 97.5t97 117.5t39.5 134.5q0 52 -25 87.5t-80 35.5q-59 0 -80 -26t-16 -79l-215 -20 q-4 19 -4 41q0 100 89 170.5t226 70.5q84 0 148.5 -24.5t100.5 -65t53.5 -86.5t17.5 -96q0 -65 -20.5 -125t-49.5 -103.5t-73.5 -87.5t-80 -71t-81.5 -61t-66 -52h393v-176h-684z" />
<glyph unicode="&#xbe;" horiz-adv-x="1742" d="M41 1147h215q-4 -93 29.5 -132.5t105.5 -39.5q57 0 95 39t38 112q0 74 -33 112t-88 38q-18 0 -90 -16l-92 108l221 238h-356v157h637v-139l-213 -217q100 -23 164.5 -98t64.5 -183q0 -91 -50.5 -162.5t-129.5 -108t-168 -36.5q-155 0 -256 87t-94 241zM98 0l1184 1534 h242l-1184 -1534h-242zM844 182l2 146l489 604h183v-586h143v-164h-143v-182h-215v182h-459zM1102 346h201v245z" />
<glyph unicode="&#xbf;" horiz-adv-x="1026" d="M57 -109q0 53 21 98t51 74t75.5 55.5t82 40.5t84.5 32t69 28q57 26 87 56.5t30 82.5q0 46 -27.5 74.5t-74.5 28.5q-43 0 -75.5 -30t-31.5 -81l-182 58q42 120 115.5 175.5t183.5 55.5q58 0 112.5 -17.5t99.5 -51t72 -88.5t27 -124q0 -44 -12.5 -82.5t-37 -68.5t-48 -52 t-61 -42.5t-59 -30.5t-56.5 -25q-23 -9 -59 -23t-53 -21t-41.5 -18t-35 -19.5t-23 -21t-16.5 -26.5t-4 -32q0 -68 52.5 -110t142.5 -42q112 0 183 67t87 166l172 -127q-39 -132 -164.5 -211t-277.5 -79q-194 0 -301 96.5t-107 234.5zM328 766v270h270v-270h-270z" />
<glyph unicode="&#xc0;" horiz-adv-x="1548" d="M61 0l582 1434h262l582 -1434h-242l-153 381h-635l-154 -381h-242zM516 1769l125 207l377 -352l-180 -55zM534 573h480l-240 596z" />
<glyph unicode="&#xc1;" horiz-adv-x="1548" d="M61 0l582 1434h262l582 -1434h-242l-153 381h-635l-154 -381h-242zM522 1624l377 352l125 -207l-322 -200zM534 573h480l-240 596z" />
<glyph unicode="&#xc2;" horiz-adv-x="1548" d="M61 0l582 1434h262l582 -1434h-242l-153 381h-635l-154 -381h-242zM399 1651l377 331l377 -331l-180 -56l-197 185l-196 -185zM534 573h480l-240 596z" />
<glyph unicode="&#xc3;" horiz-adv-x="1548" d="M61 0l582 1434h262l582 -1434h-242l-153 381h-635l-154 -381h-242zM387 1765q0 73 50 125t136 52q60 0 103 -18t115 -69q8 -6 40 -31.5t52.5 -40.5t48 -29.5t45.5 -14.5t18 23q0 33 -34.5 86.5t-90.5 93.5l195 -1q84 -48 84 -143q0 -73 -52.5 -128.5t-138.5 -55.5 q-99 0 -182 63q-28 20 -77 64t-84.5 70t-59.5 26q-19 0 -19 -27q0 -38 35 -97t91 -99h-205q-70 63 -70 151zM534 573h480l-240 596z" />
<glyph unicode="&#xc4;" horiz-adv-x="1548" d="M61 0l582 1434h262l582 -1434h-242l-153 381h-635l-154 -381h-242zM410 1604v221h221v-221h-221zM534 573h480l-240 596zM918 1604v221h221v-221h-221z" />
<glyph unicode="&#xc5;" horiz-adv-x="1548" d="M61 0l582 1434h262l582 -1434h-242l-153 381h-635l-154 -381h-242zM512 1808q0 109 76.5 186t185.5 77t185.5 -77t76.5 -186t-76.5 -185.5t-185.5 -76.5t-185.5 76.5t-76.5 185.5zM534 573h480l-240 596zM635 1808q0 -58 40.5 -98.5t98.5 -40.5t98.5 40.5t40.5 98.5 q0 59 -40.5 99.5t-98.5 40.5t-98.5 -40.5t-40.5 -99.5z" />
<glyph unicode="&#xc6;" horiz-adv-x="2191" d="M49 0l815 1434h1229v-222h-874v-368h854v-221h-854v-402h895v-221h-1117v475h-417l-269 -475h-262zM689 668h308v545z" />
<glyph unicode="&#xc7;" horiz-adv-x="1480" d="M102 713q0 150 52 283.5t144 232.5t226.5 157t292.5 58q197 0 352.5 -83t249.5 -231l-207 -104q-63 104 -166.5 160.5t-228.5 56.5q-207 0 -340 -149.5t-133 -380.5q0 -228 132.5 -375.5t340.5 -147.5q122 0 224 53.5t165 151.5l209 -100q-92 -144 -247 -224.5 t-351 -80.5h-8l-27 -60q24 6 47 6q84 0 128 -37t44 -95q0 -11 -4 -33q-15 -67 -63.5 -113t-106 -65t-118.5 -19q-38 0 -83 9t-57 16v135q18 -15 73 -29t91 -14q57 0 97.5 28t40.5 77q0 25 -15.5 39.5t-42.5 14.5q-58 0 -82 -34h-129l85 184q-263 44 -424 243.5t-161 469.5z " />
<glyph unicode="&#xc8;" horiz-adv-x="1296" d="M102 0v1434h1096v-222h-874v-368h854v-221h-854v-402h895v-221h-1117zM391 1769l125 207l377 -352l-180 -55z" />
<glyph unicode="&#xc9;" horiz-adv-x="1296" d="M102 0v1434h1096v-222h-874v-368h854v-221h-854v-402h895v-221h-1117zM397 1624l377 352l125 -207l-321 -200z" />
<glyph unicode="&#xca;" horiz-adv-x="1296" d="M102 0v1434h1096v-222h-874v-368h854v-221h-854v-402h895v-221h-1117zM274 1651l377 331l377 -331l-180 -56l-197 185l-196 -185z" />
<glyph unicode="&#xcb;" horiz-adv-x="1296" d="M102 0v1434h1096v-222h-874v-368h854v-221h-854v-402h895v-221h-1117zM285 1604v221h221v-221h-221zM793 1604v221h221v-221h-221z" />
<glyph unicode="&#xcc;" horiz-adv-x="507" d="M-4 1769l125 207l377 -352l-181 -55zM143 0v1434h222v-1434h-222z" />
<glyph unicode="&#xcd;" horiz-adv-x="507" d="M2 1624l377 352l125 -207l-322 -200zM143 0v1434h222v-1434h-222z" />
<glyph unicode="&#xce;" horiz-adv-x="507" d="M-121 1651l377 331l377 -331l-180 -56l-197 185l-197 -185zM143 0v1434h222v-1434h-222z" />
<glyph unicode="&#xcf;" horiz-adv-x="507" d="M-111 1604v221h222v-221h-222zM143 0v1434h222v-1434h-222zM397 1604v221h221v-221h-221z" />
<glyph unicode="&#xd0;" horiz-adv-x="1591" d="M66 528v205h294v701h369q125 0 237 -24.5t212.5 -79.5t173 -136.5t115 -203t42.5 -271.5q0 -184 -57.5 -324t-160.5 -225t-236 -127.5t-293 -42.5h-402v528h-294zM582 201h180q250 0 383 124t133 394q0 139 -41 240.5t-117 160t-172.5 86t-218.5 27.5h-147v-500h346v-205 h-346v-327z" />
<glyph unicode="&#xd1;" horiz-adv-x="1280" d="M102 0v1434h222l653 -1042v1042h221v-1434h-231l-643 1020v-1020h-222zM264 1765q0 73 50 125t137 52q60 0 102 -18t115 -69q8 -6 40 -31.5t52.5 -40.5t48 -29.5t45.5 -14.5q19 0 19 23q0 33 -34.5 86.5t-90.5 93.5l194 -1q84 -48 84 -143q0 -73 -52 -128.5t-138 -55.5 q-100 0 -183 63q-28 20 -77 64t-84.5 70t-59.5 26q-18 0 -18 -27q0 -39 34.5 -97.5t90.5 -98.5h-205q-70 63 -70 151z" />
<glyph unicode="&#xd2;" horiz-adv-x="1634" d="M102 713q0 150 52 283.5t144 232.5t226.5 157t292.5 58t292.5 -58t226.5 -157t144 -232.5t52 -283.5q0 -198 -88 -362.5t-252.5 -262.5t-374.5 -98q-209 0 -373.5 98t-253 262.5t-88.5 362.5zM324 713q0 -230 135.5 -376.5t357.5 -146.5t358 146.5t136 376.5 q0 233 -136 381.5t-358 148.5q-221 0 -357 -149t-136 -381zM559 1769l125 207l377 -352l-180 -55z" />
<glyph unicode="&#xd3;" horiz-adv-x="1634" d="M102 713q0 150 52 283.5t144 232.5t226.5 157t292.5 58t292.5 -58t226.5 -157t144 -232.5t52 -283.5q0 -198 -88 -362.5t-252.5 -262.5t-374.5 -98q-209 0 -373.5 98t-253 262.5t-88.5 362.5zM324 713q0 -230 135.5 -376.5t357.5 -146.5t358 146.5t136 376.5 q0 233 -136 381.5t-358 148.5q-221 0 -357 -149t-136 -381zM565 1624l377 352l125 -207l-322 -200z" />
<glyph unicode="&#xd4;" horiz-adv-x="1634" d="M102 713q0 150 52 283.5t144 232.5t226.5 157t292.5 58t292.5 -58t226.5 -157t144 -232.5t52 -283.5q0 -198 -88 -362.5t-252.5 -262.5t-374.5 -98q-209 0 -373.5 98t-253 262.5t-88.5 362.5zM324 713q0 -230 135.5 -376.5t357.5 -146.5t358 146.5t136 376.5 q0 233 -136 381.5t-358 148.5q-221 0 -357 -149t-136 -381zM442 1651l377 331l377 -331l-180 -56l-197 185l-196 -185z" />
<glyph unicode="&#xd5;" horiz-adv-x="1634" d="M102 713q0 150 52 283.5t144 232.5t226.5 157t292.5 58t292.5 -58t226.5 -157t144 -232.5t52 -283.5q0 -198 -88 -362.5t-252.5 -262.5t-374.5 -98q-209 0 -373.5 98t-253 262.5t-88.5 362.5zM324 713q0 -230 135.5 -376.5t357.5 -146.5t358 146.5t136 376.5 q0 233 -136 381.5t-358 148.5q-221 0 -357 -149t-136 -381zM430 1765q0 73 50 125t136 52q60 0 103 -18t115 -69q8 -6 40 -31.5t52.5 -40.5t48 -29.5t45.5 -14.5t18 23q0 33 -34.5 86.5t-90.5 93.5l195 -1q84 -48 84 -143q0 -73 -52.5 -128.5t-138.5 -55.5q-99 0 -182 63 q-28 20 -77 64t-84.5 70t-59.5 26q-19 0 -19 -27q0 -38 35 -97t91 -99h-205q-70 63 -70 151z" />
<glyph unicode="&#xd6;" horiz-adv-x="1634" d="M102 713q0 150 52 283.5t144 232.5t226.5 157t292.5 58t292.5 -58t226.5 -157t144 -232.5t52 -283.5q0 -198 -88 -362.5t-252.5 -262.5t-374.5 -98q-209 0 -373.5 98t-253 262.5t-88.5 362.5zM324 713q0 -230 135.5 -376.5t357.5 -146.5t358 146.5t136 376.5 q0 233 -136 381.5t-358 148.5q-221 0 -357 -149t-136 -381zM453 1604v221h221v-221h-221zM961 1604v221h221v-221h-221z" />
<glyph unicode="&#xd7;" d="M61 1008l144 145l430 -430l430 430l141 -145l-427 -428l429 -428l-147 -142l-427 426l-429 -430l-142 146l428 427z" />
<glyph unicode="&#xd8;" horiz-adv-x="1634" d="M102 713q0 150 52 283.5t144 232.5t226.5 157t292.5 58q40 0 88 -5l45 152h215l-60 -203q198 -82 312.5 -264.5t114.5 -410.5q0 -198 -88 -362.5t-252.5 -262.5t-374.5 -98q-64 0 -124 9l-40 -134h-215l58 195q-183 88 -288.5 263t-105.5 390zM324 713 q0 -151 60.5 -269.5t170.5 -184.5l292 983q-5 0 -15 0.5t-15 0.5q-221 0 -357 -149t-136 -381zM751 194q42 -4 66 -4q222 0 358 146.5t136 376.5q0 164 -70 290t-194 188z" />
<glyph unicode="&#xd9;" horiz-adv-x="1335" d="M102 461l2 973h222v-973q0 -149 82.5 -220t228.5 -71t228.5 71t82.5 220v973h221l2 -973q0 -121 -40.5 -215t-112.5 -152.5t-168.5 -88.5t-212.5 -30q-156 0 -274.5 51.5t-189.5 163t-71 271.5zM379 1769l125 207l377 -352l-181 -55z" />
<glyph unicode="&#xda;" horiz-adv-x="1335" d="M102 461l2 973h222v-973q0 -149 82.5 -220t228.5 -71t228.5 71t82.5 220v973h221l2 -973q0 -121 -40.5 -215t-112.5 -152.5t-168.5 -88.5t-212.5 -30q-156 0 -274.5 51.5t-189.5 163t-71 271.5zM385 1624l377 352l125 -207l-322 -200z" />
<glyph unicode="&#xdb;" horiz-adv-x="1335" d="M102 461l2 973h222v-973q0 -149 82.5 -220t228.5 -71t228.5 71t82.5 220v973h221l2 -973q0 -121 -40.5 -215t-112.5 -152.5t-168.5 -88.5t-212.5 -30q-156 0 -274.5 51.5t-189.5 163t-71 271.5zM262 1651l377 331l377 -331l-180 -56l-197 185l-197 -185z" />
<glyph unicode="&#xdc;" horiz-adv-x="1335" d="M102 461l2 973h222v-973q0 -149 82.5 -220t228.5 -71t228.5 71t82.5 220v973h221l2 -973q0 -121 -40.5 -215t-112.5 -152.5t-168.5 -88.5t-212.5 -30q-156 0 -274.5 51.5t-189.5 163t-71 271.5zM272 1604v221h222v-221h-222zM780 1604v221h221v-221h-221z" />
<glyph unicode="&#xdd;" horiz-adv-x="1329" d="M31 1434h231l402 -614l403 614h231l-524 -805v-629h-221v629zM414 1624l377 352l124 -207l-321 -200z" />
<glyph unicode="&#xde;" horiz-adv-x="1087" d="M102 0v1434h222v-211h278q64 0 124.5 -12.5t119.5 -42.5t103 -75t71 -115.5t27 -158.5q0 -111 -39 -193.5t-106 -128.5t-145 -67.5t-167 -21.5h-266v-408h-222zM324 610h266q114 0 174.5 52.5t60.5 156.5q0 103 -60 153t-169 50h-272v-412z" />
<glyph unicode="&#xdf;" horiz-adv-x="1220" d="M92 0v1087q0 347 422 347q89 0 162 -17t135.5 -54.5t97.5 -106.5t35 -164q0 -135 -72 -220q148 -44 228 -149t80 -268q0 -113 -41.5 -201t-116 -143t-173.5 -83t-218 -28q-59 0 -130.5 20.5t-105.5 40.5v201q29 -20 95.5 -40.5t121.5 -20.5q344 0 344 254 q0 137 -89.5 211.5t-243.5 74.5h-142v162h27q109 0 162 45t53 123q0 77 -52.5 119.5t-156.5 42.5q-98 0 -149.5 -43t-51.5 -119v-1071h-221z" />
<glyph unicode="&#xe0;" horiz-adv-x="1077" d="M61 287q0 268 428 307q278 26 278 148q0 14 -3 29q-24 103 -172 103q-37 0 -68.5 -9t-52 -23t-37.5 -32.5t-24.5 -37t-13.5 -35.5t-5 -29t2 -18l-243 2q-6 32 -6 47q0 124 125.5 214.5t297.5 90.5q81 0 146.5 -14t109.5 -36.5t76.5 -56.5t50.5 -67.5t28.5 -76.5t13.5 -77 t3 -75v-641h-221v136q-111 -161 -325 -161q-184 0 -286 85t-102 227zM270 1360l125 207l377 -353l-180 -55zM293 297q0 -28 9 -54.5t28.5 -52.5t57 -41.5t89.5 -15.5q60 0 112.5 19t94.5 58t66 105t24 152v81q-98 -71 -274 -93q-94 -11 -150.5 -52.5t-56.5 -105.5z" />
<glyph unicode="&#xe1;" horiz-adv-x="1077" d="M61 287q0 268 428 307q278 26 278 148q0 14 -3 29q-24 103 -172 103q-37 0 -68.5 -9t-52 -23t-37.5 -32.5t-24.5 -37t-13.5 -35.5t-5 -29t2 -18l-243 2q-6 32 -6 47q0 124 125.5 214.5t297.5 90.5q81 0 146.5 -14t109.5 -36.5t76.5 -56.5t50.5 -67.5t28.5 -76.5t13.5 -77 t3 -75v-641h-221v136q-111 -161 -325 -161q-184 0 -286 85t-102 227zM276 1214l377 353l125 -207l-321 -201zM293 297q0 -28 9 -54.5t28.5 -52.5t57 -41.5t89.5 -15.5q60 0 112.5 19t94.5 58t66 105t24 152v81q-98 -71 -274 -93q-94 -11 -150.5 -52.5t-56.5 -105.5z" />
<glyph unicode="&#xe2;" horiz-adv-x="1077" d="M61 287q0 268 428 307q278 26 278 148q0 14 -3 29q-24 103 -172 103q-37 0 -68.5 -9t-52 -23t-37.5 -32.5t-24.5 -37t-13.5 -35.5t-5 -29t2 -18l-243 2q-6 32 -6 47q0 124 125.5 214.5t297.5 90.5q81 0 146.5 -14t109.5 -36.5t76.5 -56.5t50.5 -67.5t28.5 -76.5t13.5 -77 t3 -75v-641h-221v136q-111 -161 -325 -161q-184 0 -286 85t-102 227zM154 1241l376 332l377 -332l-180 -55l-197 184l-196 -184zM293 297q0 -28 9 -54.5t28.5 -52.5t57 -41.5t89.5 -15.5q60 0 112.5 19t94.5 58t66 105t24 152v81q-98 -71 -274 -93q-94 -11 -150.5 -52.5 t-56.5 -105.5z" />
<glyph unicode="&#xe3;" horiz-adv-x="1077" d="M61 287q0 268 428 307q278 26 278 148q0 14 -3 29q-24 103 -172 103q-37 0 -68.5 -9t-52 -23t-37.5 -32.5t-24.5 -37t-13.5 -35.5t-5 -29t2 -18l-243 2q-6 32 -6 47q0 124 125.5 214.5t297.5 90.5q81 0 146.5 -14t109.5 -36.5t76.5 -56.5t50.5 -67.5t28.5 -76.5t13.5 -77 t3 -75v-641h-221v136q-111 -161 -325 -161q-184 0 -286 85t-102 227zM184 1353q0 73 50 125t137 52q60 0 102.5 -18t114.5 -68q9 -7 40.5 -32t52 -40.5t48 -30t45.5 -14.5q19 0 19 23q0 33 -34.5 86.5t-90.5 93.5h194q84 -48 84 -144q0 -73 -52 -128.5t-138 -55.5 q-98 0 -183 64q-28 20 -77 64t-84.5 69.5t-59.5 25.5q-18 0 -18 -27q0 -39 34.5 -97.5t90.5 -98.5h-205q-70 63 -70 151zM293 297q0 -28 9 -54.5t28.5 -52.5t57 -41.5t89.5 -15.5q60 0 112.5 19t94.5 58t66 105t24 152v81q-98 -71 -274 -93q-94 -11 -150.5 -52.5 t-56.5 -105.5z" />
<glyph unicode="&#xe4;" horiz-adv-x="1077" d="M61 287q0 268 428 307q278 26 278 148q0 14 -3 29q-24 103 -172 103q-37 0 -68.5 -9t-52 -23t-37.5 -32.5t-24.5 -37t-13.5 -35.5t-5 -29t2 -18l-243 2q-6 32 -6 47q0 124 125.5 214.5t297.5 90.5q81 0 146.5 -14t109.5 -36.5t76.5 -56.5t50.5 -67.5t28.5 -76.5t13.5 -77 t3 -75v-641h-221v136q-111 -161 -325 -161q-184 0 -286 85t-102 227zM164 1194v221h221v-221h-221zM293 297q0 -28 9 -54.5t28.5 -52.5t57 -41.5t89.5 -15.5q60 0 112.5 19t94.5 58t66 105t24 152v81q-98 -71 -274 -93q-94 -11 -150.5 -52.5t-56.5 -105.5zM672 1194v221h221 v-221h-221z" />
<glyph unicode="&#xe5;" horiz-adv-x="1077" d="M61 287q0 268 428 307q278 26 278 148q0 14 -3 29q-24 103 -172 103q-37 0 -68.5 -9t-52 -23t-37.5 -32.5t-24.5 -37t-13.5 -35.5t-5 -29t2 -18l-243 2q-6 32 -6 47q0 124 125.5 214.5t297.5 90.5q81 0 146.5 -14t109.5 -36.5t76.5 -56.5t50.5 -67.5t28.5 -76.5t13.5 -77 t3 -75v-641h-221v136q-111 -161 -325 -161q-184 0 -286 85t-102 227zM266 1399q0 109 76.5 185.5t185.5 76.5t186 -76.5t77 -185.5t-77 -185.5t-186 -76.5t-185.5 76.5t-76.5 185.5zM293 297q0 -28 9 -54.5t28.5 -52.5t57 -41.5t89.5 -15.5q60 0 112.5 19t94.5 58t66 105 t24 152v81q-98 -71 -274 -93q-94 -11 -150.5 -52.5t-56.5 -105.5zM389 1399q0 -59 40.5 -99t98.5 -40q59 0 99.5 40.5t40.5 98.5t-40.5 98.5t-99.5 40.5q-58 0 -98.5 -40t-40.5 -99z" />
<glyph unicode="&#xe6;" horiz-adv-x="1953" d="M61 287q0 268 428 307q278 26 278 148q0 14 -3 29q-24 103 -172 103q-37 0 -68.5 -9t-52 -23t-37.5 -32.5t-24.5 -37t-13.5 -35.5t-5 -29t2 -18l-243 2q-6 32 -6 47q0 124 125.5 214.5t297.5 90.5q258 0 359 -137q148 140 382 140q222 0 352.5 -119t130.5 -323 q0 -66 -17 -146h-768q17 -146 105 -221.5t209 -75.5q116 0 186 47t113 125l203 -96q-147 -263 -502 -263q-149 0 -274.5 62.5t-196.5 182.5q-38 -114 -138.5 -179.5t-261.5 -65.5q-184 0 -286 85t-102 227zM293 297q0 -28 9 -54.5t28.5 -52.5t57 -41.5t89.5 -15.5 q127 0 212 84t85 250v14q-1 14 -1 41q0 4 0.5 12.5t0.5 12.5q-96 -70 -274 -92q-94 -11 -150.5 -52.5t-56.5 -105.5zM1011 612h548q4 24 4 38q0 89 -66 151.5t-189 62.5q-117 0 -195.5 -67.5t-101.5 -184.5z" />
<glyph unicode="&#xe7;" horiz-adv-x="1165" d="M61 502q0 171 74.5 296t200.5 187t287 62q181 0 303 -75.5t170 -211.5l-189 -105q-34 113 -104.5 161t-179.5 48q-156 0 -246 -97t-90 -265q0 -109 46.5 -188t117.5 -115.5t157 -36.5q67 0 118 18t84.5 52t54.5 71t38 88l201 -81q-49 -158 -174.5 -245.5t-312.5 -89.5 l-21 -45q28 7 47 7q83 0 127.5 -37.5t44.5 -95.5q0 -11 -4 -33q-15 -67 -64 -113t-106.5 -65t-118.5 -19q-38 0 -82.5 9t-56.5 16v135q18 -15 73 -29t91 -14q57 0 97 28t40 77q0 26 -15 40t-42 14q-58 0 -82 -34h-129l78 169q-189 33 -311 167t-122 350z" />
<glyph unicode="&#xe8;" horiz-adv-x="1243" d="M61 522q0 242 152 383.5t383 141.5q222 0 352.5 -119t130.5 -323q0 -70 -16 -146h-769q17 -146 105 -221.5t209 -75.5q116 0 186 47t113 125l203 -96q-147 -263 -502 -263q-109 0 -206 34t-174 99.5t-122 172t-45 241.5zM299 612h549q3 18 3 38q0 89 -66 151.5t-189 62.5 q-117 0 -195.5 -67.5t-101.5 -184.5zM334 1360l125 207l377 -353l-181 -55z" />
<glyph unicode="&#xe9;" horiz-adv-x="1243" d="M61 522q0 242 152 383.5t383 141.5q222 0 352.5 -119t130.5 -323q0 -70 -16 -146h-769q17 -146 105 -221.5t209 -75.5q116 0 186 47t113 125l203 -96q-147 -263 -502 -263q-109 0 -206 34t-174 99.5t-122 172t-45 241.5zM299 612h549q3 18 3 38q0 89 -66 151.5t-189 62.5 q-117 0 -195.5 -67.5t-101.5 -184.5zM340 1214l377 353l125 -207l-322 -201z" />
<glyph unicode="&#xea;" horiz-adv-x="1243" d="M61 522q0 242 152 383.5t383 141.5q222 0 352.5 -119t130.5 -323q0 -70 -16 -146h-769q17 -146 105 -221.5t209 -75.5q116 0 186 47t113 125l203 -96q-147 -263 -502 -263q-109 0 -206 34t-174 99.5t-122 172t-45 241.5zM217 1241l377 332l377 -332l-180 -55l-197 184 l-197 -184zM299 612h549q3 18 3 38q0 89 -66 151.5t-189 62.5q-117 0 -195.5 -67.5t-101.5 -184.5z" />
<glyph unicode="&#xeb;" horiz-adv-x="1243" d="M61 522q0 242 152 383.5t383 141.5q222 0 352.5 -119t130.5 -323q0 -70 -16 -146h-769q17 -146 105 -221.5t209 -75.5q116 0 186 47t113 125l203 -96q-147 -263 -502 -263q-109 0 -206 34t-174 99.5t-122 172t-45 241.5zM227 1194v221h222v-221h-222zM299 612h549 q3 18 3 38q0 89 -66 151.5t-189 62.5q-117 0 -195.5 -67.5t-101.5 -184.5zM735 1194v221h221v-221h-221z" />
<glyph unicode="&#xec;" horiz-adv-x="507" d="M-4 1360l125 207l377 -353l-181 -55zM143 0v1024h222v-1024h-222z" />
<glyph unicode="&#xed;" horiz-adv-x="507" d="M2 1214l377 353l125 -207l-322 -201zM143 0v1024h222v-1024h-222z" />
<glyph unicode="&#xee;" horiz-adv-x="507" d="M-121 1241l377 332l377 -332l-180 -55l-197 184l-197 -184zM143 0v1024h222v-1024h-222z" />
<glyph unicode="&#xef;" horiz-adv-x="507" d="M-111 1194v221h222v-221h-222zM143 0v1024h222v-1024h-222zM397 1194v221h221v-221h-221z" />
<glyph unicode="&#xf0;" horiz-adv-x="1173" d="M80 528q0 206 124 351t333 168q18 2 53 2q134 0 248 -69q-109 213 -352 323l-150 -130l-90 105l91 79q-84 25 -187 40v207q199 -19 372 -87l152 132l90 -107l-104 -90q223 -124 346.5 -327.5t123.5 -462.5q0 -116 -22 -220q-1 -4 -3.5 -15.5t-4.5 -17.5 q-17 -75 -53.5 -145t-92 -130t-135 -100t-172.5 -50q-40 -4 -61 -4q-203 0 -340.5 135t-161.5 348q-4 46 -4 65zM305 537q0 -157 81.5 -259t207.5 -102q23 0 33 2q106 11 180.5 75.5t96.5 169.5q2 16 6 46q1 11 1 33q0 78 -21.5 140.5t-55.5 101t-78.5 64t-86.5 35.5t-84 10 q-129 0 -204.5 -90t-75.5 -226z" />
<glyph unicode="&#xf1;" horiz-adv-x="1169" d="M82 0v1024h221v-181q58 90 148.5 142.5t199.5 52.5q99 0 176 -25.5t123 -66.5t75.5 -99t40.5 -116t11 -125v-606h-221v606q0 244 -227 244q-44 0 -88 -12.5t-87 -41t-76 -69.5t-53.5 -102t-21.5 -134v-491h-221zM186 1355q0 73 50 125t137 52q60 0 102.5 -18t114.5 -68 q9 -7 40.5 -32t52 -40.5t48 -30t45.5 -14.5q19 0 19 24q0 33 -34.5 86t-90.5 93h194q84 -48 84 -144q0 -73 -52 -128.5t-138 -55.5q-98 0 -183 64q-28 20 -77 64t-84.5 69.5t-59.5 25.5q-18 0 -18 -27q0 -39 34.5 -97.5t90.5 -98.5h-205q-70 63 -70 151z" />
<glyph unicode="&#xf2;" horiz-adv-x="1165" d="M61 506q0 149 65.5 271.5t185.5 194.5t271 72t270.5 -72t185 -194.5t65.5 -271.5q0 -148 -65.5 -269t-185 -191.5t-270.5 -70.5t-271 70.5t-185.5 191.5t-65.5 269zM279 506q0 -153 84.5 -250.5t219.5 -97.5t219 97.5t84 250.5q0 154 -84 252t-219 98t-219.5 -98 t-84.5 -252zM304 1360l125 207l377 -353l-180 -55z" />
<glyph unicode="&#xf3;" horiz-adv-x="1165" d="M61 506q0 149 65.5 271.5t185.5 194.5t271 72t270.5 -72t185 -194.5t65.5 -271.5q0 -148 -65.5 -269t-185 -191.5t-270.5 -70.5t-271 70.5t-185.5 191.5t-65.5 269zM279 506q0 -153 84.5 -250.5t219.5 -97.5t219 97.5t84 250.5q0 154 -84 252t-219 98t-219.5 -98 t-84.5 -252zM310 1214l377 353l125 -207l-322 -201z" />
<glyph unicode="&#xf4;" horiz-adv-x="1165" d="M61 506q0 149 65.5 271.5t185.5 194.5t271 72t270.5 -72t185 -194.5t65.5 -271.5q0 -148 -65.5 -269t-185 -191.5t-270.5 -70.5t-271 70.5t-185.5 191.5t-65.5 269zM187 1241l377 332l377 -332l-180 -55l-197 184l-196 -184zM279 506q0 -153 84.5 -250.5t219.5 -97.5 t219 97.5t84 250.5q0 154 -84 252t-219 98t-219.5 -98t-84.5 -252z" />
<glyph unicode="&#xf5;" horiz-adv-x="1165" d="M61 506q0 149 65.5 271.5t185.5 194.5t271 72t270.5 -72t185 -194.5t65.5 -271.5q0 -148 -65.5 -269t-185 -191.5t-270.5 -70.5t-271 70.5t-185.5 191.5t-65.5 269zM175 1355q0 73 50 125t136 52q60 0 103 -18t115 -68q9 -7 40.5 -32t52 -40.5t48 -30t45.5 -14.5t18 24 q0 33 -34.5 86t-90.5 93h195q84 -48 84 -144q0 -73 -52.5 -128.5t-138.5 -55.5q-97 0 -182 64q-28 20 -77 64t-84.5 69.5t-59.5 25.5q-19 0 -19 -27q0 -39 34.5 -97.5t90.5 -98.5h-204q-70 63 -70 151zM279 506q0 -153 84.5 -250.5t219.5 -97.5t219 97.5t84 250.5 q0 154 -84 252t-219 98t-219.5 -98t-84.5 -252z" />
<glyph unicode="&#xf6;" horiz-adv-x="1165" d="M61 506q0 149 65.5 271.5t185.5 194.5t271 72t270.5 -72t185 -194.5t65.5 -271.5q0 -148 -65.5 -269t-185 -191.5t-270.5 -70.5t-271 70.5t-185.5 191.5t-65.5 269zM198 1194v221h221v-221h-221zM279 506q0 -153 84.5 -250.5t219.5 -97.5t219 97.5t84 250.5 q0 154 -84 252t-219 98t-219.5 -98t-84.5 -252zM705 1194v221h222v-221h-222z" />
<glyph unicode="&#xf7;" d="M106 430v205h1006v-205h-1006zM472 -4v272h273v-272h-273zM473 813v270h270v-270h-270z" />
<glyph unicode="&#xf8;" horiz-adv-x="1165" d="M61 506q0 149 65.5 271.5t185.5 194.5t271 72h20l108 363h215l-122 -409q138 -63 219 -195t81 -297q0 -148 -65.5 -269t-185 -191.5t-270.5 -70.5q-41 0 -80 6l-89 -301h-215l109 369q-116 70 -181.5 190t-65.5 267zM279 506q0 -156 89 -255l179 603 q-121 -13 -194.5 -109t-73.5 -239zM556 159q9 -1 27 -1q135 0 219 97.5t84 250.5q0 99 -36.5 177.5t-101.5 123.5z" />
<glyph unicode="&#xf9;" horiz-adv-x="1179" d="M82 418v606h221v-606q0 -244 227 -244q46 0 86 8.5t82 33t71.5 63.5t48 105t18.5 153v487h221v-1024h-221v131q-111 -145 -328 -145q-99 0 -176 25.5t-123 66.5t-75.5 99t-40.5 116t-11 125zM311 1360l125 207l377 -353l-180 -55z" />
<glyph unicode="&#xfa;" horiz-adv-x="1179" d="M82 418v606h221v-606q0 -244 227 -244q46 0 86 8.5t82 33t71.5 63.5t48 105t18.5 153v487h221v-1024h-221v131q-111 -145 -328 -145q-99 0 -176 25.5t-123 66.5t-75.5 99t-40.5 116t-11 125zM317 1214l377 353l125 -207l-321 -201z" />
<glyph unicode="&#xfb;" horiz-adv-x="1179" d="M82 418v606h221v-606q0 -244 227 -244q46 0 86 8.5t82 33t71.5 63.5t48 105t18.5 153v487h221v-1024h-221v131q-111 -145 -328 -145q-99 0 -176 25.5t-123 66.5t-75.5 99t-40.5 116t-11 125zM195 1241l376 332l377 -332l-180 -55l-197 184l-196 -184z" />
<glyph unicode="&#xfc;" horiz-adv-x="1179" d="M82 418v606h221v-606q0 -244 227 -244q46 0 86 8.5t82 33t71.5 63.5t48 105t18.5 153v487h221v-1024h-221v131q-111 -145 -328 -145q-99 0 -176 25.5t-123 66.5t-75.5 99t-40.5 116t-11 125zM205 1194v221h221v-221h-221zM713 1194v221h221v-221h-221z" />
<glyph unicode="&#xfd;" horiz-adv-x="1089" d="M31 1024h254l297 -622l256 622h231l-586 -1434h-233l221 541zM293 1214l377 353l125 -207l-322 -201z" />
<glyph unicode="&#xfe;" horiz-adv-x="1153" d="M82 -410l2 1987h221v-664q109 131 297 131q150 0 267 -71t180 -192.5t63 -272.5q0 -229 -141.5 -381t-368.5 -152q-186 0 -297 131v-516h-223zM283 508q0 -154 91 -246t228 -92q127 0 207 96.5t80 241.5q0 148 -79.5 244t-207.5 96q-138 0 -228.5 -91.5t-90.5 -248.5z " />
<glyph unicode="&#xff;" horiz-adv-x="1089" d="M31 1024h254l297 -622l256 622h231l-586 -1434h-233l221 541zM180 1194v221h221v-221h-221zM688 1194v221h221v-221h-221z" />
<glyph unicode="&#x152;" horiz-adv-x="2363" d="M61 713q0 150 52 283.5t144 232.5t226.5 157t292.5 58q221 0 393 -112v102h1096v-222h-874v-368h854v-221h-854v-402h895v-221h-1117v99q-170 -109 -393 -109q-209 0 -373.5 98t-253 262.5t-88.5 362.5zM283 713q0 -230 135.5 -376.5t357.5 -146.5q126 0 226.5 50 t166.5 140v671q-66 92 -166.5 142t-226.5 50q-221 0 -357 -149t-136 -381zM1220 468q50 112 50 245q0 117 -39 222z" />
<glyph unicode="&#x153;" horiz-adv-x="2074" d="M61 506q0 149 65.5 271.5t185.5 194.5t271 72q128 0 233.5 -52t176.5 -145q72 96 185 148t249 52q223 0 353.5 -119t130.5 -323q0 -66 -17 -146h-768q17 -146 105 -221.5t209 -75.5q116 0 186 47t113 125l202 -96q-147 -263 -501 -263q-134 0 -250.5 51t-191.5 150 q-71 -95 -177.5 -148t-237.5 -53q-151 0 -271 70.5t-185.5 191.5t-65.5 269zM279 506q0 -153 84.5 -250.5t219.5 -97.5t219 97.5t84 250.5q0 154 -84 252t-219 98t-219.5 -98t-84.5 -252zM1131 612h548q4 24 4 38q0 89 -66.5 151.5t-189.5 62.5q-117 0 -195 -67.5 t-101 -184.5z" />
<glyph unicode="&#x178;" horiz-adv-x="1329" d="M31 1434h231l402 -614l403 614h231l-524 -805v-629h-221v629zM301 1604v221h221v-221h-221zM809 1604v221h221v-221h-221z" />
<glyph unicode="&#x2c6;" d="M215 1239l377 332l377 -332l-181 -55l-196 184l-197 -184z" />
<glyph unicode="&#x2dc;" d="M242 1351q0 73 50 125t136 52q60 0 102.5 -18t114.5 -68q9 -7 40.5 -32t52 -40.5t48 -30t45.5 -14.5q19 0 19 23q0 33 -34.5 86.5t-90.5 93.5h195q84 -48 84 -144q0 -73 -52.5 -128.5t-138.5 -55.5q-97 0 -182 64q-28 20 -77 64t-84.5 69.5t-59.5 25.5q-19 0 -19 -27 q0 -39 34.5 -97.5t90.5 -98.5h-205q-69 62 -69 151z" />
<glyph unicode="&#x2000;" horiz-adv-x="1035" />
<glyph unicode="&#x2001;" horiz-adv-x="2071" />
<glyph unicode="&#x2002;" horiz-adv-x="1035" />
<glyph unicode="&#x2003;" horiz-adv-x="2071" />
<glyph unicode="&#x2004;" horiz-adv-x="690" />
<glyph unicode="&#x2005;" horiz-adv-x="517" />
<glyph unicode="&#x2006;" horiz-adv-x="345" />
<glyph unicode="&#x2007;" horiz-adv-x="345" />
<glyph unicode="&#x2008;" horiz-adv-x="258" />
<glyph unicode="&#x2009;" horiz-adv-x="414" />
<glyph unicode="&#x200a;" horiz-adv-x="115" />
<glyph unicode="&#x2010;" horiz-adv-x="1058" d="M98 430v205h863v-205h-863z" />
<glyph unicode="&#x2011;" horiz-adv-x="1058" d="M98 430v205h863v-205h-863z" />
<glyph unicode="&#x2012;" horiz-adv-x="1058" d="M98 430v205h863v-205h-863z" />
<glyph unicode="&#x2013;" d="M164 532v205h899v-205h-899z" />
<glyph unicode="&#x2014;" d="M29 532v205h1169v-205h-1169z" />
<glyph unicode="&#x2018;" horiz-adv-x="634" d="M141 1030v270h129q0 35 -2 57t-10.5 51.5t-28.5 53t-53 43.5v119q67 -17 116.5 -60t73.5 -94.5t35 -94t11 -75.5v-270h-271z" />
<glyph unicode="&#x2019;" horiz-adv-x="634" d="M141 1352v270h271v-270q0 -33 -11 -75.5t-35 -94t-73.5 -94.5t-116.5 -60v119q61 37 77.5 84.5t16.5 120.5h-129z" />
<glyph unicode="&#x201a;" horiz-adv-x="634" d="M141 -2v270h271v-270q0 -33 -11 -75.5t-35 -94t-73.5 -94.5t-116.5 -60v119q61 37 77.5 84.5t16.5 120.5h-129z" />
<glyph unicode="&#x201c;" horiz-adv-x="1122" d="M223 1026v270q0 33 11 75.5t35 94t73.5 94.5t116.5 60v-119q-61 -37 -77.5 -84.5t-16.5 -120.5h129v-270h-271zM711 1026v270q0 25 6 57t22.5 74.5t41.5 78.5t68 68t97 46v-119q-61 -37 -77.5 -84.5t-16.5 -120.5h129v-270h-270z" />
<glyph unicode="&#x201d;" horiz-adv-x="1122" d="M141 1327v270h271v-270q0 -33 -11 -75.5t-35 -94t-73.5 -94t-116.5 -59.5v118q61 37 77.5 84.5t16.5 120.5h-129zM629 1327v270h270v-270q0 -25 -6 -57t-22.5 -74t-41.5 -78.5t-68 -68t-97 -45.5v118q61 37 77.5 84.5t16.5 120.5h-129z" />
<glyph unicode="&#x201e;" d="M141 -2v270h271v-270q0 -33 -11 -75.5t-35 -94t-73.5 -94.5t-116.5 -60v119q61 37 77.5 84.5t16.5 120.5h-129zM680 -2v270h270v-270q0 -25 -6 -57t-22.5 -74.5t-41.5 -78.5t-68 -68t-97 -46v119q61 37 77.5 84.5t16.5 120.5h-129z" />
<glyph unicode="&#x2022;" d="M213 604q0 166 117.5 284t283.5 118t284 -118t118 -284t-118 -283.5t-284 -117.5t-283.5 117.5t-117.5 283.5z" />
<glyph unicode="&#x2026;" horiz-adv-x="1499" d="M141 -2v270h271v-270h-271zM623 -2v270h270v-270h-270zM1087 -2v270h271v-270h-271z" />
<glyph unicode="&#x202f;" horiz-adv-x="414" />
<glyph unicode="&#x2039;" horiz-adv-x="710" d="M51 547l340 438l137 -90l-254 -348l254 -348l-137 -93z" />
<glyph unicode="&#x203a;" horiz-adv-x="720" d="M182 199l254 348l-254 348l137 90l340 -438l-340 -441z" />
<glyph unicode="&#x205f;" horiz-adv-x="517" />
<glyph unicode="&#x20ac;" horiz-adv-x="1599" d="M66 420v190h205q-7 58 -7 103q0 19 2 55h-200v190h236q70 218 250 352t427 134q197 0 352.5 -83t249.5 -231l-207 -104q-63 104 -166.5 160.5t-228.5 56.5q-144 0 -256 -76.5t-169 -208.5h574v-190h-620q-2 -36 -2 -55q0 -50 8 -103h614v-190h-549q62 -108 166 -169 t234 -61q122 0 224 53.5t165 151.5l209 -100q-92 -144 -247 -224.5t-351 -80.5q-231 0 -404.5 117.5t-253.5 312.5h-255z" />
<glyph unicode="&#x2122;" horiz-adv-x="1798" d="M133 1262h209v-471h170v471h209v168h-588v-168zM829 791v639l226 2l192 -447l191 447l223 -2v-639h-168v335l-147 -335h-199l-150 339v-339h-168z" />
<glyph unicode="&#x25fc;" horiz-adv-x="1024" d="M0 0v1024h1024v-1024h-1024z" />
</font>
</defs>
</svg>
