<?xml version="1.0" standalone="no"?>
<!DOCTYPE svg PUBLIC "-//W3C//DTD SVG 1.1//EN" "http://www.w3.org/Graphics/SVG/1.1/DTD/svg11.dtd" >
<svg xmlns="http://www.w3.org/2000/svg" xmlns:xlink="http://www.w3.org/1999/xlink" version="1.1">
<metadata></metadata>
<defs>
<font id="panamerabold" horiz-adv-x="600" >
<font-face units-per-em="1000" ascent="800" descent="-200" />
<missing-glyph horiz-adv-x="294" />
<glyph horiz-adv-x="0" />
<glyph horiz-adv-x="333" />
<glyph unicode="&#xd;" />
<glyph unicode=" "  horiz-adv-x="294" />
<glyph unicode="&#x09;" horiz-adv-x="294" />
<glyph unicode="&#xa0;" horiz-adv-x="294" />
<glyph unicode="!" horiz-adv-x="310" d="M87 218l-21 359v153h178l-1 -153l-20 -359h-136zM80 0v152h152v-152h-152z" />
<glyph unicode="&#x22;" horiz-adv-x="644" d="M352 472l-12 284h178l-12 -284h-154zM126 756h178l-12 -284h-154z" />
<glyph unicode="#" horiz-adv-x="823" d="M750 289v-120h-170l-57 -171h-157l57 171h-148l-57 -171h-156l57 171h-98v120h139l52 155h-131v120h171l63 188h156l-63 -188h148l63 188h156l-63 -188h108v-120h-148l-52 -155h130zM316 289h148l52 155h-148z" />
<glyph unicode="$" horiz-adv-x="572" d="M256 -3q-97 14 -158 67t-86 131l125 63q22 -61 48.5 -94t70.5 -45v209q-95 36 -140 78.5t-45 114.5q0 74 50.5 122t134.5 61v100h51v-95h9q13 0 19 -1v96h50v-102q71 -15 119 -56t54 -102l-141 -36q-6 50 -32 72v-174q40 -15 69.5 -30t62.5 -38.5t51 -56t18 -71.5 q0 -86 -51.5 -142.5t-149.5 -71.5v-97h-50v93h-14h-14v-93h-51v98zM221 521q0 -36 35 -59v121q-35 -21 -35 -62zM307 111h14h14v189q-6 3 -28 10v-199zM307 435l28 -11v174q-6 1 -19 1h-9v-164zM385 120q52 19 52 80q0 50 -52 78v-158z" />
<glyph unicode="%" horiz-adv-x="845" d="M127 -38l480 761h166l-481 -761h-165zM10 507q0 94 49.5 155t138.5 61q88 0 139.5 -61t51.5 -155q0 -93 -51.5 -153.5t-139.5 -60.5q-89 0 -138.5 60.5t-49.5 153.5zM148 507q0 -51 14.5 -78.5t35.5 -27.5q22 0 37.5 27t15.5 79q0 54 -15 80.5t-38 26.5q-21 0 -35.5 -27 t-14.5 -80zM523 200q0 93 50.5 154.5t138.5 61.5q89 0 139 -61t50 -155t-50 -155t-139 -61q-88 0 -138.5 61.5t-50.5 154.5zM661 200q0 -53 15 -80t36 -27t36 27t15 80t-15 80t-36 27t-36 -27t-15 -80z" />
<glyph unicode="&#x26;" horiz-adv-x="925" d="M737 471q2 -205 -94 -336q55 -39 88 -39q39 0 39 39q0 20 -16 47t-45 46l112 87q52 -50 68 -93t16 -91q0 -76 -44 -110.5t-145 -34.5q-72 0 -164 60q-90 -60 -209 -60q-138 0 -230.5 79t-92.5 185q0 76 50 125.5t135 84.5q-36 77 -36 128q0 94 63.5 142.5t166.5 48.5 q94 0 157.5 -53t63.5 -123q0 -36 -14 -65t-33 -48t-52.5 -37t-59.5 -28t-68 -23q64 -96 149 -180q40 88 40 249h155zM176 250q0 -70 47 -113.5t120 -43.5q66 0 114 28q-110 101 -195 235q-86 -40 -86 -106zM315 588q0 -36 21 -83q70 23 104.5 42t34.5 46q0 38 -21.5 58.5 t-54.5 20.5q-35 0 -59.5 -20.5t-24.5 -63.5z" />
<glyph unicode="'" horiz-adv-x="430" d="M138 472l-12 284h178l-12 -284h-154z" />
<glyph unicode="(" horiz-adv-x="373" d="M222 -144q-32 46 -54 84t-50 98t-43.5 129.5t-16.5 143.5q3 247 165 455h149q-53 -63 -97.5 -181.5t-46.5 -275.5q4 -261 143 -453h-149z" />
<glyph unicode=")" horiz-adv-x="373" d="M2 -144q139 192 143 453q-2 157 -46.5 275.5t-97.5 181.5h149q162 -208 165 -455q-1 -74 -16.5 -143.5t-43.5 -129.5t-50 -98t-54 -84h-149z" />
<glyph unicode="*" d="M271 409l8 120l-63 -102l-31 22l78 92l-112 -45l-11 35l116 29l-116 28l11 37l111 -45l-78 91l31 22l64 -103l-8 121h36l-8 -120l63 102l31 -22l-78 -92l112 45l11 -35l-116 -29l116 -28l-11 -37l-111 45l78 -91l-31 -22l-64 103l8 -121h-36z" />
<glyph unicode="+" d="M227 -3v188h-191v116h191v189h146v-189h190v-116h-190v-188h-146z" />
<glyph unicode="," horiz-adv-x="380" d="M83 -95q43 16 45 87v8h-62v148h178v-148q0 -18 -6.5 -41t-22 -51t-50 -49.5t-82.5 -27.5v74z" />
<glyph unicode="-" horiz-adv-x="517" d="M29 202v116h459v-116h-459z" />
<glyph unicode="." horiz-adv-x="296" d="M46 0v152h152v-152h-152z" />
<glyph unicode="/" horiz-adv-x="413" d="M37 -117l249 839h120l-249 -839h-120z" />
<glyph unicode="0" horiz-adv-x="694" d="M346 -12q-148 0 -229.5 99.5t-81.5 260.5t81.5 260.5t229.5 99.5q149 0 231 -99.5t82 -260.5t-82 -260.5t-231 -99.5zM190 348q0 -119 43 -184t113 -65q71 0 114.5 65t43.5 184t-43.5 184t-114.5 65q-70 0 -113 -65t-43 -184z" />
<glyph unicode="1" horiz-adv-x="377" d="M174 0v537h-145v100q38 -8 65 -8q37 0 58.5 13.5t21.5 39.5v18h154v-700h-154z" />
<glyph unicode="2" horiz-adv-x="557" d="M23 100q16 29 57.5 63.5t87.5 68t90.5 72t74 88t30.5 103.5q1 52 -22 80.5t-63 28.5q-47 0 -68.5 -29t-12.5 -75l-153 -15q-14 104 55.5 166t178.5 62q115 0 176.5 -61t61.5 -159q0 -52 -17.5 -98t-44.5 -78t-62 -61.5t-66 -50t-60.5 -43t-42.5 -39.5h312v-123h-513z" />
<glyph unicode="3" horiz-adv-x="603" d="M302 -10q-117 0 -191.5 62.5t-70.5 176.5h153q-2 -71 25.5 -101t83.5 -30q46 0 77 31.5t31 90.5t-27 89.5t-71 30.5q-33 0 -67 -14l-65 78l175 188h-281v108h467v-98l-181 -177q87 2 145 -51t58 -154t-78.5 -165.5t-182.5 -64.5z" />
<glyph unicode="4" horiz-adv-x="630" d="M333 0v186l-303 1l1 103l322 410h134v-399h110v-115h-110v-186h-154zM194 301h139v183z" />
<glyph unicode="5" d="M304 -10q-107 0 -186 67t-74 172h152q-3 -63 28.5 -97t79.5 -34q46 0 79.5 33.5t33.5 92.5q0 65 -32 96t-81 31t-76 -43h-125v392h431v-124h-297v-129q34 14 78 14q49 0 93.5 -14t81.5 -41.5t58.5 -74t21.5 -107.5q0 -101 -81 -167.5t-185 -66.5z" />
<glyph unicode="6" horiz-adv-x="547" d="M273 -10q-104 0 -183 64.5t-79 165.5q0 61 55 148l206 332h176l-156 -251q8 0 24 -2q91 -14 154.5 -76t63.5 -151q0 -101 -78.5 -165.5t-182.5 -64.5zM165 220q0 -59 30.5 -90t76.5 -31t77 31t31 90t-30.5 90t-76.5 31t-77 -31t-31 -90z" />
<glyph unicode="7" horiz-adv-x="504" d="M14 0l280 576h-266v124h489l-331 -700h-172z" />
<glyph unicode="8" horiz-adv-x="568" d="M285 -4q-106 0 -185.5 63t-79.5 162q0 109 100 175q-61 53 -61 127q0 83 70 134.5t155 51.5q84 0 154.5 -52t70.5 -135q0 -74 -61 -127q100 -66 100 -175q0 -99 -79 -161.5t-184 -62.5zM174 220q0 -58 31 -88.5t79 -30.5q47 0 78.5 31t31.5 89q0 57 -31 87t-78 30 q-48 0 -79.5 -30.5t-31.5 -87.5zM214 522q0 -37 20 -58.5t50 -21.5q29 0 49.5 22t20.5 59q0 42 -20.5 61t-48.5 19q-29 0 -50 -19.5t-21 -61.5z" />
<glyph unicode="9" d="M301 269q-3 0 -10 0.5t-10 0.5q-96 9 -164 70t-68 151q0 97 78.5 159t182.5 62t183 -62.5t79 -159.5q0 -57 -46.5 -147t-126 -208t-89.5 -135h-176zM203 490q0 -56 30.5 -86t76.5 -30t77 30.5t31 86.5t-30.5 86t-76.5 30t-77 -30.5t-31 -86.5z" />
<glyph unicode=":" horiz-adv-x="270" d="M45 -1v149h180v-149h-180zM46 398v148h178v-148h-178z" />
<glyph unicode=";" horiz-adv-x="385" d="M88 -93q45 16 45 90v5h-62v148h178v-148q0 -18 -6.5 -41t-22 -51t-50 -49.5t-82.5 -27.5v74zM71 386v148h178v-148h-178z" />
<glyph unicode="&#x3c;" d="M574 14l-569 313l569 312v-150l-320 -162l320 -162v-151z" />
<glyph unicode="=" d="M21 299v117h555v-117h-555zM21 114v117h555v-117h-555z" />
<glyph unicode="&#x3e;" d="M28 14v151l320 162l-320 162v150l569 -312z" />
<glyph unicode="?" horiz-adv-x="513" d="M270 188q-61 0 -109 34.5t-48 98.5q0 42 25 73.5t60.5 50t71.5 35t61 36.5t25 45q0 24 -18 43t-53 19q-49 0 -86.5 -38.5t-31.5 -106.5l-127 94q18 65 85.5 106.5t149.5 41.5q104 0 161 -41.5t57 -105.5q0 -49 -26.5 -84.5t-64.5 -55.5t-76 -35.5t-64.5 -34t-26.5 -42.5 q0 -39 35 -39q21 0 29 22.5t4 50.5l139 -44q-19 -59 -64 -91t-108 -32zM199 0v152h152v-152h-152z" />
<glyph unicode="@" horiz-adv-x="968" d="M484 -223q-102 0 -190.5 37t-148 99t-93.5 145.5t-34 174.5q0 124 57 229t164.5 168.5t244.5 63.5t244.5 -63.5t164.5 -168.5t57 -229q0 -107 -54.5 -177.5t-157.5 -70.5q-92 0 -141 63q-60 -63 -163 -63q-96 0 -152 44.5t-56 113.5q0 59 54 101t171 54q53 6 81 24.5 t25 41.5q-14 41 -66 41q-26 0 -41 -19t-18 -37t-1 -24l-160 1q-15 50 15.5 94t87 68t117.5 24q59 0 103 -15t67 -36t36.5 -51.5t17 -54.5t3.5 -53v-165q0 -35 27 -35q8 0 16 10t15 41.5t7 79.5q0 151 -82.5 245t-216.5 94q-133 0 -216 -94.5t-83 -244.5q0 -148 82.5 -240.5 t216.5 -92.5q70 0 120.5 18t93.5 62l103 -98q-111 -105 -317 -105zM385 147q0 -28 14.5 -48t48.5 -20q51 0 85 39t31 121q-46 -20 -102 -26q-77 -10 -77 -66z" />
<glyph unicode="A" horiz-adv-x="813" d="M40 0l284 700h165l284 -700h-162l-73 177h-263l-73 -177h-162zM320 288h173l-86 209z" />
<glyph unicode="B" horiz-adv-x="630" d="M50 0v700h210q96 0 162 -41.5t66 -130.5q0 -63 -43 -109q155 -44 155 -194q0 -107 -80 -166t-205 -59h-265zM203 115h94q149 0 149 110q0 67 -37 97t-114 30h-92v-237zM203 438h54q41 0 64.5 18t23.5 52q0 77 -85 77h-57v-147z" />
<glyph unicode="C" horiz-adv-x="745" d="M414 -5q-159 0 -261.5 104t-102.5 249q0 147 101.5 252t262.5 105q103 0 185.5 -44.5t125.5 -115.5l-135 -68q-60 113 -176 113q-86 0 -143 -67.5t-57 -174.5q0 -106 56.5 -172t143.5 -66q113 0 173 107l136 -66q-42 -70 -124.5 -113t-184.5 -43z" />
<glyph unicode="D" horiz-adv-x="690" d="M50 0v700h210q83 0 152.5 -20t125 -61t86.5 -109.5t31 -158.5q0 -175 -103 -263t-277 -88h-225zM204 115h71q114 0 167.5 54t53.5 182q0 126 -61.5 180t-174.5 54h-56v-470z" />
<glyph unicode="E" horiz-adv-x="669" d="M50 0v700h569v-124h-415v-156h405v-124h-405v-172h425v-124h-579z" />
<glyph unicode="F" horiz-adv-x="669" d="M60 0v700h569v-124h-415v-156h405v-124h-405v-296h-154z" />
<glyph unicode="G" horiz-adv-x="806" d="M411 -5q-168 0 -264.5 102t-96.5 251q0 147 103 252t263 105q103 0 184 -44t124 -116l-135 -68q-60 113 -173 113q-87 0 -145 -67.5t-58 -174.5q0 -109 54 -173.5t149 -64.5q91 0 134 52t43 131v3h-213v115h366v-411h-144v163q0 -69 -52 -118.5t-139 -49.5z" />
<glyph unicode="H" horiz-adv-x="733" d="M50 0v700h154v-271h325v271h154v-700h-154v304h-325v-304h-154z" />
<glyph unicode="I" horiz-adv-x="294" d="M70 0v700h154v-700h-154z" />
<glyph unicode="J" horiz-adv-x="617" d="M268 -12q-97 0 -159 38t-85 94l127 88q22 -62 37 -79q26 -29 80 -29q49 0 81.5 35t32.5 104v461h154l1 -443q0 -127 -75 -198t-194 -71z" />
<glyph unicode="K" horiz-adv-x="679" d="M50 0v700h154v-267l245 267h177l-252 -275l280 -425h-173l-207 314l-70 -76v-238h-154z" />
<glyph unicode="L" horiz-adv-x="615" d="M50 0v700h153v-576h382v-124h-535z" />
<glyph unicode="M" horiz-adv-x="934" d="M50 0v700l193 1l224 -520l224 520l193 -1v-700h-154v409l-181 -409h-164l-181 407v-407h-154z" />
<glyph unicode="N" horiz-adv-x="679" d="M50 0v700h154l271 -428v428h154v-700h-152l-273 436v-436h-154z" />
<glyph unicode="O" horiz-adv-x="828" d="M414 -5q-160 0 -262 104t-102 249q0 147 101.5 252t262.5 105t262.5 -105t101.5 -252q0 -94 -44.5 -174.5t-128.5 -129.5t-191 -49zM204 348q0 -106 58 -172t152 -66t152 66t58 172q0 108 -58 175t-152 67q-93 0 -151.5 -67t-58.5 -175z" />
<glyph unicode="P" horiz-adv-x="579" d="M50 0v700h253q41 0 81 -11t75.5 -33.5t57.5 -63t22 -93.5q0 -54 -21 -94.5t-57 -63t-77 -33.5t-87 -11h-93v-297h-154zM204 409h93q98 0 98 90q0 86 -95 86h-96v-176z" />
<glyph unicode="Q" horiz-adv-x="836" d="M404 -5q-153 0 -253.5 104t-100.5 249q0 146 100 251.5t254 105.5t254 -105.5t100 -251.5q0 -122 -72 -216l143 -132h-193l-48 44q-82 -49 -184 -49zM204 348q0 -106 56.5 -172t143.5 -66q48 0 90 22l-198 185h188l96 -88q24 54 24 119q0 107 -56.5 174.5t-143.5 67.5 q-86 0 -143 -67.5t-57 -174.5z" />
<glyph unicode="R" horiz-adv-x="682" d="M50 0v700h240q103 0 176 -47.5t73 -144.5q0 -104 -91 -156l224 -352h-173l-200 316h-9h-86v-316h-154zM204 431h86q48 0 71.5 18t23.5 59t-23.5 59t-71.5 18h-86v-154z" />
<glyph unicode="S" horiz-adv-x="612" d="M321 -8q-125 0 -202.5 56.5t-106.5 146.5l125 63q27 -76 69.5 -111.5t114.5 -35.5q54 0 85 23.5t31 65.5q0 19 -7.5 34.5t-18 25.5t-32 21t-38 17t-48.5 17q-116 40 -169 84t-53 122q0 88 69 138t176 50q93 0 163.5 -44.5t78.5 -120.5l-141 -36q-5 48 -29 69.5t-72 21.5 q-41 0 -68 -21.5t-27 -56.5q0 -32 26.5 -53t90.5 -45q2 -1 27 -10t32.5 -12t31.5 -13t34 -16t30.5 -18t30.5 -21.5t24.5 -24t21 -29t11.5 -32.5t5 -37q0 -100 -68.5 -159t-196.5 -59z" />
<glyph unicode="T" horiz-adv-x="717" d="M282 0v576h-257v124h667v-124h-256v-576h-154z" />
<glyph unicode="U" horiz-adv-x="622" d="M311 -12q-123 0 -200.5 62.5t-77.5 177.5l1 472h153v-472q0 -128 124 -128t124 128v472h153l1 -472q0 -115 -77.5 -177.5t-200.5 -62.5z" />
<glyph unicode="V" horiz-adv-x="629" d="M233 0l-239 700h153l168 -490l167 490h153l-240 -700h-162z" />
<glyph unicode="W" horiz-adv-x="894" d="M196 0l-156 700h154l83 -452l96 442h148l96 -442l83 452h154l-156 -700h-159l-92 382l-92 -382h-159z" />
<glyph unicode="X" horiz-adv-x="783" d="M773 0h-181l-198 257l-202 -257h-182l295 374l-251 326h182l169 -220l174 220h182l-267 -336z" />
<glyph unicode="Y" horiz-adv-x="703" d="M274 0v307l-254 393h158l173 -279l174 279h158l-255 -393v-307h-154z" />
<glyph unicode="Z" horiz-adv-x="589" d="M10 0v125l376 451h-354v124h547v-124l-377 -451h373v-125h-565z" />
<glyph unicode="[" horiz-adv-x="500" d="M126 -148v959h298v-128h-137v-703h137v-128h-298z" />
<glyph unicode="\" d="M343 -117l-249 839h120l249 -839h-120z" />
<glyph unicode="]" horiz-adv-x="500" d="M126 -148v128h137v703h-137v128h298v-959h-298z" />
<glyph unicode="^" d="M59 233l245 481l245 -481h-143l-102 205l-102 -205h-143z" />
<glyph unicode="_" d="M-8 -185v126h610v-126h-610z" />
<glyph unicode="`" horiz-adv-x="610" d="M418 566l-279 89l77 128l274 -172z" />
<glyph unicode="a" horiz-adv-x="568" d="M220 -13q-93 0 -141.5 43.5t-48.5 112.5q0 134 223 154q112 10 112 60t-64 50q-25 0 -42 -7.5t-24.5 -20t-10.5 -22.5t-3 -20q0 -7 1 -8h-148q-4 13 -4 30q0 61 65.5 105.5t156.5 44.5q59 0 102.5 -14.5t66.5 -35.5t36.5 -51.5t17 -54.5t3.5 -52v-301h-153v57 q-46 -70 -145 -70zM181 148q0 -27 19 -47t53 -20q49 0 82 36t33 112v10q-48 -20 -102 -26q-85 -11 -85 -65z" />
<glyph unicode="b" horiz-adv-x="638" d="M36 0l-1 700h153v-210l-7 -81q37 103 173 103q117 0 190.5 -75.5t73.5 -184.5t-74 -185t-190 -76q-71 0 -111.5 22.5t-59.5 69.5l5 -57v-26h-152zM180 252q0 -73 39 -111.5t107 -38.5q61 0 96 41t35 109t-35 109t-96 41q-68 0 -107 -39t-39 -111z" />
<glyph unicode="c" horiz-adv-x="599" d="M312 -12q-117 0 -199.5 68.5t-82.5 188.5q0 123 81 194.5t207 71.5q96 0 161 -39.5t86 -106.5l-133 -62q0 47 -31.5 75t-82.5 28q-63 0 -103.5 -42.5t-40.5 -118.5q0 -68 36 -109.5t102 -41.5q59 0 89.5 27.5t45.5 81.5l134 -53q-67 -162 -269 -162z" />
<glyph unicode="d" horiz-adv-x="638" d="M602 0h-152v26l5 57q-19 -47 -59.5 -69.5t-111.5 -22.5q-116 0 -190 76t-74 185t73.5 184.5t190.5 75.5q136 0 173 -103l-7 81v210h153zM183 252q0 -68 35 -109t96 -41q68 0 107 38.5t39 111.5q0 70 -38.5 110t-107.5 40q-61 0 -96 -41t-35 -109z" />
<glyph unicode="e" horiz-adv-x="593" d="M393 308q2 12 2 18q0 37 -26 58.5t-72 21.5q-40 0 -71.5 -24t-43.5 -74h211zM30 255q0 117 72.5 186.5t190.5 69.5t186 -59.5t68 -160.5q0 -35 -9 -76h-360q15 -122 135 -122q86 0 117 93l123 -58q-25 -67 -93.5 -103.5t-156.5 -36.5q-124 0 -198.5 69t-74.5 198z" />
<glyph unicode="f" horiz-adv-x="397" d="M94 0l1 385h-88v116h86q-45 26 -45 85q0 68 58 110t161 42q45 0 85 -12.5t66 -31.5t41 -34t23 -28l-130 -55q0 1 -5 10.5t-8 14.5t-11 14t-15.5 14.5t-19.5 9.5t-26 4q-38 0 -58.5 -19t-20.5 -53q0 -28 23 -49.5t63 -21.5h128v-116h-156v-385h-152z" />
<glyph unicode="g" horiz-adv-x="638" d="M317 -260q-115 0 -182.5 51t-83.5 123l145 28q16 -46 42 -68.5t79 -22.5q62 0 97.5 40.5t35.5 116.5v35l4 41q-39 -96 -170 -96q-117 0 -190.5 75.5t-73.5 184.5t74 185t190 76q71 0 111.5 -22.5t59.5 -69.5l-5 57v26h152l1 -492q0 -124 -79 -196t-207 -72zM181 248 q0 -68 35 -109t96 -41q68 0 107 39t39 111q0 73 -39 111.5t-107 38.5q-61 0 -96 -41t-35 -109z" />
<glyph unicode="h" horiz-adv-x="620" d="M45 0v700h152v-253q54 60 144 60q66 0 113.5 -19t71.5 -52t34 -67.5t10 -74.5v-294h-155v294q0 52 -19.5 78.5t-65.5 26.5q-54 0 -93.5 -40t-39.5 -120v-239h-152z" />
<glyph unicode="i" horiz-adv-x="312" d="M80 0v500h152v-500h-152zM80 574v152h152v-152h-152z" />
<glyph unicode="j" horiz-adv-x="312" d="M22 -260q-124 0 -197 104l111 84q18 -71 66 -71q41 0 59.5 22.5t18.5 58.5v562h152v-562q0 -34 -10.5 -66t-32.5 -63t-65.5 -50t-101.5 -19zM80 574v152h152v-152h-152z" />
<glyph unicode="k" horiz-adv-x="581" d="M50 0v700h152v-391l182 191h170l-189 -203l196 -297h-170l-126 191l-63 -67v-124h-152z" />
<glyph unicode="l" horiz-adv-x="312" d="M80 0v700h152v-700h-152z" />
<glyph unicode="m" horiz-adv-x="994" d="M341 507q143 0 194 -99q56 99 169 99q66 0 113.5 -19t71.5 -52t34 -67.5t10 -74.5v-294h-155v294q0 105 -92 105q-52 0 -89 -33t-37 -97v-269h-155v294q0 50 -21 77.5t-61 27.5q-52 0 -89 -33t-37 -97v-269h-152v500h152v-78q12 38 53.5 61.5t90.5 23.5z" />
<glyph unicode="n" d="M341 507q66 0 113.5 -19t71.5 -52t34 -67.5t10 -74.5v-294h-155v294q0 105 -92 105q-52 0 -89 -33t-37 -97v-269h-152v500h152v-78q12 38 53.5 61.5t90.5 23.5z" />
<glyph unicode="o" horiz-adv-x="584" d="M302 -12q-118 0 -194 76t-76 183q0 108 76 185.5t194 77.5t194 -77.5t76 -185.5q0 -107 -76 -183t-194 -76zM175 247q0 -75 35 -114.5t92 -39.5t92 39.5t35 114.5q0 76 -35 115.5t-92 39.5t-92 -39.5t-35 -115.5z" />
<glyph unicode="p" horiz-adv-x="638" d="M36 500h152v-26l-5 -57q19 47 59.5 69.5t111.5 22.5q116 0 190 -76t74 -185t-73.5 -184.5t-190.5 -75.5q-136 0 -173 103l7 -81v-210h-153zM180 248q0 -72 39 -111t107 -39q61 0 96 41t35 109t-35 109t-96 41q-68 0 -107 -38.5t-39 -111.5z" />
<glyph unicode="q" horiz-adv-x="638" d="M602 500l1 -700h-153v210l7 81q-37 -103 -173 -103q-117 0 -190.5 75.5t-73.5 184.5t74 185t190 76q71 0 111.5 -22.5t59.5 -69.5l-5 57v26h152zM181 248q0 -68 35 -109t96 -41q68 0 107 39t39 111q0 73 -39 111.5t-107 38.5q-61 0 -96 -41t-35 -109z" />
<glyph unicode="r" horiz-adv-x="532" d="M45 0v500h152v-67q21 34 64 55.5t87 21.5q79 0 126.5 -50.5t47.5 -117.5q0 -11 -1 -17h-150q4 36 -14 55t-50 19q-46 0 -78 -34.5t-32 -105.5v-259h-152z" />
<glyph unicode="s" horiz-adv-x="518" d="M252 511q89 0 152.5 -40t84.5 -106l-133 -62q0 48 -25.5 75.5t-68.5 27.5q-29 0 -46 -12t-17 -34q0 -30 31 -44.5t74.5 -21t87.5 -16.5t75 -41t31 -84q0 -76 -63.5 -120.5t-170.5 -44.5q-199 0 -244 162l134 53q32 -110 110 -110q38 0 62 15.5t24 38.5t-22 36t-54.5 17.5 t-71 14.5t-71 23.5t-54.5 47.5t-22 84q0 64 58.5 102.5t138.5 38.5z" />
<glyph unicode="t" horiz-adv-x="491" d="M301 -8q-105 0 -152 47.5t-47 122.5v226h-87v116h87v196h152v-196h146v-116h-146v-224q0 -67 47 -67q51 0 69 78l116 -67q-58 -116 -185 -116z" />
<glyph unicode="u" horiz-adv-x="601" d="M269 -7q-65 0 -111 19t-69.5 52t-33.5 67.5t-10 74.5v294h152v-294q0 -53 19 -79t64 -26q119 0 119 151v248h152v-500h-152v51q-45 -58 -130 -58z" />
<glyph unicode="v" horiz-adv-x="572" d="M216 0l-201 500h151l120 -306l120 306h151l-201 -500h-140z" />
<glyph unicode="w" horiz-adv-x="764" d="M157 0l-142 500h152l74 -319l74 319h134l74 -320l74 320h152l-143 -500h-167l-57 295l-57 -295h-168z" />
<glyph unicode="x" horiz-adv-x="625" d="M595 0h-180l-112 146l-113 -146h-180l202 263l-182 237h180l112 -146l113 146h180l-202 -263z" />
<glyph unicode="y" horiz-adv-x="598" d="M146 -200l94 231l-230 469h167l138 -287l117 287h156l-285 -700h-157z" />
<glyph unicode="z" horiz-adv-x="521" d="M20 0v105l261 280h-246v115h458v-105l-271 -280h279v-115h-481z" />
<glyph unicode="{" horiz-adv-x="512" d="M424 657q-30 25 -58 25q-27 0 -38 -17t-11 -52t21.5 -100t20.5 -102q0 -45 -21 -68t-78 -34q57 -12 78 -35t21 -68q1 -37 -20.5 -102t-21.5 -100t11 -52t38 -17q28 0 58 25v-107q-37 -26 -95 -26q-75 0 -116.5 46.5t-41.5 130.5q0 41 22 102.5t22 80.5q0 57 -64 57h-23 v129h23q64 0 64 57q0 19 -22 80.5t-22 102.5q0 84 41.5 130.5t116.5 46.5q58 0 95 -26v-107z" />
<glyph unicode="|" horiz-adv-x="314" d="M77 -148v959h161v-959h-161z" />
<glyph unicode="}" horiz-adv-x="512" d="M88 764q37 26 95 26q75 0 116.5 -46.5t41.5 -130.5q0 -41 -22 -102.5t-22 -80.5q0 -57 64 -57h23v-129h-23q-64 0 -64 -57q0 -19 22 -80.5t22 -102.5q0 -84 -41.5 -130.5t-116.5 -46.5q-58 0 -95 26v107q30 -25 58 -25q27 0 38 17t11 52t-21.5 100t-20.5 102q0 45 21 68 t78 35q-57 11 -78 34t-21 68q-1 37 20.5 102t21.5 100t-11 52t-38 17q-28 0 -58 -25v107z" />
<glyph unicode="~" d="M415 211q-65 0 -131 47q-8 5 -30 24t-36 26t-31 7q-15 0 -24 -14t-9 -34q0 -17 8 -33h-129q-8 18 -8 47q0 51 34.5 90t119.5 39q66 0 132 -47q9 -6 25.5 -19t25.5 -19.5t21.5 -12.5t23.5 -6q15 0 23.5 12t8.5 31q0 17 -8 38h130q8 -18 8 -47q0 -51 -34.5 -90t-119.5 -39z " />
<glyph unicode="&#xa1;" horiz-adv-x="310" d="M87 322h136l20 -359l1 -153h-178v153zM80 388v152h152v-152h-152z" />
<glyph unicode="&#xa2;" horiz-adv-x="549" d="M296 85q-112 6 -189 74t-77 183q0 117 74 188t192 77v93h44v-93q87 -4 146 -43t79 -102l-133 -62q0 40 -26.5 67t-65.5 34v-308q81 10 107 107l134 -53q-63 -150 -241 -161v-86h-44v85zM174 342q0 -64 31.5 -104.5t90.5 -45.5v310q-54 -8 -88 -49.5t-34 -110.5z" />
<glyph unicode="&#xa3;" horiz-adv-x="581" d="M55 125q58 1 76.5 23t18.5 93v70h-79v117h79v94q0 21 4 43.5t17.5 52t35.5 52t62 38t93 15.5q130 0 199 -97l-121 -83q-11 38 -27 56.5t-51 18.5q-59 0 -59 -96v-94h108v-117h-108v-70q0 -67 -26 -116h292v-125h-514v125z" />
<glyph unicode="&#xa4;" d="M116 88l-72 75l62 60q-34 57 -34 124t37 127l-66 64l73 74l65 -63q60 38 132 38q71 0 129 -36l64 61l72 -74l-62 -61q38 -59 38 -130q0 -68 -35 -127l59 -57l-72 -75l-59 57q-59 -39 -134 -39q-78 0 -136 41zM171 346q0 -59 40 -100.5t102 -41.5q59 0 101 42t42 100 q0 59 -42 101t-101 42t-100.5 -42t-41.5 -101z" />
<glyph unicode="&#xa5;" horiz-adv-x="703" d="M274 0v143h-136v88h136v51h-136v88h95l-213 330h158l173 -279l174 279h158l-214 -330h85v-88h-126v-51h126v-88h-126v-143h-154z" />
<glyph unicode="&#xa6;" horiz-adv-x="314" d="M77 428v385h161v-385h-161zM77 -145v385h161v-385h-161z" />
<glyph unicode="&#xa7;" horiz-adv-x="572" d="M301 -227q-128 0 -203.5 56t-105.5 147l143 72q13 -83 49.5 -123t116.5 -40q116 0 116 106q0 29 -20 49t-44.5 30t-68.5 23q-7 2 -11 3q-107 32 -164.5 85t-57.5 121q0 60 46 109q-46 49 -46 110q0 76 71.5 132t173.5 56q93 0 163.5 -44.5t78.5 -120.5l-156 -40 q11 95 -86 95q-40 0 -64.5 -21.5t-24.5 -56.5q0 -34 25.5 -57t85.5 -41q109 -34 153 -59q102 -59 102 -154q0 -65 -37 -117q37 -45 37 -102q0 -90 -70.5 -154t-201.5 -64zM207 302q0 -34 25.5 -57t85.5 -41q64 -20 94 -32q5 15 5 38q0 29 -20 49t-44.5 30t-68.5 23 q-7 2 -11 3q-33 9 -59 21q-7 -18 -7 -34z" />
<glyph unicode="&#xa8;" horiz-adv-x="856" d="M200 574v152h152v-152h-152zM504 574v152h152v-152h-152z" />
<glyph unicode="&#xa9;" horiz-adv-x="808" d="M404 -4q-175 0 -286.5 113.5t-111.5 273.5q0 162 111.5 276.5t286.5 114.5t286.5 -114.5t111.5 -276.5q0 -104 -48.5 -192t-140.5 -141.5t-209 -53.5zM144 383q0 -130 72 -210.5t188 -80.5t188 80.5t72 210.5q0 131 -72 213t-188 82t-188 -82t-72 -213zM203 387 q0 92 60.5 146t155.5 54q71 0 120 -30t65 -80l-100 -47q0 35 -25.5 56.5t-59.5 21.5q-47 0 -77.5 -32t-30.5 -89q0 -51 27 -82t76 -31q45 0 68 20.5t34 60.5l100 -40q-50 -121 -202 -121q-87 0 -149 51.5t-62 141.5z" />
<glyph unicode="&#xaa;" horiz-adv-x="406" d="M156 372q-65 0 -98 29.5t-33 77.5q0 92 154 107q38 3 57 11.5t19 27.5q0 37 -43 37q-32 0 -44 -15.5t-12 -32.5l1 -6h-102l-3 21q0 42 45.5 72.5t107.5 30.5q50 0 84 -14t48 -38.5t19 -45.5t5 -46v-207h-105v40q-32 -49 -100 -49zM127 483q0 -18 13 -32t36 -14 q34 0 57 25t23 77v7q-33 -14 -71 -18q-58 -7 -58 -45z" />
<glyph unicode="&#xab;" horiz-adv-x="615" d="M447 30l-171 221l170 220l89 -59l-118 -161l118 -162zM50 251l185 240l97 -64l-128 -176l128 -176l-96 -65z" />
<glyph unicode="&#xac;" horiz-adv-x="667" d="M503 46v203h-481v117h641v-320h-160z" />
<glyph unicode="&#xad;" d="M71 202v116h459v-116h-459z" />
<glyph unicode="&#xae;" horiz-adv-x="808" d="M404 -4q-175 0 -286.5 113.5t-111.5 273.5q0 162 111.5 276.5t286.5 114.5t286.5 -114.5t111.5 -276.5q0 -104 -48.5 -192t-140.5 -141.5t-209 -53.5zM144 383q0 -130 72 -210.5t188 -80.5q134 0 207 104h-96l-112 178h-5h-49v-178h-87v395h136q58 0 99 -27t41 -81 q0 -59 -51 -88l125 -196q52 75 52 184q0 131 -72 213t-188 82t-188 -82t-72 -213zM349 439h49q53 0 53 44q0 43 -53 43h-49v-87z" />
<glyph unicode="&#xaf;" d="M81 632v114h438v-114h-438z" />
<glyph unicode="&#xb0;" d="M290 464q-91 0 -148 48t-57 132q0 83 57 131t148 48q90 0 147 -48t57 -131q0 -84 -56.5 -132t-147.5 -48zM212 644q0 -34 20.5 -53.5t57.5 -19.5q36 0 56.5 19.5t20.5 53.5q0 33 -20.5 52.5t-56.5 19.5q-37 0 -57.5 -19.5t-20.5 -52.5z" />
<glyph unicode="&#xb1;" d="M227 165v187h-191v117h191v189h146v-189h190v-117h-190v-187h-146zM36 -1v117h527v-117h-527z" />
<glyph unicode="&#xb2;" horiz-adv-x="338" d="M14 456q11 21 46.5 49t69.5 52t61.5 61t28.5 77q1 31 -13.5 48.5t-38.5 17.5q-28 0 -41 -17.5t-8 -45.5l-92 -9q-9 63 33 100.5t108 37.5q70 0 107.5 -37t37.5 -96q0 -46 -23 -84.5t-51.5 -59.5t-61 -44t-42.5 -36h189v-75h-311z" />
<glyph unicode="&#xb3;" horiz-adv-x="365" d="M183 389q-71 0 -116 38t-43 107h93q-3 -80 66 -80q28 0 47 19t19 55q0 35 -16.5 54t-43.5 19q-18 0 -41 -8l-39 47l106 114h-170v65h283v-59l-110 -107q53 2 88 -30.5t35 -94.5q0 -61 -47 -100t-111 -39z" />
<glyph unicode="&#xb4;" horiz-adv-x="751" d="M272 566l-72 45l274 172l77 -128z" />
<glyph unicode="&#xb5;" horiz-adv-x="556" d="M22 -200v700h154v-297q0 -53 19.5 -80t64.5 -27q116 0 120 154v250h154v-506h-154v28q-54 -34 -131 -34q-36 0 -73 7v-195h-154z" />
<glyph unicode="&#xb6;" horiz-adv-x="691" d="M315 -194v558h-48q-52 0 -96 15.5t-76 54.5t-32 98q0 84 61 126t138 42h188v-894h-135zM502 -194v894h136v-894h-136z" />
<glyph unicode="&#xb7;" d="M211 209v178h178v-178h-178z" />
<glyph unicode="&#xb8;" horiz-adv-x="634" d="M289 -226q-49 0 -89 28v69q41 -34 95 -34q25 0 43 11.5t18 36.5q0 16 -9 22t-19 6q-16 0 -25 -15h-91l52 116l62 -7l-32 -56q16 22 57 22q39 0 61 -21.5t22 -57.5q0 -58 -42.5 -89t-102.5 -31z" />
<glyph unicode="&#xb9;" horiz-adv-x="228" d="M105 393v325h-87v61q23 -5 39 -5q48 0 48 32v11h94v-424h-94z" />
<glyph unicode="&#xba;" horiz-adv-x="380" d="M214 369q-81 0 -133.5 52.5t-52.5 125.5q0 75 52.5 128.5t133.5 53.5t134 -53.5t53 -128.5q0 -73 -53 -125.5t-134 -52.5zM126 547q0 -51 24.5 -78.5t63.5 -27.5t63.5 27.5t24.5 78.5q0 53 -24.5 80t-63.5 27t-63.5 -27.5t-24.5 -79.5z" />
<glyph unicode="&#xbb;" horiz-adv-x="615" d="M168 30l-88 59l118 162l-118 161l89 59l170 -220zM283 75l128 176l-128 176l97 64l185 -240l-186 -241z" />
<glyph unicode="&#xbc;" horiz-adv-x="800" d="M26 0l577 749h133l-577 -749h-133zM33 718v61q23 -5 39 -5q48 0 48 32v11h94v-424h-94v325h-87zM405 113l1 63l195 248h81v-242h67v-69h-67v-113h-93v113h-184zM505 182h84v111z" />
<glyph unicode="&#xbd;" horiz-adv-x="800" d="M26 0l577 749h133l-577 -749h-133zM33 718v61q23 -5 39 -5q48 0 48 32v11h94v-424h-94v325h-87zM464 0l1 61q11 21 46.5 49t69.5 52t61.5 61t28.5 77q1 31 -13.5 48.5t-38.5 17.5q-28 0 -41 -17.5t-8 -45.5l-92 -9q-9 63 33 100.5t108 37.5q70 0 107.5 -37t37.5 -96 q0 -46 -23 -84.5t-51.5 -59.5t-61 -44t-42.5 -36h189v-75h-311z" />
<glyph unicode="&#xbe;" horiz-adv-x="800" d="M26 0l577 749h133l-577 -749h-133zM24 534h93q-3 -80 66 -80q28 0 47 19t19 55q0 35 -16.5 54t-43.5 19q-18 0 -41 -8l-39 47l106 114h-170v65h283v-59l-110 -107q53 2 88 -30.5t35 -94.5q0 -61 -47 -100t-111 -39q-71 0 -116 38t-43 107zM405 113l1 63l195 248h81v-242 h67v-69h-67v-113h-93v113h-184zM505 182h84v111z" />
<glyph unicode="&#xbf;" horiz-adv-x="513" d="M243 315q61 0 109 -34.5t48 -98.5q0 -42 -25 -73.5t-61 -50t-71.5 -35t-60.5 -36.5t-25 -45q0 -24 18 -43t53 -19q49 0 86.5 38.5t31.5 106.5l127 -94q-18 -65 -85.5 -106.5t-149.5 -41.5q-104 0 -161 41.5t-57 105.5q0 49 26.5 84.5t64.5 55.5t76 35.5t64.5 34 t26.5 42.5q0 39 -35 39q-21 0 -29 -22.5t-4 -50.5l-139 44q19 59 64 91t108 32zM162 351v152h152v-152h-152z" />
<glyph unicode="&#xc0;" horiz-adv-x="813" d="M40 0l284 700h165l284 -700h-162l-73 177h-263l-73 -177h-162zM218 855l77 128l274 -172l-72 -45zM320 288h173l-86 209z" />
<glyph unicode="&#xc1;" horiz-adv-x="813" d="M40 0l284 700h165l284 -700h-162l-73 177h-263l-73 -177h-162zM279 811l274 172l77 -128l-279 -89zM320 288h173l-86 209z" />
<glyph unicode="&#xc2;" horiz-adv-x="813" d="M40 0l284 700h165l284 -700h-162l-73 177h-263l-73 -177h-162zM93 804l313 179h2l313 -179l-72 -38l-242 98l-242 -98zM320 288h173l-86 209z" />
<glyph unicode="&#xc3;" horiz-adv-x="813" d="M40 0l284 700h165l284 -700h-162l-73 177h-263l-73 -177h-162zM216 865q0 36 24.5 61t70.5 25q30 0 52 -9t57 -34q8 -5 22 -18.5t25 -20.5t21 -7q9 0 9 14q0 16 -14.5 37.5t-43.5 37.5h113q45 -26 45 -77q0 -37 -26.5 -65t-71.5 -28q-49 0 -92 32q-14 10 -33 26t-30 23.5 t-22 7.5q-9 0 -9 -14q0 -16 14.5 -37.5t43.5 -37.5h-119q-36 36 -36 84zM320 288h173l-86 209z" />
<glyph unicode="&#xc4;" horiz-adv-x="813" d="M40 0l284 700h165l284 -700h-162l-73 177h-263l-73 -177h-162zM180 774v152h152v-152h-152zM320 288h173l-86 209zM484 774v152h152v-152h-152z" />
<glyph unicode="&#xc5;" horiz-adv-x="813" d="M40 0l284 700h165l284 -700h-162l-73 177h-263l-73 -177h-162zM264 882q0 58 42.5 100.5t100.5 42.5t100.5 -42.5t42.5 -100.5t-42.5 -100.5t-100.5 -42.5t-100.5 42.5t-42.5 100.5zM320 288h173l-86 209zM354 882q0 -22 15 -37.5t38 -15.5t38 15.5t15 37.5t-15 37.5 t-38 15.5t-38 -15.5t-15 -37.5z" />
<glyph unicode="&#xc6;" horiz-adv-x="1070" d="M8 0l398 700h650v-124h-415v-156h405v-124h-405v-172h425v-124h-579v175h-207l-99 -175h-173zM343 286h144v255z" />
<glyph unicode="&#xc7;" horiz-adv-x="745" d="M386 -226q-49 0 -89 28v69q41 -34 95 -34q25 0 43 11.5t18 36.5q0 16 -9 22t-19 6q-16 0 -25 -15h-91l45 101q-136 20 -220 119.5t-84 229.5q0 147 101.5 252t262.5 105q103 0 185.5 -44.5t125.5 -115.5l-135 -68q-60 113 -176 113q-86 0 -143 -67.5t-57 -174.5 q0 -106 56.5 -172t143.5 -66q113 0 173 107l136 -66q-42 -69 -123.5 -112t-183.5 -44l-25 -44q16 22 57 22q39 0 61 -21.5t22 -57.5q0 -58 -42.5 -89t-102.5 -31z" />
<glyph unicode="&#xc8;" horiz-adv-x="669" d="M50 0v700h569v-124h-415v-156h405v-124h-405v-172h425v-124h-579zM164 855l77 128l274 -172l-72 -45z" />
<glyph unicode="&#xc9;" horiz-adv-x="669" d="M50 0v700h569v-124h-415v-156h405v-124h-405v-172h425v-124h-579zM225 811l274 172l77 -128l-279 -89z" />
<glyph unicode="&#xca;" horiz-adv-x="669" d="M50 0v700h569v-124h-415v-156h405v-124h-405v-172h425v-124h-579zM39 804l313 179h2l313 -179l-72 -38l-242 98l-242 -98z" />
<glyph unicode="&#xcb;" horiz-adv-x="669" d="M50 0v700h569v-124h-415v-156h405v-124h-405v-172h425v-124h-579zM126 774v152h152v-152h-152zM430 774v152h152v-152h-152z" />
<glyph unicode="&#xcc;" horiz-adv-x="294" d="M70 0v700h154v-700h-154zM-42 855l77 128l274 -172l-72 -45z" />
<glyph unicode="&#xcd;" horiz-adv-x="294" d="M70 0v700h154v-700h-154zM0 777l213 199l77 -128l-172 -107z" />
<glyph unicode="&#xce;" horiz-adv-x="294" d="M70 0v700h154v-700h-154zM-167 804l313 179h2l313 -179l-72 -38l-242 98l-242 -98z" />
<glyph unicode="&#xcf;" horiz-adv-x="294" d="M70 0v700h154v-700h-154zM-80 774v152h152v-152h-152zM224 774v152h152v-152h-152z" />
<glyph unicode="&#xd0;" horiz-adv-x="806" d="M186 0v250h-127v116h127v334h210q83 0 152.5 -20t125 -61t86.5 -109.5t31 -158.5q0 -175 -103 -263t-277 -88h-225zM340 115h71q114 0 167.5 54t53.5 182q0 126 -61.5 180t-174.5 54h-56v-219h178v-116h-178v-135z" />
<glyph unicode="&#xd1;" horiz-adv-x="679" d="M50 0v700h154l271 -428v428h154v-700h-152l-273 436v-436h-154zM149 865q0 36 24.5 61t70.5 25q30 0 52 -9t57 -34q8 -5 22 -18.5t25 -20.5t21 -7q9 0 9 14q0 16 -14.5 37.5t-43.5 37.5h113q45 -26 45 -77q0 -37 -26.5 -65t-71.5 -28q-49 0 -92 32q-14 10 -33 26 t-30 23.5t-22 7.5q-9 0 -9 -14q0 -16 14.5 -37.5t43.5 -37.5h-119q-36 36 -36 84z" />
<glyph unicode="&#xd2;" horiz-adv-x="828" d="M414 -5q-160 0 -262 104t-102 249q0 147 101.5 252t262.5 105t262.5 -105t101.5 -252q0 -94 -44.5 -174.5t-128.5 -129.5t-191 -49zM204 348q0 -106 58 -172t152 -66t152 66t58 172q0 108 -58 175t-152 67q-93 0 -151.5 -67t-58.5 -175zM225 855l77 128l274 -172l-72 -45 z" />
<glyph unicode="&#xd3;" horiz-adv-x="828" d="M414 -5q-160 0 -262 104t-102 249q0 147 101.5 252t262.5 105t262.5 -105t101.5 -252q0 -94 -44.5 -174.5t-128.5 -129.5t-191 -49zM204 348q0 -106 58 -172t152 -66t152 66t58 172q0 108 -58 175t-152 67q-93 0 -151.5 -67t-58.5 -175zM286 811l274 172l77 -128 l-279 -89z" />
<glyph unicode="&#xd4;" horiz-adv-x="828" d="M414 -5q-160 0 -262 104t-102 249q0 147 101.5 252t262.5 105t262.5 -105t101.5 -252q0 -94 -44.5 -174.5t-128.5 -129.5t-191 -49zM100 804l313 179h2l313 -179l-72 -38l-242 98l-242 -98zM204 348q0 -106 58 -172t152 -66t152 66t58 172q0 108 -58 175t-152 67 q-93 0 -151.5 -67t-58.5 -175z" />
<glyph unicode="&#xd5;" horiz-adv-x="828" d="M414 -5q-160 0 -262 104t-102 249q0 147 101.5 252t262.5 105t262.5 -105t101.5 -252q0 -94 -44.5 -174.5t-128.5 -129.5t-191 -49zM204 348q0 -106 58 -172t152 -66t152 66t58 172q0 108 -58 175t-152 67q-93 0 -151.5 -67t-58.5 -175zM223 865q0 36 24.5 61t70.5 25 q30 0 52 -9t57 -34q8 -5 22 -18.5t25 -20.5t21 -7q9 0 9 14q0 16 -14.5 37.5t-43.5 37.5h113q45 -26 45 -77q0 -37 -26.5 -65t-71.5 -28q-49 0 -92 32q-14 10 -33 26t-30 23.5t-22 7.5q-9 0 -9 -14q0 -16 14.5 -37.5t43.5 -37.5h-119q-36 36 -36 84z" />
<glyph unicode="&#xd6;" horiz-adv-x="828" d="M414 -5q-160 0 -262 104t-102 249q0 147 101.5 252t262.5 105t262.5 -105t101.5 -252q0 -94 -44.5 -174.5t-128.5 -129.5t-191 -49zM187 774v152h152v-152h-152zM204 348q0 -106 58 -172t152 -66t152 66t58 172q0 108 -58 175t-152 67q-93 0 -151.5 -67t-58.5 -175z M491 774v152h152v-152h-152z" />
<glyph unicode="&#xd7;" d="M105 -14l-90 94l203 203l-204 203l92 94l205 -204l204 204l90 -94l-202 -202l203 -204l-94 -91l-202 202z" />
<glyph unicode="&#xd8;" horiz-adv-x="828" d="M479 775h120l-30 -101q97 -42 153 -130.5t56 -195.5q0 -94 -44.5 -174.5t-128.5 -129.5t-191 -49q-16 0 -46 2l-18 -61h-120l27 91q-96 42 -151.5 129.5t-55.5 191.5q0 147 101.5 252t262.5 105q14 0 44 -2zM204 348q0 -136 89 -200l131 442h-10q-93 0 -151.5 -67 t-58.5 -175zM402 110h12q94 0 152 66t58 172q0 140 -91 205z" />
<glyph unicode="&#xd9;" horiz-adv-x="622" d="M311 -12q-123 0 -200.5 62.5t-77.5 177.5l1 472h153v-472q0 -128 124 -128t124 128v472h153l1 -472q0 -115 -77.5 -177.5t-200.5 -62.5zM122 855l77 128l274 -172l-72 -45z" />
<glyph unicode="&#xda;" horiz-adv-x="622" d="M311 -12q-123 0 -200.5 62.5t-77.5 177.5l1 472h153v-472q0 -128 124 -128t124 128v472h153l1 -472q0 -115 -77.5 -177.5t-200.5 -62.5zM183 811l274 172l77 -128l-279 -89z" />
<glyph unicode="&#xdb;" horiz-adv-x="622" d="M311 -12q-123 0 -200.5 62.5t-77.5 177.5l1 472h153v-472q0 -128 124 -128t124 128v472h153l1 -472q0 -115 -77.5 -177.5t-200.5 -62.5zM-3 804l313 179h2l313 -179l-72 -38l-242 98l-242 -98z" />
<glyph unicode="&#xdc;" horiz-adv-x="622" d="M311 -12q-123 0 -200.5 62.5t-77.5 177.5l1 472h153v-472q0 -128 124 -128t124 128v472h153l1 -472q0 -115 -77.5 -177.5t-200.5 -62.5zM84 774v152h152v-152h-152zM388 774v152h152v-152h-152z" />
<glyph unicode="&#xdd;" horiz-adv-x="703" d="M274 0v307l-254 393h158l173 -279l174 279h158l-255 -393v-307h-154zM224 811l274 172l77 -128l-279 -89z" />
<glyph unicode="&#xde;" horiz-adv-x="531" d="M32 0v700h154v-100h108q41 0 80.5 -11t75 -34t57.5 -63t22 -93q0 -71 -37.5 -119.5t-89.5 -67.5t-114 -19h-102v-193h-154zM186 309h102q87 0 87 90q0 46 -21 66t-63 20h-105v-176z" />
<glyph unicode="&#xdf;" horiz-adv-x="596" d="M31 504q0 92 64.5 142t157.5 50q95 0 160.5 -41t65.5 -129q0 -58 -32 -100q143 -52 143 -199q0 -107 -75 -165t-197 -58q-68 0 -107 22v118q13 -9 49 -18t59 -9q118 0 118 110q0 105 -133 105h-90v115h36q77 0 77 70q0 66 -74 66q-70 0 -70 -66v-513h-152v500z" />
<glyph unicode="&#xe0;" horiz-adv-x="568" d="M220 -13q-93 0 -141.5 43.5t-48.5 112.5q0 134 223 154q112 10 112 60t-64 50q-25 0 -42 -7.5t-24.5 -20t-10.5 -22.5t-3 -20q0 -7 1 -8h-148q-4 13 -4 30q0 61 65.5 105.5t156.5 44.5q59 0 102.5 -14.5t66.5 -35.5t36.5 -51.5t17 -54.5t3.5 -52v-301h-153v57 q-46 -70 -145 -70zM104 655l77 128l274 -172l-72 -45zM181 148q0 -27 19 -47t53 -20q49 0 82 36t33 112v10q-48 -20 -102 -26q-85 -11 -85 -65z" />
<glyph unicode="&#xe1;" horiz-adv-x="568" d="M220 -13q-93 0 -141.5 43.5t-48.5 112.5q0 134 223 154q112 10 112 60t-64 50q-25 0 -42 -7.5t-24.5 -20t-10.5 -22.5t-3 -20q0 -7 1 -8h-148q-4 13 -4 30q0 61 65.5 105.5t156.5 44.5q59 0 102.5 -14.5t66.5 -35.5t36.5 -51.5t17 -54.5t3.5 -52v-301h-153v57 q-46 -70 -145 -70zM165 611l274 172l77 -128l-279 -89zM181 148q0 -27 19 -47t53 -20q49 0 82 36t33 112v10q-48 -20 -102 -26q-85 -11 -85 -65z" />
<glyph unicode="&#xe2;" horiz-adv-x="568" d="M220 -13q-93 0 -141.5 43.5t-48.5 112.5q0 134 223 154q112 10 112 60t-64 50q-25 0 -42 -7.5t-24.5 -20t-10.5 -22.5t-3 -20q0 -7 1 -8h-148q-4 13 -4 30q0 61 65.5 105.5t156.5 44.5q59 0 102.5 -14.5t66.5 -35.5t36.5 -51.5t17 -54.5t3.5 -52v-301h-153v57 q-46 -70 -145 -70zM-21 604l313 179h2l313 -179l-72 -38l-242 98l-242 -98zM181 148q0 -27 19 -47t53 -20q49 0 82 36t33 112v10q-48 -20 -102 -26q-85 -11 -85 -65z" />
<glyph unicode="&#xe3;" horiz-adv-x="568" d="M220 -13q-93 0 -141.5 43.5t-48.5 112.5q0 134 223 154q112 10 112 60t-64 50q-25 0 -42 -7.5t-24.5 -20t-10.5 -22.5t-3 -20q0 -7 1 -8h-148q-4 13 -4 30q0 61 65.5 105.5t156.5 44.5q59 0 102.5 -14.5t66.5 -35.5t36.5 -51.5t17 -54.5t3.5 -52v-301h-153v57 q-46 -70 -145 -70zM102 665q0 36 24.5 61t70.5 25q30 0 52 -9t57 -34q8 -5 22 -18.5t25 -20.5t21 -7q9 0 9 14q0 16 -14.5 37.5t-43.5 37.5h113q45 -26 45 -77q0 -37 -26.5 -65t-71.5 -28q-49 0 -92 32q-14 10 -33 26t-30 23.5t-22 7.5q-9 0 -9 -14q0 -16 14.5 -37.5 t43.5 -37.5h-119q-36 36 -36 84zM181 148q0 -27 19 -47t53 -20q49 0 82 36t33 112v10q-48 -20 -102 -26q-85 -11 -85 -65z" />
<glyph unicode="&#xe4;" horiz-adv-x="568" d="M220 -13q-93 0 -141.5 43.5t-48.5 112.5q0 134 223 154q112 10 112 60t-64 50q-25 0 -42 -7.5t-24.5 -20t-10.5 -22.5t-3 -20q0 -7 1 -8h-148q-4 13 -4 30q0 61 65.5 105.5t156.5 44.5q59 0 102.5 -14.5t66.5 -35.5t36.5 -51.5t17 -54.5t3.5 -52v-301h-153v57 q-46 -70 -145 -70zM66 574v152h152v-152h-152zM181 148q0 -27 19 -47t53 -20q49 0 82 36t33 112v10q-48 -20 -102 -26q-85 -11 -85 -65zM370 574v152h152v-152h-152z" />
<glyph unicode="&#xe5;" horiz-adv-x="568" d="M220 -13q-93 0 -141.5 43.5t-48.5 112.5q0 134 223 154q112 10 112 60t-64 50q-25 0 -42 -7.5t-24.5 -20t-10.5 -22.5t-3 -20q0 -7 1 -8h-148q-4 13 -4 30q0 61 65.5 105.5t156.5 44.5q59 0 102.5 -14.5t66.5 -35.5t36.5 -51.5t17 -54.5t3.5 -52v-301h-153v57 q-46 -70 -145 -70zM150 682q0 58 42.5 100.5t100.5 42.5t100.5 -42.5t42.5 -100.5t-42.5 -100.5t-100.5 -42.5t-100.5 42.5t-42.5 100.5zM181 148q0 -27 19 -47t53 -20q49 0 82 36t33 112v10q-48 -20 -102 -26q-85 -11 -85 -65zM240 682q0 -22 15 -37.5t38 -15.5t38 15.5 t15 37.5t-15 37.5t-38 15.5t-38 -15.5t-15 -37.5z" />
<glyph unicode="&#xe6;" horiz-adv-x="939" d="M220 -13q-93 0 -141.5 43.5t-48.5 112.5q0 134 223 154q112 10 112 60t-64 50q-25 0 -42 -7.5t-24.5 -20t-10.5 -22.5t-3 -20q0 -7 1 -8h-148q-4 13 -4 30q0 61 65.5 105.5t156.5 44.5q116 0 172 -54q70 56 175 56q118 0 186 -59.5t68 -160.5q0 -35 -9 -76h-360 q15 -122 135 -122q86 0 117 93l123 -58q-25 -67 -93.5 -103.5t-156.5 -36.5q-75 0 -131 25v-13h-153v57q-46 -70 -145 -70zM181 148q0 -27 19 -47t53 -20q49 0 82 36t33 112v10q-48 -20 -102 -26q-85 -11 -85 -65zM528 308h211q2 12 2 18q0 37 -26 58.5t-72 21.5 q-40 0 -71.5 -24t-43.5 -74z" />
<glyph unicode="&#xe7;" horiz-adv-x="599" d="M312 -12h-2l-21 -37q17 22 57 22q39 0 61 -21.5t22 -57.5q0 -58 -42.5 -89t-102.5 -31q-49 0 -89 28v69q41 -34 95 -34q25 0 43 11.5t18 36.5q0 16 -9 22t-19 6q-16 0 -25 -15h-91l43 96q-96 17 -158 82.5t-62 168.5q0 123 81 194.5t207 71.5q96 0 161 -39.5t86 -106.5 l-133 -62q0 47 -31.5 75t-82.5 28q-63 0 -103.5 -42.5t-40.5 -118.5q0 -68 36 -109.5t102 -41.5q59 0 89.5 27.5t45.5 81.5l134 -53q-67 -162 -269 -162z" />
<glyph unicode="&#xe8;" horiz-adv-x="593" d="M393 308q2 12 2 18q0 37 -26 58.5t-72 21.5q-40 0 -71.5 -24t-43.5 -74h211zM30 255q0 117 72.5 186.5t190.5 69.5t186 -59.5t68 -160.5q0 -35 -9 -76h-360q15 -122 135 -122q86 0 117 93l123 -58q-25 -67 -93.5 -103.5t-156.5 -36.5q-124 0 -198.5 69t-74.5 198z M119 655l77 128l274 -172l-72 -45z" />
<glyph unicode="&#xe9;" horiz-adv-x="593" d="M393 308q2 12 2 18q0 37 -26 58.5t-72 21.5q-40 0 -71.5 -24t-43.5 -74h211zM30 255q0 117 72.5 186.5t190.5 69.5t186 -59.5t68 -160.5q0 -35 -9 -76h-360q15 -122 135 -122q86 0 117 93l123 -58q-25 -67 -93.5 -103.5t-156.5 -36.5q-124 0 -198.5 69t-74.5 198z M180 611l274 172l77 -128l-279 -89z" />
<glyph unicode="&#xea;" horiz-adv-x="593" d="M393 308q2 12 2 18q0 37 -26 58.5t-72 21.5q-40 0 -71.5 -24t-43.5 -74h211zM-6 604l313 179h2l313 -179l-72 -38l-242 98l-242 -98zM30 255q0 117 72.5 186.5t190.5 69.5t186 -59.5t68 -160.5q0 -35 -9 -76h-360q15 -122 135 -122q86 0 117 93l123 -58 q-25 -67 -93.5 -103.5t-156.5 -36.5q-124 0 -198.5 69t-74.5 198z" />
<glyph unicode="&#xeb;" horiz-adv-x="593" d="M393 308q2 12 2 18q0 37 -26 58.5t-72 21.5q-40 0 -71.5 -24t-43.5 -74h211zM30 255q0 117 72.5 186.5t190.5 69.5t186 -59.5t68 -160.5q0 -35 -9 -76h-360q15 -122 135 -122q86 0 117 93l123 -58q-25 -67 -93.5 -103.5t-156.5 -36.5q-124 0 -198.5 69t-74.5 198zM81 574 v152h152v-152h-152zM385 574v152h152v-152h-152z" />
<glyph unicode="&#xec;" horiz-adv-x="312" d="M80 0v500h152v-500h-152zM-33 655l77 128l274 -172l-72 -45z" />
<glyph unicode="&#xed;" horiz-adv-x="312" d="M80 0v500h152v-500h-152zM28 611l274 172l77 -128l-279 -89z" />
<glyph unicode="&#xee;" horiz-adv-x="312" d="M80 0v500h152v-500h-152zM-158 604l313 179h2l313 -179l-72 -38l-242 98l-242 -98z" />
<glyph unicode="&#xef;" horiz-adv-x="312" d="M80 0v500h152v-500h-152zM-71 574v152h152v-152h-152zM233 574v152h152v-152h-152z" />
<glyph unicode="&#xf0;" horiz-adv-x="573" d="M286 -4q-116 0 -188.5 79.5t-72.5 187.5q0 111 76.5 183t186.5 72q37 0 75 -11q-45 65 -118 104l-79 -68l-63 73l39 34q-50 11 -85 15v116q103 -7 192 -38l82 71l63 -74l-48 -42q104 -61 162 -157.5t58 -214.5q0 -64 -17 -121.5t-49.5 -105t-88 -75.5t-125.5 -28z M179 267q0 -71 32 -115t79 -44q66 5 95.5 48t29.5 95q0 80 -39 118t-85 38q-49 0 -80.5 -38.5t-31.5 -101.5z" />
<glyph unicode="&#xf1;" d="M341 507q66 0 113.5 -19t71.5 -52t34 -67.5t10 -74.5v-294h-155v294q0 105 -92 105q-52 0 -89 -33t-37 -97v-269h-152v500h152v-78q12 38 53.5 61.5t90.5 23.5zM99 665q0 36 24.5 61t70.5 25q30 0 52 -9t57 -34q8 -5 22 -18.5t25 -20.5t21 -7q9 0 9 14q0 16 -14.5 37.5 t-43.5 37.5h113q45 -26 45 -77q0 -37 -26.5 -65t-71.5 -28q-49 0 -92 32q-14 10 -33 26t-30 23.5t-22 7.5q-9 0 -9 -14q0 -16 14.5 -37.5t43.5 -37.5h-119q-36 36 -36 84z" />
<glyph unicode="&#xf2;" horiz-adv-x="584" d="M302 -12q-118 0 -194 76t-76 183q0 108 76 185.5t194 77.5t194 -77.5t76 -185.5q0 -107 -76 -183t-194 -76zM113 655l77 128l274 -172l-72 -45zM175 247q0 -75 35 -114.5t92 -39.5t92 39.5t35 114.5q0 76 -35 115.5t-92 39.5t-92 -39.5t-35 -115.5z" />
<glyph unicode="&#xf3;" horiz-adv-x="584" d="M302 -12q-118 0 -194 76t-76 183q0 108 76 185.5t194 77.5t194 -77.5t76 -185.5q0 -107 -76 -183t-194 -76zM174 611l274 172l77 -128l-279 -89zM175 247q0 -75 35 -114.5t92 -39.5t92 39.5t35 114.5q0 76 -35 115.5t-92 39.5t-92 -39.5t-35 -115.5z" />
<glyph unicode="&#xf4;" horiz-adv-x="584" d="M302 -12q-118 0 -194 76t-76 183q0 108 76 185.5t194 77.5t194 -77.5t76 -185.5q0 -107 -76 -183t-194 -76zM-12 604l313 179h2l313 -179l-72 -38l-242 98l-242 -98zM175 247q0 -75 35 -114.5t92 -39.5t92 39.5t35 114.5q0 76 -35 115.5t-92 39.5t-92 -39.5t-35 -115.5z " />
<glyph unicode="&#xf5;" horiz-adv-x="584" d="M302 -12q-118 0 -194 76t-76 183q0 108 76 185.5t194 77.5t194 -77.5t76 -185.5q0 -107 -76 -183t-194 -76zM111 665q0 36 24.5 61t70.5 25q30 0 52 -9t57 -34q8 -5 22 -18.5t25 -20.5t21 -7q9 0 9 14q0 16 -14.5 37.5t-43.5 37.5h113q45 -26 45 -77q0 -37 -26.5 -65 t-71.5 -28q-49 0 -92 32q-14 10 -33 26t-30 23.5t-22 7.5q-9 0 -9 -14q0 -16 14.5 -37.5t43.5 -37.5h-119q-36 36 -36 84zM175 247q0 -75 35 -114.5t92 -39.5t92 39.5t35 114.5q0 76 -35 115.5t-92 39.5t-92 -39.5t-35 -115.5z" />
<glyph unicode="&#xf6;" horiz-adv-x="584" d="M302 -12q-118 0 -194 76t-76 183q0 108 76 185.5t194 77.5t194 -77.5t76 -185.5q0 -107 -76 -183t-194 -76zM75 574v152h152v-152h-152zM175 247q0 -75 35 -114.5t92 -39.5t92 39.5t35 114.5q0 76 -35 115.5t-92 39.5t-92 -39.5t-35 -115.5zM379 574v152h152v-152h-152z " />
<glyph unicode="&#xf7;" d="M34 202v116h527v-116h-527zM207 -1v149h180v-149h-180zM208 398v148h178v-148h-178z" />
<glyph unicode="&#xf8;" horiz-adv-x="584" d="M367 685h120l-60 -203q67 -33 106 -96.5t39 -138.5q0 -107 -76 -183t-194 -76q-15 0 -22 1l-42 -143h-120l51 173q-64 34 -100.5 95t-36.5 133q0 108 76 185.5t194 77.5h13zM175 247q0 -69 30 -108l78 262q-49 -7 -78.5 -46t-29.5 -108zM311 93q53 3 85.5 42.5 t32.5 111.5q0 76 -37 118z" />
<glyph unicode="&#xf9;" horiz-adv-x="601" d="M269 -7q-65 0 -111 19t-69.5 52t-33.5 67.5t-10 74.5v294h152v-294q0 -53 19 -79t64 -26q119 0 119 151v248h152v-500h-152v51q-45 -58 -130 -58zM104 655l77 128l274 -172l-72 -45z" />
<glyph unicode="&#xfa;" horiz-adv-x="601" d="M269 -7q-65 0 -111 19t-69.5 52t-33.5 67.5t-10 74.5v294h152v-294q0 -53 19 -79t64 -26q119 0 119 151v248h152v-500h-152v51q-45 -58 -130 -58zM165 611l274 172l77 -128l-279 -89z" />
<glyph unicode="&#xfb;" horiz-adv-x="601" d="M269 -7q-65 0 -111 19t-69.5 52t-33.5 67.5t-10 74.5v294h152v-294q0 -53 19 -79t64 -26q119 0 119 151v248h152v-500h-152v51q-45 -58 -130 -58zM-21 604l313 179h2l313 -179l-72 -38l-242 98l-242 -98z" />
<glyph unicode="&#xfc;" horiz-adv-x="601" d="M269 -7q-65 0 -111 19t-69.5 52t-33.5 67.5t-10 74.5v294h152v-294q0 -53 19 -79t64 -26q119 0 119 151v248h152v-500h-152v51q-45 -58 -130 -58zM66 574v152h152v-152h-152zM370 574v152h152v-152h-152z" />
<glyph unicode="&#xfd;" horiz-adv-x="598" d="M146 -200l94 231l-230 469h167l138 -287l117 287h156l-285 -700h-157zM196 611l274 172l77 -128l-279 -89z" />
<glyph unicode="&#xfe;" horiz-adv-x="563" d="M25 -191l1 952h152v-279q48 29 116 29q117 0 190.5 -76t73.5 -186q0 -108 -73.5 -183.5t-190.5 -75.5q-68 0 -116 29v-210h-153zM168 249q0 -70 36 -109.5t90 -39.5q48 0 79.5 42t31.5 107q0 67 -31.5 109t-79.5 42q-54 0 -90 -40t-36 -111z" />
<glyph unicode="&#xff;" horiz-adv-x="598" d="M146 -200l94 231l-230 469h167l138 -287l117 287h156l-285 -700h-157zM97 574v152h152v-152h-152zM401 574v152h152v-152h-152z" />
<glyph unicode="&#x152;" horiz-adv-x="1157" d="M384 -5q-159 0 -261.5 104t-102.5 249q0 147 101.5 252t262.5 105q102 0 190 -48v43h569v-124h-415v-156h405v-124h-405v-172h425v-124h-579v42q-86 -47 -190 -47zM174 348q0 -106 58 -172t152 -66q66 0 116 34t74 94v222q-24 61 -74 95.5t-116 34.5q-93 0 -151.5 -67 t-58.5 -175z" />
<glyph unicode="&#x153;" horiz-adv-x="994" d="M302 -12q-118 0 -194 76t-76 183q0 108 76 185.5t194 77.5q116 0 193 -77q73 78 199 78q118 0 186 -59.5t68 -160.5q0 -35 -9 -76h-360q15 -122 135 -122q86 0 117 93l123 -58q-25 -67 -93.5 -103.5t-156.5 -36.5q-133 0 -207 77q-77 -77 -195 -77zM175 247 q0 -75 35 -114.5t92 -39.5t92 39.5t35 114.5q0 76 -35 115.5t-92 39.5t-92 -39.5t-35 -115.5zM583 308h211q2 12 2 18q0 37 -26 58.5t-72 21.5q-40 0 -71.5 -24t-43.5 -74z" />
<glyph unicode="&#x178;" horiz-adv-x="703" d="M274 0v307l-254 393h158l173 -279l174 279h158l-255 -393v-307h-154zM125 774v152h152v-152h-152zM429 774v152h152v-152h-152z" />
<glyph unicode="&#x237;" horiz-adv-x="312" d="M22 -260q-124 0 -197 104l111 84q18 -71 66 -71q41 0 59.5 22.5t18.5 58.5v562h152v-562q0 -34 -10.5 -66t-32.5 -63t-65.5 -50t-101.5 -19z" />
<glyph unicode="&#x2c6;" horiz-adv-x="848" d="M182 566l-72 38l313 179h2l313 -179l-72 -38l-242 98z" />
<glyph unicode="&#x2dc;" horiz-adv-x="781" d="M236 581q-36 36 -36 84q0 36 24.5 61t70.5 25q30 0 52 -9t57 -34q8 -5 22 -18.5t25 -20.5t21 -7q9 0 9 14q0 16 -14.5 37.5t-43.5 37.5h113q45 -26 45 -77q0 -37 -26.5 -65t-71.5 -28q-49 0 -92 32q-14 10 -33 26t-30 23.5t-22 7.5q-9 0 -9 -14q0 -16 14.5 -37.5 t43.5 -37.5h-119z" />
<glyph unicode="&#x2000;" horiz-adv-x="512" />
<glyph unicode="&#x2001;" horiz-adv-x="1025" />
<glyph unicode="&#x2002;" horiz-adv-x="512" />
<glyph unicode="&#x2003;" horiz-adv-x="1025" />
<glyph unicode="&#x2004;" horiz-adv-x="341" />
<glyph unicode="&#x2005;" horiz-adv-x="256" />
<glyph unicode="&#x2006;" horiz-adv-x="170" />
<glyph unicode="&#x2007;" horiz-adv-x="170" />
<glyph unicode="&#x2008;" horiz-adv-x="128" />
<glyph unicode="&#x2009;" horiz-adv-x="205" />
<glyph unicode="&#x200a;" horiz-adv-x="56" />
<glyph unicode="&#x2010;" horiz-adv-x="517" d="M29 202v116h459v-116h-459z" />
<glyph unicode="&#x2011;" horiz-adv-x="517" d="M29 202v116h459v-116h-459z" />
<glyph unicode="&#x2012;" horiz-adv-x="517" d="M29 202v116h459v-116h-459z" />
<glyph unicode="&#x2013;" d="M62 252v116h475v-116h-475z" />
<glyph unicode="&#x2014;" d="M-3 252v116h605v-116h-605z" />
<glyph unicode="&#x2018;" horiz-adv-x="310" d="M66 486v148h62q0 79 -45 95v74q48 -6 82.5 -27.5t50 -49.5t22 -51t6.5 -41v-148h-178z" />
<glyph unicode="&#x2019;" horiz-adv-x="310" d="M83 536q45 17 45 86v9h-62v178h178v-187q0 -22 -6.5 -44t-22 -47.5t-50 -44t-82.5 -24.5v74z" />
<glyph unicode="&#x201a;" d="M83 -95q45 16 45 95h-62v148h178v-148q0 -18 -6.5 -41t-22 -51t-50 -49.5t-82.5 -27.5v74z" />
<glyph unicode="&#x201c;" horiz-adv-x="548" d="M304 632q0 18 6.5 41t22 51t50 49.5t82.5 27.5v-74q-45 -16 -45 -95h62v-148h-178v148zM66 484v148q0 18 6.5 41t22 51t50 49.5t82.5 27.5v-74q-45 -16 -45 -95h62v-148h-178z" />
<glyph unicode="&#x201d;" horiz-adv-x="548" d="M321 554q45 16 45 95h-62v148h178v-148q0 -18 -6.5 -41t-22 -51t-50 -49.5t-82.5 -27.5v74zM66 649v148h178v-148q0 -18 -6.5 -41t-22 -51t-50 -49.5t-82.5 -27.5v74q45 16 45 95h-62z" />
<glyph unicode="&#x201e;" d="M346 -95q45 17 45 91v4h-62v148h178v-148q0 -18 -6.5 -41t-22 -51t-50 -49.5t-82.5 -27.5v74zM66 0v148h178v-148q0 -18 -6.5 -41t-22 -51t-50 -49.5t-82.5 -27.5v74q45 16 45 90v5h-62z" />
<glyph unicode="&#x2022;" d="M300 95q-88 0 -151.5 60t-63.5 140t63.5 140t151.5 60t151.5 -60t63.5 -140t-63.5 -140t-151.5 -60z" />
<glyph unicode="&#x2026;" horiz-adv-x="772" d="M548 0v148h178v-148h-178zM46 0v148h178v-148h-178zM301 0v148h178v-148h-178z" />
<glyph unicode="&#x202f;" horiz-adv-x="205" />
<glyph unicode="&#x2039;" horiz-adv-x="412" d="M236 26l-186 241l185 240l97 -64l-128 -176l128 -176z" />
<glyph unicode="&#x203a;" horiz-adv-x="412" d="M176 26l-96 65l128 176l-128 176l97 64l185 -240z" />
<glyph unicode="&#x2044;" horiz-adv-x="784" d="M26 0l577 749h133l-577 -749h-133z" />
<glyph unicode="&#x205f;" horiz-adv-x="256" />
<glyph unicode="&#x2070;" horiz-adv-x="421" d="M210 388q-90 0 -139.5 60.5t-49.5 157.5t49.5 157.5t139.5 60.5t139.5 -60.5t49.5 -157.5t-49.5 -157.5t-139.5 -60.5zM115 606q0 -72 26 -111.5t69 -39.5t69 39.5t26 111.5t-26 111.5t-69 39.5t-69 -39.5t-26 -111.5z" />
<glyph unicode="&#x2074;" horiz-adv-x="382" d="M202 395v113h-184l1 63l195 248h81v-242h67v-69h-67v-113h-93zM118 577h84v111z" />
<glyph unicode="&#x2075;" horiz-adv-x="364" d="M184 389q-65 0 -113 41t-44 104h92q-2 -38 17 -59t48 -21q28 0 48.5 20.5t20.5 56.5q0 39 -19.5 58t-49.5 19t-46 -26h-76v237h262v-75h-180v-78q19 8 47 8q64 0 109 -36t45 -107q0 -61 -49 -101.5t-112 -40.5z" />
<glyph unicode="&#x2076;" horiz-adv-x="332" d="M165 389q-63 0 -110.5 39t-47.5 100q0 38 33 90l125 201h107l-95 -152q10 0 15 -1q55 -9 93.5 -46.5t38.5 -91.5q0 -61 -47.5 -100t-111.5 -39zM100 528q0 -36 18.5 -54.5t46.5 -18.5t46.5 19t18.5 54q0 37 -18 55.5t-47 18.5q-28 0 -46.5 -19t-18.5 -55z" />
<glyph unicode="&#x2077;" horiz-adv-x="305" d="M8 395l170 349h-161v75h296l-200 -424h-105z" />
<glyph unicode="&#x2078;" horiz-adv-x="344" d="M173 393q-64 0 -112.5 38t-48.5 98q0 65 61 106q-37 32 -37 77q0 51 42.5 82t93.5 31q52 0 94.5 -31.5t42.5 -82.5q0 -44 -37 -77q60 -39 60 -106q0 -60 -47.5 -97.5t-111.5 -37.5zM105 528q0 -35 19 -53.5t48 -18.5t48 18.5t19 54.5q0 34 -19 52.5t-47 18.5 q-29 0 -48.5 -19t-19.5 -53zM130 711q0 -22 12 -35t30 -13t30.5 13t12.5 36q0 25 -12.5 36.5t-29.5 11.5q-18 0 -30.5 -12t-12.5 -37z" />
<glyph unicode="&#x2079;" horiz-adv-x="364" d="M182 558q-2 0 -5.5 0.5t-6.5 0.5q-58 5 -99 42t-41 92q0 59 47.5 96.5t110.5 37.5t111 -38t48 -97q0 -35 -28.5 -90t-76 -124.5t-54.5 -82.5h-107zM123 692q0 -34 18.5 -52t46.5 -18t46.5 18.5t18.5 52.5t-18.5 52t-46.5 18t-46.5 -18.5t-18.5 -52.5z" />
<glyph unicode="&#x2080;" horiz-adv-x="421" d="M210 -7q-90 0 -139.5 60.5t-49.5 157.5t49.5 157.5t139.5 60.5t139.5 -60.5t49.5 -157.5t-49.5 -157.5t-139.5 -60.5zM115 211q0 -72 26 -111.5t69 -39.5t69 39.5t26 111.5t-26 111.5t-69 39.5t-69 -39.5t-26 -111.5z" />
<glyph unicode="&#x2081;" horiz-adv-x="228" d="M105 0v325h-87v61q23 -5 39 -5q48 0 48 32v11h94v-424h-94z" />
<glyph unicode="&#x2082;" horiz-adv-x="338" d="M14 61q11 21 46.5 49t69.5 52t61.5 61t28.5 77q1 31 -13.5 48.5t-38.5 17.5q-28 0 -41 -17.5t-8 -45.5l-92 -9q-9 63 33 100.5t108 37.5q70 0 107.5 -37t37.5 -96q0 -46 -23 -84.5t-51.5 -59.5t-61 -44t-42.5 -36h189v-75h-311z" />
<glyph unicode="&#x2083;" horiz-adv-x="365" d="M183 -6q-71 0 -116 38t-43 107h93q-3 -80 66 -80q28 0 47 19t19 55q0 35 -16.5 54t-43.5 19q-18 0 -41 -8l-39 47l106 114h-170v65h283v-59l-110 -107q53 1 88 -31t35 -94q0 -61 -47 -100t-111 -39z" />
<glyph unicode="&#x2084;" horiz-adv-x="382" d="M202 0v113h-184l1 63l195 248h81v-242h67v-69h-67v-113h-93zM118 182h84v111z" />
<glyph unicode="&#x2085;" horiz-adv-x="364" d="M184 -6q-65 0 -113 41t-44 104h92q-2 -38 17 -59t48 -21q28 0 48.5 20.5t20.5 56.5q0 39 -19.5 58t-49.5 19t-46 -26h-76v237h262v-75h-180v-78q19 8 47 8q64 0 109 -36t45 -107q0 -61 -49 -101.5t-112 -40.5z" />
<glyph unicode="&#x2086;" horiz-adv-x="332" d="M165 -6q-63 0 -110.5 39t-47.5 100q0 38 33 90l125 201h107l-95 -152q10 0 15 -1q55 -9 93.5 -46.5t38.5 -91.5q0 -61 -47.5 -100t-111.5 -39zM100 133q0 -36 18.5 -54.5t46.5 -18.5t46.5 19t18.5 54q0 37 -18 55.5t-47 18.5q-28 0 -46.5 -19t-18.5 -55z" />
<glyph unicode="&#x2087;" horiz-adv-x="305" d="M8 0l170 349h-161v75h296l-200 -424h-105z" />
<glyph unicode="&#x2088;" horiz-adv-x="344" d="M173 -2q-64 0 -112.5 38t-48.5 98q0 65 61 106q-37 32 -37 77q0 51 42.5 82t93.5 31q52 0 94.5 -31.5t42.5 -82.5q0 -44 -37 -77q60 -39 60 -106q0 -60 -47.5 -97.5t-111.5 -37.5zM105 133q0 -35 19 -53.5t48 -18.5t48 18.5t19 54.5q0 34 -19 52.5t-47 18.5 q-29 0 -48.5 -19t-19.5 -53zM130 316q0 -22 12 -35t30 -13t30.5 13t12.5 36q0 25 -12.5 36.5t-29.5 11.5q-18 0 -30.5 -12t-12.5 -37z" />
<glyph unicode="&#x2089;" horiz-adv-x="364" d="M182 163q-2 0 -5.5 0.5t-6.5 0.5q-58 5 -99 42t-41 92q0 59 47.5 96.5t110.5 37.5t111 -38t48 -97q0 -35 -28.5 -90t-76 -124.5t-54.5 -82.5h-107zM123 297q0 -34 18.5 -52t46.5 -18t46.5 18.5t18.5 52.5t-18.5 52t-46.5 18t-46.5 -18.5t-18.5 -52.5z" />
<glyph unicode="&#x20ac;" horiz-adv-x="784" d="M497 -5q-119 0 -208.5 61t-129.5 159h-137v93h113q-2 26 -2 40v12h-111v93h126q33 111 126.5 181.5t222.5 70.5q103 0 185.5 -44.5t125.5 -115.5l-135 -68q-60 113 -176 113q-62 0 -111 -36.5t-72 -100.5h247v-93h-264v-12q0 -14 2 -40h262v-93h-234q56 -105 170 -105 q113 0 173 107l136 -66q-42 -70 -124.5 -113t-184.5 -43z" />
<glyph unicode="&#x2116;" horiz-adv-x="1161" d="M1090 122h-333v95h333v-95zM50 0v700h154l271 -428v428h154v-700h-152l-273 436v-436h-154zM686 466q0 95 67 163t170 68q104 0 171 -68t67 -163q0 -94 -67 -161t-171 -67q-103 0 -170 67t-67 161zM812 466q0 -66 31 -100.5t80 -34.5q50 0 81 34.5t31 100.5t-31 101 t-81 35t-80.5 -35t-30.5 -101z" />
<glyph unicode="&#x2122;" horiz-adv-x="878" d="M405 386v312l110 1l94 -218l93 218l109 -1v-312h-82v164l-72 -164h-97l-73 166v-166h-82zM65 616v82h287v-82h-102v-230h-83v230h-102z" />
<glyph unicode="&#x25fc;" horiz-adv-x="500" d="M0 500h500v-500h-500v500z" />
<glyph unicode="&#xfb01;" horiz-adv-x="642" d="M410 0v385h-164v-385h-152l1 385h-88v116h77q-19 30 -19 74q0 61 51.5 112t150.5 51q45 0 83.5 -15t56.5 -30h155v-132h-169q-40 46 -63.5 59.5t-62.5 13.5q-27 0 -48 -15.5t-21 -46.5q0 -49 43 -71h321v-501h-152z" />
<glyph unicode="&#xfb02;" horiz-adv-x="703" d="M94 0l1 385h-88v116h86q-45 26 -45 85q0 68 58 110t161 42q127 0 204 -91v53h152v-700h-152v627l-119 -50q0 1 -5 10.5t-8 14.5t-11 14t-15.5 14.5t-19.5 9.5t-26 4q-38 0 -58.5 -19t-20.5 -53q0 -28 23 -49.5t63 -21.5h128v-116h-156v-385h-152z" />
<glyph unicode="&#xfb04;" horiz-adv-x="1005" d="M94 0l1 385h-88v116h86q-45 26 -45 85q0 68 58 110t161 42q80 0 144 -40q59 40 158 40q127 0 204 -91v53h152v-700h-152v627l-119 -50q0 1 -5 10.5t-8 14.5t-11 14t-15.5 14.5t-19.5 9.5t-26 4q-38 0 -58.5 -19t-20.5 -53q0 -28 23 -49.5t63 -21.5h128v-116h-156v-385 h-152l1 385h-151v-385h-152zM188 572q0 -28 23 -49.5t63 -21.5h121q-43 24 -45 80l-4 7q-4 8 -5.5 10.5t-6.5 10t-9 11t-10.5 9t-13 8.5t-15.5 5t-19 2q-38 0 -58.5 -19t-20.5 -53z" />
<glyph horiz-adv-x="617" d="M268 -12q-97 0 -159 38t-85 94l127 88q22 -62 37 -79q26 -29 80 -29q49 0 81.5 35t32.5 104v461h154l1 -443q0 -127 -75 -198t-194 -71zM322 811l274 172l77 -128l-279 -89z" />
<glyph horiz-adv-x="312" d="M80 0v500h152v-500h-152zM80 574v152h152v-152h-152z" />
<glyph horiz-adv-x="312" d="M22 -260q-124 0 -197 104l111 84q18 -71 66 -71q41 0 59.5 22.5t18.5 58.5v562h152v-562q0 -34 -10.5 -66t-32.5 -63t-65.5 -50t-101.5 -19zM28 611l274 172l77 -128l-279 -89z" />
<glyph horiz-adv-x="638" d="M602 0h-152v26l5 57q-19 -47 -59.5 -69.5t-111.5 -22.5q-116 0 -190 76t-74 185t73.5 184.5t190.5 75.5q134 0 171 -100l-5 61v27h153zM183 252q0 -68 35 -109t96 -41q68 0 107 38.5t39 111.5q0 70 -38.5 110t-107.5 40q-61 0 -96 -41t-35 -109z" />
<glyph horiz-adv-x="638" d="M602 0h-152v26l5 57q-19 -47 -59.5 -69.5t-111.5 -22.5q-116 0 -190 76t-74 185t73.5 184.5t190.5 75.5q134 0 171 -100l-5 61v27h153zM183 252q0 -68 35 -109t96 -41q68 0 107 38.5t39 111.5q0 70 -38.5 110t-107.5 40q-61 0 -96 -41t-35 -109zM186 611l274 172l77 -128 l-279 -89z" />
<glyph horiz-adv-x="638" d="M602 0h-152v26l5 57q-19 -47 -59.5 -69.5t-111.5 -22.5q-116 0 -190 76t-74 185t73.5 184.5t190.5 75.5q134 0 171 -100l-5 61v27h153zM0 604l313 179h2l313 -179l-72 -38l-242 98l-242 -98zM183 252q0 -68 35 -109t96 -41q68 0 107 38.5t39 111.5q0 70 -38.5 110 t-107.5 40q-61 0 -96 -41t-35 -109z" />
<glyph horiz-adv-x="638" d="M602 0h-152v26l5 57q-19 -47 -59.5 -69.5t-111.5 -22.5q-116 0 -190 76t-74 185t73.5 184.5t190.5 75.5q134 0 171 -100l-5 61v27h153zM87 574v152h152v-152h-152zM183 252q0 -68 35 -109t96 -41q68 0 107 38.5t39 111.5q0 70 -38.5 110t-107.5 40q-61 0 -96 -41 t-35 -109zM391 574v152h152v-152h-152z" />
<glyph horiz-adv-x="638" d="M602 0h-152v26l5 57q-19 -47 -59.5 -69.5t-111.5 -22.5q-116 0 -190 76t-74 185t73.5 184.5t190.5 75.5q134 0 171 -100l-5 61v27h153zM125 655l77 128l274 -172l-72 -45zM183 252q0 -68 35 -109t96 -41q68 0 107 38.5t39 111.5q0 70 -38.5 110t-107.5 40q-61 0 -96 -41 t-35 -109z" />
<glyph horiz-adv-x="638" d="M602 0h-152v26l5 57q-19 -47 -59.5 -69.5t-111.5 -22.5q-116 0 -190 76t-74 185t73.5 184.5t190.5 75.5q134 0 171 -100l-5 61v27h153zM171 682q0 58 42.5 100.5t100.5 42.5t100.5 -42.5t42.5 -100.5t-42.5 -100.5t-100.5 -42.5t-100.5 42.5t-42.5 100.5zM183 252 q0 -68 35 -109t96 -41q68 0 107 38.5t39 111.5q0 70 -38.5 110t-107.5 40q-61 0 -96 -41t-35 -109zM261 682q0 -22 15.5 -37.5t37.5 -15.5t37.5 15.5t15.5 37.5t-15.5 37.5t-37.5 15.5t-37.5 -15.5t-15.5 -37.5z" />
<glyph horiz-adv-x="638" d="M602 0h-152v26l5 57q-19 -47 -59.5 -69.5t-111.5 -22.5q-116 0 -190 76t-74 185t73.5 184.5t190.5 75.5q134 0 171 -100l-5 61v27h153zM123 665q0 36 24.5 61t70.5 25q30 0 52 -9t57 -34q8 -5 22 -18.5t25 -20.5t21 -7q9 0 9 14q0 16 -14.5 37.5t-43.5 37.5h113 q45 -26 45 -77q0 -37 -26.5 -65t-71.5 -28q-49 0 -92 32q-14 10 -33 26t-30 23.5t-22 7.5q-9 0 -9 -14q0 -16 14.5 -37.5t43.5 -37.5h-119q-36 36 -36 84zM183 252q0 -68 35 -109t96 -41q68 0 107 38.5t39 111.5q0 70 -38.5 110t-107.5 40q-61 0 -96 -41t-35 -109z" />
<glyph horiz-adv-x="1069" d="M602 0h-152v26l5 57q-19 -47 -59.5 -69.5t-111.5 -22.5q-116 0 -190 76t-74 185t73.5 184.5t190.5 75.5q134 0 171 -100l-5 61v27h153v-38q67 49 166 49q118 0 186 -59.5t68 -160.5q0 -35 -9 -76h-360q15 -122 135 -122q86 0 117 93l123 -58q-25 -67 -93.5 -103.5 t-156.5 -36.5q-108 0 -177 51v-39zM183 252q0 -68 35 -109t96 -41q68 0 107 38.5t39 111.5q0 70 -38.5 110t-107.5 40q-61 0 -96 -41t-35 -109zM658 308h211q2 12 2 18q0 37 -26 58.5t-72 21.5q-40 0 -71.5 -24t-43.5 -74z" />
<glyph horiz-adv-x="397" d="M7 385v116h101v61q0 34 10.5 66t32.5 63t65.5 50t101.5 19q124 0 197 -104l-111 -84q-18 71 -66 71q-41 0 -59.5 -22.5t-18.5 -58.5v-61h142v-116h-142v-385h-152v385h-101z" />
<glyph horiz-adv-x="694" d="M346 -12q-148 0 -229.5 99.5t-81.5 260.5t81.5 260.5t229.5 99.5q149 0 231 -99.5t82 -260.5t-82 -260.5t-231 -99.5zM190 348q0 -116 41 -181l132 429q-5 1 -17 1q-70 0 -113 -65t-43 -184zM331 100q5 -1 15 -1q71 0 114.5 65t43.5 184q0 115 -41 181z" />
<glyph horiz-adv-x="421" d="M210 -7q-90 0 -139.5 60.5t-49.5 157.5t49.5 157.5t139.5 60.5t139.5 -60.5t49.5 -157.5t-49.5 -157.5t-139.5 -60.5zM115 211q0 -72 26 -111.5t69 -39.5t69 39.5t26 111.5t-26 111.5t-69 39.5t-69 -39.5t-26 -111.5z" />
<glyph horiz-adv-x="228" d="M105 0v325h-87v61q23 -5 39 -5q48 0 48 32v11h94v-424h-94z" />
<glyph horiz-adv-x="338" d="M14 61q11 21 46.5 49t69.5 52t61.5 61t28.5 77q1 31 -13.5 48.5t-38.5 17.5q-28 0 -41 -17.5t-8 -45.5l-92 -9q-9 63 33 100.5t108 37.5q70 0 107.5 -37t37.5 -96q0 -46 -23 -84.5t-51.5 -59.5t-61 -44t-42.5 -36h189v-75h-311z" />
<glyph horiz-adv-x="365" d="M183 -6q-71 0 -116 38t-43 107h93q-3 -80 66 -80q28 0 47 19t19 55q0 35 -16.5 54t-43.5 19q-18 0 -41 -8l-39 47l106 114h-170v65h283v-59l-110 -107q53 1 88 -31t35 -94q0 -61 -47 -100t-111 -39z" />
<glyph horiz-adv-x="382" d="M202 0v113h-184l1 63l195 248h81v-242h67v-69h-67v-113h-93zM118 182h84v111z" />
<glyph horiz-adv-x="364" d="M184 -6q-65 0 -113 41t-44 104h92q-2 -38 17 -59t48 -21q28 0 48.5 20.5t20.5 56.5q0 39 -19.5 58t-49.5 19t-46 -26h-76v237h262v-75h-180v-78q19 8 47 8q64 0 109 -36t45 -107q0 -61 -49 -101.5t-112 -40.5z" />
<glyph horiz-adv-x="332" d="M165 -6q-63 0 -110.5 39t-47.5 100q0 38 33 90l125 201h107l-95 -152q10 0 15 -1q55 -9 93.5 -46.5t38.5 -91.5q0 -61 -47.5 -100t-111.5 -39zM100 133q0 -36 18.5 -54.5t46.5 -18.5t46.5 19t18.5 54q0 37 -18 55.5t-47 18.5q-28 0 -46.5 -19t-18.5 -55z" />
<glyph horiz-adv-x="305" d="M8 0l170 349h-161v75h296l-200 -424h-105z" />
<glyph horiz-adv-x="344" d="M173 -2q-64 0 -112.5 38t-48.5 98q0 65 61 106q-37 32 -37 77q0 51 42.5 82t93.5 31q52 0 94.5 -31.5t42.5 -82.5q0 -44 -37 -77q60 -39 60 -106q0 -60 -47.5 -97.5t-111.5 -37.5zM105 133q0 -35 19 -53.5t48 -18.5t48 18.5t19 54.5q0 34 -19 52.5t-47 18.5 q-29 0 -48.5 -19t-19.5 -53zM130 316q0 -22 12 -35t30 -13t30.5 13t12.5 36q0 25 -12.5 36.5t-29.5 11.5q-18 0 -30.5 -12t-12.5 -37z" />
<glyph horiz-adv-x="364" d="M182 163q-2 0 -5.5 0.5t-6.5 0.5q-58 5 -99 42t-41 92q0 59 47.5 96.5t110.5 37.5t111 -38t48 -97q0 -35 -28.5 -90t-76 -124.5t-54.5 -82.5h-107zM123 297q0 -34 18.5 -52t46.5 -18t46.5 18.5t18.5 52.5t-18.5 52t-46.5 18t-46.5 -18.5t-18.5 -52.5z" />
<glyph horiz-adv-x="421" d="M210 388q-90 0 -139.5 60.5t-49.5 157.5t49.5 157.5t139.5 60.5t139.5 -60.5t49.5 -157.5t-49.5 -157.5t-139.5 -60.5zM115 606q0 -72 26 -111.5t69 -39.5t69 39.5t26 111.5t-26 111.5t-69 39.5t-69 -39.5t-26 -111.5z" />
<glyph horiz-adv-x="228" d="M105 393v325h-87v61q23 -5 39 -5q48 0 48 32v11h94v-424h-94z" />
<glyph horiz-adv-x="338" d="M14 456q11 21 46.5 49t69.5 52t61.5 61t28.5 77q1 31 -13.5 48.5t-38.5 17.5q-28 0 -41 -17.5t-8 -45.5l-92 -9q-9 63 33 100.5t108 37.5q70 0 107.5 -37t37.5 -96q0 -46 -23 -84.5t-51.5 -59.5t-61 -44t-42.5 -36h189v-75h-311z" />
<glyph horiz-adv-x="365" d="M183 389q-71 0 -116 38t-43 107h93q-3 -80 66 -80q28 0 47 19t19 55q0 35 -16.5 54t-43.5 19q-18 0 -41 -8l-39 47l106 114h-170v65h283v-59l-110 -107q53 2 88 -30.5t35 -94.5q0 -61 -47 -100t-111 -39z" />
<glyph horiz-adv-x="382" d="M202 395v113h-184l1 63l195 248h81v-242h67v-69h-67v-113h-93zM118 577h84v111z" />
<glyph horiz-adv-x="364" d="M184 389q-65 0 -113 41t-44 104h92q-2 -38 17 -59t48 -21q28 0 48.5 20.5t20.5 56.5q0 39 -19.5 58t-49.5 19t-46 -26h-76v237h262v-75h-180v-78q19 8 47 8q64 0 109 -36t45 -107q0 -61 -49 -101.5t-112 -40.5z" />
<glyph horiz-adv-x="332" d="M165 389q-63 0 -110.5 39t-47.5 100q0 38 33 90l125 201h107l-95 -152q10 0 15 -1q55 -9 93.5 -46.5t38.5 -91.5q0 -61 -47.5 -100t-111.5 -39zM100 528q0 -36 18.5 -54.5t46.5 -18.5t46.5 19t18.5 54q0 37 -18 55.5t-47 18.5q-28 0 -46.5 -19t-18.5 -55z" />
<glyph horiz-adv-x="305" d="M8 395l170 349h-161v75h296l-200 -424h-105z" />
<glyph horiz-adv-x="344" d="M173 393q-64 0 -112.5 38t-48.5 98q0 65 61 106q-37 32 -37 77q0 51 42.5 82t93.5 31q52 0 94.5 -31.5t42.5 -82.5q0 -44 -37 -77q60 -39 60 -106q0 -60 -47.5 -97.5t-111.5 -37.5zM105 528q0 -35 19 -53.5t48 -18.5t48 18.5t19 54.5q0 34 -19 52.5t-47 18.5 q-29 0 -48.5 -19t-19.5 -53zM130 711q0 -22 12 -35t30 -13t30.5 13t12.5 36q0 25 -12.5 36.5t-29.5 11.5q-18 0 -30.5 -12t-12.5 -37z" />
<glyph horiz-adv-x="364" d="M182 558q-2 0 -5.5 0.5t-6.5 0.5q-58 5 -99 42t-41 92q0 59 47.5 96.5t110.5 37.5t111 -38t48 -97q0 -35 -28.5 -90t-76 -124.5t-54.5 -82.5h-107zM123 692q0 -34 18.5 -52t46.5 -18t46.5 18.5t18.5 52.5t-18.5 52t-46.5 18t-46.5 -18.5t-18.5 -52.5z" />
<glyph d="M211 209v178h178v-178h-178z" />
<glyph d="M211 261v178h178v-178h-178z" />
</font>
</defs>
</svg>
