<?xml version="1.0" standalone="no"?>
<!DOCTYPE svg PUBLIC "-//W3C//DTD SVG 1.1//EN" "http://www.w3.org/Graphics/SVG/1.1/DTD/svg11.dtd" >
<svg xmlns="http://www.w3.org/2000/svg" xmlns:xlink="http://www.w3.org/1999/xlink" version="1.1">
<metadata></metadata>
<defs>
<font id="panamerathin" horiz-adv-x="600" >
<font-face units-per-em="1000" ascent="800" descent="-200" />
<missing-glyph horiz-adv-x="294" />
<glyph horiz-adv-x="0" />
<glyph horiz-adv-x="333" />
<glyph unicode="&#xd;" />
<glyph unicode=" "  horiz-adv-x="294" />
<glyph unicode="&#x09;" horiz-adv-x="294" />
<glyph unicode="&#xa0;" horiz-adv-x="294" />
<glyph unicode="!" horiz-adv-x="310" d="M151 213l-19 400v118h46v-118l-19 -400h-8zM127 0v55h56v-55h-56z" />
<glyph unicode="&#x22;" horiz-adv-x="644" d="M413 507l-8 214h48l-8 -214h-32zM191 721h48l-8 -214h-32z" />
<glyph unicode="#" horiz-adv-x="823" d="M727 217v-24h-181l-67 -200h-23l67 200h-330l-67 -200h-24l67 200h-136v24h144l99 296h-174v23h181l74 221h24l-74 -221h330l74 221h24l-74 -221h147v-23h-155l-99 -296h173zM201 217h330l99 296h-330z" />
<glyph unicode="$" horiz-adv-x="572" d="M233 -2q-142 22 -200 147l26 14q42 -122 174 -147v374q-75 30 -109.5 67.5t-34.5 94.5q0 58 36 99.5t108 55.5v101h29v-98q22 2 34 2q14 0 40 -2v98h32v-104q90 -21 122 -87l-27 -7q-22 59 -95 81v-333q38 -12 64.5 -24t54 -31t42 -47.5t14.5 -64.5q0 -71 -43.5 -122.5 t-131.5 -66.5v-99h-32v95q-5 0 -17 -0.5t-18 -0.5q-15 0 -39 2v-96h-29v99zM117 548q0 -52 24 -85.5t92 -63.5v291q-58 -13 -87 -51t-29 -91zM262 8q24 -2 39 -2q13 0 35 2v343q-5 2 -37 12t-37 12v-367zM262 388q7 -3 74 -25v330q-19 3 -40 3q-12 0 -34 -2v-306zM368 13 q72 16 108.5 63t36.5 112q0 60 -37.5 94t-107.5 59v-328z" />
<glyph unicode="%" horiz-adv-x="739" d="M100 -43l486 771h24l-485 -771h-25zM19 535q0 89 38.5 141t104.5 52t105.5 -52.5t39.5 -140.5t-39 -140t-106 -52q-66 0 -104.5 51.5t-38.5 140.5zM27 535q0 -86 35 -133.5t100 -47.5q64 0 100.5 49t36.5 132q0 87 -35.5 134.5t-101.5 47.5q-64 0 -99.5 -48t-35.5 -134z M420 177q0 88 39 140.5t104 52.5q67 0 105.5 -52t38.5 -141t-38.5 -141.5t-105.5 -52.5q-65 0 -104 52.5t-39 141.5zM428 177q0 -87 34.5 -134.5t100.5 -47.5q65 0 101 48t36 134q0 85 -36 133.5t-101 48.5t-100 -48t-35 -134z" />
<glyph unicode="&#x26;" horiz-adv-x="882" d="M699 434q-11 -220 -128 -344q104 -89 166 -89q64 0 94.5 29.5t30.5 77.5q0 69 -65 115l24 23q53 -50 53 -137q0 -58 -39.5 -90.5t-95.5 -32.5q-73 0 -183 90q-96 -90 -237 -90q-136 0 -217.5 59.5t-81.5 166.5q0 49 18 87t54 64.5t71.5 43.5t87.5 34q-70 122 -70 189 q0 75 58.5 119t143.5 44q81 0 131.5 -42.5t50.5 -104.5q0 -20 -5 -37.5t-10.5 -31t-19.5 -27t-23.5 -22.5t-31 -20t-32.5 -17t-38 -15.5t-37.5 -13t-41.5 -13t-40 -12.5q52 -88 126 -179.5t147 -156.5q93 107 100 333h40zM48 212q0 -106 74 -158t197 -52q143 0 226 83 q-77 65 -154.5 158.5t-131.5 184.5q-100 -33 -155.5 -81t-55.5 -135zM210 630q0 -63 68 -180q127 42 167 64q90 49 90 133q0 56 -40.5 93t-111.5 37q-76 0 -124.5 -35.5t-48.5 -111.5z" />
<glyph unicode="'" horiz-adv-x="430" d="M199 507l-8 214h48l-8 -214h-32z" />
<glyph unicode="(" horiz-adv-x="373" d="M272 -161q-157 234 -160 473q3 258 158 471h5q-116 -206 -120 -474q4 -255 123 -470h-6z" />
<glyph unicode=")" horiz-adv-x="373" d="M95 -161q119 215 123 470q-4 268 -120 474h5q155 -213 158 -471q-3 -239 -160 -473h-6z" />
<glyph unicode="*" d="M270 434l18 124l-58 -109l-29 20l86 89l-112 -54l-11 35l122 21l-121 22l10 33l112 -53l-87 89l29 20l59 -109l-18 124h38l-18 -124l58 109l29 -20l-86 -89l112 54l11 -35l-122 -21l121 -22l-10 -33l-112 53l87 -89l-29 -20l-59 109l18 -124h-38z" />
<glyph unicode="+" d="M292 14v218h-221v22h221v219h16v-219h220v-22h-220v-218h-16z" />
<glyph unicode="," horiz-adv-x="357" d="M113 -101q39 37 39 92v9h-46v56h51v-66q0 -60 -44 -115v24z" />
<glyph unicode="-" horiz-adv-x="517" d="M69 249v22h379v-22h-379z" />
<glyph unicode="." horiz-adv-x="296" d="M109 0v55h56v-55h-56z" />
<glyph unicode="/" horiz-adv-x="413" d="M66 -129l255 863h22l-255 -863h-22z" />
<glyph unicode="0" horiz-adv-x="646" d="M322 -13q-136 0 -211 96.5t-75 264.5t75 264.5t211 96.5q137 0 212 -96.5t75 -264.5t-75 -264.5t-212 -96.5zM64 348q0 -161 68.5 -254t189.5 -93q120 0 189.5 93t69.5 254t-69.5 254t-189.5 93q-121 0 -189.5 -93t-68.5 -254z" />
<glyph unicode="1" horiz-adv-x="377" d="M250 0v633h-168v6q65 0 111 11q50 15 50 38v12h32v-700h-25z" />
<glyph unicode="2" horiz-adv-x="534" d="M46 24q43 61 103 120.5t110 101t96 85t72 91.5t26 101q0 87 -50.5 130.5t-136.5 43.5q-63 0 -111.5 -35.5t-61.5 -91.5l-31 -3q21 75 76.5 110.5t127.5 35.5q103 0 157.5 -46t54.5 -137q0 -58 -25.5 -109t-70.5 -95t-94.5 -84.5t-110 -98t-103.5 -116.5h414v-27h-442v24z " />
<glyph unicode="3" horiz-adv-x="527" d="M258 -10q-92 0 -151 40.5t-74 122.5h25q24 -147 200 -147q85 0 144 51.5t59 141.5t-54 144t-138 54q-38 0 -57 -4l-2 5l-5 6h1l-4 8l246 271h-377v17h401v-18l-253 -276q47 10 94.5 0t85.5 -33t62 -71t24 -114q0 -95 -65.5 -146.5t-161.5 -51.5z" />
<glyph unicode="4" horiz-adv-x="569" d="M387 0v251l-352 1l-1 13l354 435h24v-431h127v-18h-127v-251h-25zM62 269h325v408z" />
<glyph unicode="5" d="M304 -10q-82 0 -144 43t-79 120h35q15 -71 65.5 -109t122.5 -38q84 0 146 54.5t62 143.5q0 100 -59 153t-144 53q-43 0 -76.5 -10.5t-46 -19t-36.5 -28.5h-30v348h374v-16h-346v-313q73 54 159 54q96 0 162 -59.5t66 -161.5q0 -96 -68.5 -155t-162.5 -59z" />
<glyph unicode="6" horiz-adv-x="547" d="M273 -10q-94 0 -160.5 57t-66.5 153q0 64 35 118l237 382h25l-196 -318q53 28 118 28q97 2 165.5 -55.5t68.5 -155.5q0 -96 -66 -152.5t-160 -56.5zM70 199q0 -90 59 -141.5t143 -51.5t143.5 52t59.5 142t-59 141.5t-143 51.5t-143.5 -52t-59.5 -142z" />
<glyph unicode="7" horiz-adv-x="504" d="M82 0l333 684h-349v16h371l-328 -700h-27z" />
<glyph unicode="8" horiz-adv-x="521" d="M261 1q-94 0 -160.5 54t-66.5 145q0 77 47.5 128.5t122.5 67.5q-55 16 -90 55.5t-35 96.5q0 72 54.5 114t126.5 42t127 -42.5t55 -114.5q0 -57 -35.5 -96.5t-89.5 -54.5q75 -16 122.5 -68t47.5 -129q0 -91 -65.5 -144.5t-160.5 -53.5zM59 199q0 -88 59 -140t142 -52 t142.5 52.5t59.5 140.5t-59 140t-142 52t-142.5 -52.5t-59.5 -140.5zM104 547q0 -64 45.5 -106t110.5 -42t110.5 42.5t45.5 106.5q0 74 -48 112t-107 38t-108 -39t-49 -112z" />
<glyph unicode="9" horiz-adv-x="534" d="M416 357q-55 -44 -145 -44q-96 -2 -164 52.5t-68 147.5q0 91 66 145t160 54t160.5 -54.5t66.5 -145.5q0 -37 -30 -102t-63.5 -119t-95.5 -150t-89 -141h-26zM63 512q0 -87 58.5 -135t141.5 -48q86 0 145.5 48t59.5 136q0 87 -58.5 135t-143.5 48t-144 -48.5t-59 -135.5z " />
<glyph unicode=":" horiz-adv-x="270" d="M109 -1v56h52v-56h-52zM109 398v56h52v-56h-52z" />
<glyph unicode=";" horiz-adv-x="385" d="M118 -99q39 37 39 91v10h-46v56h51v-66q0 -60 -44 -115v24zM134 386v56h52v-56h-52z" />
<glyph unicode="&#x3c;" d="M537 30l-488 251l488 251v-33l-433 -218l433 -219v-32z" />
<glyph unicode="=" d="M52 362v21h493v-21h-493zM52 147v21h493v-21h-493z" />
<glyph unicode="&#x3e;" d="M65 30v32l433 219l-433 218v33l488 -251z" />
<glyph unicode="?" horiz-adv-x="439" d="M256 174q-55 0 -88 28.5t-33 79.5q0 42 26.5 75.5t64.5 57t76.5 47t65 56.5t26.5 74q0 57 -39.5 83t-100.5 26q-56 0 -90 -25t-75 -83l-26 6q34 54 84 87t108 33q81 0 122.5 -36t41.5 -90q0 -44 -26.5 -79.5t-64.5 -59.5t-75.5 -47t-64 -54.5t-26.5 -70.5q0 -44 25.5 -67 t68.5 -23q36 0 58 13t48 42l22 -10q-17 -28 -51 -45.5t-77 -17.5zM208 0v55h56v-55h-56z" />
<glyph unicode="@" horiz-adv-x="968" d="M484 -240q-206 0 -335.5 136t-129.5 337q0 133 57 241.5t164 172.5t244 64t244 -64t164 -172.5t57 -241.5q0 -108 -43 -169.5t-126 -61.5q-65 0 -98.5 37t-30.5 127q-21 -182 -195 -182q-87 0 -139.5 36t-52.5 95q0 55 46.5 97t154.5 55q41 4 67 8t55 12t45.5 21.5 t21.5 32.5q-14 149 -162 149q-59 0 -93 -26.5t-46 -66.5l-45 1q14 41 65 71t119 30q61 0 101 -16t57.5 -46t23.5 -57.5t6 -65.5v-193q0 -41 29 -70t78 -29q58 0 95 50t37 161q0 193 -122.5 322t-312.5 129t-312.5 -129t-122.5 -322q0 -192 122 -318.5t313 -126.5 q147 0 245 60l22 -20q-108 -68 -267 -68zM296 119q0 -48 37.5 -88t120.5 -40q59 0 100.5 21t60.5 55t30 78t10 89t0 88q-45 -48 -195 -64q-69 -6 -116.5 -43t-47.5 -96z" />
<glyph unicode="A" horiz-adv-x="657" d="M17 0l284 700h32l284 -700h-29l-90 225h-361l-91 -225h-29zM144 243h347l-10 24l-164 406l-165 -408l2 2z" />
<glyph unicode="B" horiz-adv-x="594" d="M57 0v700h168q189 0 189 -143q0 -121 -125 -146q256 -2 256 -206q0 -103 -68 -154t-187 -51h-233zM83 18h198q109 0 173 47t64 140q0 95 -64.5 143.5t-166.5 48.5h-204v-379zM83 408h138q80 0 123.5 38.5t43.5 100.5q0 60 -43.5 97.5t-119.5 37.5h-142v-274z" />
<glyph unicode="C" horiz-adv-x="685" d="M378 -5q-154 0 -250 101t-96 252q0 152 96 254.5t250 102.5q166 0 262 -110l-27 -14q-42 49 -105 77.5t-130 28.5q-135 0 -222 -97t-87 -242q0 -144 87 -239.5t222 -95.5q65 0 127 27t104 73l27 -13q-96 -105 -258 -105z" />
<glyph unicode="D" horiz-adv-x="628" d="M57 0v700h153q80 0 147 -19.5t121 -60t84.5 -109.5t30.5 -160t-27.5 -159.5t-77 -109.5t-114.5 -61.5t-145 -20.5h-172zM82 30h147q156 0 244.5 76.5t88.5 244.5q0 88 -27.5 152t-77.5 100t-111 52t-136 15l-128 -1v-639z" />
<glyph unicode="E" horiz-adv-x="627" d="M60 0v700h508v-17h-483v-321h472v-18h-472v-328h494v-16h-519z" />
<glyph unicode="F" horiz-adv-x="601" d="M59 0v700h508v-17h-483v-321h472v-18h-472v-344h-25z" />
<glyph unicode="G" horiz-adv-x="726" d="M379 -5q-152 0 -251 100.5t-99 252.5t97.5 254.5t252.5 102.5q163 0 258 -110l-26 -14q-42 49 -103.5 77.5t-128.5 28.5q-135 0 -224 -97t-89 -242q0 -142 89.5 -238.5t222.5 -96.5q59 0 107.5 19.5t80 49.5t53.5 68.5t31 75t9 70.5v50h-248v18h273v-364h-14v261 q-18 -124 -91.5 -195t-199.5 -71z" />
<glyph unicode="H" horiz-adv-x="696" d="M57 0v700h25v-316h532v316h25v-700h-25v355h-532v-355h-25z" />
<glyph unicode="I" horiz-adv-x="195" d="M85 0v700h25v-700h-25z" />
<glyph unicode="J" horiz-adv-x="541" d="M247 -12q-135 0 -193 81l21 13q50 -80 172 -80q84 0 145.5 49.5t61.5 136.5v512h25l1 -515q0 -93 -68 -145t-165 -52z" />
<glyph unicode="K" horiz-adv-x="573" d="M57 0v700h26v-408l373 408h26l-234 -256l288 -444h-31l-276 423l-146 -160v-263h-26z" />
<glyph unicode="L" horiz-adv-x="571" d="M57 0v700h25v-684h445v-16h-470z" />
<glyph unicode="M" horiz-adv-x="771" d="M57 0v700h35l294 -680l292 680h36v-700h-24v649l-286 -649h-35l-287 649v-649h-25z" />
<glyph unicode="N" horiz-adv-x="587" d="M57 0v700h27l420 -661v661h26v-700h-29l-418 653v-653h-26z" />
<glyph unicode="O" horiz-adv-x="747" d="M374 -5q-154 0 -250.5 101t-96.5 252q0 152 96 254.5t251 102.5q154 0 250 -102.5t96 -254.5q0 -151 -96 -252t-250 -101zM53 348q0 -145 89 -240t232 -95t231.5 95t88.5 240q0 146 -88.5 242.5t-231.5 96.5q-142 0 -231.5 -97t-89.5 -242z" />
<glyph unicode="P" horiz-adv-x="464" d="M50 0v700h177q83 0 140 -42.5t57 -134.5q0 -176 -203 -176h-146v-347h-25zM75 362h146q81 0 128.5 42t47.5 119t-47.5 118t-125.5 41h-149v-320z" />
<glyph unicode="Q" horiz-adv-x="762" d="M364 -5q-147 0 -241.5 101.5t-94.5 251.5q0 151 94.5 254t241.5 103q146 0 240 -103t94 -254q0 -157 -99 -258l97 -90h-27l-82 77q-93 -82 -223 -82zM53 348q0 -144 87.5 -239.5t223.5 -95.5q122 0 207 79l-173 162h23l163 -150q89 97 89 244q0 145 -87 242t-222 97 t-223 -97.5t-88 -241.5z" />
<glyph unicode="R" horiz-adv-x="553" d="M57 0v700h176q186 0 186 -140q0 -139 -141 -158l265 -402h-31l-267 402q-3 0 -10 -0.5t-11 -0.5l-141 -1v-400h-26zM83 409h146q79 0 122 38t43 100t-42.5 98.5t-118.5 36.5h-150v-273z" />
<glyph unicode="S" horiz-adv-x="574" d="M301 -7q-195 0 -268 152l26 14q52 -153 242 -153q106 0 159 46t53 125q0 75 -42.5 107.5t-178.5 76.5q-106 35 -154.5 77.5t-48.5 109.5q0 70 52 115t155 45q148 0 194 -95l-27 -7q-16 43 -60.5 66.5t-106.5 23.5q-90 0 -134.5 -41t-44.5 -107q0 -62 35.5 -99t145.5 -73 q45 -15 64 -21.5t52.5 -20t47 -22.5t33.5 -24t28 -30.5t14 -36.5t6 -46q0 -82 -59.5 -132t-182.5 -50z" />
<glyph unicode="T" horiz-adv-x="659" d="M318 0v684h-299v16h621v-16h-297v-684h-25z" />
<glyph unicode="U" horiz-adv-x="622" d="M311 -12q-115 0 -181 55t-66 167l1 490h25v-490q0 -103 61.5 -155.5t159.5 -52.5t159.5 52.5t61.5 155.5v490h25l1 -490q0 -112 -66 -167t-181 -55z" />
<glyph unicode="V" horiz-adv-x="597" d="M286 0l-239 700h20l231 -674l231 674h21l-240 -700h-24z" />
<glyph unicode="W" horiz-adv-x="929" d="M246 0l-206 700h20l197 -671l197 673h21l196 -671l197 669h21l-206 -700h-24l-194 666l-195 -666h-24z" />
<glyph unicode="X" horiz-adv-x="632" d="M622 0h-29l-272 355l-282 -355h-29l295 375l-249 325h29l238 -311l246 311h28l-259 -329z" />
<glyph unicode="Y" horiz-adv-x="553" d="M264 0v310l-256 390h29l239 -376l240 376h29l-257 -390v-310h-24z" />
<glyph unicode="Z" horiz-adv-x="564" d="M10 0v15l521 669h-483v16h506v-16l-522 -669h493v-15h-515z" />
<glyph unicode="[" horiz-adv-x="500" d="M179 -168v999h192v-33h-159v-933h159v-33h-192z" />
<glyph unicode="\" d="M412 -129l-255 863h22l255 -863h-22z" />
<glyph unicode="]" horiz-adv-x="500" d="M179 -168v33h159v933h-159v33h192v-999h-192z" />
<glyph unicode="^" d="M131 257l173 316l173 -316h-2l-171 300l-171 -300h-2z" />
<glyph unicode="_" d="M19 -138v32h556v-32h-556z" />
<glyph unicode="`" horiz-adv-x="702" d="M481 565l-272 126l15 25l266 -152z" />
<glyph unicode="a" horiz-adv-x="509" d="M225 -14q-88 0 -141.5 37t-53.5 97q0 59 46.5 92.5t167.5 47.5q182 21 182 109q0 55 -40 90.5t-115 35.5q-57 0 -96.5 -22.5t-52.5 -58.5q-3 -4 -5 -12l-51 1q1 2 2 4.5l2 5t2 5.5q19 40 71 66.5t118 26.5q52 0 89.5 -12.5t58 -31t32.5 -47t15 -53t3 -56.5v-311h-27v139 q-22 -66 -77.5 -109.5t-129.5 -43.5zM64 126q0 -50 35.5 -87.5t120.5 -37.5q96 0 153.5 65t57.5 140v115q-45 -60 -193 -79q-95 -13 -134.5 -39t-39.5 -77z" />
<glyph unicode="b" horiz-adv-x="575" d="M53 0l-1 700h29v-316l-8 -68q19 81 77 139t146 58q112 0 179.5 -73t67.5 -188q0 -117 -67.5 -190.5t-179.5 -73.5q-88 0 -144.5 55.5t-76.5 135.5l6 -47v-132h-28zM68 252q0 -111 67.5 -179t165.5 -68q94 0 154.5 72t60.5 175q0 102 -59.5 173.5t-154.5 71.5 q-97 0 -165.5 -68t-68.5 -177z" />
<glyph unicode="c" horiz-adv-x="553" d="M298 -14q-115 0 -191.5 67t-76.5 191q0 129 75.5 199t200.5 70q147 0 212 -98l-24 -15q-68 97 -188 97q-111 0 -174 -68t-63 -185q0 -115 67.5 -178.5t161.5 -63.5q136 0 197 114l26 -10q-60 -120 -223 -120z" />
<glyph unicode="d" horiz-adv-x="575" d="M521 0h-27v132l6 51q-20 -81 -76.5 -138t-145.5 -57q-112 0 -179 73.5t-67 190.5q0 115 67 188t179 73q90 0 147.5 -59t76.5 -142l-8 72v316h28zM58 252q0 -103 60.5 -175t155.5 -72q98 0 165 68t67 179q0 109 -68 177t-166 68q-95 0 -154.5 -71.5t-59.5 -173.5z" />
<glyph unicode="e" horiz-adv-x="563" d="M485 275q7 25 7 53q0 72 -52 122.5t-148 50.5q-98 0 -157.5 -63t-65.5 -163h416zM30 256q0 119 76 188t187 69q107 0 169 -59.5t62 -160.5q0 -12 -2 -36h-453q-1 -123 66.5 -189t162.5 -66q74 0 118 25t76 68l29 -25q-79 -84 -221 -84q-115 0 -192.5 69.5t-77.5 200.5z " />
<glyph unicode="f" horiz-adv-x="362" d="M117 1l1 477h-109v23h180q-65 10 -97 47t-32 83q0 42 35.5 79t110.5 37q44 0 86.5 -13t66.5 -34l-31 -24q-41 65 -122 65q-52 0 -89 -30t-37 -82q0 -97 141 -128h116v-23h-193v-477h-27z" />
<glyph unicode="g" horiz-adv-x="575" d="M277 -259q-163 0 -219 113l28 7q56 -103 191 -103q94 0 155.5 62.5t61.5 177.5v129l7 55q-19 -80 -77 -137.5t-146 -57.5q-112 0 -179 73t-67 188q0 117 67 190.5t179 73.5q89 0 145.5 -57t76.5 -138l-6 51v132h27l1 -502q0 -126 -67.5 -191.5t-177.5 -65.5zM59 248 q0 -102 59.5 -173.5t154.5 -71.5q97 0 165 68t68 177q0 111 -67 179t-165 68q-94 0 -154.5 -72t-60.5 -175z" />
<glyph unicode="h" horiz-adv-x="565" d="M51 0v700h27v-374q22 76 92 128t147 52q197 0 197 -200v-305h-27v305q0 81 -44.5 134.5t-139.5 53.5q-78 0 -144.5 -54t-80.5 -157v-283h-27z" />
<glyph unicode="i" horiz-adv-x="187" d="M80 0v500h27v-500h-27zM80 633v27h27v-27h-27z" />
<glyph unicode="j" horiz-adv-x="187" d="M-71 -260q-93 0 -143 50l27 18q52 -54 119 -54q76 0 112 40.5t36 134.5v571h27v-571q0 -23 -3 -44.5t-14.5 -49t-29.5 -47.5t-52 -34t-79 -14zM80 633v27h27v-27h-27z" />
<glyph unicode="k" horiz-adv-x="449" d="M50 0v700h27v-478l268 278h35l-168 -172l217 -328h-33l-205 306l-114 -119v-187h-27z" />
<glyph unicode="l" horiz-adv-x="187" d="M80 0v700h27v-700h-27z" />
<glyph unicode="m" horiz-adv-x="973" d="M317 507q102 0 142 -47t43 -130q13 51 41 87.5t63.5 55t69 26.5t67.5 8q197 0 197 -201v-305h-27v305q0 177 -176 177q-39 0 -76.5 -12t-74.5 -38.5t-60 -79.5t-23 -126v-226h-26v305q0 80 -39.5 128.5t-127.5 48.5q-39 0 -76 -12t-74 -38.5t-59.5 -79.5t-22.5 -126v-226 h-27v499h27v-169q23 86 90 131t149 45z" />
<glyph unicode="n" horiz-adv-x="567" d="M317 507q197 0 197 -201v-306h-27v306q0 177 -177 177q-39 0 -76 -12t-74 -38.5t-59.5 -79.5t-22.5 -126v-227h-27v500h27v-169q23 86 90 131t149 45z" />
<glyph unicode="o" horiz-adv-x="576" d="M287 -14q-115 0 -186 73.5t-71 187.5q0 115 71.5 190t185.5 75q113 0 184.5 -75t71.5 -190q0 -114 -71 -187.5t-185 -73.5zM65 247q0 -107 60 -176t161 -69t160.5 69t59.5 176q0 108 -60 179t-160 71t-160.5 -71t-60.5 -179z" />
<glyph unicode="p" horiz-adv-x="575" d="M53 500h28v-132l-6 -47q20 80 76.5 135.5t144.5 55.5q112 0 179.5 -73.5t67.5 -190.5q0 -115 -67.5 -188t-179.5 -73q-88 0 -146 58t-77 139l8 -68v-316h-29zM68 248q0 -109 68.5 -177t165.5 -68q95 0 154.5 71.5t59.5 173.5q0 103 -60.5 175t-154.5 72q-98 0 -165.5 -68 t-67.5 -179z" />
<glyph unicode="q" horiz-adv-x="575" d="M521 500l1 -700h-28v316l8 72q-19 -83 -76.5 -142t-147.5 -59q-112 0 -179 73t-67 188q0 117 67 190.5t179 73.5q89 0 145.5 -57t76.5 -138l-6 51v132h27zM59 248q0 -102 59.5 -173.5t154.5 -71.5q97 0 165 68t68 177q0 111 -67 179t-165 68q-94 0 -154.5 -72t-60.5 -175 z" />
<glyph unicode="r" horiz-adv-x="449" d="M51 0v500h27v-184q15 88 75.5 138.5t139.5 51.5q72 1 105 -24.5t43 -74.5q2 -9 3 -10h-35q-28 92 -126 92q-76 0 -134.5 -56t-70.5 -160v-273h-27z" />
<glyph unicode="s" horiz-adv-x="443" d="M223 513q150 0 196 -116l-24 -14q-24 54 -69 84t-104 30q-63 0 -97 -29t-34 -79q0 -39 24.5 -63.5t61.5 -34t80 -21.5t80 -25.5t61.5 -46t24.5 -82.5q0 -53 -45 -91.5t-143 -38.5q-161 0 -215 120l26 10q23 -58 73 -86t116 -28q79 0 116 37.5t37 82.5q0 53 -34.5 83.5 t-83.5 42t-97.5 23t-83 39.5t-34.5 77q0 54 47.5 90t120.5 36z" />
<glyph unicode="t" horiz-adv-x="454" d="M256 -13q-69 0 -100.5 37t-31.5 114v341h-108v23h108v198h27v-198h182v-23h-182v-338q0 -70 24.5 -103.5t80.5 -33.5q86 0 119 57l22 -10q-47 -64 -141 -64z" />
<glyph unicode="u" horiz-adv-x="565" d="M248 -7q-197 0 -197 203v304h27v-304q0 -82 44.5 -136.5t139.5 -54.5q38 0 72 9.5t68 31.5t57 66.5t29 107.5v280h27v-499h-27v159q-19 -79 -87 -123t-153 -44z" />
<glyph unicode="v" horiz-adv-x="489" d="M223 0l-213 500h23l200 -470l200 470h22l-212 -500h-20z" />
<glyph unicode="w" horiz-adv-x="628" d="M152 0l-143 500h23l133 -472l133 472h16l133 -472l133 472h22l-143 -500h-23l-130 465l-130 -465h-24z" />
<glyph unicode="x" horiz-adv-x="518" d="M504 0h-37l-210 232l-210 -232h-37l229 252l-225 248h37l210 -232l210 232h37l-229 -251z" />
<glyph unicode="y" horiz-adv-x="453" d="M126 -200l107 261l-223 439l33 1l205 -404l164 403h31l-285 -700h-32z" />
<glyph unicode="z" horiz-adv-x="497" d="M8 0v24l441 453h-397v23h438v-24l-442 -453h421v-23h-461z" />
<glyph unicode="{" horiz-adv-x="412" d="M301 769q-12 9 -30 9q-76 0 -76 -114q0 -47 35 -121.5t35 -123.5q1 -36 -22.5 -62t-67.5 -37q91 -23 91 -99q0 -49 -35.5 -123t-35.5 -122q0 -114 76 -114q18 0 30 9v-24q-8 -8 -29 -8q-51 0 -78.5 37t-27.5 100q0 50 40.5 129.5t40.5 124.5q0 37 -34.5 59t-77.5 23h-7 v16h7q43 1 77.5 23t34.5 59q0 46 -40.5 125t-40.5 129q0 64 28 101t79 37q19 0 28 -9v-24z" />
<glyph unicode="|" horiz-adv-x="314" d="M142 -168v999h31v-999h-31z" />
<glyph unicode="}" horiz-adv-x="412" d="M111 793q9 9 28 9q51 0 79 -37t28 -101q0 -50 -40.5 -129t-40.5 -125q0 -37 34.5 -59t77.5 -23h7v-16h-7q-43 -1 -77.5 -23t-34.5 -59q0 -45 40.5 -124.5t40.5 -129.5q0 -63 -27.5 -100t-78.5 -37q-21 0 -29 8v24q12 -9 30 -9q76 0 76 114q0 48 -35.5 122t-35.5 123 q0 76 91 99q-44 11 -67.5 37t-22.5 62q0 49 35 123.5t35 121.5q0 114 -76 114q-18 0 -30 -9v24z" />
<glyph unicode="~" d="M433 241q-44 0 -106 45q-4 3 -41 31.5t-64 42t-52 13.5q-41 0 -63 -24t-22 -57q0 -18 8 -36h-28q-7 13 -7 30q0 35 28 64.5t75 29.5q30 0 51.5 -9.5t55.5 -34.5q6 -4 29.5 -22.5t40.5 -31t42 -23.5t44 -11q44 0 68 26t24 60q0 16 -4 28h27q6 -12 6 -25q0 -35 -31 -65.5 t-81 -30.5z" />
<glyph unicode="&#xa1;" horiz-adv-x="310" d="M151 327h8l19 -400v-118h-46v118zM127 485v55h56v-55h-56z" />
<glyph unicode="&#xa2;" horiz-adv-x="549" d="M263 84q-102 10 -167.5 76.5t-65.5 180.5q0 118 63 186.5t170 80.5v91h39l1 -89q150 1 215 -98l-24 -15q-38 55 -80 82.5t-112 26.5v-601h-39v79zM69 341q0 -105 56 -173.5t138 -82.5v517q-92 -14 -143 -84.5t-51 -176.5zM330 84q105 16 165 129l26 -10 q-53 -107 -191 -119z" />
<glyph unicode="&#xa3;" horiz-adv-x="581" d="M91 28q52 15 80.5 67t28.5 126v140h-92v21h92v165q0 28 6.5 55t23 56.5t52.5 47.5t88 18q86 0 134 -46l-16 -12q-53 51 -118 51q-42 0 -72.5 -16.5t-45 -44t-21 -54t-6.5 -55.5v-165h126v-21h-126v-140q0 -63 -31.5 -117.5t-93.5 -75.5h433v-29h-442v29z" />
<glyph unicode="&#xa4;" d="M116 127l-33 35l56 58q-44 57 -44 127q0 72 49 131l-61 60l33 35l64 -62q57 44 133 44q72 0 130 -40l62 58l34 -35l-60 -56q52 -57 52 -135q0 -74 -47 -130l55 -55l-34 -35l-56 56q-59 -45 -136 -45q-80 0 -140 47zM130 347q0 -81 51.5 -137t131.5 -57q75 0 129 56 t54 138q0 81 -54 136.5t-129 55.5t-129 -55.5t-54 -136.5z" />
<glyph unicode="&#xa5;" horiz-adv-x="553" d="M264 0v149h-174v15h174v147h-174v15h170l-246 374h29l233 -376l234 376h29l-247 -374h168v-15h-172v-147h172v-15h-172v-149h-24z" />
<glyph unicode="&#xa6;" horiz-adv-x="314" d="M142 420v401h31v-401h-31zM142 -153v401h31v-401h-31z" />
<glyph unicode="&#xa7;" horiz-adv-x="572" d="M308 -202q-197 0 -269 154l23 11q59 -151 246 -151q104 0 158 50.5t54 129.5q0 27 -8 49t-26.5 39.5t-34 29t-46 23.5t-46 17.5t-48.5 15.5q-9 3 -13 4q-202 61 -202 183q0 55 38 96q-45 44 -45 101q0 69 58.5 114.5t148.5 45.5q69 0 120.5 -24t74.5 -70l-25 -7 q-18 43 -63 66t-107 23q-76 0 -127.5 -42.5t-51.5 -105.5q0 -114 184 -169q115 -35 158 -61q83 -50 83 -131q0 -60 -29 -104q36 -41 36 -93q0 -85 -60 -139.5t-181 -54.5zM123 353q0 -113 183 -169q46 -14 66 -20t59 -23t64 -36q19 38 19 84q0 31 -13.5 57t-30.5 42 t-48.5 31.5t-52.5 23t-57 18.5q-13 4 -19 6q-91 27 -144 66q-26 -34 -26 -80z" />
<glyph unicode="&#xa8;" horiz-adv-x="736" d="M200 633v27h27v-27h-27zM509 633v27h27v-27h-27z" />
<glyph unicode="&#xa9;" horiz-adv-x="808" d="M404 -10q-171 0 -278 112t-107 281q0 170 106.5 283.5t278.5 113.5t278.5 -113.5t106.5 -283.5q0 -169 -106.5 -281t-278.5 -112zM41 383q0 -167 101 -277t262 -110t262 110t101 277q0 169 -100.5 280t-262.5 111q-161 0 -262 -111t-101 -280zM215 386q0 97 57 149.5 t151 52.5q112 0 158 -74l-17 -11q-28 41 -59 61.5t-82 20.5q-83 0 -130.5 -55t-47.5 -144q0 -88 51 -141t121 -53q95 0 148 98l19 -7q-44 -91 -167 -91q-87 0 -144.5 50.5t-57.5 143.5z" />
<glyph unicode="&#xaa;" horiz-adv-x="368" d="M161 371q-61 0 -98.5 26t-37.5 67q0 40 34.5 63.5t113.5 33.5q125 15 125 76q0 37 -27 65.5t-87 28.5q-70 0 -95 -64q-2 -6 -4 -8h-35q2 4 4 10q14 28 50 46.5t81 18.5t74 -12t42 -34t17.5 -43t4.5 -49v-215h-20v95q-15 -46 -53 -75.5t-89 -29.5zM50 468q0 -36 24.5 -65 t83.5 -29q66 0 105.5 45t39.5 96v94q-32 -42 -133 -53q-64 -8 -92 -29.5t-28 -58.5z" />
<glyph unicode="&#xab;" horiz-adv-x="489" d="M404 84l-138 167l139 166l4 -2l-89 -164l89 -164zM50 251l152 181l4 -2l-97 -179l97 -179l-5 -3z" />
<glyph unicode="&#xac;" horiz-adv-x="667" d="M606 78v236h-560v20h593v-256h-33z" />
<glyph unicode="&#xad;" d="M111 249v22h379v-22h-379z" />
<glyph unicode="&#xae;" horiz-adv-x="808" d="M404 -10q-171 0 -278 112t-107 281q0 170 106.5 283.5t278.5 113.5t278.5 -113.5t106.5 -283.5q0 -169 -106.5 -281t-278.5 -112zM41 383q0 -167 101 -277t262 -110t262 109.5t101 277.5q0 169 -100.5 280t-262.5 111q-161 0 -262 -111t-101 -280zM309 196v395h99 q105 0 105 -79t-80 -89l150 -227h-18l-150 227q-4 -1 -12 -1h-79l-1 -226h-14zM323 427h83q45 0 69 21.5t24 56.5t-24.5 55.5t-66.5 20.5h-85v-154z" />
<glyph unicode="&#xaf;" horiz-adv-x="734" d="M149 679v17h436v-17h-436z" />
<glyph unicode="&#xb0;" d="M290 493q-61 0 -104 44.5t-43 106.5t43 106t104 44t103.5 -44t42.5 -106t-42.5 -106.5t-103.5 -44.5zM162 644q0 -52 38 -90t90 -38t89.5 38t37.5 90t-37.5 89.5t-89.5 37.5t-90 -37.5t-38 -89.5z" />
<glyph unicode="&#xb1;" d="M292 195v219h-221v20h221v219h16v-219h220v-20h-220v-219h-16zM71 4v20h457v-20h-457z" />
<glyph unicode="&#xb2;" horiz-adv-x="324" d="M28 410q31 44 78.5 88.5t82 72t60.5 65t26 76.5q0 53 -31 79t-83 26q-38 0 -67.5 -21.5t-37.5 -55.5l-18 -1q24 88 123 88q129 0 129 -111q0 -43 -25.5 -82t-59 -66t-81.5 -71t-79 -86h251v-16h-268v15z" />
<glyph unicode="&#xb3;" horiz-adv-x="319" d="M156 389q-55 0 -91 25t-45 74h15q14 -89 121 -89q52 0 87.5 31t35.5 86q0 54 -32.5 87t-83.5 33q-21 0 -35 -3l-1 3l-3 4h1l-3 5l150 164h-229v10h243v-11l-153 -167q64 10 112.5 -22.5t48.5 -109.5q0 -58 -39.5 -89t-98.5 -31z" />
<glyph unicode="&#xb4;" horiz-adv-x="681" d="M209 565l-9 -1l266 152l15 -25z" />
<glyph unicode="&#xb5;" horiz-adv-x="556" d="M58 -200v700h25v-314q0 -63 46.5 -120t127.5 -57q34 0 70 11.5t69.5 33.5t54 62t20.5 91v293h25v-499h-25v117q-52 -124 -213 -124q-126 0 -175 99v-293h-25z" />
<glyph unicode="&#xb6;" horiz-adv-x="691" d="M423 -202v626h-132q-161 0 -161 139q0 72 44.5 105t110.5 33h164v-903h-26zM615 -202v903h25v-903h-25z" />
<glyph unicode="&#xb7;" d="M274 226v51h52v-51h-52z" />
<glyph unicode="&#xb8;" horiz-adv-x="595" d="M245 -217q-25 0 -45 4v19q18 -5 51 -5t62 20t29 52q0 18 -12.5 31.5t-31.5 13.5q-29 0 -50 -18h-19l50 106l23 1l-41 -89q22 10 37 10q33 0 50 -15.5t17 -38.5q0 -40 -37 -65.5t-83 -25.5z" />
<glyph unicode="&#xb9;" horiz-adv-x="228" d="M152 393v384h-102v3q35 0 67 7q30 9 30 23v7h20v-424h-15z" />
<glyph unicode="&#xba;" horiz-adv-x="380" d="M204 367q-12 0 -32 2q-66 10 -106 59.5t-40 118.5q0 71 40 120.5t106 59.5q-55 -12 -87.5 -63t-32.5 -117q0 -65 32.5 -115.5t87.5 -62.5q15 -3 32 -3q16 0 31 3q56 12 88.5 62.5t32.5 115.5q0 66 -32.5 117.5t-88.5 63.5q66 -10 106 -60t40 -121q0 -70 -40 -119 t-106 -59q-20 -2 -31 -2zM172 727q15 3 32 3q11 0 31 -2q-15 3 -31 3q-19 0 -32 -4z" />
<glyph unicode="&#xbb;" horiz-adv-x="489" d="M85 84l-5 3l89 164l-89 164l4 2l139 -166zM283 72l97 179l-97 179l4 2l152 -181l-151 -182z" />
<glyph unicode="&#xbc;" horiz-adv-x="800" d="M99 -2l581 753h24l-582 -753h-23zM65 777v3q35 0 67 7q30 9 30 23v7h20v-424h-15v384h-102zM408 153v8l214 263h15v-261h77v-11h-77v-152h-15v152zM425 163h197v247z" />
<glyph unicode="&#xbd;" horiz-adv-x="800" d="M99 -2l581 753h24l-582 -753h-23zM65 777v3q35 0 67 7q30 9 30 23v7h20v-424h-15v384h-102zM479 0v15q31 44 78.5 88.5t82 72t60.5 65t26 76.5q0 53 -31 79t-83 26q-38 0 -67.5 -21.5t-37.5 -55.5l-18 -1q24 88 123 88q129 0 129 -111q0 -43 -25.5 -82t-59 -66t-81.5 -71 t-79 -86h251v-16h-268z" />
<glyph unicode="&#xbe;" horiz-adv-x="800" d="M99 -2l581 753h24l-582 -753h-23zM20 488h15q14 -89 121 -89q52 0 87.5 31t35.5 86q0 54 -32.5 87t-83.5 33q-21 0 -35 -3l-1 3l-3 4h1l-3 5l150 164h-229v10h243v-11l-153 -167q64 10 112.5 -22.5t48.5 -109.5q0 -58 -39.5 -89t-98.5 -31q-55 0 -91 25t-45 74zM408 153 v8l214 263h15v-261h77v-11h-77v-152h-15v152zM425 163h197v247z" />
<glyph unicode="&#xbf;" horiz-adv-x="439" d="M183 329q55 0 88 -28.5t33 -79.5q0 -42 -26.5 -75.5t-65 -57t-76.5 -47t-64.5 -56.5t-26.5 -74q0 -57 39.5 -83t100.5 -26q56 0 90 25t75 83l26 -6q-34 -54 -84 -87t-108 -33q-81 0 -122.5 36t-41.5 90q0 44 26.5 79.5t64 59.5t75.5 47t64.5 54.5t26.5 70.5 q0 44 -25.5 67t-68.5 23q-36 0 -58 -13t-48 -42l-22 10q17 28 51 45.5t77 17.5zM175 448v55h56v-55h-56z" />
<glyph unicode="&#xc0;" horiz-adv-x="657" d="M17 0l284 700h32l284 -700h-29l-90 225h-361l-91 -225h-29zM144 243h347l-10 24l-164 406l-165 -408l2 2zM190 891l15 25l266 -152l-9 1z" />
<glyph unicode="&#xc1;" horiz-adv-x="657" d="M17 0l284 700h32l284 -700h-29l-90 225h-361l-91 -225h-29zM144 243h347l-10 24l-164 406l-165 -408l2 2zM221 764l266 152l15 -25l-272 -126z" />
<glyph unicode="&#xc2;" horiz-adv-x="657" d="M17 0l284 700h32l284 -700h-29l-90 225h-361l-91 -225h-29zM87 774l229 142h2l229 -142l-18 -9l-212 117l-212 -117zM144 243h347l-10 24l-164 406l-165 -408l2 2z" />
<glyph unicode="&#xc3;" horiz-adv-x="657" d="M17 0l284 700h32l284 -700h-29l-90 225h-361l-91 -225h-29zM144 243h347l-10 24l-164 406l-165 -408l2 2zM163 871q0 24 15 40t38 16q17 0 35 -6.5t30.5 -14t35.5 -22.5q13 -9 34 -24t29 -20.5t20 -12.5t19 -9.5t14 -2.5q18 0 18 22q0 40 -40 90l26 -1q34 -30 34 -66 q0 -24 -14.5 -39.5t-38.5 -15.5q-17 0 -35.5 7t-30.5 14t-37 24q-12 9 -32.5 23t-28.5 19.5t-19.5 12.5t-18.5 9.5t-14 2.5q-18 0 -18 -22q0 -39 39 -90l-24 1q-36 29 -36 65z" />
<glyph unicode="&#xc4;" horiz-adv-x="657" d="M17 0l284 700h32l284 -700h-29l-90 225h-361l-91 -225h-29zM144 243h347l-10 24l-164 406l-165 -408l2 2zM149 833v27h27v-27h-27zM458 833v27h27v-27h-27z" />
<glyph unicode="&#xc5;" horiz-adv-x="657" d="M17 0l284 700h32l284 -700h-29l-90 225h-361l-91 -225h-29zM144 243h347l-10 24l-164 406l-165 -408l2 2zM203 882q0 46 33.5 80t80.5 34t80.5 -34t33.5 -80t-33.5 -80t-80.5 -34t-80.5 34t-33.5 80zM221 882q0 -40 28 -68t68 -28t68 28t28 68t-28 68t-68 28t-68 -28 t-28 -68z" />
<glyph unicode="&#xc6;" horiz-adv-x="1070" d="M73 0l398 700h534v-17h-483v-321h472v-18h-472v-328h494v-16h-519v271h-237l-153 -271h-34zM268 285h229v407z" />
<glyph unicode="&#xc7;" horiz-adv-x="685" d="M328 -217q-25 0 -45 4v19q18 -5 51 -5t62 20t29 52q0 18 -12.5 31.5t-31.5 13.5q-29 0 -50 -18h-19l45 96q-145 7 -235 107t-90 245q0 152 96 254.5t250 102.5q166 0 262 -110l-27 -14q-42 49 -105 77.5t-130 28.5q-135 0 -222 -97t-87 -242q0 -144 87 -239.5t222 -95.5 q65 0 127 27t104 73l27 -13q-96 -105 -257 -105l-35 -77q22 10 37 10q33 0 50 -15.5t17 -38.5q0 -40 -37 -65.5t-83 -25.5z" />
<glyph unicode="&#xc8;" horiz-adv-x="627" d="M60 0v700h508v-17h-483v-321h472v-18h-472v-328h494v-16h-519zM203 891l15 25l266 -152l-9 1z" />
<glyph unicode="&#xc9;" horiz-adv-x="627" d="M60 0v700h508v-17h-483v-321h472v-18h-472v-328h494v-16h-519zM234 764l266 152l15 -25l-272 -126z" />
<glyph unicode="&#xca;" horiz-adv-x="627" d="M60 0v700h508v-17h-483v-321h472v-18h-472v-328h494v-16h-519zM100 774l229 142h2l229 -142l-18 -9l-212 117l-212 -117z" />
<glyph unicode="&#xcb;" horiz-adv-x="627" d="M60 0v700h508v-17h-483v-321h472v-18h-472v-328h494v-16h-519zM162 833v27h27v-27h-27zM471 833v27h27v-27h-27z" />
<glyph unicode="&#xcc;" horiz-adv-x="195" d="M85 0v700h25v-700h-25zM-31 891l15 25l266 -152l-9 1z" />
<glyph unicode="&#xcd;" horiz-adv-x="195" d="M85 0v700h25v-700h-25zM51 827l105 99l15 -25l-119 -75z" />
<glyph unicode="&#xce;" horiz-adv-x="195" d="M85 0v700h25v-700h-25zM-134 774l229 142h2l229 -142l-18 -9l-212 117l-212 -117z" />
<glyph unicode="&#xcf;" horiz-adv-x="195" d="M85 0v700h25v-700h-25zM-72 833v27h27v-27h-27zM237 833v27h27v-27h-27z" />
<glyph unicode="&#xd0;" horiz-adv-x="773" d="M163 0v297h-117v22h117v381h153q80 0 147 -19.5t121 -60t84.5 -109.5t30.5 -160t-27.5 -159.5t-77 -109.5t-114.5 -61.5t-145 -20.5h-172zM188 30h147q156 0 244.5 76.5t88.5 244.5q0 88 -27.5 152t-77.5 99.5t-111 51.5t-136 16l-128 -1v-350h237v-22h-237v-267z" />
<glyph unicode="&#xd1;" horiz-adv-x="587" d="M57 0v700h27l420 -661v661h26v-700h-29l-418 653v-653h-26zM140 871q0 24 15 40t38 16q37 0 101 -43q13 -9 34 -24t29 -20.5t20 -12.5t19 -9.5t14 -2.5q18 0 18 22q0 40 -40 90l26 -1q34 -30 34 -66q0 -24 -14.5 -39.5t-38.5 -15.5q-17 0 -35.5 7t-30.5 14t-37 24 q-12 9 -32.5 23t-28.5 19.5t-19.5 12.5t-18.5 9.5t-14 2.5q-18 0 -18 -22q0 -39 39 -90l-24 1q-36 29 -36 65z" />
<glyph unicode="&#xd2;" horiz-adv-x="747" d="M374 -5q-154 0 -250.5 101t-96.5 252q0 152 96 254.5t251 102.5q154 0 250 -102.5t96 -254.5q0 -151 -96 -252t-250 -101zM53 348q0 -145 89 -240t232 -95t231.5 95t88.5 240q0 146 -88.5 242.5t-231.5 96.5q-142 0 -231.5 -97t-89.5 -242zM287 891l15 25l266 -152l-9 1z " />
<glyph unicode="&#xd3;" horiz-adv-x="747" d="M374 -5q-154 0 -250.5 101t-96.5 252q0 152 96 254.5t251 102.5q154 0 250 -102.5t96 -254.5q0 -151 -96 -252t-250 -101zM53 348q0 -145 89 -240t232 -95t231.5 95t88.5 240q0 146 -88.5 242.5t-231.5 96.5q-142 0 -231.5 -97t-89.5 -242zM318 764l266 152l15 -25 l-272 -126z" />
<glyph unicode="&#xd4;" horiz-adv-x="747" d="M374 -5q-154 0 -250.5 101t-96.5 252q0 152 96 254.5t251 102.5q154 0 250 -102.5t96 -254.5q0 -151 -96 -252t-250 -101zM53 348q0 -145 89 -240t232 -95t231.5 95t88.5 240q0 146 -88.5 242.5t-231.5 96.5q-142 0 -231.5 -97t-89.5 -242zM184 774l229 142h2l229 -142 l-18 -9l-212 117l-212 -117z" />
<glyph unicode="&#xd5;" horiz-adv-x="747" d="M374 -5q-154 0 -250.5 101t-96.5 252q0 152 96 254.5t251 102.5q154 0 250 -102.5t96 -254.5q0 -151 -96 -252t-250 -101zM53 348q0 -145 89 -240t232 -95t231.5 95t88.5 240q0 146 -88.5 242.5t-231.5 96.5q-142 0 -231.5 -97t-89.5 -242zM260 871q0 24 15 40t38 16 q37 0 101 -43q13 -9 34 -24t29 -20.5t20 -12.5t19 -9.5t14 -2.5q18 0 18 22q0 40 -40 90l26 -1q34 -30 34 -66q0 -24 -14.5 -39.5t-38.5 -15.5q-17 0 -35.5 7t-30.5 14t-37 24q-12 9 -32.5 23t-28.5 19.5t-19.5 12.5t-18.5 9.5t-14 2.5q-18 0 -18 -22q0 -39 39 -90l-24 1 q-36 29 -36 65z" />
<glyph unicode="&#xd6;" horiz-adv-x="747" d="M374 -5q-154 0 -250.5 101t-96.5 252q0 152 96 254.5t251 102.5q154 0 250 -102.5t96 -254.5q0 -151 -96 -252t-250 -101zM53 348q0 -145 89 -240t232 -95t231.5 95t88.5 240q0 146 -88.5 242.5t-231.5 96.5q-142 0 -231.5 -97t-89.5 -242zM246 833v27h27v-27h-27z M555 833v27h27v-27h-27z" />
<glyph unicode="&#xd7;" d="M75 36l-14 12l236 236l-237 235l13 14l236 -237l237 238l13 -13l-237 -237l237 -236l-14 -13l-236 236z" />
<glyph unicode="&#xd8;" horiz-adv-x="747" d="M491 787h21l-29 -98q109 -33 173 -126t64 -215q0 -151 -96 -252t-250 -101q-46 0 -92 11l-24 -82h-22l26 87q-108 34 -171.5 125.5t-63.5 211.5q0 152 96 254.5t251 102.5q43 0 90 -10zM53 348q0 -114 57.5 -200.5t156.5 -118.5l191 648q-43 10 -84 10q-142 0 -231.5 -97 t-89.5 -242zM287 24q42 -11 87 -11q143 0 231.5 95t88.5 240q0 116 -58.5 203.5t-157.5 119.5z" />
<glyph unicode="&#xd9;" horiz-adv-x="622" d="M311 -12q-115 0 -181 55t-66 167l1 490h25v-490q0 -103 61.5 -155.5t159.5 -52.5t159.5 52.5t61.5 155.5v490h25l1 -490q0 -112 -66 -167t-181 -55zM184 891l15 25l266 -152l-9 1z" />
<glyph unicode="&#xda;" horiz-adv-x="622" d="M311 -12q-115 0 -181 55t-66 167l1 490h25v-490q0 -103 61.5 -155.5t159.5 -52.5t159.5 52.5t61.5 155.5v490h25l1 -490q0 -112 -66 -167t-181 -55zM215 764l266 152l15 -25l-272 -126z" />
<glyph unicode="&#xdb;" horiz-adv-x="622" d="M311 -12q-115 0 -181 55t-66 167l1 490h25v-490q0 -103 61.5 -155.5t159.5 -52.5t159.5 52.5t61.5 155.5v490h25l1 -490q0 -112 -66 -167t-181 -55zM81 774l229 142h2l229 -142l-18 -9l-212 117l-212 -117z" />
<glyph unicode="&#xdc;" horiz-adv-x="622" d="M311 -12q-115 0 -181 55t-66 167l1 490h25v-490q0 -103 61.5 -155.5t159.5 -52.5t159.5 52.5t61.5 155.5v490h25l1 -490q0 -112 -66 -167t-181 -55zM143 833v27h27v-27h-27zM452 833v27h27v-27h-27z" />
<glyph unicode="&#xdd;" horiz-adv-x="553" d="M264 0v310l-256 390h29l239 -376l240 376h29l-257 -390v-310h-24zM181 764l266 152l15 -25l-272 -126z" />
<glyph unicode="&#xde;" horiz-adv-x="531" d="M102 0v700h26v-117h167q83 0 140.5 -42.5t57.5 -134.5q0 -95 -57 -138t-147 -43h-161v-225h-26zM128 244h161q81 0 129.5 42.5t48.5 119.5q0 78 -48.5 118.5t-126.5 40.5h-164v-321z" />
<glyph unicode="&#xdf;" horiz-adv-x="596" d="M45 522q0 90 52.5 143.5t141.5 53.5q86 0 143.5 -44t57.5 -106q0 -55 -19 -90t-70 -54q108 -13 166.5 -78.5t58.5 -149.5q0 -108 -72 -162t-198 -54q-45 0 -90 20v13q40 -12 78 -12q116 0 185 47.5t69 147.5q0 102 -68.5 160.5t-176.5 58.5h-32v13h14q71 0 99 32t28 95 q0 66 -46.5 107t-126.5 41q-78 0 -122.5 -45t-44.5 -126v-552h-27v541z" />
<glyph unicode="&#xe0;" horiz-adv-x="509" d="M225 -14q-88 0 -141.5 37t-53.5 97q0 59 46.5 92.5t167.5 47.5q182 21 182 109q0 55 -40 90.5t-115 35.5q-57 0 -96.5 -22.5t-52.5 -58.5q-3 -4 -5 -12l-51 1q1 2 2 4.5l2 5t2 5.5q19 40 71 66.5t118 26.5q52 0 89.5 -12.5t58 -31t32.5 -47t15 -53t3 -56.5v-311h-27v139 q-22 -66 -77.5 -109.5t-129.5 -43.5zM64 126q0 -50 35.5 -87.5t120.5 -37.5q96 0 153.5 65t57.5 140v115q-45 -60 -193 -79q-95 -13 -134.5 -39t-39.5 -77zM128 691l15 25l266 -152l-9 1z" />
<glyph unicode="&#xe1;" horiz-adv-x="509" d="M225 -14q-88 0 -141.5 37t-53.5 97q0 59 46.5 92.5t167.5 47.5q182 21 182 109q0 55 -40 90.5t-115 35.5q-57 0 -96.5 -22.5t-52.5 -58.5q-3 -4 -5 -12l-51 1q1 2 2 4.5l2 5t2 5.5q19 40 71 66.5t118 26.5q52 0 89.5 -12.5t58 -31t32.5 -47t15 -53t3 -56.5v-311h-27v139 q-22 -66 -77.5 -109.5t-129.5 -43.5zM64 126q0 -50 35.5 -87.5t120.5 -37.5q96 0 153.5 65t57.5 140v115q-45 -60 -193 -79q-95 -13 -134.5 -39t-39.5 -77zM159 564l266 152l15 -25l-272 -126z" />
<glyph unicode="&#xe2;" horiz-adv-x="509" d="M225 -14q-88 0 -141.5 37t-53.5 97q0 59 46.5 92.5t167.5 47.5q182 21 182 109q0 55 -40 90.5t-115 35.5q-57 0 -96.5 -22.5t-52.5 -58.5q-3 -4 -5 -12l-51 1q1 2 2 4.5l2 5t2 5.5q19 40 71 66.5t118 26.5q52 0 89.5 -12.5t58 -31t32.5 -47t15 -53t3 -56.5v-311h-27v139 q-22 -66 -77.5 -109.5t-129.5 -43.5zM25 574l229 142h2l229 -142l-18 -9l-212 117l-212 -117zM64 126q0 -50 35.5 -87.5t120.5 -37.5q96 0 153.5 65t57.5 140v115q-45 -60 -193 -79q-95 -13 -134.5 -39t-39.5 -77z" />
<glyph unicode="&#xe3;" horiz-adv-x="509" d="M225 -14q-88 0 -141.5 37t-53.5 97q0 59 46.5 92.5t167.5 47.5q182 21 182 109q0 55 -40 90.5t-115 35.5q-57 0 -96.5 -22.5t-52.5 -58.5q-3 -4 -5 -12l-51 1q1 2 2 4.5l2 5t2 5.5q19 40 71 66.5t118 26.5q52 0 89.5 -12.5t58 -31t32.5 -47t15 -53t3 -56.5v-311h-27v139 q-22 -66 -77.5 -109.5t-129.5 -43.5zM64 126q0 -50 35.5 -87.5t120.5 -37.5q96 0 153.5 65t57.5 140v115q-45 -60 -193 -79q-95 -13 -134.5 -39t-39.5 -77zM101 671q0 24 15 40t38 16q17 0 35 -6.5t30.5 -14t35.5 -22.5q13 -9 34 -24t29 -20.5t20 -12.5t19 -9.5t14 -2.5 q18 0 18 22q0 40 -40 90l26 -1q34 -30 34 -66q0 -24 -14.5 -39.5t-38.5 -15.5q-17 0 -35.5 7t-30.5 14t-37 24q-12 9 -32.5 23t-28.5 19.5t-19.5 12.5t-18.5 9.5t-14 2.5q-18 0 -18 -22q0 -39 39 -90l-24 1q-36 29 -36 65z" />
<glyph unicode="&#xe4;" horiz-adv-x="509" d="M225 -14q-88 0 -141.5 37t-53.5 97q0 59 46.5 92.5t167.5 47.5q182 21 182 109q0 55 -40 90.5t-115 35.5q-57 0 -96.5 -22.5t-52.5 -58.5q-3 -4 -5 -12l-51 1q1 2 2 4.5l2 5t2 5.5q19 40 71 66.5t118 26.5q52 0 89.5 -12.5t58 -31t32.5 -47t15 -53t3 -56.5v-311h-27v139 q-22 -66 -77.5 -109.5t-129.5 -43.5zM64 126q0 -50 35.5 -87.5t120.5 -37.5q96 0 153.5 65t57.5 140v115q-45 -60 -193 -79q-95 -13 -134.5 -39t-39.5 -77zM87 633v27h27v-27h-27zM396 633v27h27v-27h-27z" />
<glyph unicode="&#xe5;" horiz-adv-x="509" d="M225 -14q-88 0 -141.5 37t-53.5 97q0 59 46.5 92.5t167.5 47.5q182 21 182 109q0 55 -40 90.5t-115 35.5q-57 0 -96.5 -22.5t-52.5 -58.5q-3 -4 -5 -12l-51 1q1 2 2 4.5l2 5t2 5.5q19 40 71 66.5t118 26.5q52 0 89.5 -12.5t58 -31t32.5 -47t15 -53t3 -56.5v-311h-27v139 q-22 -66 -77.5 -109.5t-129.5 -43.5zM64 126q0 -50 35.5 -87.5t120.5 -37.5q96 0 153.5 65t57.5 140v115q-45 -60 -193 -79q-95 -13 -134.5 -39t-39.5 -77zM141 682q0 46 33.5 80t80.5 34t80.5 -34t33.5 -80t-33.5 -80t-80.5 -34t-80.5 34t-33.5 80zM159 682q0 -40 28 -68 t68 -28t68 28t28 68t-28 68t-68 28t-68 -28t-28 -68z" />
<glyph unicode="&#xe6;" horiz-adv-x="964" d="M225 -14q-88 0 -141.5 37t-53.5 97q0 59 46.5 92.5t167.5 47.5q182 21 182 109q0 55 -40 90.5t-115 35.5q-57 0 -96.5 -22.5t-52.5 -58.5q-3 -4 -5 -12l-51 1q1 2 2 4.5l2 5t2 5.5q19 40 71 66.5t118 26.5q171 0 194 -139q31 67 95 104t144 37q107 0 169 -59.5t62 -160.5 q0 -12 -2 -36h-453q-1 -123 66.5 -189t162.5 -66q74 0 118 25t76 68l29 -25q-79 -84 -221 -84q-80 0 -144.5 35t-97.5 102v-123h-27v139q-22 -66 -77.5 -109.5t-129.5 -43.5zM64 126q0 -50 35.5 -87.5t120.5 -37.5q96 0 153.5 65t57.5 140v115q-45 -60 -193 -79 q-95 -13 -134.5 -39t-39.5 -77zM470 275h416q7 25 7 53q0 72 -52 122.5t-148 50.5q-98 0 -157.5 -63t-65.5 -163z" />
<glyph unicode="&#xe7;" horiz-adv-x="553" d="M298 -14h-1l-31 -68q22 10 37 10q33 0 50 -15.5t17 -38.5q0 -40 -37 -65.5t-83 -25.5q-25 0 -45 4v19q18 -5 51 -5t62 20t29 52q0 18 -12.5 31.5t-31.5 13.5q-29 0 -50 -18h-19l41 87q-107 6 -176 72.5t-69 184.5q0 129 75.5 199t200.5 70q147 0 212 -98l-24 -15 q-68 97 -188 97q-111 0 -174 -68t-63 -185q0 -111 62 -173.5t151 -68.5l2 4l23 1l-2 -5q131 3 190 114l26 -10q-60 -120 -223 -120z" />
<glyph unicode="&#xe8;" horiz-adv-x="563" d="M485 275q7 25 7 53q0 72 -52 122.5t-148 50.5q-98 0 -157.5 -63t-65.5 -163h416zM30 256q0 119 76 188t187 69q107 0 169 -59.5t62 -160.5q0 -12 -2 -36h-453q-1 -123 66.5 -189t162.5 -66q74 0 118 25t76 68l29 -25q-79 -84 -221 -84q-115 0 -192.5 69.5t-77.5 200.5z M181 691l15 25l266 -152l-9 1z" />
<glyph unicode="&#xe9;" horiz-adv-x="563" d="M485 275q7 25 7 53q0 72 -52 122.5t-148 50.5q-98 0 -157.5 -63t-65.5 -163h416zM30 256q0 119 76 188t187 69q107 0 169 -59.5t62 -160.5q0 -12 -2 -36h-453q-1 -123 66.5 -189t162.5 -66q74 0 118 25t76 68l29 -25q-79 -84 -221 -84q-115 0 -192.5 69.5t-77.5 200.5z M212 564l266 152l15 -25l-272 -126z" />
<glyph unicode="&#xea;" horiz-adv-x="563" d="M485 275q7 25 7 53q0 72 -52 122.5t-148 50.5q-98 0 -157.5 -63t-65.5 -163h416zM30 256q0 119 76 188t187 69q107 0 169 -59.5t62 -160.5q0 -12 -2 -36h-453q-1 -123 66.5 -189t162.5 -66q74 0 118 25t76 68l29 -25q-79 -84 -221 -84q-115 0 -192.5 69.5t-77.5 200.5z M78 574l229 142h2l229 -142l-18 -9l-212 117l-212 -117z" />
<glyph unicode="&#xeb;" horiz-adv-x="563" d="M485 275q7 25 7 53q0 72 -52 122.5t-148 50.5q-98 0 -157.5 -63t-65.5 -163h416zM30 256q0 119 76 188t187 69q107 0 169 -59.5t62 -160.5q0 -12 -2 -36h-453q-1 -123 66.5 -189t162.5 -66q74 0 118 25t76 68l29 -25q-79 -84 -221 -84q-115 0 -192.5 69.5t-77.5 200.5z M140 633v27h27v-27h-27zM449 633v27h27v-27h-27z" />
<glyph unicode="&#xec;" horiz-adv-x="187" d="M80 0v500h27v-500h-27zM-33 691l15 25l266 -152l-9 1z" />
<glyph unicode="&#xed;" horiz-adv-x="187" d="M80 0v500h27v-500h-27zM-2 564l266 152l15 -25l-272 -126z" />
<glyph unicode="&#xee;" horiz-adv-x="187" d="M80 0v500h27v-500h-27zM-136 574l229 142h2l229 -142l-18 -9l-212 117l-212 -117z" />
<glyph unicode="&#xef;" horiz-adv-x="187" d="M80 0v500h27v-500h-27zM-74 633v27h27v-27h-27zM235 633v27h27v-27h-27z" />
<glyph unicode="&#xf0;" horiz-adv-x="573" d="M284 -39q-114 0 -179 80.5t-65 190.5q0 114 69.5 184.5t177.5 70.5q81 0 146 -47t102 -118q-12 139 -87 245t-214 166l-65 -56l-12 11l61 52q-61 25 -137 39v24q84 -13 159 -44l64 56l13 -10l-61 -53q140 -61 217.5 -176t77.5 -266q0 -96 -28.5 -173.5t-90 -126.5 t-148.5 -49zM71 237q0 -109 61.5 -183.5t156.5 -74.5q102 -1 169 66t67 171q0 114 -68 184t-167 70q-98 0 -158.5 -67t-60.5 -166z" />
<glyph unicode="&#xf1;" horiz-adv-x="567" d="M317 507q197 0 197 -201v-306h-27v306q0 177 -177 177q-39 0 -76 -12t-74 -38.5t-59.5 -79.5t-22.5 -126v-227h-27v500h27v-169q23 86 90 131t149 45zM124 671q0 24 15 40t38 16q17 0 35 -6.5t30.5 -14t35.5 -22.5q13 -9 34 -24t29 -20.5t20 -12.5t19 -9.5t14 -2.5 q18 0 18 22q0 40 -40 90l26 -1q34 -30 34 -66q0 -24 -14.5 -39.5t-38.5 -15.5q-17 0 -35.5 7t-30.5 14t-37 24q-12 9 -32.5 23t-28.5 19.5t-19.5 12.5t-18.5 9.5t-14 2.5q-18 0 -18 -22q0 -39 39 -90l-24 1q-36 29 -36 65z" />
<glyph unicode="&#xf2;" horiz-adv-x="576" d="M287 -14q-115 0 -186 73.5t-71 187.5q0 115 71.5 190t185.5 75q113 0 184.5 -75t71.5 -190q0 -114 -71 -187.5t-185 -73.5zM65 247q0 -107 60 -176t161 -69t160.5 69t59.5 176q0 108 -60 179t-160 71t-160.5 -71t-60.5 -179zM160 691l15 25l266 -152l-9 1z" />
<glyph unicode="&#xf3;" horiz-adv-x="576" d="M287 -14q-115 0 -186 73.5t-71 187.5q0 115 71.5 190t185.5 75q113 0 184.5 -75t71.5 -190q0 -114 -71 -187.5t-185 -73.5zM65 247q0 -107 60 -176t161 -69t160.5 69t59.5 176q0 108 -60 179t-160 71t-160.5 -71t-60.5 -179zM191 564l266 152l15 -25l-272 -126z" />
<glyph unicode="&#xf4;" horiz-adv-x="576" d="M287 -14q-115 0 -186 73.5t-71 187.5q0 115 71.5 190t185.5 75q113 0 184.5 -75t71.5 -190q0 -114 -71 -187.5t-185 -73.5zM57 574l229 142h2l229 -142l-18 -9l-212 117l-212 -117zM65 247q0 -107 60 -176t161 -69t160.5 69t59.5 176q0 108 -60 179t-160 71t-160.5 -71 t-60.5 -179z" />
<glyph unicode="&#xf5;" horiz-adv-x="576" d="M287 -14q-115 0 -186 73.5t-71 187.5q0 115 71.5 190t185.5 75q113 0 184.5 -75t71.5 -190q0 -114 -71 -187.5t-185 -73.5zM65 247q0 -107 60 -176t161 -69t160.5 69t59.5 176q0 108 -60 179t-160 71t-160.5 -71t-60.5 -179zM133 671q0 24 15 40t38 16q17 0 35 -6.5 t30.5 -14t35.5 -22.5q13 -9 34 -24t29 -20.5t20 -12.5t19 -9.5t14 -2.5q18 0 18 22q0 40 -40 90l26 -1q34 -30 34 -66q0 -24 -14.5 -39.5t-38.5 -15.5q-17 0 -35.5 7t-30.5 14t-37 24q-12 9 -32.5 23t-28.5 19.5t-19.5 12.5t-18.5 9.5t-14 2.5q-18 0 -18 -22q0 -39 39 -90 l-24 1q-36 29 -36 65z" />
<glyph unicode="&#xf6;" horiz-adv-x="576" d="M287 -14q-115 0 -186 73.5t-71 187.5q0 115 71.5 190t185.5 75q113 0 184.5 -75t71.5 -190q0 -114 -71 -187.5t-185 -73.5zM65 247q0 -107 60 -176t161 -69t160.5 69t59.5 176q0 108 -60 179t-160 71t-160.5 -71t-60.5 -179zM119 633v27h27v-27h-27zM428 633v27h27v-27 h-27z" />
<glyph unicode="&#xf7;" d="M69 215v20h457v-20h-457zM272 -1v56h52v-56h-52zM273 398v56h51v-56h-51z" />
<glyph unicode="&#xf8;" horiz-adv-x="576" d="M403 697h22l-58 -196q81 -25 128.5 -93t47.5 -161q0 -114 -71 -187.5t-185 -73.5q-35 0 -70 8l-47 -160h-22l49 166q-77 26 -122 92t-45 155q0 115 71.5 190t185.5 75q31 0 60 -6zM65 247q0 -81 36.5 -143t100.5 -87l140 473q-25 7 -56 7q-100 0 -160.5 -71t-60.5 -179z M222 10q32 -8 64 -8q101 0 160.5 69t59.5 176q0 85 -38 148.5t-106 88.5z" />
<glyph unicode="&#xf9;" horiz-adv-x="565" d="M248 -7q-197 0 -197 203v304h27v-304q0 -82 44.5 -136.5t139.5 -54.5q38 0 72 9.5t68 31.5t57 66.5t29 107.5v280h27v-499h-27v159q-19 -79 -87 -123t-153 -44zM166 691l15 25l266 -152l-9 1z" />
<glyph unicode="&#xfa;" horiz-adv-x="565" d="M248 -7q-197 0 -197 203v304h27v-304q0 -82 44.5 -136.5t139.5 -54.5q38 0 72 9.5t68 31.5t57 66.5t29 107.5v280h27v-499h-27v159q-19 -79 -87 -123t-153 -44zM197 564l266 152l15 -25l-272 -126z" />
<glyph unicode="&#xfb;" horiz-adv-x="565" d="M248 -7q-197 0 -197 203v304h27v-304q0 -82 44.5 -136.5t139.5 -54.5q38 0 72 9.5t68 31.5t57 66.5t29 107.5v280h27v-499h-27v159q-19 -79 -87 -123t-153 -44zM63 574l229 142h2l229 -142l-18 -9l-212 117l-212 -117z" />
<glyph unicode="&#xfc;" horiz-adv-x="565" d="M248 -7q-197 0 -197 203v304h27v-304q0 -82 44.5 -136.5t139.5 -54.5q38 0 72 9.5t68 31.5t57 66.5t29 107.5v280h27v-499h-27v159q-19 -79 -87 -123t-153 -44zM125 633v27h27v-27h-27zM434 633v27h27v-27h-27z" />
<glyph unicode="&#xfd;" horiz-adv-x="453" d="M126 -200l107 261l-223 439l33 1l205 -404l164 403h31l-285 -700h-32zM122 564l266 152l15 -25l-272 -126z" />
<glyph unicode="&#xfe;" horiz-adv-x="563" d="M38 -245l1 1060h27v-461l-8 -74q17 94 77.5 159.5t158.5 65.5q112 0 179.5 -74t67.5 -190t-67.5 -188.5t-179.5 -72.5q-98 0 -158 64t-78 157l8 -90v-356h-28zM57 241q0 -109 69 -177t168 -68q97 0 157.5 71t60.5 174q0 104 -61 175.5t-157 71.5q-100 0 -168.5 -68 t-68.5 -179z" />
<glyph unicode="&#xff;" horiz-adv-x="453" d="M126 -200l107 261l-223 439l33 1l205 -404l164 403h31l-285 -700h-32zM50 633v27h27v-27h-27zM359 633v27h27v-27h-27z" />
<glyph unicode="&#x152;" horiz-adv-x="1157" d="M352 -5q-154 0 -250 101t-96 252q0 152 95.5 254.5t250.5 102.5q137 0 232 -84v79h508v-17h-483v-321h472v-18h-472v-328h494v-16h-519v78q-94 -83 -232 -83zM31 348q0 -145 89 -240t232 -95q89 0 145.5 26.5t86.5 85.5v453q-30 58 -86 83.5t-146 25.5q-142 0 -231.5 -97 t-89.5 -242z" />
<glyph unicode="&#x153;" horiz-adv-x="1045" d="M287 -14q-115 0 -186 73.5t-71 187.5q0 115 71.5 190t185.5 75q86 0 149 -44.5t90 -120.5q26 79 94 122.5t155 43.5q107 0 169 -59.5t62 -160.5q0 -12 -2 -36h-453q-1 -123 66.5 -189t162.5 -66q74 0 118 25t76 68l29 -25q-79 -84 -221 -84q-88 0 -157 42t-97 124 q-26 -76 -89.5 -121t-151.5 -45zM65 247q0 -107 60 -176t161 -69t160.5 69t59.5 176q0 108 -60 179t-160 71t-160.5 -71t-60.5 -179zM551 275h416q7 25 7 53q0 72 -52 122.5t-148 50.5q-98 0 -157.5 -63t-65.5 -163z" />
<glyph unicode="&#x178;" horiz-adv-x="553" d="M264 0v310l-256 390h29l239 -376l240 376h29l-257 -390v-310h-24zM109 833v27h27v-27h-27zM418 833v27h27v-27h-27z" />
<glyph unicode="&#x237;" horiz-adv-x="187" d="M-71 -260q-93 0 -143 50l27 18q52 -54 119 -54q76 0 112 40.5t36 134.5v571h27v-571q0 -23 -3 -44.5t-14.5 -49t-29.5 -47.5t-52 -34t-79 -14z" />
<glyph unicode="&#x2c6;" horiz-adv-x="562" d="M55 565l-18 9l229 142h2l229 -142l-18 -9l-212 117z" />
<glyph unicode="&#x2dc;" horiz-adv-x="708" d="M236 606q-36 29 -36 65q0 24 15 40t38 16q37 0 101 -43q13 -9 34 -24t29 -20.5t20 -12.5t19 -9.5t14 -2.5q18 0 18 22q0 40 -40 90l26 -1q34 -30 34 -66q0 -24 -14.5 -39.5t-38.5 -15.5q-17 0 -35.5 7t-30.5 14t-37 24q-12 9 -32.5 23t-28.5 19.5t-19.5 12.5t-18.5 9.5 t-14 2.5q-18 0 -18 -22q0 -39 39 -90z" />
<glyph unicode="&#x2000;" horiz-adv-x="498" />
<glyph unicode="&#x2001;" horiz-adv-x="996" />
<glyph unicode="&#x2002;" horiz-adv-x="498" />
<glyph unicode="&#x2003;" horiz-adv-x="996" />
<glyph unicode="&#x2004;" horiz-adv-x="332" />
<glyph unicode="&#x2005;" horiz-adv-x="249" />
<glyph unicode="&#x2006;" horiz-adv-x="166" />
<glyph unicode="&#x2007;" horiz-adv-x="166" />
<glyph unicode="&#x2008;" horiz-adv-x="124" />
<glyph unicode="&#x2009;" horiz-adv-x="199" />
<glyph unicode="&#x200a;" horiz-adv-x="55" />
<glyph unicode="&#x2010;" horiz-adv-x="517" d="M69 249v22h379v-22h-379z" />
<glyph unicode="&#x2011;" horiz-adv-x="517" d="M69 249v22h379v-22h-379z" />
<glyph unicode="&#x2012;" horiz-adv-x="517" d="M69 249v22h379v-22h-379z" />
<glyph unicode="&#x2013;" d="M100 299v22h399v-22h-399z" />
<glyph unicode="&#x2014;" d="M25 299v22h549v-22h-549z" />
<glyph unicode="&#x2018;" horiz-adv-x="310" d="M106 578v56h46q0 21 -1.5 33t-10.5 31.5t-27 36.5v24q44 -55 44 -115v-66h-51z" />
<glyph unicode="&#x2019;" horiz-adv-x="310" d="M113 565q39 36 39 93v8h-46v62h63v-71q0 -80 -56 -117v25z" />
<glyph unicode="&#x201a;" horiz-adv-x="218" d="M113 -101q18 17 27 36.5t10.5 31.5t1.5 33h-46v56h51v-66q0 -60 -44 -115v24z" />
<glyph unicode="&#x201c;" horiz-adv-x="548" d="M391 642q0 60 44 115v-24q-18 -17 -27 -36.5t-10.5 -31.5t-1.5 -33h46v-56h-51v66zM153 576v66q0 60 44 115v-24q-18 -17 -27 -36.5t-10.5 -31.5t-1.5 -33h46v-56h-51z" />
<glyph unicode="&#x201d;" horiz-adv-x="548" d="M351 548q18 17 27 36.5t10.5 31.5t1.5 33h-46v56h51v-66q0 -60 -44 -115v24zM106 649v56h51v-66q0 -60 -44 -115v24q18 17 27 36.5t10.5 31.5t1.5 33h-46z" />
<glyph unicode="&#x201e;" d="M376 -101q39 37 39 91v10h-46v56h51v-66q0 -60 -44 -115v24zM106 0v56h51v-66q0 -60 -44 -115v24q39 37 39 91v10h-46z" />
<glyph unicode="&#x2022;" d="M300 198q-39 0 -67 28.5t-28 68.5t28 68.5t67 28.5t67 -28.5t28 -68.5t-28 -68.5t-67 -28.5z" />
<glyph unicode="&#x2026;" horiz-adv-x="680" d="M519 0v56h51v-56h-51zM109 0v56h52v-56h-52zM318 0v56h51v-56h-51z" />
<glyph unicode="&#x202f;" horiz-adv-x="199" />
<glyph unicode="&#x2039;" horiz-adv-x="286" d="M201 85l-151 182l152 181l4 -2l-97 -179l97 -179z" />
<glyph unicode="&#x203a;" horiz-adv-x="286" d="M85 85l-5 3l97 179l-97 179l4 2l152 -181z" />
<glyph unicode="&#x2044;" horiz-adv-x="784" d="M99 -2l581 753h24l-582 -753h-23z" />
<glyph unicode="&#x205f;" horiz-adv-x="249" />
<glyph unicode="&#x2070;" horiz-adv-x="391" d="M195 387q-82 0 -127.5 58.5t-45.5 160.5t45.5 160.5t127.5 58.5q83 0 128.5 -58.5t45.5 -160.5t-45.5 -160.5t-128.5 -58.5zM39 606q0 -98 41.5 -154t114.5 -56t115 56.5t42 153.5t-42 153.5t-115 56.5t-114.5 -56t-41.5 -154z" />
<glyph unicode="&#x2074;" horiz-adv-x="345" d="M235 395v152l-214 1v8l214 263h15v-261h77v-11h-77v-152h-15zM38 558h197v247z" />
<glyph unicode="&#x2075;" horiz-adv-x="364" d="M184 389q-50 0 -87.5 26t-47.5 73h21q10 -43 40.5 -66t73.5 -23q51 0 88.5 32.5t37.5 87.5q0 60 -36 92.5t-87 32.5q-25 0 -45.5 -6.5t-28.5 -12t-22 -17.5h-18v211h226v-9h-209v-190q45 33 96 33q58 0 98 -36t40 -98q0 -58 -41.5 -94t-98.5 -36z" />
<glyph unicode="&#x2076;" horiz-adv-x="332" d="M165 389q-57 0 -97 34.5t-40 92.5q0 39 21 72l144 231h15l-119 -192q34 17 72 17q58 1 99.5 -34t41.5 -94q0 -58 -40 -92.5t-97 -34.5zM42 516q0 -54 36 -85.5t87 -31.5t87 31.5t36 85.5q0 55 -35.5 86t-87.5 31q-51 0 -87 -31.5t-36 -85.5z" />
<glyph unicode="&#x2077;" horiz-adv-x="305" d="M50 395l202 415h-212v9h225l-199 -424h-16z" />
<glyph unicode="&#x2078;" horiz-adv-x="316" d="M158 396q-57 0 -97 32.5t-40 87.5q0 46 29 78t74 41q-33 10 -54.5 34t-21.5 58q0 44 33 69.5t77 25.5t77 -26t33 -69q0 -35 -21.5 -58.5t-54.5 -33.5q46 -10 74.5 -41.5t28.5 -77.5q0 -56 -39.5 -88t-97.5 -32zM36 516q0 -53 36 -85t86 -32t86 32t36 85t-36 85t-86 32 t-86 -32t-36 -85zM63 727q0 -39 27.5 -64.5t67.5 -25.5q39 0 66.5 25.5t27.5 64.5q0 45 -29 68t-65 23t-65.5 -23.5t-29.5 -67.5z" />
<glyph unicode="&#x2079;" horiz-adv-x="324" d="M252 611q-32 -26 -88 -26q-58 -2 -99 31.5t-41 89.5q0 55 40 88t97 33t97 -33t40 -89q0 -22 -18 -61t-38.5 -72.5t-57.5 -91t-54 -85.5h-16zM38 705q0 -53 35 -82t86 -29q52 0 88.5 29.5t36.5 82.5t-36 82t-87 29t-87 -29.5t-36 -82.5z" />
<glyph unicode="&#x2080;" horiz-adv-x="391" d="M195 -8q-82 0 -127.5 58.5t-45.5 160.5t45.5 160.5t127.5 58.5q83 0 128.5 -58.5t45.5 -160.5t-45.5 -160.5t-128.5 -58.5zM39 211q0 -98 41.5 -154t114.5 -56t115 56.5t42 153.5t-42 153.5t-115 56.5t-114.5 -56t-41.5 -154z" />
<glyph unicode="&#x2081;" horiz-adv-x="228" d="M152 0v384h-102v3q35 0 67 7q30 9 30 23v7h20v-424h-15z" />
<glyph unicode="&#x2082;" horiz-adv-x="324" d="M28 15q31 44 78.5 88.5t82 72t60.5 65t26 76.5q0 53 -31 79t-83 26q-38 0 -67.5 -21.5t-37.5 -55.5l-18 -1q24 88 123 88q129 0 129 -111q0 -43 -25.5 -82t-59 -66t-81.5 -71t-79 -86h251v-16h-268v15z" />
<glyph unicode="&#x2083;" horiz-adv-x="319" d="M156 -6q-55 0 -91 25t-45 74h15q14 -89 121 -89q52 0 87.5 31t35.5 86t-32.5 87.5t-83.5 32.5q-21 0 -35 -3l-2 5l-2 2l-2 5l150 164h-229v10h243v-11l-154 -167q64 11 113 -22t49 -110q0 -58 -39.5 -89t-98.5 -31z" />
<glyph unicode="&#x2084;" horiz-adv-x="345" d="M235 0v152l-214 1v8l214 263h15v-261h77v-11h-77v-152h-15zM38 163h197v247z" />
<glyph unicode="&#x2085;" horiz-adv-x="364" d="M184 -6q-50 0 -87.5 26t-47.5 73h21q10 -43 40.5 -66t73.5 -23q51 0 88.5 32.5t37.5 87.5q0 60 -36 92.5t-87 32.5q-25 0 -45.5 -6.5t-28.5 -12t-22 -17.5h-18v211h226v-9h-209v-190q45 33 96 33q58 0 98 -36t40 -98q0 -58 -41.5 -94t-98.5 -36z" />
<glyph unicode="&#x2086;" horiz-adv-x="332" d="M165 -6q-57 0 -97 34.5t-40 92.5q0 39 21 72l144 231h15l-119 -192q34 17 72 17q58 1 99.5 -34t41.5 -94q0 -58 -40 -92.5t-97 -34.5zM42 121q0 -54 36 -85.5t87 -31.5t87 31.5t36 85.5q0 55 -35.5 86t-87.5 31q-51 0 -87 -31.5t-36 -85.5z" />
<glyph unicode="&#x2087;" horiz-adv-x="305" d="M50 0l202 415h-212v9h225l-199 -424h-16z" />
<glyph unicode="&#x2088;" horiz-adv-x="316" d="M158 1q-57 0 -97 32.5t-40 87.5q0 46 29 78t74 41q-33 10 -54.5 34t-21.5 58q0 44 33 69.5t77 25.5t77 -26t33 -69q0 -35 -21.5 -58.5t-54.5 -33.5q46 -10 74.5 -41.5t28.5 -77.5q0 -56 -39.5 -88t-97.5 -32zM36 121q0 -53 36 -85t86 -32t86 32t36 85t-36 85t-86 32 t-86 -32t-36 -85zM63 332q0 -39 27.5 -64.5t67.5 -25.5q39 0 66.5 25.5t27.5 64.5q0 45 -29 68t-65 23t-65.5 -23.5t-29.5 -67.5z" />
<glyph unicode="&#x2089;" horiz-adv-x="324" d="M252 216q-32 -26 -88 -26q-58 -2 -99 31.5t-41 89.5q0 55 40 88t97 33t97 -33t40 -89q0 -22 -18 -61t-38.5 -72.5t-57.5 -91t-54 -85.5h-16zM38 310q0 -53 35 -82t86 -29q52 0 88.5 29.5t36.5 82.5t-36 82t-87 29t-87 -29.5t-36 -82.5z" />
<glyph unicode="&#x20ac;" horiz-adv-x="781" d="M461 -5q-132 0 -223 75.5t-116 195.5h-76v24h73q-4 25 -4 58q0 36 4 64h-73v24h78q26 120 116 194.5t221 74.5q166 0 262 -110l-27 -14q-42 49 -105 77.5t-130 28.5q-112 0 -193.5 -69.5t-106.5 -181.5h378v-24h-383q-4 -28 -4 -64q0 -34 4 -58h383v-24h-380 q24 -113 106 -183t196 -70q65 0 127 27t104 73l27 -13q-96 -105 -258 -105z" />
<glyph unicode="&#x2116;" horiz-adv-x="1136" d="M987 175h-293v34h293v-34zM57 0v700h27l420 -661v661h26v-700h-29l-418 653v-653h-26zM615 466q0 101 63 167t163 66t162.5 -66t62.5 -167q0 -100 -62.5 -164.5t-162.5 -64.5q-101 0 -163.5 64.5t-62.5 164.5zM646 466q0 -93 53 -154t141 -61q89 0 141 60.5t52 154.5 q0 95 -52.5 157.5t-140.5 62.5t-141 -62.5t-53 -157.5z" />
<glyph unicode="&#x2122;" horiz-adv-x="878" d="M405 386v312l110 1l94 -218l93 218l109 -1v-312h-82v164l-72 -164h-97l-73 166v-166h-82zM65 616v82h287v-82h-102v-230h-83v230h-102z" />
<glyph unicode="&#x25fc;" horiz-adv-x="500" d="M0 500h500v-500h-500v500z" />
<glyph unicode="&#xfb01;" horiz-adv-x="553" d="M446 0v478h-302v-477h-27l1 477h-109v23h140q-41 14 -64 47t-23 73q0 49 48 93t150 44q100 0 180 -52h33v-45l-42 2q-78 78 -171 78q-83 0 -130 -32t-47 -92q0 -37 20 -66.5t79 -49.5l291 -1v-500h-27z" />
<glyph unicode="&#xfb02;" horiz-adv-x="517" d="M117 1l1 477h-109v23h180q-65 10 -97 47t-32 83q0 42 35.5 79t110.5 37q44 0 86.5 -13t66.5 -34l-31 -24q-41 65 -122 65q-52 0 -89 -30t-37 -82q0 -97 141 -128h116v-23h-193v-477h-27zM410 0v700h27v-700h-27z" />
<glyph unicode="&#xfb04;" horiz-adv-x="768" d="M117 1l1 477h-109v23h180q-65 10 -97 47t-32 83q0 42 35.5 79t110.5 37q85 0 140 -37q41 37 111 37q44 0 86.5 -13t66.5 -34l-31 -24q-41 65 -122 65q-62 0 -99 -40l1 -1l-6 -4q-22 -28 -22 -67q0 -97 141 -128h116v-23h-193v-477h-27l1 477h-225v-477h-27zM80 629 q0 -97 141 -128h219q-65 10 -97 47t-32 83q0 26 14 50q-42 60 -119 60q-52 0 -89 -30t-37 -82zM661 0v700h27v-700h-27z" />
<glyph horiz-adv-x="541" d="M247 -12q-135 0 -193 81l21 13q50 -80 172 -80q84 0 145.5 49.5t61.5 136.5v512h25l1 -515q0 -93 -68 -145t-165 -52zM372 764l266 152l15 -25l-272 -126z" />
<glyph horiz-adv-x="187" d="M80 0v500h27v-500h-27zM80 633v27h27v-27h-27z" />
<glyph horiz-adv-x="187" d="M-71 -260q-93 0 -143 50l27 18q52 -54 119 -54q76 0 112 40.5t36 134.5v571h27v-571q0 -23 -3 -44.5t-14.5 -49t-29.5 -47.5t-52 -34t-79 -14zM-2 564l266 152l15 -25l-272 -126z" />
<glyph horiz-adv-x="575" d="M521 0h-27v132l6 51q-20 -81 -76.5 -138t-145.5 -57q-112 0 -179 73.5t-67 190.5q0 115 67 188t179 73q90 0 148 -60t76 -142l-8 75v114h28zM58 252q0 -103 60.5 -175t155.5 -72q98 0 165 68t67 179q0 109 -68 177t-166 68q-95 0 -154.5 -71.5t-59.5 -173.5z" />
<glyph horiz-adv-x="575" d="M521 0h-27v132l6 51q-20 -81 -76.5 -138t-145.5 -57q-112 0 -179 73.5t-67 190.5q0 115 67 188t179 73q90 0 148 -60t76 -142l-8 75v114h28zM58 252q0 -103 60.5 -175t155.5 -72q98 0 165 68t67 179q0 109 -68 177t-166 68q-95 0 -154.5 -71.5t-59.5 -173.5zM172 564 l266 152l15 -25l-272 -126z" />
<glyph horiz-adv-x="575" d="M521 0h-27v132l6 51q-20 -81 -76.5 -138t-145.5 -57q-112 0 -179 73.5t-67 190.5q0 115 67 188t179 73q90 0 148 -60t76 -142l-8 75v114h28zM38 574l229 142h2l229 -142l-18 -9l-212 117l-212 -117zM58 252q0 -103 60.5 -175t155.5 -72q98 0 165 68t67 179q0 109 -68 177 t-166 68q-95 0 -154.5 -71.5t-59.5 -173.5z" />
<glyph horiz-adv-x="575" d="M521 0h-27v132l6 51q-20 -81 -76.5 -138t-145.5 -57q-112 0 -179 73.5t-67 190.5q0 115 67 188t179 73q90 0 148 -60t76 -142l-8 75v114h28zM58 252q0 -103 60.5 -175t155.5 -72q98 0 165 68t67 179q0 109 -68 177t-166 68q-95 0 -154.5 -71.5t-59.5 -173.5zM100 633v27 h27v-27h-27zM409 633v27h27v-27h-27z" />
<glyph horiz-adv-x="575" d="M521 0h-27v132l6 51q-20 -81 -76.5 -138t-145.5 -57q-112 0 -179 73.5t-67 190.5q0 115 67 188t179 73q90 0 148 -60t76 -142l-8 75v114h28zM58 252q0 -103 60.5 -175t155.5 -72q98 0 165 68t67 179q0 109 -68 177t-166 68q-95 0 -154.5 -71.5t-59.5 -173.5zM141 691 l15 25l266 -152l-9 1z" />
<glyph horiz-adv-x="575" d="M521 0h-27v132l6 51q-20 -81 -76.5 -138t-145.5 -57q-112 0 -179 73.5t-67 190.5q0 115 67 188t179 73q90 0 148 -60t76 -142l-8 75v114h28zM58 252q0 -103 60.5 -175t155.5 -72q98 0 165 68t67 179q0 109 -68 177t-166 68q-95 0 -154.5 -71.5t-59.5 -173.5zM154 682 q0 46 34 80t80 34t80 -34t34 -80t-34 -80t-80 -34t-80 34t-34 80zM172 682q0 -40 28 -68t68 -28t68 28t28 68t-28 68t-68 28t-68 -28t-28 -68z" />
<glyph horiz-adv-x="575" d="M521 0h-27v132l6 51q-20 -81 -76.5 -138t-145.5 -57q-112 0 -179 73.5t-67 190.5q0 115 67 188t179 73q90 0 148 -60t76 -142l-8 75v114h28zM58 252q0 -103 60.5 -175t155.5 -72q98 0 165 68t67 179q0 109 -68 177t-166 68q-95 0 -154.5 -71.5t-59.5 -173.5zM114 671 q0 24 15 40t38 16q37 0 101 -43q13 -9 34 -24t29 -20.5t20 -12.5t19 -9.5t14 -2.5q18 0 18 22q0 40 -40 90l26 -1q34 -30 34 -66q0 -24 -14.5 -39.5t-38.5 -15.5q-17 0 -35.5 7t-30.5 14t-37 24q-12 9 -32.5 23t-28.5 19.5t-19.5 12.5t-18.5 9.5t-14 2.5q-18 0 -18 -22 q0 -39 39 -90l-24 1q-36 29 -36 65z" />
<glyph horiz-adv-x="1039" d="M521 0h-27v132l6 51q-20 -81 -76.5 -138t-145.5 -57q-112 0 -179 73.5t-67 190.5q0 115 67 188t179 73q90 0 148 -60t76 -142l-8 75v114h28v-148q27 76 94.5 118.5t152.5 42.5q107 0 169 -59.5t62 -160.5q0 -12 -2 -36h-453q-1 -123 66.5 -189t162.5 -66q74 0 118 25 t76 68l29 -25q-79 -84 -221 -84q-89 0 -158.5 43t-96.5 125v-154zM58 252q0 -103 60.5 -175t155.5 -72q98 0 165 68t67 179q0 109 -68 177t-166 68q-95 0 -154.5 -71.5t-59.5 -173.5zM545 275h416q7 25 7 53q0 72 -52 122.5t-148 50.5q-98 0 -157.5 -63t-65.5 -163z" />
<glyph horiz-adv-x="427" d="M9 478v23h117v70q0 23 3 44.5t14.5 49t30 47.5t52.5 34t79 14q93 0 143 -50l-27 -18q-52 54 -119 54q-76 0 -112 -40.5t-36 -134.5v-70h183v-23h-183v-478h-28v478h-117z" />
<glyph horiz-adv-x="646" d="M322 -13q-136 0 -211 96.5t-75 264.5t75 264.5t211 96.5q137 0 212 -96.5t75 -264.5t-75 -264.5t-212 -96.5zM64 348q0 -117 37 -199.5t106 -119.5l214 646q-45 20 -99 20q-121 0 -189.5 -93t-68.5 -254zM226 19q44 -18 96 -18q120 0 189.5 93t69.5 254q0 115 -37 197 t-104 121z" />
<glyph horiz-adv-x="391" d="M195 -8q-82 0 -127.5 58.5t-45.5 160.5t45.5 160.5t127.5 58.5q83 0 128.5 -58.5t45.5 -160.5t-45.5 -160.5t-128.5 -58.5zM39 211q0 -98 41.5 -154t114.5 -56t115 56.5t42 153.5t-42 153.5t-115 56.5t-114.5 -56t-41.5 -154z" />
<glyph horiz-adv-x="228" d="M152 0v384h-102v3q35 0 67 7q30 9 30 23v7h20v-424h-15z" />
<glyph horiz-adv-x="324" d="M28 15q31 44 78.5 88.5t82 72t60.5 65t26 76.5q0 53 -31 79t-83 26q-38 0 -67.5 -21.5t-37.5 -55.5l-18 -1q24 88 123 88q129 0 129 -111q0 -43 -25.5 -82t-59 -66t-81.5 -71t-79 -86h251v-16h-268v15z" />
<glyph horiz-adv-x="319" d="M156 -6q-55 0 -91 25t-45 74h15q14 -89 121 -89q52 0 87.5 31t35.5 86t-32.5 87.5t-83.5 32.5q-21 0 -35 -3l-2 5l-2 2l-2 5l150 164h-229v10h243v-11l-154 -167q64 11 113 -22t49 -110q0 -58 -39.5 -89t-98.5 -31z" />
<glyph horiz-adv-x="345" d="M235 0v152l-214 1v8l214 263h15v-261h77v-11h-77v-152h-15zM38 163h197v247z" />
<glyph horiz-adv-x="364" d="M184 -6q-50 0 -87.5 26t-47.5 73h21q10 -43 40.5 -66t73.5 -23q51 0 88.5 32.5t37.5 87.5q0 60 -36 92.5t-87 32.5q-25 0 -45.5 -6.5t-28.5 -12t-22 -17.5h-18v211h226v-9h-209v-190q45 33 96 33q58 0 98 -36t40 -98q0 -58 -41.5 -94t-98.5 -36z" />
<glyph horiz-adv-x="332" d="M165 -6q-57 0 -97 34.5t-40 92.5q0 39 21 72l144 231h15l-119 -192q34 17 72 17q58 1 99.5 -34t41.5 -94q0 -58 -40 -92.5t-97 -34.5zM42 121q0 -54 36 -85.5t87 -31.5t87 31.5t36 85.5q0 55 -35.5 86t-87.5 31q-51 0 -87 -31.5t-36 -85.5z" />
<glyph horiz-adv-x="305" d="M50 0l202 415h-212v9h225l-199 -424h-16z" />
<glyph horiz-adv-x="316" d="M158 1q-57 0 -97 32.5t-40 87.5q0 46 29 78t74 41q-33 10 -54.5 34t-21.5 58q0 44 33 69.5t77 25.5t77 -26t33 -69q0 -35 -21.5 -58.5t-54.5 -33.5q46 -10 74.5 -41.5t28.5 -77.5q0 -56 -39.5 -88t-97.5 -32zM36 121q0 -53 36 -85t86 -32t86 32t36 85t-36 85t-86 32 t-86 -32t-36 -85zM63 332q0 -39 27.5 -64.5t67.5 -25.5q39 0 66.5 25.5t27.5 64.5q0 45 -29 68t-65 23t-65.5 -23.5t-29.5 -67.5z" />
<glyph horiz-adv-x="324" d="M252 216q-32 -26 -88 -26q-58 -2 -99 31.5t-41 89.5q0 55 40 88t97 33t97 -33t40 -89q0 -22 -18 -61t-38.5 -72.5t-57.5 -91t-54 -85.5h-16zM38 310q0 -53 35 -82t86 -29q52 0 88.5 29.5t36.5 82.5t-36 82t-87 29t-87 -29.5t-36 -82.5z" />
<glyph horiz-adv-x="391" d="M195 387q-82 0 -127.5 58.5t-45.5 160.5t45.5 160.5t127.5 58.5q83 0 128.5 -58.5t45.5 -160.5t-45.5 -160.5t-128.5 -58.5zM39 606q0 -98 41.5 -154t114.5 -56t115 56.5t42 153.5t-42 153.5t-115 56.5t-114.5 -56t-41.5 -154z" />
<glyph horiz-adv-x="228" d="M152 393v384h-102v3q35 0 67 7q30 9 30 23v7h20v-424h-15z" />
<glyph horiz-adv-x="324" d="M28 410q31 44 78.5 88.5t82 72t60.5 65t26 76.5q0 53 -31 79t-83 26q-38 0 -67.5 -21.5t-37.5 -55.5l-18 -1q24 88 123 88q129 0 129 -111q0 -43 -25.5 -82t-59 -66t-81.5 -71t-79 -86h251v-16h-268v15z" />
<glyph horiz-adv-x="319" d="M156 389q-55 0 -91 25t-45 74h15q14 -89 121 -89q52 0 87.5 31t35.5 86q0 54 -32.5 87t-83.5 33q-21 0 -35 -3l-1 3l-3 4h1l-3 5l150 164h-229v10h243v-11l-153 -167q64 10 112.5 -22.5t48.5 -109.5q0 -58 -39.5 -89t-98.5 -31z" />
<glyph horiz-adv-x="345" d="M235 395v152l-214 1v8l214 263h15v-261h77v-11h-77v-152h-15zM38 558h197v247z" />
<glyph horiz-adv-x="364" d="M184 389q-50 0 -87.5 26t-47.5 73h21q10 -43 40.5 -66t73.5 -23q51 0 88.5 32.5t37.5 87.5q0 60 -36 92.5t-87 32.5q-25 0 -45.5 -6.5t-28.5 -12t-22 -17.5h-18v211h226v-9h-209v-190q45 33 96 33q58 0 98 -36t40 -98q0 -58 -41.5 -94t-98.5 -36z" />
<glyph horiz-adv-x="332" d="M165 389q-57 0 -97 34.5t-40 92.5q0 39 21 72l144 231h15l-119 -192q34 17 72 17q58 1 99.5 -34t41.5 -94q0 -58 -40 -92.5t-97 -34.5zM42 516q0 -54 36 -85.5t87 -31.5t87 31.5t36 85.5q0 55 -35.5 86t-87.5 31q-51 0 -87 -31.5t-36 -85.5z" />
<glyph horiz-adv-x="305" d="M50 395l202 415h-212v9h225l-199 -424h-16z" />
<glyph horiz-adv-x="316" d="M158 396q-57 0 -97 32.5t-40 87.5q0 46 29 78t74 41q-33 10 -54.5 34t-21.5 58q0 44 33 69.5t77 25.5t77 -26t33 -69q0 -35 -21.5 -58.5t-54.5 -33.5q46 -10 74.5 -41.5t28.5 -77.5q0 -56 -39.5 -88t-97.5 -32zM36 516q0 -53 36 -85t86 -32t86 32t36 85t-36 85t-86 32 t-86 -32t-36 -85zM63 727q0 -39 27.5 -64.5t67.5 -25.5q39 0 66.5 25.5t27.5 64.5q0 45 -29 68t-65 23t-65.5 -23.5t-29.5 -67.5z" />
<glyph horiz-adv-x="324" d="M252 611q-32 -26 -88 -26q-58 -2 -99 31.5t-41 89.5q0 55 40 88t97 33t97 -33t40 -89q0 -22 -18 -61t-38.5 -72.5t-57.5 -91t-54 -85.5h-16zM38 705q0 -53 35 -82t86 -29q52 0 88.5 29.5t36.5 82.5t-36 82t-87 29t-87 -29.5t-36 -82.5z" />
<glyph d="M274 226v51h52v-51h-52z" />
<glyph d="M274 278v51h52v-51h-52z" />
</font>
</defs>
</svg>
