<?xml version="1.0" standalone="no"?>
<!DOCTYPE svg PUBLIC "-//W3C//DTD SVG 1.1//EN" "http://www.w3.org/Graphics/SVG/1.1/DTD/svg11.dtd" >
<svg xmlns="http://www.w3.org/2000/svg" xmlns:xlink="http://www.w3.org/1999/xlink" version="1.1">
<metadata></metadata>
<defs>
<font id="panameramedium" horiz-adv-x="600" >
<font-face units-per-em="1000" ascent="800" descent="-200" />
<missing-glyph horiz-adv-x="294" />
<glyph horiz-adv-x="0" />
<glyph horiz-adv-x="333" />
<glyph unicode="&#xd;" />
<glyph unicode=" "  horiz-adv-x="294" />
<glyph unicode="&#x09;" horiz-adv-x="294" />
<glyph unicode="&#xa0;" horiz-adv-x="294" />
<glyph unicode="!" horiz-adv-x="310" d="M104 217l-20 370v143h142v-143l-20 -370h-102zM93 0v126h126v-126h-126z" />
<glyph unicode="&#x22;" horiz-adv-x="644" d="M368 481l-11 266h144l-11 -266h-122zM143 747h144l-11 -266h-122z" />
<glyph unicode="#" horiz-adv-x="823" d="M744 270v-95h-173l-60 -178h-121l60 178h-197l-60 -178h-120l60 178h-109v95h140l65 192h-142v95h173l66 196h121l-66 -196h197l66 196h120l-66 -196h119v-95h-150l-65 -192h142zM285 270h197l64 192h-197z" />
<glyph unicode="$" horiz-adv-x="572" d="M250 -3q-91 14 -149 63t-83 122l98 50q22 -60 52.5 -94.5t81.5 -47.5v254q-89 33 -131.5 75t-42.5 109q0 70 47 116.5t127 59.5v100h45v-96q5 1 16 1q4 0 12 -0.5t12 -0.5v96h46v-103q63 -13 106.5 -49t52.5 -90l-111 -28q-9 52 -48 74v-216q40 -15 68.5 -28.5t60 -36 t48.5 -54t17 -69.5q0 -82 -49.5 -137t-144.5 -70v-98h-46v94q-6 -1 -19 -1q-14 0 -21 1v-94h-45v98zM193 528q0 -53 57 -83v167q-57 -23 -57 -84zM295 84q6 -1 21 -1q13 0 19 1v230q-4 2 -19.5 7t-20.5 7v-244zM295 423q7 -3 21.5 -8t18.5 -7v215q-16 2 -24 2q-11 0 -16 -1 v-201zM381 92q76 21 76 105q0 62 -76 98v-203z" />
<glyph unicode="%" horiz-adv-x="817" d="M120 -39l481 763h129l-483 -763h-127zM12 514q0 93 46.5 151.5t129.5 58.5t131 -58.5t48 -151.5q0 -91 -48 -149.5t-131 -58.5t-129.5 58t-46.5 150zM116 514q0 -60 20 -93t52 -33q33 0 54.5 33t21.5 93q0 63 -20.5 95t-55.5 32q-32 0 -52 -32t-20 -95zM496 194 q0 92 47 151t129 59q83 0 130 -59t47 -151q0 -93 -47 -151.5t-130 -58.5q-82 0 -129 59t-47 151zM599 194q0 -63 20 -95t53 -32q34 0 54 32t20 95q0 62 -20.5 94.5t-53.5 32.5t-53 -32.5t-20 -94.5z" />
<glyph unicode="&#x26;" horiz-adv-x="914" d="M727 461q-2 -209 -103 -339q69 -51 109 -51q62 0 62 57q0 24 -16.5 51.5t-46.5 47.5l89 70q76 -71 76 -172q0 -72 -43 -105.5t-132 -33.5q-73 0 -169 67q-93 -67 -216 -67q-138 0 -227.5 73.5t-89.5 180.5q0 81 52.5 130.5t143.5 84.5q-44 88 -44 144q0 89 62.5 136.5 t160.5 47.5q91 0 150.5 -50.5t59.5 -118.5q0 -30 -9 -55.5t-28 -45t-38 -33.5t-51.5 -27.5t-54.5 -21t-60 -19.5q75 -119 183 -224q54 98 56 273h124zM142 240q0 -80 54.5 -125.5t140.5 -45.5t144 42q-124 109 -221 265q-118 -49 -118 -136zM287 599q0 -42 32 -109 q43 14 67.5 23.5t52 23.5t40 31.5t12.5 38.5q0 43 -26.5 68t-69.5 25q-46 0 -77 -24.5t-31 -76.5z" />
<glyph unicode="'" horiz-adv-x="430" d="M154 481l-11 266h144l-11 -266h-122z" />
<glyph unicode="(" horiz-adv-x="373" d="M235 -149q-32 47 -54 86t-50 99t-43 130t-16 145q3 249 164 460h110q-53 -72 -94 -190.5t-43 -271.5q4 -257 137 -458h-111z" />
<glyph unicode=")" horiz-adv-x="373" d="M27 -149q133 201 137 458q-2 153 -43 271.5t-94 190.5h110q161 -211 164 -460q-1 -75 -16 -145t-43 -130t-50 -99t-54 -86h-111z" />
<glyph unicode="*" d="M271 416l10 121l-61 -104l-31 21l80 92l-112 -48l-11 35l118 27l-117 26l10 36l112 -47l-81 91l31 21l62 -104l-10 121h36l-10 -121l61 104l31 -21l-80 -92l112 48l11 -35l-118 -27l117 -26l-10 -36l-112 47l81 -91l-31 -21l-62 104l10 -121h-36z" />
<glyph unicode="+" d="M244 2v196h-199v90h199v197h112v-197h198v-90h-198v-196h-112z" />
<glyph unicode="," horiz-adv-x="374" d="M91 -97q43 24 43 89v8h-57v123h144v-126q0 -24 -8.5 -52t-40 -60t-81.5 -42v60z" />
<glyph unicode="-" horiz-adv-x="517" d="M40 215v90h437v-90h-437z" />
<glyph unicode="." horiz-adv-x="296" d="M63 0v126h126v-126h-126z" />
<glyph unicode="/" horiz-adv-x="413" d="M45 -120l250 845h94l-250 -845h-94z" />
<glyph unicode="0" horiz-adv-x="681" d="M340 -12q-145 0 -225 99t-80 261t80 261t225 99t225.5 -99t80.5 -261t-80.5 -261t-225.5 -99zM156 348q0 -131 50 -203t134 -72t134.5 72.5t50.5 202.5t-50.5 202.5t-134.5 72.5t-134 -72t-50 -203z" />
<glyph unicode="1" horiz-adv-x="377" d="M194 0v563h-151v75q42 -7 77 -4q72 5 72 50v16h122v-700h-120z" />
<glyph unicode="2" horiz-adv-x="551" d="M29 80q23 37 70 78.5t94 77t91.5 75t73 89t29.5 102.5q1 61 -29.5 94t-82.5 33q-51 0 -80 -30.5t-26 -79.5l-120 -12q-5 96 61 151t165 55q112 0 171.5 -57t59.5 -153q0 -61 -24.5 -113t-64.5 -90.5t-81.5 -70t-85.5 -67t-67 -65.5h339v-97h-494z" />
<glyph unicode="3" horiz-adv-x="583" d="M290 -10q-110 0 -180.5 56.5t-71.5 162.5h119q1 -73 35.5 -104.5t97.5 -31.5q57 0 95.5 37t38.5 104q0 68 -34 104.5t-89 36.5q-36 0 -65 -11l-50 62l194 210h-307v84h450v-77l-200 -202q93 5 156 -48.5t63 -161.5q0 -99 -75 -160t-177 -61z" />
<glyph unicode="4" horiz-adv-x="614" d="M347 0v204h-316l1 79l330 417h105v-408h115v-89h-115v-203h-120zM159 292h188v244z" />
<glyph unicode="5" d="M304 -10q-101 0 -175 60.5t-75 158.5h121q1 -65 37.5 -100.5t91.5 -35.5q57 0 97.5 39.5t40.5 106.5q0 74 -39.5 111t-97.5 37q-62 0 -98 -47h-99v380h415v-95h-310v-178q45 24 100 24q103 0 175.5 -59.5t72.5 -172.5q0 -100 -78 -164.5t-179 -64.5z" />
<glyph unicode="6" horiz-adv-x="547" d="M273 -10q-102 0 -177.5 62.5t-75.5 162.5q0 60 50 140l214 345h136l-167 -269q24 7 49 6q93 -9 158 -70t65 -153q0 -100 -75 -162t-177 -62zM140 214q0 -67 37.5 -103.5t94.5 -36.5t95 37t38 104t-37.5 103.5t-94.5 36.5t-95 -37t-38 -104z" />
<glyph unicode="7" horiz-adv-x="504" d="M32 0l294 605h-288v95h458l-331 -700h-133z" />
<glyph unicode="8" horiz-adv-x="555" d="M278 -2q-102 0 -178 60t-76 157q0 61 32.5 107.5t86.5 73.5q-78 49 -78 134q0 80 65.5 128.5t146.5 48.5q82 0 148 -49t66 -129q0 -85 -78 -134q54 -27 86.5 -73.5t32.5 -107.5q0 -97 -75.5 -156.5t-178.5 -59.5zM144 214q0 -66 38 -102t95 -36t96 36.5t39 102.5 q0 65 -38.5 101t-95.5 36q-56 0 -95 -36.5t-39 -101.5zM185 529q0 -44 26.5 -71t65.5 -27q40 0 67 27t27 72q0 50 -28 74t-65 24t-65 -24.5t-28 -74.5z" />
<glyph unicode="9" horiz-adv-x="582" d="M332 292q-26 -11 -54 -11q-96 7 -164 66t-68 150q0 95 75 155t177 60t177.5 -60.5t75.5 -155.5q0 -55 -43.5 -139.5t-128 -211t-95.5 -145.5h-136zM166 496q0 -65 37.5 -99.5t93.5 -34.5q57 0 95.5 35t38.5 100q0 64 -37.5 99t-94.5 35t-95 -35.5t-38 -99.5z" />
<glyph unicode=":" horiz-adv-x="270" d="M62 -1v124h146v-124h-146zM63 398v123h144v-123h-144z" />
<glyph unicode=";" horiz-adv-x="385" d="M96 -95q43 23 43 91v6h-57v123h144v-126q0 -24 -8.5 -52t-40 -60t-81.5 -42v60zM88 386v123h144v-123h-144z" />
<glyph unicode="&#x3c;" d="M564 18l-547 297l547 295v-118l-350 -177l350 -177v-120z" />
<glyph unicode="=" d="M29 316v91h539v-91h-539zM29 123v91h539v-91h-539z" />
<glyph unicode="&#x3e;" d="M38 18v120l350 177l-350 177v118l547 -295z" />
<glyph unicode="?" horiz-adv-x="493" d="M266 184q-59 0 -103 33t-44 94q0 41 25.5 73.5t61.5 52t72.5 38t62 42t25.5 52.5q0 33 -23.5 54t-65.5 21q-51 0 -88.5 -36t-42.5 -99l-100 70q22 62 85 101.5t139 39.5q98 0 150.5 -40t52.5 -102q0 -48 -26.5 -83.5t-64.5 -56t-75.5 -38t-64 -39.5t-26.5 -50 q0 -25 13.5 -39t36.5 -14q44 0 53 68l108 -35q-19 -50 -61 -78.5t-100 -28.5zM202 0v126h126v-126h-126z" />
<glyph unicode="@" horiz-adv-x="968" d="M484 -228q-205 0 -335.5 134.5t-130.5 326.5q0 127 57 232.5t164.5 169.5t244.5 64t244.5 -64t164.5 -169.5t57 -232.5q0 -108 -52 -175.5t-149 -67.5q-109 0 -138 89q-43 -94 -171 -94q-94 0 -149 42t-55 109q0 58 52 99.5t167 54.5q59 6 93 24t35 44q-17 70 -92 70 q-29 0 -49 -18.5t-25 -34.5t-7 -31l-129 1q-14 66 53.5 115t156.5 49q57 0 98.5 -14t63.5 -34t35 -49.5t16.5 -53.5t3.5 -53v-172q0 -52 48 -52q25 0 44 35.5t19 116.5q0 162 -93 265.5t-242 103.5t-242 -103.5t-93 -265.5q0 -160 93 -261.5t242 -101.5q140 0 222 75l82 -77 q-111 -96 -304 -96zM361 140q0 -34 21 -59t68 -25q72 0 106.5 54.5t32.5 150.5q-44 -26 -128 -36q-46 -5 -73 -26.5t-27 -58.5z" />
<glyph unicode="A" horiz-adv-x="771" d="M34 0l284 700h129l284 -700h-126l-78 190h-289l-78 -190h-126zM274 276h218l-109 267z" />
<glyph unicode="B" horiz-adv-x="620" d="M52 0v700h199q94 0 155.5 -39t61.5 -125q0 -78 -65 -119q182 -32 182 -197q0 -106 -77 -163t-200 -57h-256zM171 89h122q172 0 172 131q0 144 -172 144h-122v-275zM171 430h76q51 0 80 23.5t29 64.5q0 93 -105 93h-80v-181z" />
<glyph unicode="C" horiz-adv-x="729" d="M404 -5q-158 0 -258.5 103.5t-100.5 249.5q0 148 100 252.5t259 104.5q97 0 175.5 -40t122.5 -107l-106 -53q-68 111 -192 111q-99 0 -164 -75.5t-65 -192.5q0 -116 65 -190t164 -74q121 0 189 105l107 -52q-43 -65 -121 -103.5t-175 -38.5z" />
<glyph unicode="D" horiz-adv-x="673" d="M52 0v700h195q82 0 150.5 -20t123.5 -60.5t86 -109.5t31 -159q0 -176 -102 -263.5t-273 -87.5h-211zM171 92h92q126 0 188.5 60t62.5 199q0 257 -267 257l-76 -1v-515z" />
<glyph unicode="E" horiz-adv-x="658" d="M53 0v700h552v-95h-433v-200h423v-96h-423v-214h444v-95h-563z" />
<glyph unicode="F" horiz-adv-x="651" d="M60 0v700h552v-95h-433v-200h423v-96h-423v-309h-119z" />
<glyph unicode="G" horiz-adv-x="785" d="M402 -5q-164 0 -261 101.5t-97 251.5q0 148 102 252.5t260 104.5q98 0 174.5 -39.5t120.5 -107.5l-106 -53q-68 111 -189 111q-99 0 -165.5 -75.5t-66.5 -192.5t63.5 -190.5t168.5 -73.5q71 0 119 33t67 78.5t19 98.5v15h-223v89h341v-398h-109v189q-5 -83 -63 -138.5 t-155 -55.5z" />
<glyph unicode="H" horiz-adv-x="723" d="M52 0v700h119v-283h381v283h119v-700h-119v318h-381v-318h-119z" />
<glyph unicode="I" horiz-adv-x="268" d="M74 0v700h120v-700h-120z" />
<glyph unicode="J" horiz-adv-x="597" d="M262 -12q-90 0 -147.5 33t-82.5 85l99 68q14 -34 25.5 -52t38 -33t67.5 -15q59 0 99 38.5t40 112.5v475h120l1 -462q0 -118 -73.5 -184t-186.5 -66z" />
<glyph unicode="K" horiz-adv-x="651" d="M52 0v700h120v-305l279 305h137l-248 -270l283 -430h-136l-225 343l-90 -98v-245h-120z" />
<glyph unicode="L" horiz-adv-x="603" d="M52 0v700h119v-605h399v-95h-518z" />
<glyph unicode="M" horiz-adv-x="891" d="M52 0v700l151 1l242 -563l243 563l151 -1v-700h-120v473l-209 -473h-129l-210 472v-472h-119z" />
<glyph unicode="N" horiz-adv-x="654" d="M52 0v700h120l311 -490v490h120v-700h-120l-311 494v-494h-120z" />
<glyph unicode="O" horiz-adv-x="806" d="M403 -5q-158 0 -258.5 103t-100.5 250q0 148 100 252.5t259 104.5t259.5 -104.5t100.5 -252.5q0 -147 -100.5 -250t-259.5 -103zM164 348q0 -117 66 -190.5t173 -73.5t173.5 73.5t66.5 190.5q0 118 -66.5 193t-173.5 75q-106 0 -172.5 -75t-66.5 -193z" />
<glyph unicode="P" horiz-adv-x="548" d="M50 0v700h233q41 0 79 -10.5t71.5 -32.5t54 -61t20.5 -91t-20 -91.5t-53.5 -61t-73 -32t-84.5 -10.5h-107v-310h-120zM170 396h107q55 0 87 27.5t32 81.5t-31.5 80t-84.5 26h-110v-215z" />
<glyph unicode="Q" horiz-adv-x="816" d="M393 -5q-151 0 -250 103.5t-99 249.5q0 148 98.5 252.5t250.5 104.5t250.5 -104.5t98.5 -252.5q0 -131 -79 -227l131 -121h-149l-57 53q-85 -58 -195 -58zM164 348q0 -116 64.5 -190t164.5 -74q66 0 121 37l-191 179h144l114 -104q41 65 41 152q0 118 -64.5 193 t-164.5 75q-99 0 -164 -75.5t-65 -192.5z" />
<glyph unicode="R" horiz-adv-x="648" d="M52 0v700h223q99 0 165.5 -43t66.5 -135q0 -113 -104 -156l235 -366h-136l-218 339h-12l-100 -1v-338h-120zM172 425h102q113 0 113 93t-112 93h-103v-186z" />
<glyph unicode="S" horiz-adv-x="602" d="M316 -8q-120 0 -193.5 52t-104.5 138l98 50q27 -75 74 -112t126 -37q68 0 104.5 29.5t36.5 81.5t-35.5 77t-128.5 56q-113 38 -165 82t-52 119q0 83 64.5 132t170.5 49q86 0 151.5 -39.5t77.5 -107.5l-111 -28q-16 91 -118 91q-55 0 -86.5 -27t-31.5 -70q0 -39 29.5 -65 t104.5 -53q119 -41 163 -70q84 -55 85 -139q0 -95 -66.5 -152t-192.5 -57z" />
<glyph unicode="T" horiz-adv-x="702" d="M292 0v605h-269v95h655v-95h-267v-605h-119z" />
<glyph unicode="U" horiz-adv-x="622" d="M311 -12q-121 0 -195.5 60.5t-74.5 174.5l1 477h119v-477q0 -149 150 -149t150 149v477h119l1 -477q0 -114 -74.5 -174.5t-195.5 -60.5z" />
<glyph unicode="V" horiz-adv-x="620" d="M247 0l-239 700h118l184 -538l185 538h117l-240 -700h-125z" />
<glyph unicode="W" horiz-adv-x="903" d="M209 0l-169 700h118l113 -514l124 507h114l123 -506l113 513h118l-169 -700h-123l-119 469l-120 -469h-123z" />
<glyph unicode="X" horiz-adv-x="743" d="M733 0h-141l-218 284l-223 -284h-141l295 374l-250 326h141l187 -244l193 244h141l-265 -334z" />
<glyph unicode="Y" horiz-adv-x="663" d="M271 0v308l-254 392h123l191 -305l192 305h123l-255 -392v-308h-120z" />
<glyph unicode="Z" horiz-adv-x="582" d="M10 0v96l415 509h-389v95h536v-95l-415 -509h405v-96h-552z" />
<glyph unicode="[" horiz-adv-x="500" d="M140 -153v969h270v-102h-143v-765h143v-102h-270z" />
<glyph unicode="\" d="M361 -120l-250 845h94l250 -845h-94z" />
<glyph unicode="]" horiz-adv-x="500" d="M140 -153v102h143v765h-143v102h270v-969h-270z" />
<glyph unicode="^" d="M78 239l226 438l226 -438h-106l-120 230l-120 -230h-106z" />
<glyph unicode="_" d="M-1 -172v100h596v-100h-596z" />
<glyph unicode="`" horiz-adv-x="635" d="M435 566l-277 99l60 100l272 -167z" />
<glyph unicode="a" horiz-adv-x="552" d="M221 -13q-91 0 -141 42t-50 108q0 63 51 101t170 49q130 14 130 73q0 33 -23 51.5t-65 18.5q-49 0 -71.5 -22.5t-26.5 -49.5q-1 -4 -1 -10l-122 1q-2 8 -2 25q5 56 67.5 96t146.5 40q57 0 99 -14t64.5 -34.5t35.5 -50.5t16 -54t3 -53v-304h-119v79q-47 -92 -162 -92z M150 142q0 -33 23 -57.5t71 -24.5q61 0 101 43.5t40 119.5v38q-46 -31 -126 -40q-109 -14 -109 -79z" />
<glyph unicode="b" horiz-adv-x="621" d="M41 0l-1 700h119v-238l-7 -77q42 127 187 127q115 0 187 -74.5t72 -185.5q0 -110 -72 -186t-187 -76q-144 0 -185 118l5 -54v-54h-118zM150 252q0 -83 46.5 -129.5t122.5 -46.5q70 0 112 49t42 127q0 77 -41.5 126t-111.5 49q-76 0 -123 -46.5t-47 -128.5z" />
<glyph unicode="c" horiz-adv-x="587" d="M308 -13q-116 0 -197 68.5t-81 189.5q0 124 79.5 195.5t205.5 71.5q90 0 152 -36t85 -98l-103 -49q-9 48 -44.5 74.5t-89.5 26.5q-76 0 -122.5 -49t-46.5 -136q0 -81 44.5 -128.5t117.5 -47.5q63 0 98.5 29t53.5 82l105 -42q-66 -151 -257 -151z" />
<glyph unicode="d" horiz-adv-x="621" d="M580 0h-118v54l5 54q-41 -118 -185 -118q-115 0 -187 76t-72 186q0 111 72 185.5t187 74.5q145 0 187 -127l-7 77v238h119zM150 252q0 -78 41.5 -127t111.5 -49q76 0 122.5 46.5t46.5 129.5q0 81 -46 128t-123 47q-70 0 -111.5 -49t-41.5 -126z" />
<glyph unicode="e" horiz-adv-x="585" d="M418 299q3 13 3 27q0 47 -33 76t-92 29q-55 0 -94.5 -34t-50.5 -98h267zM30 255q0 118 73.5 187.5t189.5 69.5q114 0 181 -59.5t67 -160.5q0 -26 -7 -66h-386q7 -77 48.5 -117t112.5 -40q98 0 138 93l97 -49q-29 -61 -93.5 -93.5t-148.5 -32.5q-122 0 -197 69t-75 199z " />
<glyph unicode="f" horiz-adv-x="388" d="M100 0l1 410h-93v91h111q-29 8 -48.5 33.5t-19.5 63.5q0 61 52 101.5t148 40.5q72 0 123 -29.5t75 -60.5l-103 -47q-12 19 -18.5 28.5t-28.5 24t-48 14.5q-42 0 -67 -22t-25 -61q0 -31 25.5 -56t75.5 -30h125v-91h-166v-410h-119z" />
<glyph unicode="g" horiz-adv-x="621" d="M306 -260q-107 0 -170.5 45.5t-82.5 112.5l114 22q18 -45 49 -69.5t90 -24.5q70 0 113 46.5t43 132.5v60l4 43q-42 -120 -184 -120q-115 0 -187 74.5t-72 185.5q0 110 72 186t187 76q144 0 185 -118l-5 54v54h118l1 -495q0 -124 -76 -194.5t-199 -70.5zM148 248 q0 -77 41.5 -126t112.5 -49q75 0 122 46.5t47 128.5q0 83 -46.5 129.5t-122.5 46.5q-70 0 -112 -49t-42 -127z" />
<glyph unicode="h" horiz-adv-x="605" d="M47 0v700h118v-285q25 41 70.5 66.5t99.5 25.5q64 0 109 -18t68 -50t33 -66.5t10 -75.5v-297h-121v297q0 127 -111 127q-60 0 -107 -43.5t-51 -129.5v-251h-118z" />
<glyph unicode="i" horiz-adv-x="279" d="M80 0v500h119v-500h-119zM80 590v118h119v-118h-119z" />
<glyph unicode="j" horiz-adv-x="279" d="M-3 -260q-111 0 -182 90l88 66q9 -19 15.5 -30t24 -23.5t40.5 -12.5q97 0 97 106v564h119v-564q0 -25 -5 -50t-19.5 -52t-36 -47.5t-58 -33.5t-83.5 -13zM80 590v118h119v-118h-119z" />
<glyph unicode="k" horiz-adv-x="546" d="M50 0v700h119v-414l205 214h134l-183 -195l201 -305h-134l-147 221l-76 -80v-141h-119z" />
<glyph unicode="l" horiz-adv-x="279" d="M80 0v700h119v-700h-119z" />
<glyph unicode="m" horiz-adv-x="988" d="M335 507q149 0 194 -111q27 51 74 81t111 30t109.5 -18t68.5 -50t33 -66.5t10 -75.5v-297h-121v297q0 124 -114 124q-62 0 -108.5 -40t-46.5 -123v-258h-121v297q0 58 -26 91t-78 33q-62 0 -108.5 -40t-46.5 -123v-258h-118v500h118v-102q15 51 63.5 80t106.5 29z" />
<glyph unicode="n" horiz-adv-x="591" d="M335 507q64 0 109 -18t68 -50t33 -66.5t10 -75.5v-297h-121v297q0 124 -114 124q-62 0 -108.5 -40t-46.5 -123v-258h-118v500h118v-102q15 51 63.5 80t106.5 29z" />
<glyph unicode="o" horiz-adv-x="582" d="M298 -13q-117 0 -192 75.5t-75 184.5q0 110 75 187t192 77q116 0 191 -77t75 -187q0 -109 -74.5 -184.5t-191.5 -75.5zM145 247q0 -83 42.5 -130.5t110.5 -47.5t110 47.5t42 130.5q0 84 -42 132t-110 48t-110.5 -48t-42.5 -132z" />
<glyph unicode="p" horiz-adv-x="621" d="M41 500h118v-54l-5 -54q41 118 185 118q115 0 187 -76t72 -186q0 -111 -72 -185.5t-187 -74.5q-145 0 -187 127l7 -77v-238h-119zM150 248q0 -82 47 -128.5t123 -46.5q70 0 111.5 49t41.5 126q0 78 -42 127t-112 49q-76 0 -122.5 -46.5t-46.5 -129.5z" />
<glyph unicode="q" horiz-adv-x="621" d="M580 500l1 -700h-119v238l7 77q-42 -127 -187 -127q-115 0 -187 74.5t-72 185.5q0 110 72 186t187 76q144 0 185 -118l-5 54v54h118zM148 248q0 -77 41.5 -126t112.5 -49q75 0 122 46.5t47 128.5q0 83 -46.5 129.5t-122.5 46.5q-70 0 -112 -49t-42 -127z" />
<glyph unicode="r" horiz-adv-x="510" d="M47 0v500h118v-99q19 49 67 78.5t101 29.5q77 0 121 -43.5t46 -106.5q2 -7 0 -15h-119q0 37 -21 58t-59 21q-54 0 -93 -40.5t-43 -120.5v-262h-118z" />
<glyph unicode="s" horiz-adv-x="498" d="M244 512q85 0 145 -37t81 -101l-104 -50q-6 49 -37 77.5t-78 28.5q-38 0 -59.5 -16.5t-21.5 -45.5t23 -46.5t57 -23.5t74 -15.5t74 -21t57 -42t23 -76.5q0 -69 -59 -112.5t-163 -43.5q-190 0 -236 151l105 42q16 -47 48.5 -79t82.5 -32q49 0 76.5 21.5t27.5 49.5 q0 34 -31.5 51.5t-76 26t-89.5 20.5t-76.5 46t-31.5 91q0 61 56 99t133 38z" />
<glyph unicode="t" horiz-adv-x="481" d="M289 -9q-181 0 -181 165v256h-93v91h93v197h119v-197h155v-91h-155v-254q0 -86 62 -86q60 0 82 73l91 -52q-56 -102 -173 -102z" />
<glyph unicode="u" horiz-adv-x="591" d="M263 -7q-63 0 -107.5 18.5t-67 50t-32 66t-9.5 75.5v297h118v-297q0 -128 110 -128q27 0 50 7t45.5 24.5t36.5 52.5t16 85v256h118v-500h-118v80q-21 -42 -63 -64.5t-97 -22.5z" />
<glyph unicode="v" horiz-adv-x="550" d="M218 0l-204 500h117l141 -350l141 350h117l-204 -500h-108z" />
<glyph unicode="w" horiz-adv-x="728" d="M156 0l-143 500h118l90 -361l89 361h103l90 -362l89 362h118l-143 -500h-129l-76 344l-77 -344h-129z" />
<glyph unicode="x" horiz-adv-x="596" d="M571 0h-142l-138 171l-139 -171h-142l209 260l-193 240h142l138 -171l139 171h141l-208 -260z" />
<glyph unicode="y" horiz-adv-x="559" d="M141 -200l97 238l-228 462h131l156 -317l130 317h122l-285 -700h-123z" />
<glyph unicode="z" horiz-adv-x="515" d="M17 0v83l309 327h-286v90h452v-83l-316 -327h316v-90h-475z" />
<glyph unicode="{" horiz-adv-x="485" d="M391 687q-26 21 -50 21q-57 0 -57 -81q0 -38 25.5 -105.5t24.5 -108.5q0 -42 -21.5 -66t-74.5 -35q53 -12 74.5 -36t21.5 -66q1 -41 -24.5 -108t-25.5 -105q0 -81 57 -81q25 0 50 20v-85q-31 -21 -77 -21q-68 0 -106 44t-38 123q0 43 27 109t27 92q0 31 -21.5 47.5 t-55.5 16.5h-19v99h19q34 0 55.5 16.5t21.5 47.5q0 26 -27 92t-27 110q0 79 38 122.5t106 43.5q46 0 77 -21v-85z" />
<glyph unicode="|" horiz-adv-x="314" d="M94 -153v969h127v-969h-127z" />
<glyph unicode="}" horiz-adv-x="485" d="M94 772q31 21 77 21q68 0 106 -43.5t38 -122.5q0 -44 -27 -110t-27 -92q0 -31 21.5 -47.5t55.5 -16.5h19v-99h-19q-34 0 -55.5 -16.5t-21.5 -47.5q0 -26 27 -92t27 -109q0 -79 -38 -123t-106 -44q-46 0 -77 21v85q25 -20 50 -20q57 0 57 81q0 38 -25.5 105t-24.5 108 q0 42 21.5 66t74.5 36q-53 11 -74.5 35t-21.5 66q-1 41 24.5 108.5t25.5 105.5q0 81 -57 81q-24 0 -50 -21v85z" />
<glyph unicode="~" d="M420 219q-57 0 -125 46q-8 6 -26 20.5t-29 22.5t-27 15t-31 7q-21 0 -33.5 -16.5t-12.5 -39.5q0 -21 8 -34h-102q-8 14 -8 42q0 47 32.5 83.5t107.5 36.5q59 0 126 -46q8 -6 26 -20t29.5 -22t27.5 -15.5t29 -7.5q22 0 35 15.5t13 38.5q0 14 -7 35h102q8 -16 8 -41 q0 -47 -33.5 -83.5t-109.5 -36.5z" />
<glyph unicode="&#xa1;" horiz-adv-x="310" d="M104 323h102l20 -370v-143h-142v143zM93 414v126h126v-126h-126z" />
<glyph unicode="&#xa2;" horiz-adv-x="549" d="M287 85q-109 6 -183 74t-74 183q0 117 71 187.5t186 78.5v92h43v-92q84 -3 142 -39t80 -94l-103 -49q-9 44 -40.5 71.5t-78.5 31.5v-366q94 9 130 114l105 -42q-61 -142 -235 -150v-84h-43v84zM146 342q0 -75 38 -123t103 -56v365q-64 -9 -102.5 -58t-38.5 -128z" />
<glyph unicode="&#xa3;" horiz-adv-x="581" d="M65 99q56 4 77 34t21 103v88h-82v92h82v113q0 21 4 43t17 50.5t33.5 49.5t58.5 36t88 15q114 0 182 -83l-93 -64q-14 33 -34 50.5t-55 17.5q-44 0 -63 -33.5t-19 -81.5v-113h113v-92h-113v-88q0 -88 -52 -137h329v-99h-494v99z" />
<glyph unicode="&#xa4;" d="M116 98l-62 64l61 60q-36 56 -36 125q0 72 39 128l-64 63l62 64l65 -63q59 40 132 40q70 0 129 -38l64 61l62 -64l-62 -59q42 -59 42 -132q0 -69 -38 -128l58 -57l-63 -64l-58 57q-60 -41 -134 -41q-78 0 -137 43zM160 346q0 -64 43 -109.5t110 -45.5q63 0 108 45.5 t45 109.5q0 65 -45 110.5t-108 45.5t-108 -45.5t-45 -110.5z" />
<glyph unicode="&#xa5;" horiz-adv-x="663" d="M271 0v145h-146v68h146v77h-146v68h115l-222 342h124l189 -305l190 305h124l-223 -342h107v-68h-138v-77h138v-68h-138v-145h-120z" />
<glyph unicode="&#xa6;" horiz-adv-x="314" d="M94 425v390h127v-390h-127zM94 -148v390h127v-390h-127z" />
<glyph unicode="&#xa7;" horiz-adv-x="572" d="M303 -220q-231 0 -298 190l111 55q16 -79 59 -119t128 -40q72 0 106.5 33t34.5 92q0 26 -12 46t-34.5 33t-47 22.5t-56.5 19.5q-3 1 -5 1.5t-4.5 1t-4.5 1.5q-105 31 -161 82.5t-56 117.5q0 58 44 105q-46 49 -46 108q0 74 68 127t167 53q87 0 152 -39t77 -107l-121 -31 q-2 93 -108 93q-50 0 -81.5 -26.5t-31.5 -69.5q0 -41 31 -69t99 -48q5 -2 16 -5q39 -12 61 -19.5t60 -26t59.5 -38t38.5 -51t17 -68.5q0 -63 -35 -113q37 -45 37 -100q0 -89 -67.5 -150t-196.5 -61zM185 316q0 -41 31 -69t99 -48q85 -27 119 -45q9 24 9 50q0 34 -25 59 t-48.5 34.5t-76.5 26.5q-10 3 -15 5q-49 14 -81 33q-12 -21 -12 -46z" />
<glyph unicode="&#xa8;" horiz-adv-x="824" d="M200 590v118h119v-118h-119zM505 590v118h119v-118h-119z" />
<glyph unicode="&#xa9;" horiz-adv-x="808" d="M404 -6q-174 0 -284.5 113.5t-110.5 275.5q0 163 110.5 278t284.5 115t284.5 -115t110.5 -278q0 -162 -110.5 -275.5t-284.5 -113.5zM117 383q0 -140 79.5 -228.5t207.5 -88.5t207.5 88.5t79.5 228.5q0 142 -79.5 231.5t-207.5 89.5t-207.5 -89.5t-79.5 -231.5zM206 387 q0 94 59.5 147t154.5 53q68 0 114 -27t64 -73l-78 -37q-6 36 -33.5 57t-66.5 21q-57 0 -92 -37.5t-35 -103.5q0 -61 33.5 -98t88.5 -37q84 0 114 86l79 -31q-49 -113 -193 -113q-88 0 -148.5 51t-60.5 142z" />
<glyph unicode="&#xaa;" horiz-adv-x="396" d="M157 372q-64 0 -98 28.5t-34 74.5q0 89 152 104q89 9 89 49q0 23 -15 37.5t-46 14.5q-59 0 -67 -52v-6h-84q-2 12 -1 18q3 38 46.5 65.5t100.5 27.5q49 0 81.5 -13.5t46.5 -37.5t18.5 -45t4.5 -47v-209h-82v55q-33 -64 -112 -64zM106 479q0 -23 16.5 -41t48.5 -18 q43 0 70.5 30t27.5 83v30q-29 -20 -88 -28q-75 -8 -75 -56z" />
<glyph unicode="&#xab;" horiz-adv-x="581" d="M435 45l-161 206l161 205l66 -43l-110 -162l110 -162zM50 251l176 224l72 -47l-120 -177l120 -177l-72 -48z" />
<glyph unicode="&#xac;" horiz-adv-x="667" d="M530 55v211h-502v91h629v-302h-127z" />
<glyph unicode="&#xad;" d="M82 215v90h437v-90h-437z" />
<glyph unicode="&#xae;" horiz-adv-x="808" d="M404 -6q-174 0 -284.5 113.5t-110.5 275.5q0 163 110.5 278t284.5 115t284.5 -115t110.5 -278q0 -162 -110.5 -275.5t-284.5 -113.5zM117 383q0 -140 79.5 -228.5t207.5 -88.5q130 0 208.5 90t78.5 227q0 142 -79.5 231.5t-207.5 89.5t-207.5 -89.5t-79.5 -231.5z M274 196v395h127q55 0 92.5 -24.5t37.5 -75.5q0 -63 -58 -89l133 -206h-78l-122 191h-7h-57v-191h-68zM342 436h58q64 0 64 53q0 52 -63 52h-59v-105z" />
<glyph unicode="&#xaf;" horiz-adv-x="636" d="M99 645v88h438v-88h-438z" />
<glyph unicode="&#xb0;" d="M290 472q-83 0 -136.5 47t-53.5 125t53.5 124.5t136.5 46.5q82 0 135.5 -47t53.5 -124q0 -78 -53 -125t-136 -47zM199 644q0 -39 25 -63.5t66 -24.5q40 0 65 24.5t25 63.5q0 38 -25 62.5t-65 24.5q-41 0 -66 -24t-25 -63z" />
<glyph unicode="&#xb1;" d="M244 173v196h-199v91h199v197h112v-197h198v-91h-198v-196h-112zM45 0v91h509v-91h-509z" />
<glyph unicode="&#xb2;" horiz-adv-x="334" d="M18 443q16 27 55 59.5t73 57.5t61 62.5t28 76.5q0 37 -18.5 57t-49.5 20t-49 -18.5t-16 -47.5l-72 -8q-4 59 36 92t101 33q67 0 103.5 -34.5t36.5 -92.5q0 -45 -24 -84t-53.5 -61.5t-66 -51t-52.5 -49.5h205v-59h-299z" />
<glyph unicode="&#xb3;" horiz-adv-x="353" d="M176 389q-67 0 -109.5 34.5t-43.5 98.5h72q1 -83 81 -83q34 0 57.5 22.5t23.5 63.5t-21 63t-54 22q-22 0 -39 -7l-30 38l117 127h-186v51h273v-46l-121 -123q56 3 94.5 -29.5t38.5 -97.5q0 -61 -45.5 -97.5t-107.5 -36.5z" />
<glyph unicode="&#xb4;" horiz-adv-x="732" d="M255 566l-55 32l272 167l60 -100z" />
<glyph unicode="&#xb5;" horiz-adv-x="556" d="M32 -200v700h119v-302q0 -55 26.5 -90t81.5 -35q26 0 49.5 8t45.5 25.5t35.5 51.5t14.5 81v261h120v-504h-120v51q-51 -57 -153 -57q-63 0 -100 31v-221h-119z" />
<glyph unicode="&#xb6;" horiz-adv-x="691" d="M344 -196v576h-71q-80 0 -136 39t-56 121q0 81 56.5 120.5t130.5 39.5h182v-896h-106zM532 -196v896h107v-896h-107z" />
<glyph unicode="&#xb7;" d="M228 214v144h144v-144h-144z" />
<glyph unicode="&#xb8;" horiz-adv-x="624" d="M277 -224q-42 0 -77 22v56q42 -27 83 -27q27 0 48 14t21 41q0 16 -10 24t-22 8q-19 0 -32 -15h-71l51 113l52 -5l-35 -65q17 19 52 19q37 0 58 -20t21 -52q0 -53 -41.5 -83t-97.5 -30z" />
<glyph unicode="&#xb9;" horiz-adv-x="228" d="M118 393v341h-92v46q23 -5 47 -3q43 3 43 31v9h74v-424h-72z" />
<glyph unicode="&#xba;" horiz-adv-x="380" d="M212 368q-81 0 -132.5 52t-51.5 127q0 76 51.5 129t132.5 53q80 0 131.5 -53t51.5 -129q0 -75 -51.5 -127t-131.5 -52zM106 547q0 -58 29.5 -92t76.5 -34q46 0 75.5 34t29.5 92t-29.5 93t-75.5 35q-47 0 -76.5 -34.5t-29.5 -93.5z" />
<glyph unicode="&#xbb;" horiz-adv-x="581" d="M146 45l-66 44l110 162l-110 162l66 43l162 -205zM283 74l120 177l-120 177l72 47l176 -224l-176 -225z" />
<glyph unicode="&#xbc;" horiz-adv-x="800" d="M45 -1l579 751h103l-578 -751h-104zM41 734v46q23 -5 47 -3q43 3 43 31v9h74v-424h-72v341h-92zM406 124v48l200 252h64v-247h70v-54h-70v-123h-73v124h-191zM483 177h114v148z" />
<glyph unicode="&#xbd;" horiz-adv-x="800" d="M45 -1l579 751h103l-578 -751h-104zM41 734v46q23 -5 47 -3q43 3 43 31v9h74v-424h-72v341h-92zM468 0l1 48q16 27 55 59.5t73 57.5t61 62.5t28 76.5q0 37 -18.5 57t-49.5 20t-49 -18.5t-16 -47.5l-72 -8q-4 59 36 92t101 33q67 0 103.5 -34.5t36.5 -92.5q0 -45 -24 -84 t-53.5 -61.5t-66 -51t-52.5 -49.5h205v-59h-299z" />
<glyph unicode="&#xbe;" horiz-adv-x="800" d="M45 -1l579 751h103l-578 -751h-104zM23 522h72q1 -83 81 -83q34 0 57.5 22.5t23.5 63.5t-21 63t-54 22q-22 0 -39 -7l-30 38l117 127h-186v51h273v-46l-121 -123q56 3 94.5 -29.5t38.5 -97.5q0 -61 -45.5 -97.5t-107.5 -36.5q-67 0 -109.5 34.5t-43.5 98.5zM406 124v48 l200 252h64v-247h70v-54h-70v-123h-73v124h-191zM483 177h114v148z" />
<glyph unicode="&#xbf;" horiz-adv-x="493" d="M227 319q59 0 103 -33t44 -94q0 -41 -25.5 -73.5t-62 -52t-72.5 -38t-61.5 -42t-25.5 -52.5q0 -33 23.5 -54t65.5 -21q51 0 88.5 36t42.5 99l100 -70q-22 -62 -85 -101.5t-139 -39.5q-98 0 -150.5 40t-52.5 102q0 48 26.5 83.5t64 56t75.5 38t64.5 39.5t26.5 50 q0 25 -13.5 39t-36.5 14q-45 0 -53 -68l-108 35q19 50 61 78.5t100 28.5zM166 377v126h126v-126h-126z" />
<glyph unicode="&#xc0;" horiz-adv-x="771" d="M34 0l284 700h129l284 -700h-126l-78 190h-289l-78 -190h-126zM211 865l60 100l272 -167l-55 -32zM274 276h218l-109 267z" />
<glyph unicode="&#xc1;" horiz-adv-x="771" d="M34 0l284 700h129l284 -700h-126l-78 190h-289l-78 -190h-126zM264 798l272 167l60 -100l-277 -99zM274 276h218l-109 267z" />
<glyph unicode="&#xc2;" horiz-adv-x="771" d="M34 0l284 700h129l284 -700h-126l-78 190h-289l-78 -190h-126zM92 796l290 169h2l291 -169l-58 -30l-234 103l-234 -103zM274 276h218l-109 267z" />
<glyph unicode="&#xc3;" horiz-adv-x="771" d="M34 0l284 700h129l284 -700h-126l-78 190h-289l-78 -190h-126zM202 867q0 33 22 55.5t62 22.5q28 0 50 -9.5t57 -33.5q11 -8 29 -23.5t29.5 -22.5t21.5 -7q12 0 12 17t-13.5 39t-39.5 40l89 -1q43 -26 43 -74q0 -33 -23.5 -58t-62.5 -25q-45 0 -95 36q-15 11 -37 28.5 t-33.5 24.5t-22.5 7t-11 -17t13.5 -39t39.5 -40l-94 1q-36 35 -36 79zM274 276h218l-109 267z" />
<glyph unicode="&#xc4;" horiz-adv-x="771" d="M34 0l284 700h129l284 -700h-126l-78 190h-289l-78 -190h-126zM172 790v118h119v-118h-119zM274 276h218l-109 267zM477 790v118h119v-118h-119z" />
<glyph unicode="&#xc5;" horiz-adv-x="771" d="M34 0l284 700h129l284 -700h-126l-78 190h-289l-78 -190h-126zM248 882q0 55 40 95t95 40t95.5 -40t40.5 -95t-40.5 -95t-95.5 -40t-95 40t-40 95zM274 276h218l-109 267zM319 882q0 -27 18.5 -45.5t45.5 -18.5t46 18.5t19 45.5t-19 45.5t-46 18.5t-45.5 -18.5 t-18.5 -45.5z" />
<glyph unicode="&#xc6;" horiz-adv-x="1070" d="M25 0l398 700h619v-95h-433v-200h423v-96h-423v-214h444v-95h-563v201h-215l-114 -201h-136zM323 286h167v295z" />
<glyph unicode="&#xc7;" horiz-adv-x="729" d="M370 -224q-42 0 -77 22v56q42 -27 83 -27q27 0 48 14t21 41q0 16 -9.5 24t-22.5 8q-19 0 -32 -15h-71l45 99q-139 17 -224.5 116.5t-85.5 233.5q0 148 100 252.5t259 104.5q97 0 175.5 -40t122.5 -107l-106 -53q-68 111 -192 111q-99 0 -164 -75.5t-65 -192.5 q0 -116 65 -190t164 -74q121 0 189 105l107 -52q-43 -64 -120.5 -102.5t-172.5 -39.5l-29 -53q17 19 52 19q37 0 58 -20t21 -52q0 -53 -41.5 -83t-97.5 -30z" />
<glyph unicode="&#xc8;" horiz-adv-x="658" d="M53 0v700h552v-95h-433v-200h423v-96h-423v-214h444v-95h-563zM175 865l60 100l272 -167l-55 -32z" />
<glyph unicode="&#xc9;" horiz-adv-x="658" d="M53 0v700h552v-95h-433v-200h423v-96h-423v-214h444v-95h-563zM227 798l272 167l60 -100l-277 -99z" />
<glyph unicode="&#xca;" horiz-adv-x="658" d="M53 0v700h552v-95h-433v-200h423v-96h-423v-214h444v-95h-563zM56 796l290 169h2l291 -169l-58 -30l-234 103l-234 -103z" />
<glyph unicode="&#xcb;" horiz-adv-x="658" d="M53 0v700h552v-95h-433v-200h423v-96h-423v-214h444v-95h-563zM136 790v118h119v-118h-119zM441 790v118h119v-118h-119z" />
<glyph unicode="&#xcc;" horiz-adv-x="268" d="M74 0v700h120v-700h-120zM-39 865l60 100l272 -167l-55 -32z" />
<glyph unicode="&#xcd;" horiz-adv-x="268" d="M74 0v700h120v-700h-120zM14 790l184 173l60 -101l-158 -98z" />
<glyph unicode="&#xce;" horiz-adv-x="268" d="M74 0v700h120v-700h-120zM-158 796l290 169h2l291 -169l-58 -30l-234 103l-234 -103z" />
<glyph unicode="&#xcf;" horiz-adv-x="268" d="M74 0v700h120v-700h-120zM-78 790v118h119v-118h-119zM227 790v118h119v-118h-119z" />
<glyph unicode="&#xd0;" horiz-adv-x="797" d="M180 0v263h-124v90h124v347h195q82 0 150.5 -20t123.5 -60.5t86 -109.5t31 -159q0 -176 -102 -263.5t-273 -87.5h-211zM299 92h92q126 0 188.5 60t62.5 199q0 257 -267 257l-76 -1v-254h194v-90h-194v-171z" />
<glyph unicode="&#xd1;" horiz-adv-x="654" d="M52 0v700h120l311 -490v490h120v-700h-120l-311 494v-494h-120zM147 867q0 33 22 55.5t62 22.5q28 0 50 -9.5t57 -33.5q11 -8 29 -23.5t29.5 -22.5t21.5 -7q12 0 12 17t-13.5 39t-39.5 40l89 -1q43 -26 43 -74q0 -33 -23.5 -58t-62.5 -25q-45 0 -95 36q-15 11 -37 28.5 t-33.5 24.5t-22.5 7t-11 -17t13.5 -39t39.5 -40l-94 1q-36 34 -36 79z" />
<glyph unicode="&#xd2;" horiz-adv-x="806" d="M403 -5q-158 0 -258.5 103t-100.5 250q0 148 100 252.5t259 104.5t259.5 -104.5t100.5 -252.5q0 -147 -100.5 -250t-259.5 -103zM164 348q0 -117 66 -190.5t173 -73.5t173.5 73.5t66.5 190.5q0 118 -66.5 193t-173.5 75q-106 0 -172.5 -75t-66.5 -193zM242 865l60 100 l272 -167l-55 -32z" />
<glyph unicode="&#xd3;" horiz-adv-x="806" d="M403 -5q-158 0 -258.5 103t-100.5 250q0 148 100 252.5t259 104.5t259.5 -104.5t100.5 -252.5q0 -147 -100.5 -250t-259.5 -103zM164 348q0 -117 66 -190.5t173 -73.5t173.5 73.5t66.5 190.5q0 118 -66.5 193t-173.5 75q-106 0 -172.5 -75t-66.5 -193zM295 798l272 167 l60 -100l-277 -99z" />
<glyph unicode="&#xd4;" horiz-adv-x="806" d="M403 -5q-158 0 -258.5 103t-100.5 250q0 148 100 252.5t259 104.5t259.5 -104.5t100.5 -252.5q0 -147 -100.5 -250t-259.5 -103zM123 796l290 169h2l291 -169l-58 -30l-234 103l-234 -103zM164 348q0 -117 66 -190.5t173 -73.5t173.5 73.5t66.5 190.5q0 118 -66.5 193 t-173.5 75q-106 0 -172.5 -75t-66.5 -193z" />
<glyph unicode="&#xd5;" horiz-adv-x="806" d="M403 -5q-158 0 -258.5 103t-100.5 250q0 148 100 252.5t259 104.5t259.5 -104.5t100.5 -252.5q0 -147 -100.5 -250t-259.5 -103zM164 348q0 -117 66 -190.5t173 -73.5t173.5 73.5t66.5 190.5q0 118 -66.5 193t-173.5 75q-106 0 -172.5 -75t-66.5 -193zM233 867 q0 33 22 55.5t62 22.5q28 0 50 -9.5t57 -33.5q11 -8 29 -23.5t29.5 -22.5t21.5 -7q12 0 12 17t-13.5 39t-39.5 40l89 -1q43 -26 43 -74q0 -33 -23.5 -58t-62.5 -25q-45 0 -95 36q-15 11 -37 28.5t-33.5 24.5t-22.5 7t-11 -17t13.5 -39t39.5 -40l-94 1q-36 35 -36 79z" />
<glyph unicode="&#xd6;" horiz-adv-x="806" d="M403 -5q-158 0 -258.5 103t-100.5 250q0 148 100 252.5t259 104.5t259.5 -104.5t100.5 -252.5q0 -147 -100.5 -250t-259.5 -103zM164 348q0 -117 66 -190.5t173 -73.5t173.5 73.5t66.5 190.5q0 118 -66.5 193t-173.5 75q-106 0 -172.5 -75t-66.5 -193zM203 790v118h119 v-118h-119zM508 790v118h119v-118h-119z" />
<glyph unicode="&#xd7;" d="M97 -1l-70 72l212 212l-213 212l71 72l213 -213l213 214l70 -73l-212 -211l212 -213l-72 -70l-211 211z" />
<glyph unicode="&#xd8;" horiz-adv-x="806" d="M482 778h94l-30 -100q100 -40 158.5 -130t58.5 -200q0 -147 -100.5 -250t-259.5 -103q-34 0 -58 4l-20 -66h-93l26 89q-98 40 -156 129t-58 197q0 148 100 252.5t259 104.5q32 0 56 -4zM164 348q0 -79 32 -140.5t89 -94.5l149 501q-20 2 -31 2q-106 0 -172.5 -75 t-66.5 -193zM370 86q22 -2 33 -2q107 0 173.5 73.5t66.5 190.5q0 81 -33 143.5t-91 95.5z" />
<glyph unicode="&#xd9;" horiz-adv-x="622" d="M311 -12q-121 0 -195.5 60.5t-74.5 174.5l1 477h119v-477q0 -149 150 -149t150 149v477h119l1 -477q0 -114 -74.5 -174.5t-195.5 -60.5zM139 865l60 100l272 -167l-55 -32z" />
<glyph unicode="&#xda;" horiz-adv-x="622" d="M311 -12q-121 0 -195.5 60.5t-74.5 174.5l1 477h119v-477q0 -149 150 -149t150 149v477h119l1 -477q0 -114 -74.5 -174.5t-195.5 -60.5zM192 798l272 167l60 -100l-277 -99z" />
<glyph unicode="&#xdb;" horiz-adv-x="622" d="M311 -12q-121 0 -195.5 60.5t-74.5 174.5l1 477h119v-477q0 -149 150 -149t150 149v477h119l1 -477q0 -114 -74.5 -174.5t-195.5 -60.5zM20 796l290 169h2l291 -169l-58 -30l-234 103l-234 -103z" />
<glyph unicode="&#xdc;" horiz-adv-x="622" d="M311 -12q-121 0 -195.5 60.5t-74.5 174.5l1 477h119v-477q0 -149 150 -149t150 149v477h119l1 -477q0 -114 -74.5 -174.5t-195.5 -60.5zM100 790v118h119v-118h-119zM405 790v118h119v-118h-119z" />
<glyph unicode="&#xdd;" horiz-adv-x="663" d="M271 0v308l-254 392h123l191 -305l192 305h123l-255 -392v-308h-120zM213 798l272 167l60 -100l-277 -99z" />
<glyph unicode="&#xde;" horiz-adv-x="531" d="M51 0v700h120v-105h123q89 0 157 -48t68 -146q0 -101 -67.5 -150t-163.5 -49h-117v-202h-120zM171 292h117q112 0 112 109q0 105 -109 105h-120v-214z" />
<glyph unicode="&#xdf;" horiz-adv-x="596" d="M35 509q0 91 61.5 142t152.5 51q92 0 156 -42t64 -123q0 -74 -48 -111q80 -21 122.5 -76t42.5 -131q0 -107 -74 -164t-197 -57q-59 0 -103 21v90q16 -8 47.5 -15.5t52.5 -7.5q77 0 116 35t39 98q0 67 -44 101t-119 34h-75v88h30q49 0 70 21.5t21 63.5q0 88 -101 88 q-96 0 -96 -94v-523h-118v511z" />
<glyph unicode="&#xe0;" horiz-adv-x="552" d="M221 -13q-91 0 -141 42t-50 108q0 63 51 101t170 49q130 14 130 73q0 33 -23 51.5t-65 18.5q-49 0 -71.5 -22.5t-26.5 -49.5q-1 -4 -1 -10l-122 1q-2 8 -2 25q5 56 67.5 96t146.5 40q57 0 99 -14t64.5 -34.5t35.5 -50.5t16 -54t3 -53v-304h-119v79q-47 -92 -162 -92z M111 665l60 100l272 -167l-55 -32zM150 142q0 -33 23 -57.5t71 -24.5q61 0 101 43.5t40 119.5v38q-46 -31 -126 -40q-109 -14 -109 -79z" />
<glyph unicode="&#xe1;" horiz-adv-x="552" d="M221 -13q-91 0 -141 42t-50 108q0 63 51 101t170 49q130 14 130 73q0 33 -23 51.5t-65 18.5q-49 0 -71.5 -22.5t-26.5 -49.5q-1 -4 -1 -10l-122 1q-2 8 -2 25q5 56 67.5 96t146.5 40q57 0 99 -14t64.5 -34.5t35.5 -50.5t16 -54t3 -53v-304h-119v79q-47 -92 -162 -92z M150 142q0 -33 23 -57.5t71 -24.5q61 0 101 43.5t40 119.5v38q-46 -31 -126 -40q-109 -14 -109 -79zM163 598l272 167l60 -100l-277 -99z" />
<glyph unicode="&#xe2;" horiz-adv-x="552" d="M221 -13q-91 0 -141 42t-50 108q0 63 51 101t170 49q130 14 130 73q0 33 -23 51.5t-65 18.5q-49 0 -71.5 -22.5t-26.5 -49.5q-1 -4 -1 -10l-122 1q-2 8 -2 25q5 56 67.5 96t146.5 40q57 0 99 -14t64.5 -34.5t35.5 -50.5t16 -54t3 -53v-304h-119v79q-47 -92 -162 -92z M-8 596l290 169h2l291 -169l-58 -30l-234 103l-234 -103zM150 142q0 -33 23 -57.5t71 -24.5q61 0 101 43.5t40 119.5v38q-46 -31 -126 -40q-109 -14 -109 -79z" />
<glyph unicode="&#xe3;" horiz-adv-x="552" d="M221 -13q-91 0 -141 42t-50 108q0 63 51 101t170 49q130 14 130 73q0 33 -23 51.5t-65 18.5q-49 0 -71.5 -22.5t-26.5 -49.5q-1 -4 -1 -10l-122 1q-2 8 -2 25q5 56 67.5 96t146.5 40q57 0 99 -14t64.5 -34.5t35.5 -50.5t16 -54t3 -53v-304h-119v79q-47 -92 -162 -92z M102 667q0 33 22 55.5t62 22.5q28 0 50 -9.5t57 -33.5q11 -8 29 -23.5t29.5 -22.5t21.5 -7q12 0 12 17t-13.5 39t-39.5 40l89 -1q43 -26 43 -74q0 -33 -23.5 -58t-62.5 -25q-45 0 -95 36q-15 11 -37 28.5t-33.5 24.5t-22.5 7t-11 -17t13.5 -39t39.5 -40l-94 1q-36 34 -36 79 zM150 142q0 -33 23 -57.5t71 -24.5q61 0 101 43.5t40 119.5v38q-46 -31 -126 -40q-109 -14 -109 -79z" />
<glyph unicode="&#xe4;" horiz-adv-x="552" d="M221 -13q-91 0 -141 42t-50 108q0 63 51 101t170 49q130 14 130 73q0 33 -23 51.5t-65 18.5q-49 0 -71.5 -22.5t-26.5 -49.5q-1 -4 -1 -10l-122 1q-2 8 -2 25q5 56 67.5 96t146.5 40q57 0 99 -14t64.5 -34.5t35.5 -50.5t16 -54t3 -53v-304h-119v79q-47 -92 -162 -92z M72 590v118h119v-118h-119zM150 142q0 -33 23 -57.5t71 -24.5q61 0 101 43.5t40 119.5v38q-46 -31 -126 -40q-109 -14 -109 -79zM377 590v118h119v-118h-119z" />
<glyph unicode="&#xe5;" horiz-adv-x="552" d="M221 -13q-91 0 -141 42t-50 108q0 63 51 101t170 49q130 14 130 73q0 33 -23 51.5t-65 18.5q-49 0 -71.5 -22.5t-26.5 -49.5q-1 -4 -1 -10l-122 1q-2 8 -2 25q5 56 67.5 96t146.5 40q57 0 99 -14t64.5 -34.5t35.5 -50.5t16 -54t3 -53v-304h-119v79q-47 -92 -162 -92z M148 682q0 55 40 95t95 40t95.5 -40t40.5 -95t-40.5 -95t-95.5 -40t-95 40t-40 95zM150 142q0 -33 23 -57.5t71 -24.5q61 0 101 43.5t40 119.5v38q-46 -31 -126 -40q-109 -14 -109 -79zM219 682q0 -27 18.5 -45.5t45.5 -18.5t46 18.5t19 45.5t-19 45.5t-46 18.5t-45.5 -18.5 t-18.5 -45.5z" />
<glyph unicode="&#xe6;" horiz-adv-x="946" d="M221 -13q-91 0 -141 42t-50 108q0 63 51 101t170 49q130 14 130 73q0 33 -23 51.5t-65 18.5q-49 0 -71.5 -22.5t-26.5 -49.5q-1 -4 -1 -10l-122 1q-2 8 -2 25q5 56 67.5 96t146.5 40q128 0 180 -68q73 70 190 70q114 0 181 -59.5t67 -160.5q0 -26 -7 -66h-386 q7 -77 48.5 -117t112.5 -40q98 0 138 93l97 -49q-29 -61 -93.5 -93.5t-148.5 -32.5q-94 0 -161 41v-28h-119v79q-47 -92 -162 -92zM150 142q0 -33 23 -57.5t71 -24.5q61 0 101 43.5t40 119.5v38q-46 -31 -126 -40q-109 -14 -109 -79zM512 299h267q3 13 3 27q0 47 -33 76 t-92 29q-55 0 -94.5 -34t-50.5 -98z" />
<glyph unicode="&#xe7;" horiz-adv-x="587" d="M308 -13h-1l-24 -45q17 19 52 19q37 0 58 -20t21 -52q0 -53 -41.5 -83t-97.5 -30q-42 0 -77 22v56q42 -27 83 -27q27 0 48 14t21 41q0 16 -10 24t-22 8q-19 0 -32 -15h-71l41 92q-98 14 -162 80.5t-64 173.5q0 124 79.5 195.5t205.5 71.5q90 0 152 -36t85 -98l-103 -49 q-9 48 -44.5 74.5t-89.5 26.5q-76 0 -122.5 -49t-46.5 -136q0 -81 44.5 -128.5t117.5 -47.5q63 0 98.5 29t53.5 82l105 -42q-66 -151 -257 -151z" />
<glyph unicode="&#xe8;" horiz-adv-x="585" d="M418 299q3 13 3 27q0 47 -33 76t-92 29q-55 0 -94.5 -34t-50.5 -98h267zM30 255q0 118 73.5 187.5t189.5 69.5q114 0 181 -59.5t67 -160.5q0 -26 -7 -66h-386q7 -77 48.5 -117t112.5 -40q98 0 138 93l97 -49q-29 -61 -93.5 -93.5t-148.5 -32.5q-122 0 -197 69t-75 199z M136 665l60 100l272 -167l-55 -32z" />
<glyph unicode="&#xe9;" horiz-adv-x="585" d="M418 299q3 13 3 27q0 47 -33 76t-92 29q-55 0 -94.5 -34t-50.5 -98h267zM30 255q0 118 73.5 187.5t189.5 69.5q114 0 181 -59.5t67 -160.5q0 -26 -7 -66h-386q7 -77 48.5 -117t112.5 -40q98 0 138 93l97 -49q-29 -61 -93.5 -93.5t-148.5 -32.5q-122 0 -197 69t-75 199z M189 598l272 167l60 -100l-277 -99z" />
<glyph unicode="&#xea;" horiz-adv-x="585" d="M418 299q3 13 3 27q0 47 -33 76t-92 29q-55 0 -94.5 -34t-50.5 -98h267zM17 596l290 169h2l291 -169l-58 -30l-234 103l-234 -103zM30 255q0 118 73.5 187.5t189.5 69.5q114 0 181 -59.5t67 -160.5q0 -26 -7 -66h-386q7 -77 48.5 -117t112.5 -40q98 0 138 93l97 -49 q-29 -61 -93.5 -93.5t-148.5 -32.5q-122 0 -197 69t-75 199z" />
<glyph unicode="&#xeb;" horiz-adv-x="585" d="M418 299q3 13 3 27q0 47 -33 76t-92 29q-55 0 -94.5 -34t-50.5 -98h267zM30 255q0 118 73.5 187.5t189.5 69.5q114 0 181 -59.5t67 -160.5q0 -26 -7 -66h-386q7 -77 48.5 -117t112.5 -40q98 0 138 93l97 -49q-29 -61 -93.5 -93.5t-148.5 -32.5q-122 0 -197 69t-75 199z M97 590v118h119v-118h-119zM402 590v118h119v-118h-119z" />
<glyph unicode="&#xec;" horiz-adv-x="279" d="M80 0v500h119v-500h-119zM-33 665l60 100l272 -167l-55 -32z" />
<glyph unicode="&#xed;" horiz-adv-x="279" d="M80 0v500h119v-500h-119zM20 598l272 167l60 -100l-277 -99z" />
<glyph unicode="&#xee;" horiz-adv-x="279" d="M80 0v500h119v-500h-119zM-152 596l290 169h2l291 -169l-58 -30l-234 103l-234 -103z" />
<glyph unicode="&#xef;" horiz-adv-x="279" d="M80 0v500h119v-500h-119zM-72 590v118h119v-118h-119zM233 590v118h119v-118h-119z" />
<glyph unicode="&#xf0;" horiz-adv-x="573" d="M285 -13q-115 0 -185.5 80t-70.5 188q0 111 75 183t184 72q68 0 120 -52q-39 125 -166 186l-75 -65l-50 56l45 39q-45 14 -99 21v92q97 -9 183 -40l78 67l49 -57l-51 -44q114 -62 177 -163t63 -228q0 -89 -28.5 -163t-93 -123t-155.5 -49zM150 259q0 -81 40 -133t100 -52 q75 3 114.5 53t39.5 115q0 89 -47 135.5t-107 46.5q-62 0 -101 -46.5t-39 -118.5z" />
<glyph unicode="&#xf1;" horiz-adv-x="591" d="M335 507q64 0 109 -18t68 -50t33 -66.5t10 -75.5v-297h-121v297q0 124 -114 124q-62 0 -108.5 -40t-46.5 -123v-258h-118v500h118v-102q15 51 63.5 80t106.5 29zM106 667q0 33 22 55.5t62 22.5q28 0 50 -9.5t57 -33.5q11 -8 29 -23.5t29.5 -22.5t21.5 -7q12 0 12 17 t-13.5 39t-39.5 40l89 -1q43 -26 43 -74q0 -33 -23.5 -58t-62.5 -25q-45 0 -95 36q-15 11 -37 28.5t-33.5 24.5t-22.5 7t-11 -17t13.5 -39t39.5 -40l-94 1q-36 34 -36 79z" />
<glyph unicode="&#xf2;" horiz-adv-x="582" d="M298 -13q-117 0 -192 75.5t-75 184.5q0 110 75 187t192 77q116 0 191 -77t75 -187q0 -109 -74.5 -184.5t-191.5 -75.5zM126 665l60 100l272 -167l-55 -32zM145 247q0 -83 42.5 -130.5t110.5 -47.5t110 47.5t42 130.5q0 84 -42 132t-110 48t-110.5 -48t-42.5 -132z" />
<glyph unicode="&#xf3;" horiz-adv-x="582" d="M298 -13q-117 0 -192 75.5t-75 184.5q0 110 75 187t192 77q116 0 191 -77t75 -187q0 -109 -74.5 -184.5t-191.5 -75.5zM145 247q0 -83 42.5 -130.5t110.5 -47.5t110 47.5t42 130.5q0 84 -42 132t-110 48t-110.5 -48t-42.5 -132zM179 598l272 167l60 -100l-277 -99z" />
<glyph unicode="&#xf4;" horiz-adv-x="582" d="M298 -13q-117 0 -192 75.5t-75 184.5q0 110 75 187t192 77q116 0 191 -77t75 -187q0 -109 -74.5 -184.5t-191.5 -75.5zM7 596l290 169h2l291 -169l-58 -30l-234 103l-234 -103zM145 247q0 -83 42.5 -130.5t110.5 -47.5t110 47.5t42 130.5q0 84 -42 132t-110 48 t-110.5 -48t-42.5 -132z" />
<glyph unicode="&#xf5;" horiz-adv-x="582" d="M298 -13q-117 0 -192 75.5t-75 184.5q0 110 75 187t192 77q116 0 191 -77t75 -187q0 -109 -74.5 -184.5t-191.5 -75.5zM117 667q0 33 22 55.5t62 22.5q28 0 50 -9.5t57 -33.5q11 -8 29 -23.5t29.5 -22.5t21.5 -7q12 0 12 17t-13.5 39t-39.5 40l89 -1q43 -26 43 -74 q0 -33 -23.5 -58t-62.5 -25q-45 0 -95 36q-15 11 -37 28.5t-33.5 24.5t-22.5 7t-11 -17t13.5 -39t39.5 -40l-94 1q-36 34 -36 79zM145 247q0 -83 42.5 -130.5t110.5 -47.5t110 47.5t42 130.5q0 84 -42 132t-110 48t-110.5 -48t-42.5 -132z" />
<glyph unicode="&#xf6;" horiz-adv-x="582" d="M298 -13q-117 0 -192 75.5t-75 184.5q0 110 75 187t192 77q116 0 191 -77t75 -187q0 -109 -74.5 -184.5t-191.5 -75.5zM87 590v118h119v-118h-119zM145 247q0 -83 42.5 -130.5t110.5 -47.5t110 47.5t42 130.5q0 84 -42 132t-110 48t-110.5 -48t-42.5 -132zM392 590v118 h119v-118h-119z" />
<glyph unicode="&#xf7;" d="M43 205v91h509v-91h-509zM225 -1v124h145v-124h-145zM225 398v123h144v-123h-144z" />
<glyph unicode="&#xf8;" horiz-adv-x="582" d="M377 688h93l-59 -200q70 -31 111.5 -96t41.5 -145q0 -109 -74.5 -184.5t-191.5 -75.5q-13 0 -35 2l-43 -146h-94l51 170q-68 32 -107 95t-39 139q0 110 75 187t192 77q18 0 26 -1zM145 247q0 -98 58 -146l96 326h-1q-68 0 -110.5 -48t-42.5 -132zM287 69h11 q68 0 110 47.5t42 130.5q0 106 -65 153z" />
<glyph unicode="&#xf9;" horiz-adv-x="591" d="M263 -7q-63 0 -107.5 18.5t-67 50t-32 66t-9.5 75.5v297h118v-297q0 -128 110 -128q27 0 50 7t45.5 24.5t36.5 52.5t16 85v256h118v-500h-118v80q-21 -42 -63 -64.5t-97 -22.5zM121 665l60 100l272 -167l-55 -32z" />
<glyph unicode="&#xfa;" horiz-adv-x="591" d="M263 -7q-63 0 -107.5 18.5t-67 50t-32 66t-9.5 75.5v297h118v-297q0 -128 110 -128q27 0 50 7t45.5 24.5t36.5 52.5t16 85v256h118v-500h-118v80q-21 -42 -63 -64.5t-97 -22.5zM174 598l272 167l60 -100l-277 -99z" />
<glyph unicode="&#xfb;" horiz-adv-x="591" d="M263 -7q-63 0 -107.5 18.5t-67 50t-32 66t-9.5 75.5v297h118v-297q0 -128 110 -128q27 0 50 7t45.5 24.5t36.5 52.5t16 85v256h118v-500h-118v80q-21 -42 -63 -64.5t-97 -22.5zM2 596l290 169h2l291 -169l-58 -30l-234 103l-234 -103z" />
<glyph unicode="&#xfc;" horiz-adv-x="591" d="M263 -7q-63 0 -107.5 18.5t-67 50t-32 66t-9.5 75.5v297h118v-297q0 -128 110 -128q27 0 50 7t45.5 24.5t36.5 52.5t16 85v256h118v-500h-118v80q-21 -42 -63 -64.5t-97 -22.5zM82 590v118h119v-118h-119zM387 590v118h119v-118h-119z" />
<glyph unicode="&#xfd;" horiz-adv-x="559" d="M141 -200l97 238l-228 462h131l156 -317l130 317h122l-285 -700h-123zM176 598l272 167l60 -100l-277 -99z" />
<glyph unicode="&#xfe;" horiz-adv-x="563" d="M28 -205l1 980h119v-300l-2 -47q50 81 148 81q116 0 187.5 -75.5t71.5 -186.5q0 -110 -72 -185t-187 -75q-95 0 -148 81l2 -41v-232h-120zM138 247q0 -81 45 -128t111 -47q61 0 100.5 50t39.5 125q0 76 -39.5 126t-100.5 50q-67 0 -111.5 -47t-44.5 -129z" />
<glyph unicode="&#xff;" horiz-adv-x="559" d="M141 -200l97 238l-228 462h131l156 -317l130 317h122l-285 -700h-123zM84 590v118h119v-118h-119zM389 590v118h119v-118h-119z" />
<glyph unicode="&#x152;" horiz-adv-x="1157" d="M375 -5q-158 0 -258.5 103.5t-100.5 249.5q0 148 100 252.5t259 104.5q113 0 202 -58v53h552v-95h-433v-200h423v-96h-423v-214h444v-95h-563v52q-90 -57 -202 -57zM136 348q0 -117 66 -190.5t173 -73.5q148 0 202 124v283q-54 125 -202 125q-106 0 -172.5 -75 t-66.5 -193z" />
<glyph unicode="&#x153;" horiz-adv-x="1008" d="M298 -13q-117 0 -192 75.5t-75 184.5q0 110 75 187t192 77q128 0 206 -94q73 95 212 95q114 0 181 -59.5t67 -160.5q0 -26 -7 -66h-386q7 -77 48.5 -117t112.5 -40q98 0 138 93l97 -49q-29 -61 -93.5 -93.5t-148.5 -32.5q-147 0 -219 94q-78 -94 -208 -94zM145 247 q0 -83 42.5 -130.5t110.5 -47.5t110 47.5t42 130.5q0 84 -42 132t-110 48t-110.5 -48t-42.5 -132zM574 299h267q3 13 3 27q0 47 -33 76t-92 29q-55 0 -94.5 -34t-50.5 -98z" />
<glyph unicode="&#x178;" horiz-adv-x="663" d="M271 0v308l-254 392h123l191 -305l192 305h123l-255 -392v-308h-120zM121 790v118h119v-118h-119zM426 790v118h119v-118h-119z" />
<glyph unicode="&#x237;" horiz-adv-x="279" d="M-3 -260q-111 0 -182 90l88 66q9 -19 15.5 -30t24 -23.5t40.5 -12.5q97 0 97 106v564h119v-564q0 -25 -5 -50t-19.5 -52t-36 -47.5t-58 -33.5t-83.5 -13z" />
<glyph unicode="&#x2c6;" horiz-adv-x="772" d="M148 566l-57 30l290 169h2l291 -169l-58 -30l-234 103z" />
<glyph unicode="&#x2dc;" horiz-adv-x="762" d="M236 588q-36 34 -36 79q0 33 22 55.5t62 22.5q28 0 50 -9.5t57 -33.5q11 -8 29 -23.5t29.5 -22.5t21.5 -7q12 0 12 17t-13.5 39t-39.5 40l89 -1q43 -26 43 -74q0 -33 -23.5 -58t-62.5 -25q-45 0 -95 36q-15 11 -37 28.5t-33.5 24.5t-22.5 7t-11 -17t13.5 -39t39.5 -40z " />
<glyph unicode="&#x2000;" horiz-adv-x="508" />
<glyph unicode="&#x2001;" horiz-adv-x="1017" />
<glyph unicode="&#x2002;" horiz-adv-x="508" />
<glyph unicode="&#x2003;" horiz-adv-x="1017" />
<glyph unicode="&#x2004;" horiz-adv-x="339" />
<glyph unicode="&#x2005;" horiz-adv-x="254" />
<glyph unicode="&#x2006;" horiz-adv-x="169" />
<glyph unicode="&#x2007;" horiz-adv-x="169" />
<glyph unicode="&#x2008;" horiz-adv-x="127" />
<glyph unicode="&#x2009;" horiz-adv-x="203" />
<glyph unicode="&#x200a;" horiz-adv-x="56" />
<glyph unicode="&#x2010;" horiz-adv-x="517" d="M40 215v90h437v-90h-437z" />
<glyph unicode="&#x2011;" horiz-adv-x="517" d="M40 215v90h437v-90h-437z" />
<glyph unicode="&#x2012;" horiz-adv-x="517" d="M40 215v90h437v-90h-437z" />
<glyph unicode="&#x2013;" d="M72 265v90h455v-90h-455z" />
<glyph unicode="&#x2014;" d="M4 265v90h591v-90h-591z" />
<glyph unicode="&#x2018;" horiz-adv-x="310" d="M77 511v123h57q0 35 -8 59t-35 38v60q50 -10 81.5 -42t40 -60t8.5 -52v-126h-144z" />
<glyph unicode="&#x2019;" horiz-adv-x="310" d="M91 544q43 22 43 88v8h-57v147h147v-156q0 -46 -29.5 -90.5t-103.5 -57.5v61z" />
<glyph unicode="&#x201a;" horiz-adv-x="498" d="M91 -97q27 14 35 38t8 59h-57v123h144v-126q0 -24 -8.5 -52t-40 -60t-81.5 -42v60z" />
<glyph unicode="&#x201c;" horiz-adv-x="548" d="M327 635q0 24 8.5 52t40 60t81.5 42v-60q-27 -14 -35 -38t-8 -59h57v-123h-144v126zM89 509v126q0 24 8.5 52t40 60t81.5 42v-60q-27 -14 -35 -38t-8 -59h57v-123h-144z" />
<glyph unicode="&#x201d;" horiz-adv-x="548" d="M329 552q27 14 35 38t8 59h-57v123h144v-126q0 -24 -8.5 -52t-40 -60t-81.5 -42v60zM77 649v123h144v-126q0 -24 -8.5 -52t-40 -60t-81.5 -42v60q27 14 35 38t8 59h-57z" />
<glyph unicode="&#x201e;" d="M354 -97q43 23 43 91v6h-57v123h144v-126q0 -24 -8.5 -52t-40 -60t-81.5 -42v60zM77 0v123h144v-126q0 -24 -8.5 -52t-40 -60t-81.5 -42v60q43 23 43 91v6h-57z" />
<glyph unicode="&#x2022;" d="M300 122q-75 0 -129 52t-54 121t54 121t129 52t129 -52t54 -121t-54 -121t-129 -52z" />
<glyph unicode="&#x2026;" horiz-adv-x="747" d="M540 0v123h144v-123h-144zM63 0v123h144v-123h-144zM306 0v123h144v-123h-144z" />
<glyph unicode="&#x202f;" horiz-adv-x="203" />
<glyph unicode="&#x2039;" horiz-adv-x="378" d="M226 42l-176 225l176 224l72 -47l-120 -177l120 -177z" />
<glyph unicode="&#x203a;" horiz-adv-x="378" d="M152 42l-72 48l120 177l-120 177l72 47l176 -224z" />
<glyph unicode="&#x2044;" horiz-adv-x="784" d="M45 -1l579 751h103l-578 -751h-104z" />
<glyph unicode="&#x205f;" horiz-adv-x="254" />
<glyph unicode="&#x2070;" horiz-adv-x="413" d="M206 388q-88 0 -136.5 60t-48.5 158t48.5 158t136.5 60t137 -60t49 -158t-49 -158t-137 -60zM95 606q0 -79 30 -123t81 -44t81.5 44t30.5 123t-30.5 123t-81.5 44t-81 -44t-30 -123z" />
<glyph unicode="&#x2074;" horiz-adv-x="372" d="M210 395v124h-191v48l200 252h64v-247h70v-54h-70v-123h-73zM96 572h114v148z" />
<glyph unicode="&#x2075;" horiz-adv-x="364" d="M184 389q-61 0 -106 37t-45 96h73q1 -40 23 -61.5t55 -21.5q34 0 59 24t25 65q0 44 -24 66.5t-59 22.5q-38 0 -60 -28h-60v230h252v-57h-188v-108q26 14 61 14q62 0 106 -36t44 -104q0 -61 -47.5 -100t-108.5 -39z" />
<glyph unicode="&#x2076;" horiz-adv-x="332" d="M165 389q-61 0 -107 38t-46 98q0 37 30 85l130 209h83l-102 -163q13 4 30 4q56 -5 95.5 -42t39.5 -93q0 -61 -45.5 -98.5t-107.5 -37.5zM85 525q0 -41 23 -63t57 -22t57 22t23 63t-23 63t-57 22t-57 -22t-23 -63z" />
<glyph unicode="&#x2077;" horiz-adv-x="305" d="M19 395l179 367h-175v57h278l-201 -424h-81z" />
<glyph unicode="&#x2078;" horiz-adv-x="337" d="M168 394q-62 0 -107.5 36.5t-45.5 94.5q0 74 72 110q-48 29 -48 81q0 49 40 78.5t89 29.5t89.5 -30t40.5 -78q0 -53 -48 -82q72 -34 72 -109q0 -59 -45.5 -95t-108.5 -36zM87 525q0 -40 23.5 -62t57.5 -22q35 0 58.5 22t23.5 62q0 39 -23.5 61t-58.5 22q-34 0 -57.5 -22 t-23.5 -61zM112 716q0 -27 16.5 -43.5t39.5 -16.5q24 0 40.5 16.5t16.5 43.5q0 30 -17 45t-40 15q-22 0 -39 -15t-17 -45z" />
<glyph unicode="&#x2079;" horiz-adv-x="353" d="M201 572q-16 -7 -33 -7q-58 5 -99 40.5t-41 90.5q0 58 45.5 94.5t107.5 36.5q61 0 107 -36.5t46 -94.5q0 -33 -26 -84t-78 -129.5t-58 -87.5h-82zM101 696q0 -40 22.5 -61t56.5 -21t57.5 21.5t23.5 60.5t-23 60t-57 21t-57 -21t-23 -60z" />
<glyph unicode="&#x2080;" horiz-adv-x="413" d="M206 -7q-88 0 -136.5 60t-48.5 158t48.5 158t136.5 60t137 -60t49 -158t-49 -158t-137 -60zM95 211q0 -79 30 -123t81 -44t81.5 44t30.5 123t-30.5 123t-81.5 44t-81 -44t-30 -123z" />
<glyph unicode="&#x2081;" horiz-adv-x="228" d="M118 0v341h-92v46q23 -5 47 -3q43 3 43 31v9h74v-424h-72z" />
<glyph unicode="&#x2082;" horiz-adv-x="334" d="M18 48q16 27 55 59.5t73 57.5t61 62.5t28 76.5q0 37 -18.5 57t-49.5 20t-49 -18.5t-16 -47.5l-72 -8q-4 59 36 92t101 33q67 0 103.5 -34.5t36.5 -92.5q0 -45 -24 -84t-53.5 -61.5t-66 -51t-52.5 -49.5h205v-59h-299z" />
<glyph unicode="&#x2083;" horiz-adv-x="353" d="M176 -6q-67 0 -109.5 34.5t-43.5 98.5h72q1 -83 81 -83q34 0 57.5 22.5t23.5 63.5t-21 63t-54 22q-22 0 -39 -7l-30 38l117 127h-186v51h273v-46l-122 -123q57 3 95.5 -29.5t38.5 -97.5q0 -61 -45.5 -97.5t-107.5 -36.5z" />
<glyph unicode="&#x2084;" horiz-adv-x="372" d="M210 0v124h-191v48l200 252h64v-247h70v-54h-70v-123h-73zM96 177h114v148z" />
<glyph unicode="&#x2085;" horiz-adv-x="364" d="M184 -6q-61 0 -106 37t-45 96h73q1 -40 23 -61.5t55 -21.5q34 0 59 24t25 65q0 44 -24 66.5t-59 22.5q-38 0 -60 -28h-60v230h252v-57h-188v-108q26 14 61 14q62 0 106 -36t44 -104q0 -61 -47.5 -100t-108.5 -39z" />
<glyph unicode="&#x2086;" horiz-adv-x="332" d="M165 -6q-61 0 -107 38t-46 98q0 37 30 85l130 209h83l-102 -163q13 4 30 4q56 -5 95.5 -42t39.5 -93q0 -61 -45.5 -98.5t-107.5 -37.5zM85 130q0 -41 23 -63t57 -22t57 22t23 63t-23 63t-57 22t-57 -22t-23 -63z" />
<glyph unicode="&#x2087;" horiz-adv-x="305" d="M19 0l179 367h-175v57h278l-201 -424h-81z" />
<glyph unicode="&#x2088;" horiz-adv-x="337" d="M168 -1q-62 0 -107.5 36.5t-45.5 94.5q0 74 72 110q-48 29 -48 81q0 49 40 78.5t89 29.5t89.5 -30t40.5 -78q0 -53 -48 -82q72 -34 72 -109q0 -59 -45.5 -95t-108.5 -36zM87 130q0 -40 23.5 -62t57.5 -22q35 0 58.5 22t23.5 62q0 39 -23.5 61t-58.5 22q-34 0 -57.5 -22 t-23.5 -61zM112 321q0 -27 16.5 -43.5t39.5 -16.5q24 0 40.5 16.5t16.5 43.5q0 30 -17 45t-40 15q-22 0 -39 -15t-17 -45z" />
<glyph unicode="&#x2089;" horiz-adv-x="353" d="M201 177q-16 -7 -33 -7q-58 5 -99 40.5t-41 90.5q0 58 45.5 94.5t107.5 36.5q61 0 107 -36.5t46 -94.5q0 -33 -26 -84t-78 -129.5t-58 -87.5h-82zM101 301q0 -40 22.5 -61t56.5 -21t57.5 21.5t23.5 60.5t-23 60t-57 21t-57 -21t-23 -60z" />
<glyph unicode="&#x20ac;" horiz-adv-x="783" d="M487 -5q-123 0 -212.5 65t-125.5 169h-121v74h103q-3 23 -3 45q0 4 0.5 13t0.5 13h-101v74h114q31 113 123 185t222 72q97 0 175.5 -40t122.5 -107l-106 -53q-68 111 -192 111q-75 0 -132.5 -45.5t-81.5 -122.5h282v-74h-295q-2 -18 -2 -26q0 -22 3 -45h294v-74h-273 q26 -67 80.5 -106t124.5 -39q121 0 189 105l107 -52q-43 -65 -121 -103.5t-175 -38.5z" />
<glyph unicode="&#x2116;" horiz-adv-x="1154" d="M1063 136h-323v79h323v-79zM52 0v700h120l311 -490v490h120v-700h-120l-311 494v-494h-120zM667 466q0 97 66 164.5t168 67.5t168 -67.5t66 -164.5q0 -96 -65.5 -162t-168.5 -66q-102 0 -168 66t-66 162zM767 466q0 -73 37 -114.5t97 -41.5t97 41.5t37 114.5 q0 74 -37 116t-97 42t-97 -42t-37 -116z" />
<glyph unicode="&#x2122;" horiz-adv-x="878" d="M405 386v312l110 1l94 -218l93 218l109 -1v-312h-82v164l-72 -164h-97l-73 166v-166h-82zM65 616v82h287v-82h-102v-230h-83v230h-102z" />
<glyph unicode="&#x25fc;" horiz-adv-x="500" d="M0 500h500v-500h-500v500z" />
<glyph unicode="&#xfb01;" horiz-adv-x="618" d="M420 0v410h-201v-410h-119l1 410h-93v91h93q-37 34 -37 86q0 58 50.5 107t150.5 49q86 0 151 -47h122v-108h-135q-36 41 -65 58t-73 17q-42 0 -70 -20.5t-28 -58.5q0 -58 58 -83h313v-501h-118z" />
<glyph unicode="&#xfb02;" horiz-adv-x="653" d="M100 0l1 410h-93v91h111q-29 8 -48.5 33.5t-19.5 63.5q0 61 52 101.5t148 40.5q72 0 123 -29.5t75 -60.5l-103 -47q-12 19 -18.5 28.5t-28.5 24t-48 14.5q-42 0 -67 -22t-25 -61q0 -31 25.5 -56t75.5 -30h125v-91h-166v-410h-119zM455 0v700h119v-700h-119z" />
<glyph unicode="&#xfb04;" horiz-adv-x="942" d="M100 0l1 410h-93v91h111q-29 8 -48.5 33.5t-19.5 63.5q0 61 52 101.5t148 40.5q76 0 141 -40q55 40 147 40q72 0 123 -29.5t75 -60.5l-103 -47q-12 19 -18.5 28.5t-28.5 24t-48 14.5q-42 0 -67 -22t-25 -61q0 -31 25.5 -56t75.5 -30h125v-91h-166v-410h-119l1 410h-170 v-410h-119zM159 587q0 -31 25.5 -56t75.5 -30h147q-29 8 -48.5 33.5t-19.5 63.5q0 10 1 15q-37 57 -89 57q-42 0 -67 -22t-25 -61zM743 0v700h119v-700h-119z" />
<glyph horiz-adv-x="597" d="M262 -12q-90 0 -147.5 33t-82.5 85l99 68q14 -34 25.5 -52t38 -33t67.5 -15q59 0 99 38.5t40 112.5v475h120l1 -462q0 -118 -73.5 -184t-186.5 -66zM335 798l272 167l60 -100l-277 -99z" />
<glyph horiz-adv-x="279" d="M80 0v500h119v-500h-119zM80 590v118h119v-118h-119z" />
<glyph horiz-adv-x="279" d="M-3 -260q-111 0 -182 90l88 66q9 -19 15.5 -30t24 -23.5t40.5 -12.5q97 0 97 106v564h119v-564q0 -25 -5 -50t-19.5 -52t-36 -47.5t-58 -33.5t-83.5 -13zM20 598l272 167l60 -100l-277 -99z" />
<glyph horiz-adv-x="621" d="M580 0h-118v54l5 54q-41 -118 -185 -118q-115 0 -187 76t-72 186q0 111 72 185.5t187 74.5q144 0 186 -124l-6 62v50h119zM150 252q0 -78 41.5 -127t111.5 -49q76 0 122.5 46.5t46.5 129.5q0 81 -46 128t-123 47q-70 0 -111.5 -49t-41.5 -126z" />
<glyph horiz-adv-x="621" d="M580 0h-118v54l5 54q-41 -118 -185 -118q-115 0 -187 76t-72 186q0 111 72 185.5t187 74.5q144 0 186 -124l-6 62v50h119zM150 252q0 -78 41.5 -127t111.5 -49q76 0 122.5 46.5t46.5 129.5q0 81 -46 128t-123 47q-70 0 -111.5 -49t-41.5 -126zM182 598l272 167l60 -100 l-277 -99z" />
<glyph horiz-adv-x="621" d="M580 0h-118v54l5 54q-41 -118 -185 -118q-115 0 -187 76t-72 186q0 111 72 185.5t187 74.5q144 0 186 -124l-6 62v50h119zM11 596l290 169h2l291 -169l-58 -30l-234 103l-234 -103zM150 252q0 -78 41.5 -127t111.5 -49q76 0 122.5 46.5t46.5 129.5q0 81 -46 128t-123 47 q-70 0 -111.5 -49t-41.5 -126z" />
<glyph horiz-adv-x="621" d="M580 0h-118v54l5 54q-41 -118 -185 -118q-115 0 -187 76t-72 186q0 111 72 185.5t187 74.5q144 0 186 -124l-6 62v50h119zM90 590v118h119v-118h-119zM150 252q0 -78 41.5 -127t111.5 -49q76 0 122.5 46.5t46.5 129.5q0 81 -46 128t-123 47q-70 0 -111.5 -49t-41.5 -126z M395 590v118h119v-118h-119z" />
<glyph horiz-adv-x="621" d="M580 0h-118v54l5 54q-41 -118 -185 -118q-115 0 -187 76t-72 186q0 111 72 185.5t187 74.5q144 0 186 -124l-6 62v50h119zM130 665l60 100l272 -167l-55 -32zM150 252q0 -78 41.5 -127t111.5 -49q76 0 122.5 46.5t46.5 129.5q0 81 -46 128t-123 47q-70 0 -111.5 -49 t-41.5 -126z" />
<glyph horiz-adv-x="621" d="M580 0h-118v54l5 54q-41 -118 -185 -118q-115 0 -187 76t-72 186q0 111 72 185.5t187 74.5q144 0 186 -124l-6 62v50h119zM150 252q0 -78 41.5 -127t111.5 -49q76 0 122.5 46.5t46.5 129.5q0 81 -46 128t-123 47q-70 0 -111.5 -49t-41.5 -126zM166 682q0 55 40 95t95 40 t95.5 -40t40.5 -95t-40.5 -95t-95.5 -40t-95 40t-40 95zM237 682q0 -27 18.5 -45.5t45.5 -18.5t46 18.5t19 45.5t-19 45.5t-46 18.5t-45.5 -18.5t-18.5 -45.5z" />
<glyph horiz-adv-x="621" d="M580 0h-118v54l5 54q-41 -118 -185 -118q-115 0 -187 76t-72 186q0 111 72 185.5t187 74.5q144 0 186 -124l-6 62v50h119zM121 667q0 33 22 55.5t62 22.5q28 0 50 -9.5t57 -33.5q11 -8 29 -23.5t29.5 -22.5t21.5 -7q12 0 12 17t-13.5 39t-39.5 40l89 -1q43 -26 43 -74 q0 -33 -23.5 -58t-62.5 -25q-45 0 -95 36q-15 11 -37 28.5t-33.5 24.5t-22.5 7t-11 -17t13.5 -39t39.5 -40l-94 1q-36 34 -36 79zM150 252q0 -78 41.5 -127t111.5 -49q76 0 122.5 46.5t46.5 129.5q0 81 -46 128t-123 47q-70 0 -111.5 -49t-41.5 -126z" />
<glyph horiz-adv-x="1061" d="M580 0h-118v54l5 54q-41 -118 -185 -118q-115 0 -187 76t-72 186q0 111 72 185.5t187 74.5q144 0 186 -124l-6 62v50h119v-56q73 68 188 68q114 0 181 -59.5t67 -160.5q0 -26 -7 -66h-386q7 -77 48.5 -117t112.5 -40q98 0 138 93l97 -49q-29 -61 -93.5 -93.5 t-148.5 -32.5q-125 0 -198 70v-57zM150 252q0 -78 41.5 -127t111.5 -49q76 0 122.5 46.5t46.5 129.5q0 81 -46 128t-123 47q-70 0 -111.5 -49t-41.5 -126zM627 299h267q3 13 3 27q0 47 -33 76t-92 29q-55 0 -94.5 -34t-50.5 -98z" />
<glyph horiz-adv-x="405" d="M8 410v91h105v63q0 25 5 50t19.5 52t36 47.5t58 33.5t83.5 13q111 0 182 -90l-88 -66q-8 15 -12 22t-14 20t-23.5 18.5t-31.5 5.5q-96 0 -96 -106v-63h153v-91h-153v-410h-119v410h-105z" />
<glyph horiz-adv-x="681" d="M340 -12q-145 0 -225 99t-80 261t80 261t225 99t225.5 -99t80.5 -261t-80.5 -261t-225.5 -99zM156 348q0 -152 68 -225l155 495q-20 5 -39 5q-84 0 -134 -72t-50 -203zM302 77q16 -4 38 -4q84 0 134.5 72.5t50.5 202.5q0 151 -67 224z" />
<glyph horiz-adv-x="413" d="M206 -7q-88 0 -136.5 60t-48.5 158t48.5 158t136.5 60t137 -60t49 -158t-49 -158t-137 -60zM95 211q0 -79 30 -123t81 -44t81.5 44t30.5 123t-30.5 123t-81.5 44t-81 -44t-30 -123z" />
<glyph horiz-adv-x="228" d="M118 0v341h-92v46q23 -5 47 -3q43 3 43 31v9h74v-424h-72z" />
<glyph horiz-adv-x="334" d="M18 48q16 27 55 59.5t73 57.5t61 62.5t28 76.5q0 37 -18.5 57t-49.5 20t-49 -18.5t-16 -47.5l-72 -8q-4 59 36 92t101 33q67 0 103.5 -34.5t36.5 -92.5q0 -45 -24 -84t-53.5 -61.5t-66 -51t-52.5 -49.5h205v-59h-299z" />
<glyph horiz-adv-x="353" d="M176 -6q-67 0 -109.5 34.5t-43.5 98.5h72q1 -83 81 -83q34 0 57.5 22.5t23.5 63.5t-21 63t-54 22q-22 0 -39 -7l-30 38l117 127h-186v51h273v-46l-122 -123q57 3 95.5 -29.5t38.5 -97.5q0 -61 -45.5 -97.5t-107.5 -36.5z" />
<glyph horiz-adv-x="372" d="M210 0v124h-191v48l200 252h64v-247h70v-54h-70v-123h-73zM96 177h114v148z" />
<glyph horiz-adv-x="364" d="M184 -6q-61 0 -106 37t-45 96h73q1 -40 23 -61.5t55 -21.5q34 0 59 24t25 65q0 44 -24 66.5t-59 22.5q-38 0 -60 -28h-60v230h252v-57h-188v-108q26 14 61 14q62 0 106 -36t44 -104q0 -61 -47.5 -100t-108.5 -39z" />
<glyph horiz-adv-x="332" d="M165 -6q-61 0 -107 38t-46 98q0 37 30 85l130 209h83l-102 -163q13 4 30 4q56 -5 95.5 -42t39.5 -93q0 -61 -45.5 -98.5t-107.5 -37.5zM85 130q0 -41 23 -63t57 -22t57 22t23 63t-23 63t-57 22t-57 -22t-23 -63z" />
<glyph horiz-adv-x="305" d="M19 0l179 367h-175v57h278l-201 -424h-81z" />
<glyph horiz-adv-x="337" d="M168 -1q-62 0 -107.5 36.5t-45.5 94.5q0 74 72 110q-48 29 -48 81q0 49 40 78.5t89 29.5t89.5 -30t40.5 -78q0 -53 -48 -82q72 -34 72 -109q0 -59 -45.5 -95t-108.5 -36zM87 130q0 -40 23.5 -62t57.5 -22q35 0 58.5 22t23.5 62q0 39 -23.5 61t-58.5 22q-34 0 -57.5 -22 t-23.5 -61zM112 321q0 -27 16.5 -43.5t39.5 -16.5q24 0 40.5 16.5t16.5 43.5q0 30 -17 45t-40 15q-22 0 -39 -15t-17 -45z" />
<glyph horiz-adv-x="353" d="M201 177q-16 -7 -33 -7q-58 5 -99 40.5t-41 90.5q0 58 45.5 94.5t107.5 36.5q61 0 107 -36.5t46 -94.5q0 -33 -26 -84t-78 -129.5t-58 -87.5h-82zM101 301q0 -40 22.5 -61t56.5 -21t57.5 21.5t23.5 60.5t-23 60t-57 21t-57 -21t-23 -60z" />
<glyph horiz-adv-x="413" d="M206 388q-88 0 -136.5 60t-48.5 158t48.5 158t136.5 60t137 -60t49 -158t-49 -158t-137 -60zM95 606q0 -79 30 -123t81 -44t81.5 44t30.5 123t-30.5 123t-81.5 44t-81 -44t-30 -123z" />
<glyph horiz-adv-x="228" d="M118 393v341h-92v46q23 -5 47 -3q43 3 43 31v9h74v-424h-72z" />
<glyph horiz-adv-x="334" d="M18 443q16 27 55 59.5t73 57.5t61 62.5t28 76.5q0 37 -18.5 57t-49.5 20t-49 -18.5t-16 -47.5l-72 -8q-4 59 36 92t101 33q67 0 103.5 -34.5t36.5 -92.5q0 -45 -24 -84t-53.5 -61.5t-66 -51t-52.5 -49.5h205v-59h-299z" />
<glyph horiz-adv-x="353" d="M176 389q-67 0 -109.5 34.5t-43.5 98.5h72q1 -83 81 -83q34 0 57.5 22.5t23.5 63.5t-21 63t-54 22q-22 0 -39 -7l-30 38l117 127h-186v51h273v-46l-121 -123q56 3 94.5 -29.5t38.5 -97.5q0 -61 -45.5 -97.5t-107.5 -36.5z" />
<glyph horiz-adv-x="372" d="M210 395v124h-191v48l200 252h64v-247h70v-54h-70v-123h-73zM96 572h114v148z" />
<glyph horiz-adv-x="364" d="M184 389q-61 0 -106 37t-45 96h73q1 -40 23 -61.5t55 -21.5q34 0 59 24t25 65q0 44 -24 66.5t-59 22.5q-38 0 -60 -28h-60v230h252v-57h-188v-108q26 14 61 14q62 0 106 -36t44 -104q0 -61 -47.5 -100t-108.5 -39z" />
<glyph horiz-adv-x="332" d="M165 389q-61 0 -107 38t-46 98q0 37 30 85l130 209h83l-102 -163q13 4 30 4q56 -5 95.5 -42t39.5 -93q0 -61 -45.5 -98.5t-107.5 -37.5zM85 525q0 -41 23 -63t57 -22t57 22t23 63t-23 63t-57 22t-57 -22t-23 -63z" />
<glyph horiz-adv-x="305" d="M19 395l179 367h-175v57h278l-201 -424h-81z" />
<glyph horiz-adv-x="337" d="M168 394q-62 0 -107.5 36.5t-45.5 94.5q0 74 72 110q-48 29 -48 81q0 49 40 78.5t89 29.5t89.5 -30t40.5 -78q0 -53 -48 -82q72 -34 72 -109q0 -59 -45.5 -95t-108.5 -36zM87 525q0 -40 23.5 -62t57.5 -22q35 0 58.5 22t23.5 62q0 39 -23.5 61t-58.5 22q-34 0 -57.5 -22 t-23.5 -61zM112 716q0 -27 16.5 -43.5t39.5 -16.5q24 0 40.5 16.5t16.5 43.5q0 30 -17 45t-40 15q-22 0 -39 -15t-17 -45z" />
<glyph horiz-adv-x="353" d="M201 572q-16 -7 -33 -7q-58 5 -99 40.5t-41 90.5q0 58 45.5 94.5t107.5 36.5q61 0 107 -36.5t46 -94.5q0 -33 -26 -84t-78 -129.5t-58 -87.5h-82zM101 696q0 -40 22.5 -61t56.5 -21t57.5 21.5t23.5 60.5t-23 60t-57 21t-57 -21t-23 -60z" />
<glyph d="M228 214v144h144v-144h-144z" />
<glyph d="M228 266v144h144v-144h-144z" />
</font>
</defs>
</svg>
