<?xml version="1.0" standalone="no"?>
<!DOCTYPE svg PUBLIC "-//W3C//DTD SVG 1.1//EN" "http://www.w3.org/Graphics/SVG/1.1/DTD/svg11.dtd" >
<svg xmlns="http://www.w3.org/2000/svg" xmlns:xlink="http://www.w3.org/1999/xlink" version="1.1">
<metadata></metadata>
<defs>
<font id="panamerabold" horiz-adv-x="1228" >
<font-face units-per-em="2048" ascent="1638" descent="-410" />
<missing-glyph horiz-adv-x="602" />
<glyph unicode="&#xfb01;" horiz-adv-x="1232" d="M-23 797v237h158q-39 61 -39 152q0 44 14 89t46.5 89.5t79 78.5t117.5 55.5t157 21.5q92 0 171 -31t116 -62h317v-270h-346q-82 94 -130 122t-128 28q-56 0 -98.5 -32t-42.5 -95q0 -101 88 -146h657v-1026h-311v789h-336v-789h-311l2 789h-181z" />
<glyph unicode="&#xfb02;" horiz-adv-x="1525" d="M14 788v238h176q-20 11 -38 28t-36 56.5t-18 89.5q0 139 118.5 225t330.5 86q75 0 144 -18t116 -43.5t87 -57.5t60 -55.5t33 -42.5l-266 -112q-1 3 -8.5 18t-13.5 24t-16.5 25t-23 26.5t-29 21.5t-38 16.5t-45.5 5.5q-78 0 -120 -39.5t-42 -108.5q0 -57 47.5 -101 t128.5 -44h262v-238h-319v-788h-311l2 788h-181zM1075 0v1434h311v-1434h-311z" />
<glyph horiz-adv-x="0" />
<glyph horiz-adv-x="682" />
<glyph unicode=" "  horiz-adv-x="602" />
<glyph unicode="&#x09;" horiz-adv-x="602" />
<glyph unicode="&#xa0;" horiz-adv-x="602" />
<glyph unicode="!" horiz-adv-x="634" d="M135 0v303h365v-303h-365zM135 1182v313h365l-2 -313l-41 -776h-279z" />
<glyph unicode="&#x22;" horiz-adv-x="1318" d="M258 1548h365l-25 -581h-315zM696 1548h365l-25 -581h-315z" />
<glyph unicode="#" horiz-adv-x="1685" d="M43 346v246h284l106 317h-267v246h350l129 385h320l-130 -385h304l129 385h319l-128 -385h220v-246h-303l-106 -317h266v-246h-348l-117 -350h-321l117 350h-303l-118 -350h-319l117 350h-201zM646 592h304l106 317h-303z" />
<glyph unicode="$" horiz-adv-x="1171" d="M25 399l256 129q44 -124 98.5 -191.5t144.5 -93.5v429q-96 36 -161.5 71.5t-117 82t-76 106t-24.5 135.5q0 152 104 250.5t275 125.5v204h104v-195h19q26 0 39 -1v196h103v-209q145 -30 243 -115t111 -209l-289 -74q-12 104 -65 147v-356q64 -24 113 -46t108 -59t98 -77 t65.5 -97t26.5 -122q0 -176 -106 -291.5t-305 -145.5v-200h-103v191h-29h-29v-191h-104v200q-198 28 -323 137.5t-176 268.5zM453 1067q0 -73 71 -122v249q-71 -45 -71 -127zM628 228q5 0 14.5 -0.5t14.5 -0.5t15 0.5t14 0.5v387q-18 7 -58 21v-408zM628 892q7 -3 26.5 -11 t31.5 -12v356q-24 2 -39 2q-3 0 -9.5 -0.5t-9.5 -0.5v-334zM789 246q106 40 106 164q0 100 -106 159v-323z" />
<glyph unicode="%" horiz-adv-x="1730" d="M20 1038q0 126 43.5 225t132.5 158.5t210 59.5q181 0 286 -125.5t105 -317.5q0 -190 -105 -314t-286 -124q-182 0 -284 123.5t-102 314.5zM260 -78l983 1559h340l-985 -1559h-338zM303 1038q0 -105 30.5 -161t72.5 -56q45 0 76.5 55.5t31.5 161.5q0 110 -30.5 164.5 t-77.5 54.5q-43 0 -73 -55t-30 -164zM1071 410q0 191 103.5 316.5t283.5 125.5q121 0 210 -59.5t133 -158.5t44 -224q0 -192 -103 -317.5t-284 -125.5q-180 0 -283.5 126t-103.5 317zM1354 410q0 -110 30 -165t74 -55t74.5 55.5t30.5 164.5q0 108 -30.5 163.5t-74.5 55.5 t-74 -55.5t-30 -163.5z" />
<glyph unicode="&#x26;" horiz-adv-x="1822" d="M14 453q0 86 29 157t82.5 122.5t114.5 88.5t141 69q-82 140 -82 275q0 109 67 195t179 131t246 45q192 0 322 -108.5t130 -251.5q0 -51 -13.5 -96t-35.5 -79t-57.5 -65t-70.5 -52.5t-85 -43.5t-90.5 -36.5t-96.5 -32.5q129 -196 283 -362q71 186 68 496h338 q6 -430 -195 -694q106 -80 168 -80q30 0 49.5 18t19.5 50q0 80 -120 188l229 158q172 -189 172 -357q0 -124 -95 -200t-255 -76q-152 0 -346 130q-194 -130 -434 -130q-140 0 -265 45t-211 120t-136 173t-50 203zM334 453q0 -143 96.5 -232.5t245.5 -89.5q143 0 240 64 q-233 211 -408 475q-84 -40 -129 -91.5t-45 -125.5zM618 1165q0 -63 52 -177q15 5 47 15t47 15.5t41.5 15t39.5 16.5t33 17.5t29.5 21t20 24t14.5 29.5t4 34q0 141 -155 141q-70 0 -121.5 -38t-51.5 -114z" />
<glyph unicode="'" horiz-adv-x="880" d="M258 1548h365l-25 -581h-315z" />
<glyph unicode="(" horiz-adv-x="763" d="M119 637q7 505 338 932h305q-47 -56 -93.5 -137.5t-93 -198t-76.5 -273.5t-32 -327q2 -161 30.5 -310t75 -265.5t91.5 -199t96 -153.5h-305q-51 75 -86.5 132t-86 155t-82 188.5t-55.5 212t-26 244.5z" />
<glyph unicode=")" horiz-adv-x="763" d="M2 1569h305q331 -427 338 -932q-2 -123 -26 -244.5t-55.5 -212t-82 -188.5t-86 -155t-86.5 -132h-305q51 71 96 153.5t91.5 199t75 265.5t30.5 310q-2 170 -32 327t-76.5 273.5t-93 198t-93.5 137.5z" />
<glyph unicode="*" d="M287 1087l180 59l-180 58l22 76l180 -58l-112 152l63 45l115 -156v193h74v-192l112 155l64 -45l-113 -155l182 59l23 -72l-180 -58l180 -58l-23 -76l-179 58l112 -152l-64 -46l-114 157v-193h-74v192l-113 -156l-63 46l113 155l-183 -59z" />
<glyph unicode="+" d="M74 379v237h391v388h299v-388h389v-237h-389v-385h-299v385h-391z" />
<glyph unicode="," horiz-adv-x="778" d="M135 0v303h365v-303q0 -28 -7 -63t-29 -82.5t-56 -87t-96 -72t-142 -41.5v151q56 21 74 71t18 124h-127z" />
<glyph unicode="-" horiz-adv-x="1058" d="M59 414v237h940v-237h-940z" />
<glyph unicode="." horiz-adv-x="606" d="M94 0v303h365v-303h-365z" />
<glyph unicode="/" horiz-adv-x="845" d="M76 -240l510 1719h245l-509 -1719h-246z" />
<glyph unicode="0" horiz-adv-x="1421" d="M72 713q0 216 71.5 380.5t217 260.5t348.5 96q204 0 350.5 -96t218.5 -261t72 -380t-72 -380t-218.5 -261.5t-350.5 -96.5q-203 0 -348.5 96.5t-217 261t-71.5 380.5zM389 713q0 -244 88 -377t232 -133q145 0 234 133t89 377t-89 377t-234 133q-144 0 -232 -133t-88 -377 z" />
<glyph unicode="1" horiz-adv-x="772" d="M59 1100v205q77 -17 133 -17q152 0 164 109v37h316v-1434h-316v1100h-297z" />
<glyph unicode="2" horiz-adv-x="1140" d="M45 0l2 205q24 44 76.5 92.5t115 93t133 94t135 104.5t118 114.5t85.5 134.5t33 155q1 118 -47 181t-127 63q-93 0 -131 -42.5t-35 -123.5l-313 -29q-4 24 -4 55q0 155 133.5 259t349.5 104q119 0 213 -34.5t153.5 -95.5t90.5 -142t31 -178q0 -92 -26.5 -174t-71 -144.5 t-99 -116.5t-115.5 -98.5t-114.5 -81.5t-101.5 -74.5t-72 -68.5h639v-252h-1051z" />
<glyph unicode="3" horiz-adv-x="1234" d="M82 469h314q-4 -146 52 -207t171 -61q95 0 158 64.5t63 185.5q0 120 -55.5 182.5t-145.5 62.5q-31 0 -54 -5t-83 -23l-133 159l358 385h-575v222h977v-201l-344 -352q161 -31 264.5 -144t103.5 -286q0 -104 -45 -194t-120 -149.5t-171 -93.5t-198 -34q-155 0 -276 53.5 t-193.5 166t-67.5 269.5z" />
<glyph unicode="4" horiz-adv-x="1290" d="M61 383l2 211l660 840h274v-818h226v-235h-226v-381h-315v382zM397 616h285v375z" />
<glyph unicode="5" d="M90 469h311q-6 -130 58.5 -199t163.5 -69q95 0 163 69t68 189q0 132 -65.5 196t-165.5 64q-101 0 -156 -88h-256v803h883v-254h-609v-265q71 29 160 29q80 0 154 -17t141.5 -55t117.5 -93.5t79.5 -137.5t29.5 -182q0 -104 -47 -195t-123 -152t-174 -96.5t-200 -35.5 q-105 0 -203 35t-173.5 97.5t-118.5 155.5t-38 201z" />
<glyph unicode="6" horiz-adv-x="1120" d="M23 451q0 111 43 190q65 122 146.5 253.5t186.5 292.5t158 247h361l-320 -514q130 -9 242 -68t183 -165t71 -236q0 -104 -45.5 -194t-120 -149.5t-171 -93.5t-198.5 -34t-198.5 34t-171.5 94t-120.5 149.5t-45.5 193.5zM338 451q0 -121 62 -184.5t157 -63.5t158 64 t63 184q0 121 -62 184t-157 63t-158 -63.5t-63 -183.5z" />
<glyph unicode="7" horiz-adv-x="1032" d="M29 0l573 1180h-545v254h1002l-5 -7l-673 -1427h-352z" />
<glyph unicode="8" horiz-adv-x="1163" d="M41 452q0 113 55.5 205t150.5 154q-125 107 -125 259q0 87 42 161t109 121t147.5 73t160.5 26q64 0 129 -16.5t124.5 -49t106 -77.5t74 -107.5t27.5 -132.5q0 -152 -125 -259q95 -63 150.5 -155t55.5 -204q0 -134 -78 -240.5t-200.5 -161.5t-261.5 -55t-262 55.5 t-201.5 162.5t-78.5 241zM357 450q0 -118 63.5 -180t160.5 -62t161 62.5t64 181.5q0 117 -63 178.5t-160 61.5t-161.5 -62.5t-64.5 -179.5zM439 1068q0 -75 41 -119t101 -44q61 0 102.5 44t41.5 121q0 86 -42 125.5t-100 39.5t-101 -40.5t-43 -126.5z" />
<glyph unicode="9" d="M100 1006q0 100 45.5 186t120 143.5t171 90t198.5 32.5t198.5 -33t171.5 -91t120.5 -144t45.5 -186q0 -82 -24 -142q-56 -137 -142 -281t-199.5 -314.5t-170.5 -266.5h-361l342 551q-100 3 -192.5 37t-164.5 92t-115.5 143t-43.5 183zM416 1004q0 -116 62 -177t157 -61 t158 62t63 178q0 115 -62 176t-157 61t-158 -61.5t-63 -177.5z" />
<glyph unicode=":" horiz-adv-x="552" d="M93 -2v305h367v-305h-367zM94 815v303h365v-303h-365z" />
<glyph unicode=";" horiz-adv-x="788" d="M145 4v303h365v-303q0 -28 -7 -63t-29 -82.5t-56 -87t-96 -72t-142 -41.5v152q30 11 49.5 31.5t28 49t11.5 53.5t3 60h-127zM145 791v303h365v-303h-365z" />
<glyph unicode="&#x3c;" d="M10 670l1166 639v-308l-656 -331l656 -332v-309z" />
<glyph unicode="=" d="M43 233v240h1137v-240h-1137zM43 612v240h1137v-240h-1137z" />
<glyph unicode="&#x3e;" d="M57 29v309l656 332l-656 331v308l1166 -639z" />
<glyph unicode="?" horiz-adv-x="1026" d="M80 1171q24 89 97.5 159t174.5 107.5t209 37.5q107 0 194.5 -30t141 -79t82.5 -109t29 -124q0 -54 -22.5 -100t-55 -76t-81.5 -58t-87.5 -43t-88 -33.5t-69.5 -27.5q-37 -16 -60.5 -47t-23.5 -70q0 -80 51 -80q20 0 36.5 20t16.5 60q0 20 -6 49l285 -90 q-38 -122 -126.5 -187t-215.5 -65q-87 0 -166 33t-132.5 101.5t-53.5 158.5q0 38 12 73t28.5 61t45.5 52t51.5 42t58 35t53 27t48.5 21q25 10 59 23t51.5 20t39.5 16.5t32.5 17t21 17t14.5 20.5t4 25q0 58 -45 92.5t-122 34.5q-103 0 -160.5 -76.5t-60.5 -199.5zM381 0v303 h364v-303h-364z" />
<glyph unicode="@" horiz-adv-x="1982" d="M37 477q0 151 43.5 292.5t127.5 259.5t198.5 206t265 137t319.5 49t319.5 -49t265.5 -137t199 -206t127.5 -259.5t43.5 -292.5q0 -105 -27.5 -196t-80 -161t-136.5 -110.5t-191 -40.5q-94 0 -168 35t-121 94q-121 -129 -333 -129q-197 0 -311.5 91.5t-114.5 232.5 q0 122 111 207t350 110q109 12 166 50.5t51 84.5q-29 84 -135 84q-33 0 -59 -15.5t-37.5 -37.5t-20 -46.5t-7.5 -41.5t1 -22l-328 2q-9 32 -9 62q0 84 62.5 157.5t169 117.5t228.5 44q88 0 159.5 -16t119 -41t83 -62t54.5 -73.5t30.5 -82.5t14.5 -80.5t3 -75.5v-337 q0 -39 13 -55.5t43 -16.5q9 0 18.5 7t20.5 26t19.5 47.5t14 77.5t5.5 110q0 308 -169.5 501t-443.5 193q-273 0 -442.5 -193t-169.5 -501q0 -303 169 -492.5t443 -189.5q144 0 247.5 36.5t191.5 127.5l210 -201q-111 -104 -280.5 -159.5t-368.5 -55.5q-210 0 -390 75.5 t-302.5 203t-192 298t-69.5 357.5zM788 301q0 -58 30.5 -98.5t99.5 -40.5q49 0 91 18t77 55.5t54 102.5t16 151q-95 -41 -210 -53q-158 -19 -158 -135z" />
<glyph unicode="A" horiz-adv-x="1665" d="M82 0l582 1434h337l582 -1434h-332l-148 362h-541l-148 -362h-332zM655 590h354l-177 432z" />
<glyph unicode="B" horiz-adv-x="1290" d="M102 0v1434h430q72 0 137.5 -11t126.5 -37.5t105.5 -66t71 -100.5t26.5 -138q0 -129 -88 -223q318 -90 318 -397q0 -147 -78.5 -253t-208.5 -157t-297 -51h-543zM416 236h193q304 0 304 225q0 137 -76.5 198.5t-233.5 61.5l-187 -1v-484zM416 897h110q85 0 133 37t48 106 q0 158 -175 158h-116v-301z" />
<glyph unicode="C" horiz-adv-x="1525" d="M102 713q0 145 54 278t149.5 233.5t236.5 160t306 59.5q210 0 379.5 -91t257.5 -237l-277 -139q-123 231 -360 231q-177 0 -293.5 -138t-116.5 -357q0 -216 115.5 -352t294.5 -136q232 0 354 219l279 -135q-86 -142 -255 -230.5t-378 -88.5q-163 0 -304 59t-237 158 t-150.5 230.5t-54.5 275.5z" />
<glyph unicode="D" horiz-adv-x="1413" d="M102 0v1434h430q134 0 252.5 -25t221.5 -80.5t176.5 -138t116 -202.5t42.5 -269q0 -182 -57.5 -321t-162 -225t-245 -129.5t-313.5 -43.5h-461zM417 236h146q234 0 343.5 110.5t109.5 372.5q0 133 -34 227t-100 148.5t-151.5 79t-198.5 24.5h-114z" />
<glyph unicode="E" horiz-adv-x="1370" d="M102 0v1434h1166v-254h-850v-320h829v-254h-829v-352h870v-254h-1186z" />
<glyph unicode="F" horiz-adv-x="1370" d="M123 0v1434h1165v-254h-850v-320h830v-254h-830v-606h-315z" />
<glyph unicode="G" horiz-adv-x="1650" d="M102 713q0 145 55 278t151 233.5t238 160t306 59.5q211 0 377 -90.5t254 -237.5l-277 -139q-64 120 -150.5 175.5t-203.5 55.5q-177 0 -296.5 -138.5t-119.5 -356.5q0 -223 110.5 -355.5t305.5 -132.5q77 0 139 20.5t103 55t68 83.5t39 102t13 114v6h-436v236h750v-842 h-295v334q0 -141 -106.5 -242.5t-284.5 -101.5q-174 0 -316.5 58.5t-234 159t-140.5 230t-49 275.5z" />
<glyph unicode="H" horiz-adv-x="1501" d="M102 0v1434h316v-555h665v555h316v-1434h-316v623h-665v-623h-316z" />
<glyph unicode="I" horiz-adv-x="602" d="M143 0v1434h316v-1434h-316z" />
<glyph unicode="J" horiz-adv-x="1263" d="M49 246l260 180q2 -6 6 -17q14 -39 21 -57.5t21.5 -47t29.5 -42.5t38 -29.5t53.5 -21.5t70.5 -6q100 0 164.5 70.5t68.5 213.5v945h316l2 -908v-18q0 -163 -70 -282q-73 -127 -197.5 -189t-283.5 -62q-199 0 -325.5 78t-174.5 193z" />
<glyph unicode="K" horiz-adv-x="1390" d="M102 0v1434h316v-547l502 547h362l-516 -564l573 -870h-354l-424 643l-143 -156v-487h-316z" />
<glyph unicode="L" horiz-adv-x="1259" d="M102 0v1434h314v-1180h782v-254h-1096z" />
<glyph unicode="M" horiz-adv-x="1912" d="M102 0v1434h353l43 2l458 -1065l459 1065l43 -2h352v-1434h-315v838l-371 -838h-336l-370 834v-834h-316z" />
<glyph unicode="N" horiz-adv-x="1390" d="M102 0v1434h316l555 -877v877h315v-1434h-311l-559 893v-893h-316z" />
<glyph unicode="O" horiz-adv-x="1695" d="M102 713q0 145 54 278t149.5 233.5t236.5 160t306 59.5t306 -59.5t236.5 -160t149 -233.5t53.5 -278q0 -144 -53.5 -275.5t-149 -230.5t-236.5 -158t-306 -59q-164 0 -305 59t-237 158t-150 230.5t-54 275.5zM418 713q0 -218 119 -353t311 -135t311 135t119 353 q0 221 -119 358t-311 137q-191 0 -310.5 -137t-119.5 -358z" />
<glyph unicode="P" horiz-adv-x="1064" d="M102 0v1434h457q67 0 132.5 -13.5t129.5 -45t112.5 -77.5t78.5 -117.5t30 -158.5q0 -89 -29 -160.5t-77 -118t-113 -78t-133.5 -44.5t-142.5 -13h-129v-608h-316zM418 838h129q93 0 147 44.5t54 139.5q0 176 -195 176h-135v-360z" />
<glyph unicode="Q" horiz-adv-x="1712" d="M102 713q0 145 53.5 278t147 233.5t230.5 160t294 59.5t294 -59.5t230.5 -160t147 -233.5t53.5 -278q0 -251 -147 -443l293 -270h-395l-99 90q-168 -100 -377 -100q-156 0 -293 59t-230.5 158t-147.5 231t-54 275zM418 713q0 -217 115.5 -352.5t293.5 -135.5 q100 0 185 45l-406 379h385l197 -180q49 111 49 244q0 219 -116 357t-294 138q-177 0 -293 -138t-116 -357z" />
<glyph unicode="R" horiz-adv-x="1396" d="M102 0v1434h492q78 0 150 -13.5t138.5 -43.5t115 -75t77.5 -112t29 -150q0 -213 -186 -318l458 -722h-354l-410 647h-18h-176v-647h-316zM418 883h176q98 0 146 36.5t48 120.5t-48 121t-146 37h-176v-315z" />
<glyph unicode="S" horiz-adv-x="1253" d="M25 399l256 129q39 -107 80.5 -168.5t114 -97t181.5 -35.5q116 0 177 43t61 140q0 28 -8 52t-19.5 42t-35 36t-43 29.5t-56 26.5t-61.5 24t-72 25q-93 32 -158.5 60t-125 65t-95 78.5t-56 96.5t-20.5 122q0 179 141.5 282t360.5 103q123 0 230.5 -39t181 -117t84.5 -182 l-289 -74q-11 98 -59.5 142.5t-147.5 44.5q-84 0 -139 -44.5t-55 -115.5q0 -66 54.5 -109.5t184.5 -91.5q13 -5 41 -15q37 -14 57.5 -21.5t60 -23.5t64 -28.5t61 -31.5t60 -37t52 -41.5t46.5 -49t34.5 -55t24 -63t7.5 -70.5q0 -204 -141 -325t-402 -121q-132 0 -240.5 32.5 t-184.5 90.5t-127 131t-80 161z" />
<glyph unicode="T" horiz-adv-x="1468" d="M51 1180v254h1366v-254h-524v-1180h-315v1180h-527z" />
<glyph unicode="U" horiz-adv-x="1273" d="M68 467l2 967h313v-967q0 -140 66 -201t188 -61t188 61t66 201v967h313l2 -967q0 -158 -75.5 -271t-202 -167t-291.5 -54t-291.5 54t-202 167t-75.5 271z" />
<glyph unicode="V" horiz-adv-x="1288" d="M-12 1434h313l342 -1003l344 1003h313l-491 -1434h-332z" />
<glyph unicode="W" horiz-adv-x="1642" d="M-6 1434h315l170 -816l199 787l-2 8h282l-1 -4l200 -797l176 822h316l-328 -1434h-305l-199 826l-199 -826h-305z" />
<glyph unicode="X" horiz-adv-x="1542" d="M-10 0l602 767l-512 667h364l342 -442l349 442h372l-538 -680l583 -754h-370l-406 528l-416 -528h-370z" />
<glyph unicode="Y" horiz-adv-x="1439" d="M41 1434h324l355 -572l355 572h324l-522 -806v-628h-316v629z" />
<glyph unicode="Z" horiz-adv-x="1259" d="M47 0v256h17l754 924h-726v254h1120v-254l-771 -924h763v-256h-1157z" />
<glyph unicode="[" horiz-adv-x="1024" d="M258 -303v1964h610v-262h-280v-1440h280v-262h-610z" />
<glyph unicode="\" d="M193 1479h245l510 -1719h-246z" />
<glyph unicode="]" horiz-adv-x="1024" d="M258 -41h281v1440h-281v262h610v-1964h-610v262z" />
<glyph unicode="^" d="M121 477l502 986l501 -986h-293l-208 419l-209 -419h-293z" />
<glyph unicode="_" d="M-16 -121h1249v-258h-1249v258z" />
<glyph unicode="`" d="M281 1356l157 262l436 -408l-241 -73z" />
<glyph unicode="a" horiz-adv-x="1163" d="M61 293q0 132 107.5 212.5t349.5 102.5q113 11 169.5 36.5t56.5 80.5q0 109 -128 109q-41 0 -72 -11t-48 -27t-27 -37t-13 -37t-3 -31t1 -17h-302q-9 30 -9 60q0 126 134.5 217t320.5 91q88 0 159 -15.5t118.5 -40.5t82.5 -62t54.5 -73t31 -81t14.5 -79.5t3 -74.5v-616 h-313v118q-96 -145 -297 -145q-191 0 -290.5 89.5t-99.5 230.5zM365 303q0 -55 38.5 -96t108.5 -41q47 0 87.5 17t74.5 51.5t54 95t20 139.5v20q-90 -39 -209 -53q-78 -10 -126 -42.5t-48 -90.5z" />
<glyph unicode="b" horiz-adv-x="1306" d="M72 1419h313v-462q128 92 320 92q119 0 221 -42.5t171.5 -115t108.5 -169.5t39 -206q0 -145 -65.5 -266t-190.5 -194.5t-284 -73.5q-194 0 -320 87v-69h-311zM365 516q0 -149 80 -228t219 -79q126 0 197 83.5t71 223.5q0 139 -71 223t-197 84q-139 0 -219 -79.5 t-80 -227.5z" />
<glyph unicode="c" horiz-adv-x="1226" d="M61 502q0 126 45 229.5t124 172.5t187 106t234 37q196 0 329 -81.5t177 -217.5l-272 -128q0 94 -70.5 152.5t-163.5 58.5q-128 0 -211.5 -86.5t-83.5 -242.5q0 -139 74 -224t209 -85q121 0 183.5 55.5t93.5 166.5l274 -109q-139 -331 -551 -331q-114 0 -217.5 35 t-184 99.5t-128.5 166.5t-48 226z" />
<glyph unicode="d" horiz-adv-x="1306" d="M61 516q0 146 66.5 267t191 193.5t283.5 72.5h2q190 0 318 -92v462h313l-2 -1419h-311v69q-124 -87 -318 -87h-2q-159 0 -284 73.5t-191 194.5t-66 266zM375 516q0 -152 81 -235q70 -72 187 -72q139 0 219 79t80 228q0 146 -80 228q-78 79 -219 79q-126 0 -197 -84 t-71 -223z" />
<glyph unicode="e" horiz-adv-x="1175" d="M63 522q0 240 149 382.5t390 142.5t380.5 -121.5t139.5 -330.5q0 -73 -18 -154h-738q14 -119 80 -182.5t197 -63.5q178 0 240 186l252 -120q-52 -137 -192.5 -211t-319.5 -74q-255 0 -407.5 141t-152.5 405zM374 630h433q3 19 3 38q0 76 -53 119.5t-147 43.5 q-78 0 -144 -51.5t-92 -149.5z" />
<glyph unicode="f" horiz-adv-x="813" d="M14 788v238h176q-20 11 -38 28t-36 56.5t-18 89.5q0 139 118.5 225t330.5 86q75 0 144 -18t116 -43.5t87 -57.5t60 -55.5t33 -42.5l-266 -112q-1 3 -8.5 18t-13.5 24t-16.5 25t-23 26.5t-29 21.5t-38 16.5t-45.5 5.5q-78 0 -120 -39.5t-42 -108.5q0 -57 47.5 -101 t128.5 -44h262v-238h-319v-788h-311l2 788h-181z" />
<glyph unicode="g" horiz-adv-x="1337" d="M61 508q0 145 66 266t191 194.5t284 73.5q194 0 320 -113v95h311l2 -1008q0 -253 -162 -400.5t-424 -147.5q-122 0 -222 31t-164.5 83t-104 113t-54.5 129l297 57q33 -94 86 -140t162 -46q127 0 200 83t73 238v72q-126 -113 -320 -113q-159 0 -283.5 72.5t-191 193.5 t-66.5 267zM375 508q0 -139 71 -223t197 -84q139 0 219 79.5t80 227.5q0 149 -80 228t-219 79q-126 0 -197 -83.5t-71 -223.5z" />
<glyph unicode="h" horiz-adv-x="1269" d="M92 0v1434h311v-518q108 122 296 122q110 0 194.5 -26.5t135 -69t83 -101.5t44 -116.5t11.5 -122.5v-602h-318v602q0 108 -39.5 161.5t-133.5 53.5q-50 0 -97 -18.5t-87 -56t-64.5 -102.5t-24.5 -150v-490h-311z" />
<glyph unicode="i" horiz-adv-x="516" d="M102 0v1024h312v-1024h-312zM102 1182v252h312v-252h-312z" />
<glyph unicode="j" horiz-adv-x="507" d="M-434 -319l227 171q11 -47 60.5 -96t115.5 -49q62 0 90.5 36t28.5 130v1151h311v-1151q0 -405 -430 -405q-54 0 -103 9.5t-83.5 22t-69.5 35.5t-53.5 38t-42.5 42.5t-30 35.5t-21 30zM88 1180v254h311v-254h-311z" />
<glyph unicode="k" horiz-adv-x="1148" d="M92 0v1434h311v-698l271 288h366l-342 -354l441 -670h-348l-301 455l-87 -89v-366h-311z" />
<glyph unicode="l" horiz-adv-x="589" d="M139 0v1434h312v-1434h-312z" />
<glyph unicode="m" horiz-adv-x="2035" d="M92 0v1024h311v-108q108 122 296 122q292 0 404 -182q121 186 353 186q112 0 198 -27t138 -70t84.5 -102.5t44.5 -117.5t12 -123v-602h-323v602q0 108 -41 163.5t-136 55.5q-92 0 -167 -58.5t-99 -175.5v-587h-318v602q0 108 -39.5 161.5t-133.5 53.5q-50 0 -97 -18.5 t-87 -56t-64.5 -102.5t-24.5 -150v-490h-311z" />
<glyph unicode="n" horiz-adv-x="1269" d="M92 0v1024h311v-108q108 122 296 122q110 0 194.5 -26.5t135 -69t83 -101.5t44 -116.5t11.5 -122.5v-602h-318v602q0 108 -39.5 161.5t-133.5 53.5q-50 0 -97 -18.5t-87 -56t-64.5 -102.5t-24.5 -150v-490h-311z" />
<glyph unicode="o" horiz-adv-x="1196" d="M66 506q0 144 68.5 266.5t196 197t287.5 74.5q120 0 224.5 -44t176 -117.5t112 -171.5t40.5 -205q0 -106 -40.5 -203t-112 -169.5t-176 -115.5t-224.5 -43t-224.5 43t-175.5 115.5t-111.5 169.5t-40.5 203zM357 506q0 -154 72.5 -235t188.5 -81t189 81t73 235 q0 155 -73 236t-189 81t-188.5 -81t-72.5 -236z" />
<glyph unicode="p" horiz-adv-x="1306" d="M72 -410l2 1434h311v-135q30 65 122 106t198 41q159 0 284 -73.5t190.5 -194.5t65.5 -266q0 -109 -39 -206t-108.5 -169.5t-171.5 -115t-221 -42.5q-106 0 -190 32.5t-130 95.5v-507h-313zM365 502q0 -148 80 -227.5t219 -79.5q126 0 197 84t71 223q0 140 -71 223.5 t-197 83.5q-139 0 -219 -79t-80 -228z" />
<glyph unicode="q" horiz-adv-x="1306" d="M61 502q0 145 66 266t191 194.5t284 73.5q106 0 198 -41t122 -106v135h311l2 -1434h-313v507q-46 -63 -130 -95.5t-190 -32.5q-159 0 -283.5 72.5t-191 193.5t-66.5 267zM375 502q0 -139 71 -223t197 -84q139 0 219 79.5t80 227.5q0 149 -80 228t-219 79 q-126 0 -197 -83.5t-71 -223.5z" />
<glyph unicode="r" horiz-adv-x="1048" d="M92 0v1024h311v-138q95 158 269 158q162 0 259 -103t97 -241q0 -12 -2 -34h-307q1 12 1 23q0 57 -30 89q-36 39 -102 39q-88 0 -134.5 -67.5t-50.5 -219.5v-530h-311z" />
<glyph unicode="s" horiz-adv-x="970" d="M31 274l235 164q0 -40 11.5 -80.5t35 -79.5t67 -63.5t101.5 -24.5q66 0 111 34t45 93q0 21 -10 38t-23 28.5t-44.5 25t-54.5 21t-73 23.5q-73 21 -126 43.5t-105 58t-79.5 87t-27.5 116.5q0 121 113.5 205t269.5 84q142 0 247.5 -60.5t131.5 -165.5l-264 -84 q-2 43 -27.5 75t-87.5 32q-47 0 -77.5 -22t-30.5 -64q0 -38 37 -65t112 -50q149 -44 217 -79q184 -96 185 -251q0 -158 -112.5 -248t-326.5 -90q-159 0 -288 84.5t-162 214.5z" />
<glyph unicode="t" horiz-adv-x="1005" d="M31 795v237h178v393h311v-393h299v-237h-299v-459q0 -67 26 -102t70 -35q17 0 32.5 7t25.5 15.5t23.5 28t19.5 30.5t20.5 39.5t20.5 38.5l237 -137q-23 -46 -54 -84.5t-76 -74.5t-109.5 -57t-139.5 -21q-90 0 -160.5 19t-116.5 51t-75.5 77t-42 94.5t-12.5 106.5v463 h-178z" />
<glyph unicode="u" horiz-adv-x="1230" d="M92 422v602h311v-602q0 -107 39 -161t131 -54q237 0 244 310v507h311v-1024h-311v104q-92 -118 -266 -118q-108 0 -190.5 26.5t-132.5 69t-81.5 101.5t-43 116.5t-11.5 122.5z" />
<glyph unicode="v" horiz-adv-x="1212" d="M31 1024h309l267 -678l265 678h310l-412 -1024h-328z" />
<glyph unicode="w" horiz-adv-x="1593" d="M45 1024h311l152 -550l151 550h275l151 -550l152 550h311l-292 -1024h-343l-116 539l-117 -539h-343z" />
<glyph unicode="x" d="M-2 0l418 532l-379 492h362l208 -268l210 268h369l-396 -504l402 -520h-367l-226 295l-232 -295h-369z" />
<glyph unicode="y" horiz-adv-x="1183" d="M31 1024h342l249 -519l212 519h319l-584 -1434h-321l222 544z" />
<glyph unicode="z" horiz-adv-x="1067" d="M41 0v215l560 573h-529v236h917v-215l-560 -573h597v-236h-985z" />
<glyph unicode="{" horiz-adv-x="1048" d="M262 500v264q19 1 50 0t38 -1q48 0 74 9.5t37 40.5q7 19 -20 87.5t-59 169.5t-32 185q0 173 85.5 268t237.5 95q53 0 113 -12v-220q-38 11 -58 11q-14 0 -24 -3.5t-16.5 -13.5t-10 -19.5t-5 -29t-2 -34t-0.5 -42.5q0 -75 33 -213t33 -201q0 -55 -17 -102 q-23 -62 -79 -106q55 -44 79 -107q17 -47 17 -101q0 -62 -33 -201.5t-33 -215.5q0 -27 0.5 -41.5t2 -34t5 -28.5t10 -19t16.5 -13.5t24 -3.5q20 0 58 11v-219q-62 -12 -114 -12q-152 0 -237 94t-85 266q0 66 19.5 144t42 133t38 102.5t9.5 63.5q-11 31 -37 40t-79 9h-81z " />
<glyph unicode="|" horiz-adv-x="643" d="M158 -303v1964h329v-1964h-329z" />
<glyph unicode="}" horiz-adv-x="1048" d="M295 -121q38 -11 58 -11q39 0 49 31t10 109q0 76 -33 215.5t-33 201.5q0 57 16 101q24 63 79 107q-56 44 -79 106q-16 44 -16 102q0 63 33 201t33 213q0 28 -0.5 42.5t-2 34t-5 29t-10 19.5t-17 13.5t-24.5 3.5q-20 0 -58 -11v220q60 12 113 12q152 0 237.5 -95 t85.5 -268q0 -84 -32 -185t-58.5 -169.5t-19.5 -87.5q11 -31 37 -40.5t74 -9.5q7 0 37.5 1t49.5 0v-264h-27.5h-30h-22.5q-53 0 -79 -9t-37 -40q-6 -16 9.5 -63.5t37.5 -102.5t41.5 -133t19.5 -144q0 -172 -85 -266t-237 -94q-53 0 -114 12v219z" />
<glyph unicode="~" d="M51 575q0 36 7.5 70t29.5 70.5t55.5 63t91.5 44t132 17.5q135 0 270 -97q18 -13 52 -39.5t52 -39.5t44.5 -25t48.5 -12q30 0 47.5 24t17.5 64q0 37 -16 78h266q17 -38 17 -97q0 -36 -7.5 -70t-29.5 -70.5t-55.5 -63t-91.5 -43.5t-132 -17q-135 0 -268 96 q-20 14 -50.5 39.5t-49 39.5t-45.5 26t-54 12q-30 0 -48.5 -29t-18.5 -69q0 -37 16 -68h-264q-17 34 -17 96z" />
<glyph unicode="&#xa1;" horiz-adv-x="634" d="M135 -74l43 776h279l41 -776l2 -313h-365v313zM135 805v303h365v-303h-365z" />
<glyph unicode="&#xa2;" horiz-adv-x="1124" d="M61 700q0 240 152 385.5t393 158.5v190h90v-190q178 -10 299 -90t162 -208l-272 -127q0 82 -54.5 137.5t-134.5 69.5v-631q92 13 142.5 67.5t77.5 151.5l274 -109q-129 -308 -494 -329v-176h-90v175q-110 5 -207 42t-173 101t-120.5 163t-44.5 219zM356 700 q0 -130 65 -213t185 -94v634q-111 -15 -180.5 -100.5t-69.5 -226.5z" />
<glyph unicode="&#xa3;" horiz-adv-x="1189" d="M113 0v256h51q56 1 85.5 19.5t43.5 69t14 149.5v143h-162v240h162v192q0 29 4 60.5t16 73t31 79t52.5 74.5t77.5 64t109 44t144 17q74 0 139 -16t105.5 -36.5t78 -52.5t52.5 -50.5t33 -43.5l-248 -170q-22 77 -55.5 115.5t-104.5 38.5q-120 0 -120 -197v-192h221v-240 h-221v-143q0 -137 -54 -238h598v-256h-1052z" />
<glyph unicode="&#xa4;" d="M89 333l127 123q-68 116 -68 254q0 141 74 261l-133 130l149 153l133 -131q123 80 271 80q144 0 263 -75l131 126l148 -153l-127 -123q78 -120 78 -268q0 -142 -72 -259l121 -118l-149 -153l-120 118q-123 -82 -273 -82q-157 0 -281 84l-124 -120zM350 710 q0 -122 82 -207t210 -85q120 0 205.5 86t85.5 206t-85.5 205.5t-205.5 85.5t-206 -85.5t-86 -205.5z" />
<glyph unicode="&#xa5;" horiz-adv-x="1439" d="M41 1434h324l355 -572l355 572h324l-438 -676h173v-180h-257v-104h257v-180h-257v-294h-316v294h-279v180h279v104h-279v180h195z" />
<glyph unicode="&#xa6;" horiz-adv-x="643" d="M158 -298v790h329v-790h-329zM158 876v789h329v-789h-329z" />
<glyph unicode="&#xa7;" horiz-adv-x="1171" d="M-16 -49l292 147q26 -171 101.5 -252.5t238.5 -81.5q238 0 238 218q0 36 -14.5 65t-38.5 49t-60 37t-74.5 30t-86.5 28l-21 6q-219 65 -337 173.5t-118 247.5q0 123 95 224q-95 101 -95 225q0 102 65.5 190t182 141.5t254.5 53.5q123 0 230.5 -39t181 -117t84.5 -182 l-320 -82q3 21 3 39q0 156 -179 156q-83 0 -132.5 -44t-49.5 -116q0 -70 52 -117.5t175 -83.5q167 -52 231 -80q292 -128 292 -356q0 -133 -77 -240q77 -90 77 -208q0 -87 -34.5 -165.5t-101 -142t-175.5 -101.5t-247 -38q-135 0 -244.5 32.5t-184.5 91t-124.5 131 t-78.5 161.5zM424 618q0 -70 52 -117t175 -83q145 -46 194 -65q9 35 9 77q0 36 -14.5 65t-38.5 49t-60 37t-74.5 30t-86.5 28l-21 6q-65 19 -120 42q-15 -33 -15 -69z" />
<glyph unicode="&#xa8;" horiz-adv-x="1138" d="M158 1176v254h315v-254h-315zM666 1176v254h315v-254h-315z" />
<glyph unicode="&#xa9;" horiz-adv-x="1654" d="M12 784q0 160 59 305.5t163.5 255.5t258.5 175t334 65t334 -65t258.5 -175t163.5 -255.5t59 -305.5q0 -159 -59 -303.5t-163.5 -252.5t-258.5 -172t-334 -64q-179 0 -333 64t-258.5 172t-164 252.5t-59.5 303.5zM295 784q0 -266 147 -431t385 -165t385.5 165t147.5 431 q0 269 -148 437t-385 168q-236 0 -384 -168t-148 -437zM415 793q0 189 124.5 299t318.5 110q147 0 247 -61t133 -164l-205 -96q0 70 -52.5 114.5t-122.5 44.5q-96 0 -159 -65t-63 -182q0 -104 55.5 -168.5t156.5 -64.5q91 0 137.5 42t70.5 126l206 -82q-104 -249 -414 -249 q-86 0 -163.5 26t-138 75t-96 125.5t-35.5 169.5z" />
<glyph unicode="&#xaa;" horiz-adv-x="763" d="M55 982q0 91 74 146.5t241 71.5q78 7 117 24.5t39 55.5q0 75 -88 75q-34 0 -58.5 -10.5t-34 -25.5t-16 -31.5t-4.5 -28t1 -14.5h-209q-6 21 -6 42q0 87 93 150t221 63q61 0 110 -11t81.5 -28t57 -42.5t37.5 -50.5t21 -56t10 -54.5t2 -51.5v-426h-216v81q-65 -99 -205 -99 q-132 0 -200 61t-68 159zM264 989q0 -37 27 -65.5t75 -28.5q69 0 116 51.5t47 157.5l-1 14q-67 -28 -144 -37q-120 -15 -120 -92z" />
<glyph unicode="&#xab;" horiz-adv-x="1079" d="M25 547l378 491l199 -131l-262 -360l262 -361l-196 -133zM492 546l344 447l181 -119l-238 -328l238 -327l-179 -121z" />
<glyph unicode="&#xac;" horiz-adv-x="1366" d="M45 510v240h1313v-656h-328v416h-985z" />
<glyph unicode="&#xad;" d="M59 414v237h940v-237h-940z" />
<glyph unicode="&#xae;" horiz-adv-x="1654" d="M12 784q0 160 59 305.5t163.5 255.5t258.5 175t334 65t334 -65t258.5 -175t163.5 -255.5t59 -305.5q0 -159 -59 -303.5t-163.5 -252.5t-258.5 -172t-334 -64q-179 0 -333 64t-258.5 172t-164 252.5t-59.5 303.5zM295 784q0 -266 147 -431t385 -165q135 0 243.5 55.5 t179.5 157.5h-194l-232 366q-2 0 -5 -0.5t-5 -0.5h-99v-365h-178v809h277q56 0 105.5 -12.5t91.5 -38t66.5 -69.5t24.5 -102q0 -120 -105 -179l256 -404q107 157 107 379q0 269 -148 437t-385 168q-236 0 -384 -168t-148 -437zM715 899h99q56 0 83 21t27 68t-27 68t-83 21 h-99v-178z" />
<glyph unicode="&#xaf;" d="M43 1294v254h1163v-254h-1163z" />
<glyph unicode="&#xb0;" d="M195 1319q0 145 117.5 256t281.5 111q163 0 280 -111t117 -256q0 -147 -117 -258t-280 -111q-165 0 -282 111t-117 258zM475 1319q0 -66 35.5 -108t83.5 -42q47 0 82 42t35 108q0 65 -35 106t-82 41q-48 0 -83.5 -41t-35.5 -106z" />
<glyph unicode="&#xb1;" d="M74 -2v240h1079v-240h-1079zM74 721v240h391v387h299v-387h389v-240h-389v-383h-299v383h-391z" />
<glyph unicode="&#xb2;" horiz-adv-x="968" d="M141 836l2 151q19 43 71 90t111 89.5t116 91t95 112t39 133.5q0 101 -51 101q-26 0 -36 -11.5t-10 -40.5q0 -18 3 -45l-303 -28q-9 30 -9 60q0 105 99.5 181t255.5 76q97 0 170 -26.5t113 -69.5t59 -90.5t19 -98.5q0 -34 -6.5 -67.5t-15 -60.5t-27.5 -57.5t-31.5 -50.5 t-40 -48t-41 -42t-45.5 -40.5t-43 -35t-44.5 -33.5t-39.5 -29h356v-211h-766z" />
<glyph unicode="&#xb3;" horiz-adv-x="800" d="M0 1135q0 12 2 36h309q-2 -34 -2 -45q0 -69 20.5 -95.5t61.5 -26.5q33 0 56.5 30.5t23.5 95.5q0 74 -18.5 109t-61.5 35q-54 0 -100 -41l-115 133l197 211h-328v192h719v-153l-201 -205q97 -35 157 -110t60 -171q0 -89 -56.5 -163t-145.5 -114t-187 -40q-108 0 -196 37.5 t-141.5 112t-53.5 172.5z" />
<glyph unicode="&#xb4;" d="M274 1210l437 408l157 -262l-352 -219z" />
<glyph unicode="&#xb6;" horiz-adv-x="1415" d="M129 1090q0 73 25.5 132.5t66.5 98t95.5 64.5t109.5 37.5t111 11.5h385v-1831h-277v1142h-98q-62 0 -119.5 11t-112.5 37.5t-96 65t-65.5 98t-24.5 133.5zM1028 -397v1831h279v-1831h-279z" />
<glyph unicode="&#xb7;" d="M432 459v303h365v-303h-365z" />
<glyph unicode="&#xb8;" d="M365 -244q22 -17 71.5 -33t100.5 -16q48 0 83 17.5t41 46.5q2 12 2 15q0 36 -36 36q-34 0 -52 -31h-186l96 211h129l-57 -82q40 25 96 25q72 0 121 -36.5t49 -104.5q0 -21 -4 -40q-11 -51 -43 -89t-75.5 -58t-87.5 -29.5t-89 -9.5q-107 0 -159 37v141z" />
<glyph unicode="&#xb9;" horiz-adv-x="651" d="M57 1468v203q61 -26 105 -26q72 0 82 61v38q-1 13 -6 28h315v-949h-309v645h-187z" />
<glyph unicode="&#xba;" horiz-adv-x="778" d="M58 1121q0 153 107.5 262.5t273.5 109.5t273.5 -109.5t107.5 -262.5q0 -151 -107.5 -258.5t-273.5 -107.5t-273.5 107.5t-107.5 258.5zM259 1121q0 -106 50 -161.5t130 -55.5t130 55.5t50 161.5q0 107 -50 163t-130 56t-130 -56t-50 -163z" />
<glyph unicode="&#xbb;" horiz-adv-x="1077" d="M60 219l238 327l-238 328l181 119l344 -447l-346 -448zM475 186l262 361l-262 360l199 131l379 -491l-381 -494z" />
<glyph unicode="&#xbc;" horiz-adv-x="1742" d="M55 4l1182 1532h334l-1184 -1532h-332zM57 1468v203q61 -26 105 -26q72 0 82 61v38q-1 13 -6 28h315v-949h-309v645h-187zM795 182l2 160l511 608h242v-569h140v-199h-140v-178h-309v178h-446zM1073 381h168v199z" />
<glyph unicode="&#xbd;" horiz-adv-x="1806" d="M55 4l1184 1532h332l-1182 -1532h-334zM57 1468v203q61 -26 105 -26q72 0 82 61v38q-1 13 -6 28h315v-949h-309v645h-187zM999 -2l2 152q19 43 71 90t111 89.5t116.5 91t95.5 112t39 133.5q0 100 -52 100q-26 0 -36 -11t-10 -40q0 -18 3 -45l-303 -29q-9 30 -9 60 q0 105 99.5 181t255.5 76q97 0 170 -26.5t113 -69.5t59 -90.5t19 -98.5q0 -34 -6.5 -67.5t-15 -60.5t-27.5 -57.5t-31.5 -50.5t-40 -48t-41 -42t-45.5 -40.5t-43 -35t-44.5 -33.5t-39.5 -29h356v-211h-766z" />
<glyph unicode="&#xbe;" horiz-adv-x="1742" d="M0 1135q0 12 2 36h309q-2 -34 -2 -45q0 -69 20.5 -95.5t61.5 -26.5q33 0 56.5 30.5t23.5 95.5q0 74 -18.5 109t-61.5 35q-54 0 -100 -41l-115 133l197 211h-328v192h719v-153l-201 -205q97 -35 157 -110t60 -171q0 -89 -56.5 -163t-145.5 -114t-187 -40q-108 0 -196 37.5 t-141.5 112t-53.5 172.5zM55 4l1182 1532h332l-1182 -1532h-332zM795 182l2 160l511 608h242v-569h140v-199h-140v-178h-309v178h-446zM1073 381h168v199z" />
<glyph unicode="&#xbf;" horiz-adv-x="1026" d="M18 -98q0 54 22.5 100t55 76t81.5 58t87.5 43t88 33.5t69.5 27.5q37 16 60.5 46.5t23.5 69.5q0 80 -51 80q-20 0 -36.5 -20t-16.5 -60q0 -21 6 -49l-285 90q38 122 126.5 187t215.5 65q87 0 166 -33t132.5 -101.5t53.5 -158.5q0 -38 -12 -73t-28.5 -61t-45.5 -52 t-51.5 -42t-58 -35t-53 -27t-48.5 -21q-25 -10 -59 -23t-51 -20t-39 -16.5t-32.5 -17t-21 -17t-14.5 -20.5t-4 -25q0 -58 44.5 -92.5t121.5 -34.5q103 0 160.5 76.5t60.5 199.5l260 -192q-24 -89 -97.5 -159t-174 -107t-209.5 -37q-107 0 -194.5 30t-141 79t-82.5 109 t-29 124zM281 731v303h364v-303h-364z" />
<glyph unicode="&#xc0;" horiz-adv-x="1665" d="M82 0l582 1434h337l582 -1434h-332l-148 362h-541l-148 -362h-332zM565 1737l158 262l436 -408l-242 -73zM655 590h354l-177 432z" />
<glyph unicode="&#xc1;" horiz-adv-x="1665" d="M82 0l582 1434h337l582 -1434h-332l-148 362h-541l-148 -362h-332zM565 1591l436 408l158 -262l-352 -219zM655 590h354l-177 432z" />
<glyph unicode="&#xc2;" horiz-adv-x="1665" d="M82 0l582 1434h337l582 -1434h-332l-148 362h-541l-148 -362h-332zM326 1608l406 357l30 30l2 -2l2 2l30 -30l406 -357l-250 -78l-188 177l-189 -177zM655 590h354l-177 432z" />
<glyph unicode="&#xc3;" horiz-adv-x="1665" d="M82 0l582 1434h337l582 -1434h-332l-148 362h-541l-148 -362h-332zM366 1755q0 75 50 125.5t145 50.5q61 0 106 -18.5t117 -69.5q15 -11 44.5 -38t52 -41.5t43.5 -14.5q18 0 18 29q0 33 -29.5 76t-89.5 77h232q92 -53 92 -157q0 -76 -54.5 -133.5t-146.5 -57.5 q-101 0 -188 66q-29 20 -67.5 53t-61.5 48t-45 15q-19 0 -19 -29q0 -33 29.5 -76t89.5 -77h-244q-74 74 -74 172zM655 590h354l-177 432z" />
<glyph unicode="&#xc4;" horiz-adv-x="1665" d="M82 0l582 1434h337l582 -1434h-332l-148 362h-541l-148 -362h-332zM454 1559v253h316v-253h-316zM655 590h354l-177 432zM962 1559v253h316v-253h-316z" />
<glyph unicode="&#xc5;" horiz-adv-x="1665" d="M82 0l582 1434h337l582 -1434h-332l-148 362h-541l-148 -362h-332zM469 1778q0 118 87.5 205.5t205.5 87.5t205.5 -87.5t87.5 -205.5t-87.5 -205.5t-205.5 -87.5t-205.5 87.5t-87.5 205.5zM653 1778q0 -46 31.5 -77.5t77.5 -31.5t77 31.5t31 77.5t-31 77t-77 31 t-77.5 -31t-31.5 -77zM655 590h354l-177 432z" />
<glyph unicode="&#xc6;" horiz-adv-x="2191" d="M16 0l815 1434h1332v-254h-850v-320h829v-254h-829v-352h870v-254h-1186v358h-424l-202 -358h-355zM702 586h295v521z" />
<glyph unicode="&#xc7;" horiz-adv-x="1525" d="M102 713q0 145 54 278t149.5 233.5t236.5 160t306 59.5q210 0 379.5 -91t257.5 -237l-277 -139q-123 231 -360 231q-177 0 -293.5 -138t-116.5 -357q0 -216 115.5 -352t294.5 -136q232 0 354 219l279 -135q-86 -142 -255 -230.5t-378 -88.5h-7l-48 -70q40 25 96 25 q72 0 121 -36.5t49 -104.5q0 -21 -4 -40q-11 -51 -43 -89t-75.5 -58t-87.5 -29.5t-89 -9.5q-108 0 -160 37v141q22 -17 71.5 -33t100.5 -16q48 0 83.5 17.5t41.5 46.5q2 12 2 15q0 36 -37 36q-33 0 -51 -31h-186l95 208q-276 43 -447 246t-171 468z" />
<glyph unicode="&#xc8;" horiz-adv-x="1370" d="M102 0v1434h1166v-254h-850v-320h829v-254h-829v-352h870v-254h-1186zM383 1737l158 262l436 -408l-242 -73z" />
<glyph unicode="&#xc9;" horiz-adv-x="1370" d="M102 0v1434h1166v-254h-850v-320h829v-254h-829v-352h870v-254h-1186zM383 1591l436 408l158 -262l-352 -219z" />
<glyph unicode="&#xca;" horiz-adv-x="1370" d="M102 0v1434h1166v-254h-850v-320h829v-254h-829v-352h870v-254h-1186zM213 1608l406 357l30 30l2 -2l2 2l30 -30l407 -357l-250 -78l-189 177l-188 -177z" />
<glyph unicode="&#xcb;" horiz-adv-x="1370" d="M102 0v1434h1166v-254h-850v-320h829v-254h-829v-352h870v-254h-1186zM272 1559v253h316v-253h-316zM780 1559v253h316v-253h-316z" />
<glyph unicode="&#xcc;" horiz-adv-x="602" d="M0 1737l158 262l436 -408l-242 -73zM143 0v1434h316v-1434h-316z" />
<glyph unicode="&#xcd;" horiz-adv-x="602" d="M0 1591l436 408l158 -262l-352 -219zM143 0v1434h316v-1434h-316z" />
<glyph unicode="&#xce;" horiz-adv-x="602" d="M-223 1608l406 357l30 30l2 -2l2 2l30 -30l406 -357l-250 -78l-188 177l-188 -177zM143 0v1434h316v-1434h-316z" />
<glyph unicode="&#xcf;" horiz-adv-x="602" d="M-111 1559v253h316v-253h-316zM143 0v1434h316v-1434h-316zM397 1559v253h316v-253h-316z" />
<glyph unicode="&#xd0;" horiz-adv-x="1650" d="M121 512v238h260v684h430q134 0 252.5 -25t221.5 -80.5t176.5 -138t116 -202.5t42.5 -269q0 -182 -57.5 -321t-162 -225t-245 -129.5t-313.5 -43.5h-461v512h-260zM696 236h146q234 0 343 110.5t109 372.5q0 133 -34 227t-99.5 148.5t-151 79t-198.5 24.5h-115v-448h365 v-238h-365v-276z" />
<glyph unicode="&#xd1;" horiz-adv-x="1390" d="M102 0v1434h316l555 -877v877h315v-1434h-311l-559 893v-893h-316zM256 1755q0 75 50 125.5t145 50.5q61 0 106 -18.5t117 -69.5q16 -11 45 -38t51 -41.5t43 -14.5q18 0 18 29q0 33 -29 76t-89 77h231q46 -26 69.5 -67.5t23.5 -89.5q0 -76 -54.5 -133.5t-146.5 -57.5 q-102 0 -189 66q-29 20 -67.5 53t-61.5 48t-45 15q-19 0 -19 -29q0 -33 29.5 -76t89.5 -77h-243q-74 74 -74 172z" />
<glyph unicode="&#xd2;" horiz-adv-x="1695" d="M102 713q0 145 54 278t149.5 233.5t236.5 160t306 59.5t306 -59.5t236.5 -160t149 -233.5t53.5 -278q0 -144 -53.5 -275.5t-149 -230.5t-236.5 -158t-306 -59q-164 0 -305 59t-237 158t-150 230.5t-54 275.5zM418 713q0 -218 119 -353t311 -135t311 135t119 353 q0 221 -119 358t-311 137q-191 0 -310.5 -137t-119.5 -358zM547 1737l158 262l436 -408l-242 -73z" />
<glyph unicode="&#xd3;" horiz-adv-x="1695" d="M102 713q0 145 54 278t149.5 233.5t236.5 160t306 59.5t306 -59.5t236.5 -160t149 -233.5t53.5 -278q0 -144 -53.5 -275.5t-149 -230.5t-236.5 -158t-306 -59q-164 0 -305 59t-237 158t-150 230.5t-54 275.5zM418 713q0 -218 119 -353t311 -135t311 135t119 353 q0 221 -119 358t-311 137q-191 0 -310.5 -137t-119.5 -358zM547 1591l436 408l158 -262l-353 -219z" />
<glyph unicode="&#xd4;" horiz-adv-x="1695" d="M102 713q0 145 54 278t149.5 233.5t236.5 160t306 59.5t306 -59.5t236.5 -160t149 -233.5t53.5 -278q0 -144 -53.5 -275.5t-149 -230.5t-236.5 -158t-306 -59q-164 0 -305 59t-237 158t-150 230.5t-54 275.5zM340 1608l406 357l30 30l2 -2l2 2l30 -30l407 -357l-250 -78 l-189 177l-188 -177zM418 713q0 -218 119 -353t311 -135t311 135t119 353q0 221 -119 358t-311 137q-191 0 -310.5 -137t-119.5 -358z" />
<glyph unicode="&#xd5;" horiz-adv-x="1695" d="M102 713q0 145 54 278t149.5 233.5t236.5 160t306 59.5t306 -59.5t236.5 -160t149 -233.5t53.5 -278q0 -144 -53.5 -275.5t-149 -230.5t-236.5 -158t-306 -59q-164 0 -305 59t-237 158t-150 230.5t-54 275.5zM381 1755q0 75 49.5 125.5t144.5 50.5q61 0 106.5 -19 t117.5 -69q16 -11 45 -38t51 -41.5t43 -14.5q18 0 18 29q0 33 -29 76t-89 77h231q46 -26 69.5 -67.5t23.5 -89.5q0 -76 -54.5 -133.5t-146.5 -57.5q-102 0 -189 66q-29 20 -67.5 53t-61.5 48t-45 15q-19 0 -19 -29q0 -33 29.5 -76t89.5 -77h-243q-74 74 -74 172zM418 713 q0 -218 119 -353t311 -135t311 135t119 353q0 221 -119 358t-311 137q-191 0 -310.5 -137t-119.5 -358z" />
<glyph unicode="&#xd6;" horiz-adv-x="1695" d="M102 713q0 145 54 278t149.5 233.5t236.5 160t306 59.5t306 -59.5t236.5 -160t149 -233.5t53.5 -278q0 -144 -53.5 -275.5t-149 -230.5t-236.5 -158t-306 -59q-164 0 -305 59t-237 158t-150 230.5t-54 275.5zM418 713q0 -218 119 -353t311 -135t311 135t119 353 q0 221 -119 358t-311 137q-191 0 -310.5 -137t-119.5 -358zM436 1559v253h316v-253h-316zM944 1559v253h316v-253h-316z" />
<glyph unicode="&#xd7;" d="M29 995l188 193l419 -419l419 419l184 -193l-415 -414l417 -417l-192 -187l-415 414l-419 -420l-184 193l415 415z" />
<glyph unicode="&#xd8;" horiz-adv-x="1695" d="M102 713q0 145 54 278t149.5 233.5t236.5 160t306 59.5q37 0 73 -3l44 146h245l-59 -201q204 -85 323 -268t119 -405q0 -144 -53.5 -275.5t-149 -230.5t-236.5 -158t-306 -59q-61 0 -110 7l-38 -128h-245l57 193q-190 89 -300 265t-110 386zM418 713q0 -130 44 -233 t124 -167l266 895h-4q-191 0 -310.5 -137t-119.5 -358zM807 227q26 -2 41 -2q192 0 311 135t119 353q0 144 -53 255.5t-147 173.5z" />
<glyph unicode="&#xd9;" horiz-adv-x="1273" d="M68 467l2 967h313v-967q0 -140 66 -201t188 -61t188 61t66 201v967h313l2 -967q0 -158 -75.5 -271t-202 -167t-291.5 -54t-291.5 54t-202 167t-75.5 271zM336 1737l158 262l436 -408l-242 -73z" />
<glyph unicode="&#xda;" horiz-adv-x="1273" d="M68 467l2 967h313v-967q0 -140 66 -201t188 -61t188 61t66 201v967h313l2 -967q0 -158 -75.5 -271t-202 -167t-291.5 -54t-291.5 54t-202 167t-75.5 271zM336 1591l436 408l158 -262l-352 -219z" />
<glyph unicode="&#xdb;" horiz-adv-x="1273" d="M68 467l2 967h313v-967q0 -140 66 -201t188 -61t188 61t66 201v967h313l2 -967q0 -158 -75.5 -271t-202 -167t-291.5 -54t-291.5 54t-202 167t-75.5 271zM201 1608l406 357l30 30l2 -2l2 2l30 -30l406 -357l-250 -78l-188 177l-188 -177z" />
<glyph unicode="&#xdc;" horiz-adv-x="1273" d="M68 467l2 967h313v-967q0 -140 66 -201t188 -61t188 61t66 201v967h313l2 -967q0 -158 -75.5 -271t-202 -167t-291.5 -54t-291.5 54t-202 167t-75.5 271zM225 1559v253h316v-253h-316zM733 1559v253h316v-253h-316z" />
<glyph unicode="&#xdd;" horiz-adv-x="1439" d="M41 1434h324l355 -572l355 572h324l-522 -806v-628h-316v629zM420 1591l436 408l158 -262l-352 -219z" />
<glyph unicode="&#xde;" horiz-adv-x="1087" d="M66 0v1434h315v-205h221q66 0 131 -13.5t129 -45t112.5 -78t78.5 -117.5t30 -158q0 -89 -29 -161.5t-76.5 -120t-112 -80t-133.5 -46.5t-142 -14h-209v-395h-315zM381 633h209q89 0 133.5 43.5t44.5 140.5q0 95 -43 135.5t-129 40.5h-215v-360z" />
<glyph unicode="&#xdf;" horiz-adv-x="1220" d="M63 8v1065q0 95 37 165.5t102 110t143.5 58t172.5 18.5q91 0 170 -18.5t146.5 -57.5t107 -108.5t39.5 -163.5q0 -118 -66 -205q141 -52 217 -155.5t76 -251.5q0 -146 -77.5 -251t-206 -155.5t-293.5 -50.5q-117 0 -199 45v242q30 -20 83.5 -37.5t96.5 -17.5q143 0 213 52 t70 173q0 127 -72 191.5t-200 64.5h-185v194h74q158 0 158 144q0 69 -37 102t-115 33q-143 0 -143 -135v-1051h-312z" />
<glyph unicode="&#xe0;" horiz-adv-x="1163" d="M61 293q0 132 107.5 212.5t349.5 102.5q113 11 169.5 36.5t56.5 80.5q0 109 -128 109q-41 0 -72 -11t-48 -27t-27 -37t-13 -37t-3 -31t1 -17h-302q-9 30 -9 60q0 126 134.5 217t320.5 91q88 0 159 -15.5t118.5 -40.5t82.5 -62t54.5 -73t31 -81t14.5 -79.5t3 -74.5v-616 h-313v118q-96 -145 -297 -145q-191 0 -290.5 89.5t-99.5 230.5zM227 1358l158 262l436 -408l-241 -73zM365 303q0 -55 38.5 -96t108.5 -41q47 0 87.5 17t74.5 51.5t54 95t20 139.5v20q-90 -39 -209 -53q-78 -10 -126 -42.5t-48 -90.5z" />
<glyph unicode="&#xe1;" horiz-adv-x="1163" d="M61 293q0 132 107.5 212.5t349.5 102.5q113 11 169.5 36.5t56.5 80.5q0 109 -128 109q-41 0 -72 -11t-48 -27t-27 -37t-13 -37t-3 -31t1 -17h-302q-9 30 -9 60q0 126 134.5 217t320.5 91q88 0 159 -15.5t118.5 -40.5t82.5 -62t54.5 -73t31 -81t14.5 -79.5t3 -74.5v-616 h-313v118q-96 -145 -297 -145q-191 0 -290.5 89.5t-99.5 230.5zM227 1212l437 408l157 -262l-352 -219zM365 303q0 -55 38.5 -96t108.5 -41q47 0 87.5 17t74.5 51.5t54 95t20 139.5v20q-90 -39 -209 -53q-78 -10 -126 -42.5t-48 -90.5z" />
<glyph unicode="&#xe2;" horiz-adv-x="1163" d="M61 293q0 132 107.5 212.5t349.5 102.5q113 11 169.5 36.5t56.5 80.5q0 109 -128 109q-41 0 -72 -11t-48 -27t-27 -37t-13 -37t-3 -31t1 -17h-302q-9 30 -9 60q0 126 134.5 217t320.5 91q88 0 159 -15.5t118.5 -40.5t82.5 -62t54.5 -73t31 -81t14.5 -79.5t3 -74.5v-616 h-313v118q-96 -145 -297 -145q-191 0 -290.5 89.5t-99.5 230.5zM92 1229l407 357l29 30l2 -2l2 2l30 -30l407 -357l-250 -78l-189 177l-188 -177zM365 303q0 -55 38.5 -96t108.5 -41q47 0 87.5 17t74.5 51.5t54 95t20 139.5v20q-90 -39 -209 -53q-78 -10 -126 -42.5 t-48 -90.5z" />
<glyph unicode="&#xe3;" horiz-adv-x="1163" d="M61 293q0 132 107.5 212.5t349.5 102.5q113 11 169.5 36.5t56.5 80.5q0 109 -128 109q-41 0 -72 -11t-48 -27t-27 -37t-13 -37t-3 -31t1 -17h-302q-9 30 -9 60q0 126 134.5 217t320.5 91q88 0 159 -15.5t118.5 -40.5t82.5 -62t54.5 -73t31 -81t14.5 -79.5t3 -74.5v-616 h-313v118q-96 -145 -297 -145q-191 0 -290.5 89.5t-99.5 230.5zM176 1364q0 75 50 125.5t145 50.5q61 0 106 -18.5t117 -69.5q16 -11 45 -38t51 -41.5t43 -14.5q18 0 18 29q0 33 -29 76t-89 77h231q46 -26 69.5 -67.5t23.5 -89.5q0 -76 -54.5 -133.5t-146.5 -57.5 q-103 0 -189 65q-29 20 -67 53t-61.5 48.5t-45.5 15.5q-19 0 -19 -29q0 -32 30 -75.5t90 -77.5h-244q-74 74 -74 172zM365 303q0 -55 38.5 -96t108.5 -41q47 0 87.5 17t74.5 51.5t54 95t20 139.5v20q-90 -39 -209 -53q-78 -10 -126 -42.5t-48 -90.5z" />
<glyph unicode="&#xe4;" horiz-adv-x="1163" d="M61 293q0 132 107.5 212.5t349.5 102.5q113 11 169.5 36.5t56.5 80.5q0 109 -128 109q-41 0 -72 -11t-48 -27t-27 -37t-13 -37t-3 -31t1 -17h-302q-9 30 -9 60q0 126 134.5 217t320.5 91q88 0 159 -15.5t118.5 -40.5t82.5 -62t54.5 -73t31 -81t14.5 -79.5t3 -74.5v-616 h-313v118q-96 -145 -297 -145q-191 0 -290.5 89.5t-99.5 230.5zM182 1178v254h316v-254h-316zM365 303q0 -55 38.5 -96t108.5 -41q47 0 87.5 17t74.5 51.5t54 95t20 139.5v20q-90 -39 -209 -53q-78 -10 -126 -42.5t-48 -90.5zM690 1178v254h316v-254h-316z" />
<glyph unicode="&#xe5;" horiz-adv-x="1163" d="M61 293q0 132 107.5 212.5t349.5 102.5q113 11 169.5 36.5t56.5 80.5q0 109 -128 109q-41 0 -72 -11t-48 -27t-27 -37t-13 -37t-3 -31t1 -17h-302q-9 30 -9 60q0 126 134.5 217t320.5 91q88 0 159 -15.5t118.5 -40.5t82.5 -62t54.5 -73t31 -81t14.5 -79.5t3 -74.5v-616 h-313v118q-96 -145 -297 -145q-191 0 -290.5 89.5t-99.5 230.5zM236 1399q0 119 87 206t205 87t205.5 -87t87.5 -206t-87.5 -206t-205.5 -87t-205 87t-87 206zM365 303q0 -55 38.5 -96t108.5 -41q47 0 87.5 17t74.5 51.5t54 95t20 139.5v20q-90 -39 -209 -53 q-78 -10 -126 -42.5t-48 -90.5zM420 1399q0 -46 31 -77.5t77 -31.5t77.5 31.5t31.5 77.5t-31.5 77t-77.5 31t-77 -31t-31 -77z" />
<glyph unicode="&#xe6;" horiz-adv-x="1859" d="M61 293q0 132 107.5 212.5t349.5 102.5q113 11 169.5 36.5t56.5 80.5q0 109 -128 109q-41 0 -72 -11t-48 -27t-27 -37t-13 -37t-3 -31t1 -17h-302q-9 30 -9 60q0 126 134.5 217t320.5 91q228 0 343 -100q141 105 345 105q241 0 381 -121.5t140 -330.5q0 -69 -19 -154 h-727v-58q50 -188 266 -188q178 0 240 186l253 -120q-52 -137 -193 -211t-320 -74q-162 0 -285.5 58.5t-193.5 171.5q-37 -107 -132.5 -170t-244.5 -63q-191 0 -290.5 89.5t-99.5 230.5zM365 303q0 -55 38.5 -96t108.5 -41q47 0 87.5 17t74.5 51.5t54 95t20 139.5v20 q-90 -39 -209 -53q-78 -10 -126 -42.5t-48 -90.5zM1061 630h430q3 19 3 38q0 76 -53 119.5t-146 43.5q-76 0 -141.5 -49.5t-92.5 -143.5v-8z" />
<glyph unicode="&#xe7;" horiz-adv-x="1226" d="M61 502q0 126 45 229.5t124 172.5t187 106t234 37q196 0 329 -81.5t177 -217.5l-272 -128q0 94 -70.5 152.5t-163.5 58.5q-128 0 -211.5 -86.5t-83.5 -242.5q0 -139 74 -224t209 -85q121 0 183.5 55.5t93.5 166.5l274 -109q-138 -328 -544 -331l-46 -65q14 8 42 16t54 8 q72 0 121 -36.5t49 -104.5q0 -20 -4 -39q-11 -51 -43 -89t-75.5 -58t-87.5 -29.5t-89 -9.5q-107 0 -159 37v141q22 -17 71.5 -33t100.5 -16q48 0 83.5 17t41.5 46q1 6 1 16q0 36 -36 36q-34 0 -52 -31h-186l93 203q-96 16 -179.5 57t-147.5 105t-100.5 155.5t-36.5 200.5z " />
<glyph unicode="&#xe8;" horiz-adv-x="1175" d="M63 522q0 240 149 382.5t390 142.5t380.5 -121.5t139.5 -330.5q0 -73 -18 -154h-738q14 -119 80 -182.5t197 -63.5q178 0 240 186l252 -120q-52 -137 -192.5 -211t-319.5 -74q-255 0 -407.5 141t-152.5 405zM270 1329l158 262l436 -407l-241 -74zM374 630h433q3 19 3 38 q0 76 -53 119.5t-147 43.5q-78 0 -144 -51.5t-92 -149.5z" />
<glyph unicode="&#xe9;" horiz-adv-x="1175" d="M63 522q0 240 149 382.5t390 142.5t380.5 -121.5t139.5 -330.5q0 -73 -18 -154h-738q14 -119 80 -182.5t197 -63.5q178 0 240 186l252 -120q-52 -137 -192.5 -211t-319.5 -74q-255 0 -407.5 141t-152.5 405zM270 1184l437 407l157 -262l-352 -219zM374 630h433q3 19 3 38 q0 76 -53 119.5t-147 43.5q-78 0 -144 -51.5t-92 -149.5z" />
<glyph unicode="&#xea;" horiz-adv-x="1175" d="M63 522q0 240 149 382.5t390 142.5t380.5 -121.5t139.5 -330.5q0 -73 -18 -154h-738q14 -119 80 -182.5t197 -63.5q178 0 240 186l252 -120q-52 -137 -192.5 -211t-319.5 -74q-255 0 -407.5 141t-152.5 405zM135 1200l407 357l29 30l2 -2l2 2l30 -30l407 -357l-250 -78 l-189 177l-188 -177zM374 630h433q3 19 3 38q0 76 -53 119.5t-147 43.5q-78 0 -144 -51.5t-92 -149.5z" />
<glyph unicode="&#xeb;" horiz-adv-x="1175" d="M63 522q0 240 149 382.5t390 142.5t380.5 -121.5t139.5 -330.5q0 -73 -18 -154h-738q14 -119 80 -182.5t197 -63.5q178 0 240 186l252 -120q-52 -137 -192.5 -211t-319.5 -74q-255 0 -407.5 141t-152.5 405zM160 1151v254h315v-254h-315zM374 630h433q3 19 3 38 q0 76 -53 119.5t-147 43.5q-78 0 -144 -51.5t-92 -149.5zM668 1151v254h315v-254h-315z" />
<glyph unicode="&#xec;" horiz-adv-x="507" d="M-47 1329l158 262l436 -407l-242 -74zM98 0v1024h312v-1024h-312z" />
<glyph unicode="&#xed;" horiz-adv-x="507" d="M-47 1184l436 407l158 -262l-352 -219zM98 0v1024h312v-1024h-312z" />
<glyph unicode="&#xee;" horiz-adv-x="507" d="M-182 1200l406 357l30 30l2 -2l2 2l30 -30l406 -357l-250 -78l-188 177l-188 -177zM98 0v1024h312v-1024h-312z" />
<glyph unicode="&#xef;" horiz-adv-x="507" d="M-158 1151v254h316v-254h-316zM98 0v1024h312v-1024h-312zM350 1151v254h316v-254h-316z" />
<glyph unicode="&#xf0;" horiz-adv-x="1173" d="M51 539q0 201 131.5 348.5t352.5 171.5q18 2 55 2q79 0 153 -22q-90 131 -242 212l-161 -139l-129 150l80 69q-78 20 -174 31v237q210 -13 393 -78l168 146l129 -151l-99 -86q214 -125 332.5 -322t118.5 -440q0 -120 -22 -215q-14 -77 -51 -151t-95.5 -140t-146.5 -110.5 t-193 -55.5q-40 -4 -65 -4q-215 0 -362 138.5t-169 344.5q-4 40 -4 64zM367 547q0 -145 65.5 -235.5t161.5 -90.5h20q84 7 146 63t82 150l6 45q2 22 2 35q0 86 -25 151t-65 100t-82 51.5t-83 16.5q-100 0 -164 -79.5t-64 -206.5z" />
<glyph unicode="&#xf1;" horiz-adv-x="1269" d="M92 0v1024h311v-108q108 122 296 122q110 0 194.5 -26.5t135 -69t83 -101.5t44 -116.5t11.5 -122.5v-602h-318v602q0 108 -39.5 161.5t-133.5 53.5q-50 0 -97 -18.5t-87 -56t-64.5 -102.5t-24.5 -150v-490h-311zM178 1386q0 75 50 126t145 51q61 0 106 -18.5t117 -69.5 q16 -11 44.5 -38t51 -42t43.5 -15q18 0 18 29q0 33 -29 76.5t-89 77.5h231q46 -26 69.5 -68t23.5 -90q0 -76 -54.5 -133.5t-146.5 -57.5q-102 0 -189 66q-29 20 -67 53t-61.5 48.5t-45.5 15.5q-19 0 -19 -29q0 -33 30 -76.5t90 -77.5h-244q-74 74 -74 172z" />
<glyph unicode="&#xf2;" horiz-adv-x="1196" d="M66 506q0 144 68.5 266.5t196 197t287.5 74.5q120 0 224.5 -44t176 -117.5t112 -171.5t40.5 -205q0 -106 -40.5 -203t-112 -169.5t-176 -115.5t-224.5 -43t-224.5 43t-175.5 115.5t-111.5 169.5t-40.5 203zM323 1348l157 262l437 -408l-242 -74zM357 506 q0 -154 72.5 -235t188.5 -81t189 81t73 235q0 155 -73 236t-189 81t-188.5 -81t-72.5 -236z" />
<glyph unicode="&#xf3;" horiz-adv-x="1196" d="M66 506q0 144 68.5 266.5t196 197t287.5 74.5q120 0 224.5 -44t176 -117.5t112 -171.5t40.5 -205q0 -106 -40.5 -203t-112 -169.5t-176 -115.5t-224.5 -43t-224.5 43t-175.5 115.5t-111.5 169.5t-40.5 203zM323 1202l436 408l158 -262l-353 -220zM357 506 q0 -154 72.5 -235t188.5 -81t189 81t73 235q0 155 -73 236t-189 81t-188.5 -81t-72.5 -236z" />
<glyph unicode="&#xf4;" horiz-adv-x="1196" d="M66 506q0 144 68.5 266.5t196 197t287.5 74.5q120 0 224.5 -44t176 -117.5t112 -171.5t40.5 -205q0 -106 -40.5 -203t-112 -169.5t-176 -115.5t-224.5 -43t-224.5 43t-175.5 115.5t-111.5 169.5t-40.5 203zM111 1200l406 357l30 30l2 -2l2 2l30 -30l406 -357l-250 -78 l-188 177l-189 -177zM357 506q0 -154 72.5 -235t188.5 -81t189 81t73 235q0 155 -73 236t-189 81t-188.5 -81t-72.5 -236z" />
<glyph unicode="&#xf5;" horiz-adv-x="1196" d="M66 506q0 144 68.5 266.5t196 197t287.5 74.5q120 0 224.5 -44t176 -117.5t112 -171.5t40.5 -205q0 -106 -40.5 -203t-112 -169.5t-176 -115.5t-224.5 -43t-224.5 43t-175.5 115.5t-111.5 169.5t-40.5 203zM151 1347q0 75 50 126t145 51q61 0 106 -18.5t117 -69.5 q16 -11 45 -38t51.5 -42t43.5 -15q18 0 18 29q0 33 -29.5 76.5t-89.5 77.5h232q92 -53 92 -158q0 -76 -54.5 -133t-146.5 -57q-102 0 -188 65q-29 20 -67 53t-61.5 48.5t-45.5 15.5q-19 0 -19 -29q0 -33 29.5 -76t89.5 -77h-244q-74 74 -74 171zM357 506q0 -154 72.5 -235 t188.5 -81t189 81t73 235q0 155 -73 236t-189 81t-188.5 -81t-72.5 -236z" />
<glyph unicode="&#xf6;" horiz-adv-x="1196" d="M66 506q0 144 68.5 266.5t196 197t287.5 74.5q120 0 224.5 -44t176 -117.5t112 -171.5t40.5 -205q0 -106 -40.5 -203t-112 -169.5t-176 -115.5t-224.5 -43t-224.5 43t-175.5 115.5t-111.5 169.5t-40.5 203zM212 1169v254h315v-254h-315zM357 506q0 -154 72.5 -235 t188.5 -81t189 81t73 235q0 155 -73 236t-189 81t-188.5 -81t-72.5 -236zM720 1169v254h315v-254h-315z" />
<glyph unicode="&#xf7;" d="M70 414v237h1079v-237h-1079zM425 -2v305h367v-305h-367zM426 815v303h365v-303h-365z" />
<glyph unicode="&#xf8;" horiz-adv-x="1196" d="M66 506q0 144 68.5 266.5t196 197t287.5 74.5h27l107 359h245l-123 -416q138 -68 217.5 -197.5t79.5 -283.5q0 -106 -40.5 -203t-112 -169.5t-176 -115.5t-224.5 -43q-14 0 -44 2l-87 -292h-245l105 355q-131 68 -206 193t-75 273zM357 506q0 -138 63 -222l159 537 q-100 -13 -161 -93.5t-61 -221.5zM638 191q108 7 175 87.5t67 227.5q0 158 -77 241z" />
<glyph unicode="&#xf9;" horiz-adv-x="1230" d="M92 422v602h311v-602q0 -107 39 -161t131 -54q237 0 244 310v507h311v-1024h-311v104q-92 -118 -266 -118q-108 0 -190.5 26.5t-132.5 69t-81.5 101.5t-43 116.5t-11.5 122.5zM309 1327l158 262l436 -407l-241 -74z" />
<glyph unicode="&#xfa;" horiz-adv-x="1230" d="M92 422v602h311v-602q0 -107 39 -161t131 -54q237 0 244 310v507h311v-1024h-311v104q-92 -118 -266 -118q-108 0 -190.5 26.5t-132.5 69t-81.5 101.5t-43 116.5t-11.5 122.5zM309 1182l436 407l158 -262l-352 -219z" />
<glyph unicode="&#xfb;" horiz-adv-x="1230" d="M92 422v602h311v-602q0 -107 39 -161t131 -54q237 0 244 310v507h311v-1024h-311v104q-92 -118 -266 -118q-108 0 -190.5 26.5t-132.5 69t-81.5 101.5t-43 116.5t-11.5 122.5zM133 1198l407 357l29 30l2 -2l2 2l30 -30l407 -357l-250 -78l-189 177l-188 -177z" />
<glyph unicode="&#xfc;" horiz-adv-x="1230" d="M92 422v602h311v-602q0 -107 39 -161t131 -54q237 0 244 310v507h311v-1024h-311v104q-92 -118 -266 -118q-108 0 -190.5 26.5t-132.5 69t-81.5 101.5t-43 116.5t-11.5 122.5zM199 1149v254h315v-254h-315zM707 1149v254h315v-254h-315z" />
<glyph unicode="&#xfd;" horiz-adv-x="1183" d="M31 1024h342l249 -519l212 519h319l-584 -1434h-321l222 544zM287 1176l436 407l158 -262l-353 -219z" />
<glyph unicode="&#xfe;" horiz-adv-x="1153" d="M51 -391l2 1950h312v-572q101 60 237 60q159 0 284 -73.5t191 -195.5t66 -268q0 -145 -66.5 -265t-191 -192.5t-283.5 -72.5q-138 0 -237 59v-430h-314zM344 510q0 -144 73.5 -224.5t184.5 -80.5q98 0 162.5 85.5t64.5 219.5q0 137 -64.5 223t-162.5 86 q-111 0 -184.5 -81.5t-73.5 -227.5z" />
<glyph unicode="&#xff;" horiz-adv-x="1183" d="M31 1024h342l249 -519l212 519h319l-584 -1434h-321l222 544zM176 1143v254h316v-254h-316zM684 1143v254h315v-254h-315z" />
<glyph unicode="&#x152;" horiz-adv-x="2369" d="M41 713q0 145 53.5 278t149 233.5t236.5 160t306 59.5q210 0 390 -99v89h1165v-254h-850v-320h829v-254h-829v-352h870v-254h-1185v87q-176 -97 -390 -97q-163 0 -304 59t-236.5 158t-150 230.5t-54.5 275.5zM356 713q0 -218 119 -353t311 -135q135 0 237.5 70t152.5 193 v453q-50 125 -152.5 196t-237.5 71q-191 0 -310.5 -137t-119.5 -358z" />
<glyph unicode="&#x153;" horiz-adv-x="1986" d="M66 506q0 144 68.5 266.5t196 197t287.5 74.5q234 0 392 -153q150 156 403 156q241 0 380.5 -121.5t139.5 -330.5q0 -73 -18 -154h-738q14 -119 80 -182.5t197 -63.5q178 0 240 186l252 -120q-52 -137 -192.5 -211t-319.5 -74q-272 0 -420 153q-159 -154 -396 -154 q-120 0 -224.5 43t-175.5 115.5t-111.5 169.5t-40.5 203zM357 506q0 -154 72.5 -235t188.5 -81q106 0 176.5 67.5t82.5 197.5q-3 33 -3 67q0 16 2 46q-14 125 -84.5 190t-173.5 65q-116 0 -188.5 -81t-72.5 -236zM1185 630h433q3 19 3 38q0 76 -53 119.5t-147 43.5 q-78 0 -144 -51.5t-92 -149.5z" />
<glyph unicode="&#x178;" horiz-adv-x="1439" d="M41 1434h324l355 -572l355 572h324l-522 -806v-628h-316v629zM309 1559v253h316v-253h-316zM817 1559v253h316v-253h-316z" />
<glyph unicode="&#x2c6;" d="M154 1227l406 357l30 30l2 -2l2 2l30 -30l406 -357l-250 -78l-188 177l-189 -177z" />
<glyph unicode="&#x2dc;" d="M233 1362q0 75 50 125.5t145 50.5q61 0 106 -18.5t117 -69.5q15 -11 44.5 -38t52 -41.5t43.5 -14.5q18 0 18 29q0 33 -29.5 76t-89.5 77h232q92 -53 92 -157q0 -76 -54.5 -133.5t-146.5 -57.5q-102 0 -188 65q-29 20 -67 53t-61.5 48.5t-45.5 15.5q-20 0 -20 -29 q0 -32 30 -75.5t90 -77.5h-244q-74 74 -74 172z" />
<glyph unicode="&#x2000;" horiz-adv-x="1035" />
<glyph unicode="&#x2001;" horiz-adv-x="2071" />
<glyph unicode="&#x2002;" horiz-adv-x="1035" />
<glyph unicode="&#x2003;" horiz-adv-x="2071" />
<glyph unicode="&#x2004;" horiz-adv-x="690" />
<glyph unicode="&#x2005;" horiz-adv-x="517" />
<glyph unicode="&#x2006;" horiz-adv-x="345" />
<glyph unicode="&#x2007;" horiz-adv-x="345" />
<glyph unicode="&#x2008;" horiz-adv-x="258" />
<glyph unicode="&#x2009;" horiz-adv-x="414" />
<glyph unicode="&#x200a;" horiz-adv-x="115" />
<glyph unicode="&#x2010;" horiz-adv-x="1058" d="M59 414v237h940v-237h-940z" />
<glyph unicode="&#x2011;" horiz-adv-x="1058" d="M59 414v237h940v-237h-940z" />
<glyph unicode="&#x2012;" horiz-adv-x="1058" d="M59 414v237h940v-237h-940z" />
<glyph unicode="&#x2013;" d="M127 516v238h973v-238h-973z" />
<glyph unicode="&#x2014;" d="M-6 516v238h1239v-238h-1239z" />
<glyph unicode="&#x2018;" horiz-adv-x="634" d="M135 995v303h127q0 74 -18 124t-74 71v152q80 -9 142 -41.5t96 -72t56 -87.5t29 -83t7 -63v-303h-365z" />
<glyph unicode="&#x2019;" horiz-adv-x="634" d="M135 1354v303h365v-303q0 -28 -7 -63t-29 -82.5t-56 -87t-96 -72t-142 -41.5v151q56 21 74 71t18 124h-127z" />
<glyph unicode="&#x201a;" d="M135 0v303h365v-303q0 -28 -7 -63t-29 -82.5t-56 -87t-96 -72t-142 -41.5v151q56 21 74 71t18 124h-127z" />
<glyph unicode="&#x201c;" horiz-adv-x="1122" d="M135 991v303q0 28 7 63t29 82.5t56 87t96 72t142 41.5v-151q-56 -21 -74 -71t-18 -124h127v-303h-365zM623 991v303q0 28 7 63t28.5 82.5t55.5 87t96 72t142 41.5v-151q-56 -21 -74 -71t-18 -124h127v-303h-364z" />
<glyph unicode="&#x201d;" horiz-adv-x="1122" d="M135 1329v303h365v-303q0 -28 -7 -63t-29 -82.5t-56 -87t-96 -72t-142 -41.5v152q30 11 49.5 31.5t28 49t11.5 53.5t3 60h-127zM623 1329v303h364v-303q0 -28 -7 -63t-29 -82.5t-56 -87t-96 -72t-142 -41.5v152q30 11 49.5 31.5t28.5 49t12 54t3 59.5h-127z" />
<glyph unicode="&#x201e;" d="M135 0v303h365v-303q0 -28 -7 -63t-29 -82.5t-56 -87t-96 -72t-142 -41.5v151q56 21 74 71t18 124h-127zM674 0v303h364v-303q0 -28 -7 -63t-28.5 -82.5t-55.5 -87t-96 -72t-142 -41.5v151q56 21 74 71t18 124h-127z" />
<glyph unicode="&#x2022;" d="M174 604q0 106 58.5 200.5t160.5 152t221 57.5t221.5 -57.5t161 -152t58.5 -200.5q0 -163 -130 -286t-311 -123q-119 0 -221 57t-160.5 151.5t-58.5 200.5z" />
<glyph unicode="&#x2026;" horiz-adv-x="1581" d="M94 0v303h365v-303h-365zM616 0v303h365v-303h-365zM1122 0v303h365v-303h-365z" />
<glyph unicode="&#x202f;" horiz-adv-x="414" />
<glyph unicode="&#x2039;" horiz-adv-x="710" d="M-6 547l379 491l198 -131l-262 -360l262 -361l-196 -133z" />
<glyph unicode="&#x203a;" horiz-adv-x="720" d="M139 186l262 361l-262 360l199 131l379 -491l-381 -494z" />
<glyph unicode="&#x205f;" horiz-adv-x="517" />
<glyph unicode="&#x20ac;" horiz-adv-x="1605" d="M45 440v191h232q-5 45 -5 82q0 4 0.5 12t0.5 12h-228v191h258q68 227 259 371.5t456 144.5q210 0 379.5 -91t257.5 -237l-277 -139q-123 231 -360 231q-128 0 -227.5 -75t-146.5 -205h505v-191h-540q0 -4 -0.5 -12t-0.5 -12q0 -39 5 -82h536v-191h-478 q54 -101 144.5 -158t202.5 -57q232 0 354 219l279 -135q-86 -142 -255 -230.5t-378 -88.5q-245 0 -428.5 124.5t-264.5 325.5h-280z" />
<glyph unicode="&#x2122;" horiz-adv-x="1798" d="M133 1262h209v-471h170v471h209v168h-588v-168zM829 791v639l226 2l192 -447l191 447l223 -2v-639h-168v335l-147 -335h-199l-150 339v-339h-168z" />
<glyph unicode="&#x25fc;" horiz-adv-x="1024" d="M0 0v1024h1024v-1024h-1024z" />
</font>
</defs>
</svg>
